<?xml version="1.0" encoding="utf-8"?>
<!-- Generator: Adobe Illustrator 22.0.1, SVG Export Plug-In . SVG Version: 6.00 Build 0)  -->
<svg version="1.1" id="Layer_1" xmlns="http://www.w3.org/2000/svg" xmlns:xlink="http://www.w3.org/1999/xlink" x="0px" y="0px"
	 viewBox="0 0 1119 639" style="enable-background:new 0 0 1119 639;" xml:space="preserve">
<style type="text/css">
	.st0{fill:#0E7178;}
	.st1{font-family:'HalloSans';}
	.st2{font-size:81.6383px;}
	.st3{fill:#6BA643;}
	.st4{fill:#FFFFFF;}
</style>
<text transform="matrix(1 0 0 1 194.7501 501.7241)"><tspan x="0" y="0" class="st0 st1 st2">Applying the Principles of</tspan><tspan x="-144.2" y="98" class="st0 st1 st2">Integrative and Functional Medicine</tspan></text>
<g>
	<path class="st3" d="M686.8,84.4c-32.6-32.6-77.6-52.7-127.3-52.7c-49.7,0-94.7,20.1-127.3,52.7c-32.6,32.6-52.7,77.6-52.7,127.3
		c0,49.7,20.1,94.7,52.7,127.3c32.6,32.6,77.6,52.7,127.3,52.7c49.7,0,94.7-20.1,127.3-52.7c32.6-32.6,52.7-77.6,52.7-127.3
		C739.5,161.9,719.4,116.9,686.8,84.4z"/>
	<path class="st4" d="M682.8,88.3c-31.5-31.6-75.2-51.1-123.3-51.1c-48.1,0-91.7,19.5-123.3,51.1c-31.6,31.5-51.1,75.2-51.1,123.3
		c0,48.1,19.5,91.7,51.1,123.3c31.5,31.6,75.2,51.1,123.3,51.1c48.1,0,91.7-19.5,123.3-51.1c31.6-31.5,51.1-75.2,51.1-123.3
		C733.9,163.5,714.4,119.9,682.8,88.3z M680.5,332.7c-31,31-73.8,50.1-121,50.1c-47.3,0-90.1-19.2-121-50.1
		c-31-31-50.1-73.8-50.1-121c0-47.3,19.2-90.1,50.1-121c31-31,73.8-50.1,121-50.1c47.3,0,90.1,19.2,121,50.1
		c31,31,50.1,73.8,50.1,121C730.7,258.9,711.5,301.7,680.5,332.7z"/>
	<polygon class="st4" points="422.8,282.5 425.1,282.5 445,282.5 445,156.8 422.8,156.8 	"/>
	<polygon class="st4" points="548.2,163.2 548.2,163.2 548.2,163.2 	"/>
	<path class="st4" d="M588.3,160.1c-5.6-4.4-11.8-6-17.1-6c-4.9,0-9.1,0.8-12.9,2.4c-3.8,1.6-7.1,3.9-10.1,6.8
		c-3.3,3.1-6.4,7.1-9.1,12.1c-2.2-5.4-5.4-10.2-9.3-13.8c-5-4.6-11.4-7.4-18.6-7.4c-4.3,0-8.1,0.7-11.6,2c-5.2,1.9-9.4,5.1-12.8,8.9
		c-1.8,2-3.3,4.1-4.7,6.3l-0.6-14.5h-20l0.1,2.4c0.6,9.9,0.8,20.2,0.8,32.6v90.6h21.8v-75.4c0-3.6,0.4-7.1,1.3-10.1l0-0.1l0-0.1
		c1.3-5.2,3.9-10.4,7.3-14.2c1.7-1.9,3.6-3.4,5.7-4.5c2.1-1.1,4.2-1.6,6.6-1.6c3,0,5.4,0.8,7.6,2.1c1.6,1,3.1,2.4,4.3,4.2
		c1.9,2.7,3.4,6.2,4.5,10.4c1,4.2,1.5,9,1.5,14.3v74.9h21.8v-77.1c0-3.8,0.6-7.6,1.3-10.4c1.4-5,4-9.7,7.2-13c1.6-1.7,3.4-3,5.3-3.9
		c1.9-0.9,3.9-1.4,6.1-1.4c3.2,0,5.8,0.8,8.1,2.2c1.7,1.1,3.2,2.6,4.5,4.5c2,2.9,3.5,6.7,4.6,11.5c1,4.8,1.6,10.4,1.6,16.8v70.8
		h21.8v-73.6c0-10.7-1.2-19.4-3.3-26.6C599,171.6,594,164.5,588.3,160.1z"/>
	<path class="st4" d="M692.2,255.7l-2.8,1.5c-2.5,1.4-5.2,2.8-8.5,3.9c-3.3,1.1-7.2,1.9-12,1.9c-4.5,0-8.6-1-12.3-2.9
		c-5.6-2.8-10.3-7.7-13.7-14.5c-3.4-6.8-5.3-15.4-5.3-25.6c0-12.3,2.9-23.3,8.4-31.1c2.7-3.9,6-7,9.9-9.1c3.9-2.1,8.4-3.3,13.6-3.3
		c9.2,0,15.3,2.6,19.1,5.3l2.8,2l5.2-21.9l-1.4-0.9c-2.6-1.6-6.3-3.3-10.7-4.5c-4.4-1.2-9.5-2.1-14.9-2.1c-8.2,0-15.8,1.8-22.5,5
		c-10,4.9-18,13.2-23.5,23.8c-5.4,10.6-8.4,23.5-8.4,37.8c0,18.9,4.8,34.9,13.6,46.2c4.4,5.7,9.8,10.2,16,13.2
		c6.2,3.1,13.2,4.7,20.9,4.7c6.7,0,12.8-1,17.7-2.5c5-1.4,8.8-3.2,11.4-4.9l1.3-0.8l-0.3-1.5L692.2,255.7z"/>
	<path class="st4" d="M446.7,119.3c-0.1-0.8-0.3-1.6-0.4-2.4c0-0.1-0.1-0.3-0.2-0.3c-0.1,0-0.2,0.1-0.3,0.2l-0.2,0.3
		c-0.2,0.2-0.4,0.4-0.6,0.5c-0.7,0.5-1.4,1-2.1,1.3c-1.3,0.6-2.7,1.2-4,1.8c-1.8,0.8-3.7,1.6-5.4,2.7c-1,0.6-2,1.4-2.8,2.3
		c-0.9,1-1.5,2.2-1.9,3.5c-0.4,1.1-0.6,2.2-0.6,3.4c0,1.2,0,2.3,0.3,3.4c0.2,0.8,0.4,1.6,0.6,2.3c0.1,0.3,0.2,0.7,0.3,1
		c0,0.1,0.1,0.2,0.2,0.2c0.1,0,0.1-0.2,0.1-0.3c0-0.4,0-0.8-0.1-1.2c0-1.1,0-2.2,0.2-3.3c0.2-1.3,0.5-2.5,1.1-3.6
		c0.7-1.4,1.6-2.6,2.8-3.5c1-0.8,2.2-1.3,3.4-1.7c1.4-0.5,2.9-0.8,4.4-0.9l-0.3,0.1c-1.3,0.4-2.5,0.9-3.6,1.6
		c-1.4,0.9-2.6,2-3.5,3.4c-0.3,0.5-0.6,1.1-0.9,1.6c-0.6,1.1-0.9,2.3-1,3.6c-0.1,0.8-0.1,1.6,0,2.4c0.1,0.9,0.3,1.7,0.6,2.5
		c0,0.1,0.1,0.2,0.2,0.3c0.3,0.3,0.7,0.3,1,0.3c0.7,0,1.5-0.1,2.2-0.2c1.8-0.2,3.6-0.7,5.2-1.7c1.4-0.8,2.5-1.9,3.5-3.2
		c0.8-1.2,1.4-2.6,1.8-4.1c0.5-1.7,0.7-3.5,0.7-5.3c0-1,0-2-0.1-3.1C447,121.9,446.8,120.6,446.7,119.3z"/>
	<path class="st4" d="M428,139.1l0.3,0.1l0-0.3c-0.2-0.6-0.3-1.2-0.5-1.8c-0.1-0.2-0.1-0.3-0.2-0.5c-0.1-0.3-0.3-0.5-0.5-0.8
		c-0.8-1.5-1.2-3-1.3-4.7c0-1.7,0.3-3.3,0.9-4.9c0.7-1.7,1.6-3.3,2.7-4.8l0.1-0.2l-0.1,0.3c-0.5,1-1,2-1.3,3.1
		c-0.4,1.3-0.7,2.6-0.7,4c0,0.1,0,0.2,0,0.3l0.1-0.1l0.1-0.1c0.4-1.2,1.1-2.3,1.9-3.2c1.3-1.5,2.8-2.6,4.4-3.5
		c0.8-0.4,1.7-0.8,2.6-1.3c0.3-0.2,0.4-0.3,0.2-0.6c-0.8-1.3-1.7-2.5-2.8-3.6c-0.7-0.7-1.3-1.3-2-2c-1.2-1.1-2.5-2.1-3.8-3.1
		l-0.2-0.2c-0.2-0.1-0.3,0-0.4,0.2l0,0.2c0,0.5,0,1-0.1,1.5c-0.2,0.8-0.4,1.6-0.6,2.4c-0.3,1-0.8,2.1-1.1,3.1
		c-0.6,1.4-1.1,2.9-1.7,4.3c-0.5,1.5-1,3-1.2,4.5c-0.2,1.3-0.2,2.5,0,3.8c0.3,2,1.2,3.8,2.5,5.3C426,137.6,426.9,138.4,428,139.1z"
		/>
	<path class="st4" d="M467.6,327v-0.6c0.2-0.1,0.4-0.2,0.7-0.4c0.1-0.1,0.2-0.2,0.2-0.2c0,0,0-0.1,0-0.1c0-0.2,0.1-0.9,0.1-2
		s0-2.5,0-4.1c0-2.4,0-3.8,0-4.4c0-1.4-0.1-2.2-0.1-2.4c0-0.1-0.1-0.2-0.1-0.2c-0.1-0.1-0.6-0.2-1.4-0.2v-1c0.8,0,1.6,0.1,2.6,0.1
		c1.1,0,2.1,0,3.1-0.1v1c-0.7,0-1.1,0.1-1.2,0.2c-0.1,0-0.1,0.1-0.1,0.2c0,0.1-0.1,0.6-0.1,1.4c0,0.8,0,1.9,0,3.1c0,0.1,0,1.2,0,3.2
		c0,1.1,0,2.1,0,3.2c0,1,0,1.7,0,1.9c0.8,0,1.4,0.1,1.7,0.1c0.9,0,1.7-0.1,2.4-0.2c0.2,0,0.4-0.1,0.4-0.1c0-0.1,0.1-0.2,0.2-0.4
		c0.1-0.6,0.2-1.2,0.3-1.9h0.7c0,0.2,0,0.3,0,0.4l-0.2,2.3c0,0.7-0.1,1.1-0.1,1.3c-0.2,0.1-0.3,0.1-0.5,0.1c-0.4,0-0.9,0.1-1.7,0.1
		c-0.1,0-0.8,0-2.1-0.1c-1,0-1.7,0-2.1,0C469.7,326.9,468.8,326.9,467.6,327z"/>
	<path class="st4" d="M467.6,327h0.2v-0.6h-0.2l0.1,0.1c0.2-0.1,0.4-0.2,0.7-0.4l-0.1-0.1l0.1,0.1c0.1-0.1,0.2-0.2,0.3-0.3l-0.1-0.1
		l0.1,0.1c0-0.1,0.1-0.1,0.1-0.2l-0.2,0l0.2,0c0-0.1,0-0.3,0-0.7c0-0.3,0-0.8,0-1.4c0-1.1,0-2.5,0-4.1c0-2.4,0-3.8,0-4.4
		c0-0.7,0-1.3,0-1.7c0-0.2,0-0.4,0-0.5c0-0.1,0-0.2,0-0.3c0-0.1-0.1-0.2-0.2-0.3l-0.1,0.1l0.1-0.1c-0.1,0-0.1-0.1-0.2-0.1
		c-0.3-0.1-0.7-0.1-1.2-0.2l0,0.2h0.2v-1H467l0,0.2c0.8,0,1.6,0.1,2.6,0.1c1.1,0,2.1,0,3.1-0.1l0-0.2h-0.2v1h0.2l0-0.2
		c-0.3,0-0.6,0-0.8,0.1c-0.2,0-0.4,0.1-0.5,0.1l0,0v0c-0.1,0.1-0.2,0.2-0.2,0.3c0,0,0,0.1,0,0.2c0,0.2,0,0.6-0.1,1.3
		c0,0.8,0,1.9,0,3.1c0,0.1,0,1.2,0,3.2c0,1.1,0,2.1,0,3.2c0,1,0,1.7,0,1.9l0,0.1l0.1,0c0.8,0,1.4,0.1,1.7,0.1c0.9,0,1.7-0.1,2.4-0.2
		l0-0.2l0,0.2c0.1,0,0.2,0,0.3-0.1c0.1,0,0.2-0.1,0.2-0.1c0.1-0.1,0.1-0.1,0.1-0.2c0-0.1,0.1-0.2,0.1-0.3l0,0l0,0
		c0.1-0.6,0.2-1.2,0.4-2l-0.2,0v0.2h0.7v-0.2l-0.2,0c0,0.2,0,0.3,0,0.4h0.2l-0.2,0l-0.2,2.3l0,0c0,0.7-0.1,1.1-0.1,1.3l0.2,0
		l-0.1-0.2c-0.2,0.1-0.3,0.1-0.5,0.1l0,0.2l0-0.2c-0.4,0-0.9,0.1-1.7,0.1c-0.1,0-0.8,0-2.1-0.1c-1,0-1.7,0-2.1,0
		c-0.6,0-1.5,0-2.7,0.1L467.6,327h0.2H467.6l0,0.2c1.2-0.1,2.1-0.1,2.7-0.1c0.4,0,1.1,0,2.1,0c1.3,0,2,0.1,2.1,0.1
		c0.8,0,1.3,0,1.7-0.1l0,0h0c0.2,0,0.4-0.1,0.6-0.1l0.1,0l0-0.1c0-0.1,0-0.6,0.1-1.3l-0.2,0l0.2,0l0.2-2.3v0c0,0,0-0.1,0-0.4l0-0.2
		h-1.1l0,0.1c-0.1,0.7-0.2,1.4-0.3,1.9l0.2,0l-0.2,0c0,0.1-0.1,0.2-0.1,0.3c0,0,0,0.1,0,0.1l0,0l0,0l0,0l0,0h0l0,0l0,0l0,0l0,0l0,0
		l0,0l0,0l0,0c0,0-0.2,0.1-0.3,0.1l0,0h0c-0.7,0.1-1.4,0.2-2.3,0.2c-0.3,0-0.9,0-1.7-0.1l0,0.2l0.2,0c0-0.2,0-0.9,0-1.9
		c0-1,0-2.1,0-3.2c0-2,0-3.1,0-3.2c0-1.3,0-2.3,0-3.1c0-0.4,0-0.7,0-1c0-0.1,0-0.2,0-0.3c0-0.1,0-0.1,0-0.1c0-0.1,0.1-0.1,0.1-0.1
		l-0.1-0.1l0.1,0.1c0,0,0.2-0.1,0.4-0.1c0.2,0,0.5-0.1,0.8-0.1l0.2,0v-1.3l-0.2,0c-1,0-2,0.1-3.1,0.1c-1,0-1.8,0-2.6-0.1l-0.2,0v1.3
		l0.2,0c0.4,0,0.7,0,0.9,0.1c0.1,0,0.2,0,0.3,0.1c0.1,0,0.1,0,0.1,0l0,0l0,0c0,0,0.1,0,0.1,0.1c0,0,0,0.1,0,0.2
		c0,0.4,0.1,1.1,0.1,2.1c0,0.5,0,2,0,4.4c0,1.6,0,3,0,4.1c0,0.6,0,1,0,1.4c0,0.3,0,0.5,0,0.6l0,0l0,0.1l0,0l0,0c0,0-0.1,0.1-0.2,0.2
		l0,0l0,0c-0.3,0.2-0.5,0.3-0.6,0.4l-0.1,0v0.8l0.2,0L467.6,327z"/>
	<path class="st4" d="M478.7,327v-0.8c0.7-0.1,1.1-0.1,1.1-0.2c0.1-0.1,0.2-0.2,0.2-0.4c0.1-0.4,0.1-1.5,0.1-3.2c0-2.3,0-3.7-0.1-4
		c0-0.1-0.1-0.2-0.1-0.3c-0.1-0.1-0.5-0.1-1.2-0.2v-0.9c0.9-0.1,1.6-0.2,2-0.4c0.5-0.1,1-0.3,1.5-0.6l0.2,0.1
		c-0.1,1.2-0.1,2.3-0.1,3.3v3.8c0,1.3,0,2.1,0.1,2.3c0,0.1,0.1,0.2,0.1,0.3c0.2,0.1,0.6,0.2,1.2,0.2v0.9c-0.8,0-1.8,0-2.8,0
		C480.1,326.9,479.4,327,478.7,327z M481.2,310.8c0.4,0,0.7,0.2,1,0.5s0.4,0.7,0.4,1.2c0,0.5-0.1,0.9-0.4,1.2s-0.6,0.5-1,0.5
		c-0.4,0-0.7-0.2-1-0.5s-0.4-0.7-0.4-1.2c0-0.5,0.1-0.9,0.4-1.2C480.4,310.9,480.8,310.8,481.2,310.8z"/>
	<path class="st4" d="M478.7,327h0.2v-0.8h-0.2l0,0.2c0.3,0,0.6-0.1,0.8-0.1c0.1,0,0.2,0,0.3-0.1c0.1,0,0.1,0,0.2-0.1
		c0.1-0.1,0.2-0.3,0.2-0.5l-0.2,0l0.2,0c0.1-0.4,0.1-1.5,0.1-3.2c0-1.2,0-2.1,0-2.8c0-0.3,0-0.6,0-0.8c0-0.2,0-0.4,0-0.4v0
		c0-0.1,0-0.2-0.1-0.2c0-0.1-0.1-0.1-0.1-0.2l0,0l0,0c-0.1,0-0.1-0.1-0.2-0.1c-0.2-0.1-0.6-0.1-1.1-0.1l0,0.2h0.2v-0.9h-0.2l0,0.2
		c0.9-0.1,1.6-0.2,2.1-0.4c0.5-0.1,1-0.3,1.5-0.6l-0.1-0.1l-0.1,0.1l0.2,0.1l0.1-0.1l-0.2,0c-0.1,1.2-0.1,2.3-0.1,3.3v3.8
		c0,0.7,0,1.2,0,1.6c0,0.4,0,0.6,0.1,0.8l0.2,0l-0.2,0c0,0.1,0,0.2,0.1,0.2c0,0.1,0.1,0.1,0.1,0.2l0,0c0.1,0.1,0.3,0.1,0.5,0.1
		c0.2,0,0.5,0.1,0.8,0.1l0-0.2h-0.2v0.9h0.2l0-0.2c-0.9,0-1.8,0-2.8,0c-0.9,0-1.6,0-2.3,0L478.7,327h0.2H478.7l0,0.2
		c0.7,0,1.4,0,2.3,0c1,0,1.9,0,2.8,0l0.2,0V326l-0.2,0c-0.3,0-0.6,0-0.7-0.1c-0.2,0-0.3-0.1-0.4-0.1l-0.1,0.1l0.1-0.1l0,0
		c0,0,0-0.1,0-0.1l0,0v0c0-0.1,0-0.3-0.1-0.7c0-0.4,0-0.9,0-1.5v-3.8c0-1,0-2.1,0.1-3.3l0-0.1l-0.4-0.2l-0.1,0
		c-0.5,0.3-1,0.5-1.5,0.6c-0.4,0.1-1.1,0.3-2,0.4l-0.1,0v1.2l0.2,0c0.3,0,0.6,0,0.8,0c0.1,0,0.2,0,0.2,0c0.1,0,0.1,0,0.1,0l0.1-0.1
		l-0.1,0.1l0,0c0,0,0,0.1,0.1,0.2v0c0,0.1,0,0.2,0,0.4c0,0.6,0,1.8,0,3.5c0,1.7,0,2.8-0.1,3.1v0l0,0c0,0.2-0.1,0.3-0.1,0.3l0,0l0,0
		l0,0l0,0l0,0c0,0,0,0-0.1,0c-0.2,0-0.5,0.1-1,0.1l-0.1,0v1.1l0.2,0L478.7,327z M481.2,310.8v0.2c0.3,0,0.6,0.1,0.8,0.4
		c0.2,0.3,0.4,0.7,0.4,1.1c0,0.4-0.1,0.8-0.4,1.1c-0.2,0.3-0.5,0.4-0.8,0.4c-0.3,0-0.6-0.1-0.8-0.4c-0.2-0.3-0.4-0.7-0.4-1.1
		c0-0.4,0.1-0.8,0.4-1.1c0.2-0.3,0.5-0.4,0.8-0.4V310.8v-0.2c-0.4,0-0.8,0.2-1.1,0.6c-0.3,0.4-0.4,0.8-0.4,1.3c0,0.5,0.1,1,0.4,1.3
		c0.3,0.4,0.7,0.6,1.1,0.6c0.4,0,0.8-0.2,1.1-0.6c0.3-0.4,0.4-0.8,0.4-1.3c0-0.5-0.1-0.9-0.4-1.3c-0.3-0.4-0.7-0.6-1.1-0.6V310.8z"
		/>
	<path class="st4" d="M485.3,327v-0.9c0.7-0.1,1.1-0.1,1.3-0.2c0.1-0.1,0.2-0.2,0.2-0.4c0-0.4,0.1-1.6,0.1-3.7v-3.4l-0.3,0l-1.2,0.1
		v-0.5c0.8-0.5,1.2-0.8,1.2-0.8c0.1-0.1,0.1-0.2,0.1-0.3c0-0.4,0-0.8,0-1.3s0.1-0.9,0.1-1.1c0.1-0.2,0.1-0.4,0.3-0.6
		c0.2-0.3,0.6-0.9,1.3-1.6l1.1-1.2c0.2-0.2,0.4-0.3,0.6-0.4c0.2-0.1,0.5-0.2,0.8-0.2c0.3,0,0.6,0.1,0.9,0.2
		c-0.1,0.8-0.1,1.6-0.1,2.2l-0.4,0.2c-0.2-0.2-0.3-0.4-0.5-0.4c-0.2-0.1-0.4-0.1-0.6-0.1c-0.3,0-0.6,0.1-0.8,0.2
		c-0.1,0.1-0.2,0.3-0.3,0.5c-0.1,0.3-0.1,1-0.1,2.2v1.6l1.1,0c0.5,0,1,0,1.3-0.1l0.1,0.1c0,0.1-0.1,0.3-0.1,0.4l-0.1,1l-0.9,0
		c-0.3,0-0.4,0-0.4,0c-0.1,0-0.4,0-0.9,0v3.6c0,0.8,0,1.6,0,2.3c0,0.7,0,1.2,0.1,1.3c0,0.1,0.1,0.2,0.1,0.3c0.1,0.1,0.2,0.1,0.3,0.1
		c0,0,0.4,0,1.2,0.1v0.9l-3.1-0.1C487.4,326.9,486.6,326.9,485.3,327z"/>
	<path class="st4" d="M485.3,327h0.2v-0.9h-0.2l0,0.2c0.4,0,0.6-0.1,0.9-0.1c0.1,0,0.2,0,0.3-0.1c0.1,0,0.1-0.1,0.2-0.1l0,0
		c0.2-0.1,0.2-0.3,0.2-0.6l-0.2,0l0.2,0c0-0.2,0-0.6,0.1-1.2c0-0.6,0-1.4,0-2.4v0v-3.5l-0.4,0l-1.1,0.1v-0.4h-0.2l0.1,0.1
		c0.4-0.3,0.7-0.5,0.9-0.6c0.1-0.1,0.2-0.1,0.2-0.2c0,0,0.1,0,0.1,0l0,0l0,0l-0.1-0.1l0.1,0.1c0.1-0.1,0.2-0.2,0.2-0.4
		c0-0.3,0-0.8,0-1.3c0-0.5,0.1-0.9,0.1-1.1c0-0.2,0.1-0.4,0.2-0.6l0,0c0.2-0.3,0.6-0.8,1.3-1.6l1.1-1.2l-0.1-0.1l0.1,0.1
		c0.2-0.2,0.3-0.3,0.6-0.4c0.2-0.1,0.4-0.1,0.7-0.1c0.3,0,0.6,0.1,0.9,0.2l0.1-0.1l-0.2,0c-0.1,0.7-0.1,1.4-0.1,2c0,0.1,0,0.2,0,0.2
		l0.2,0l-0.1-0.1l-0.4,0.2l0.1,0.1l0.1-0.1c-0.2-0.2-0.4-0.4-0.6-0.5c-0.2-0.1-0.4-0.1-0.7-0.1c-0.4,0-0.7,0.1-0.9,0.3l0,0
		c-0.2,0.1-0.3,0.3-0.3,0.6c0,0.2-0.1,0.4-0.1,0.8c0,0.4,0,0.9,0,1.5v1.7l1.2,0h0c0.5,0,1,0,1.3-0.1l0-0.2l-0.1,0.1l0.1,0.1l0.1-0.1
		l-0.2,0c0,0.1-0.1,0.3-0.1,0.4l0.2,0l-0.2,0l-0.1,0.9l-0.8,0l0,0.2l0-0.2c-0.3,0-0.4,0-0.5,0c-0.1,0-0.4,0-0.9,0l-0.2,0v3.7
		c0,0.8,0,1.6,0,2.3c0,0.4,0,0.7,0,0.9c0,0.2,0,0.4,0,0.5l0,0l0,0c0,0.1,0.1,0.2,0.2,0.3c0.1,0.1,0.2,0.2,0.4,0.2l0,0l0,0
		c0.1,0,0.5,0.1,1.2,0.1l0-0.2h-0.2v0.7l-2.9-0.1h0c-0.4,0-1.2,0-2.4,0.1L485.3,327h0.2H485.3l0,0.2c1.2,0,2.1-0.1,2.4-0.1v-0.2
		l0,0.2l3.2,0.1V326l-0.1,0c-0.4,0-0.7-0.1-0.9-0.1c-0.1,0-0.2,0-0.2,0l-0.1,0l0,0h0h0c-0.1,0-0.2-0.1-0.2-0.1c0,0-0.1-0.1-0.1-0.2
		l-0.2,0l0.2,0c0-0.1,0-0.2,0-0.4c0-0.2,0-0.5,0-0.9c0-0.7,0-1.5,0-2.3v-3.6H489l0,0.2c0.5,0,0.8,0,0.9,0c0,0,0.2,0,0.4,0l0,0l1.1,0
		l0.2-1.1l0,0c0-0.1,0-0.3,0.1-0.4l0-0.1l-0.2-0.2l-0.1-0.1l-0.1,0c-0.4,0-0.8,0.1-1.3,0.1l0,0.2l0-0.2l-0.9,0v-1.4
		c0-0.6,0-1.1,0-1.4c0-0.4,0-0.6,0.1-0.8c0-0.2,0.1-0.3,0.2-0.4l-0.1-0.1l0.1,0.1c0.2-0.1,0.4-0.2,0.7-0.2c0.2,0,0.4,0,0.5,0.1
		c0.1,0.1,0.3,0.2,0.5,0.4l0.1,0.1l0.6-0.3l0-0.1c0-0.1,0-0.2,0-0.2c0-0.6,0-1.3,0.1-2l0-0.1l-0.1,0c-0.3-0.1-0.7-0.2-1-0.2
		c-0.3,0-0.6,0.1-0.8,0.2c-0.2,0.1-0.5,0.3-0.6,0.5l0,0l-1.1,1.2l0.1,0.1l-0.1-0.1c-0.7,0.7-1.1,1.3-1.3,1.6l0,0
		c-0.1,0.2-0.2,0.4-0.3,0.7c-0.1,0.2-0.1,0.6-0.1,1.1c0,0.5,0,1,0,1.3c0,0.1,0,0.1-0.1,0.1l0,0l0,0l0.1,0.1l-0.1-0.1l0,0l0.1,0.1
		l-0.1-0.1c0,0,0,0-0.1,0.1c-0.2,0.1-0.5,0.4-1.1,0.7l-0.1,0v0.8l1.4-0.1l0.1,0v3.2v0c0,1,0,1.8,0,2.4c0,0.6,0,1-0.1,1.2l0,0v0
		c0,0.2-0.1,0.3-0.1,0.3l0,0c0,0,0,0-0.1,0c-0.2,0.1-0.5,0.1-1.1,0.2l-0.1,0v1.2l0.2,0L485.3,327z"/>
	<path class="st4" d="M500.6,325.3l-0.4,1.1c-0.5,0.4-1,0.6-1.5,0.8c-0.4,0.1-0.8,0.2-1.3,0.2c-0.6,0-1.1-0.1-1.6-0.3
		c-0.5-0.2-0.8-0.4-1.2-0.7c-0.3-0.3-0.6-0.7-0.8-1.1c-0.2-0.4-0.4-0.9-0.5-1.5c-0.1-0.6-0.2-1.2-0.2-1.9c0-1,0.1-1.9,0.3-2.6
		c0.1-0.5,0.3-0.9,0.5-1.2c0.1-0.1,0.4-0.4,0.9-0.8c0.5-0.4,0.9-0.7,1.1-0.8c0.4-0.2,0.9-0.3,1.5-0.3c0.8,0,1.5,0.2,2,0.6
		c0.5,0.4,0.9,1,1.1,1.6c0.2,0.6,0.3,1.4,0.3,2.4c0,0.2,0,0.4,0,0.6c-0.1,0.1-0.4,0.1-0.7,0.2c-0.4,0.1-0.7,0.1-0.8,0.2
		c-0.4,0-1,0.1-1.8,0.1c-0.7,0-1.1,0-1.2,0c-0.1,0-0.2,0-0.3,0h-0.6c0,1.2,0.3,2.1,0.9,2.8c0.5,0.7,1.2,1,2,1c0.3,0,0.7,0,0.9-0.1
		c0.3-0.1,0.7-0.3,1.1-0.6L500.6,325.3z M498.5,320.6c0-1.2-0.1-2-0.4-2.5c-0.3-0.5-0.7-0.7-1.1-0.7c-0.5,0-0.9,0.2-1.2,0.7
		c-0.3,0.5-0.5,1.3-0.4,2.5c0.4,0.1,0.9,0.1,1.8,0.1C497.7,320.7,498.1,320.7,498.5,320.6z"/>
	<path class="st4" d="M500.6,325.3l-0.2-0.1l-0.4,1.1l0.2,0.1l-0.1-0.1c-0.5,0.4-1,0.6-1.5,0.8l0.1,0.2l0-0.2
		c-0.4,0.1-0.8,0.2-1.3,0.2c-0.6,0-1.1-0.1-1.5-0.2c-0.4-0.2-0.8-0.4-1.1-0.7c-0.3-0.3-0.6-0.6-0.8-1.1c-0.2-0.4-0.4-0.9-0.5-1.5
		c-0.1-0.6-0.2-1.2-0.2-1.8c0-1,0.1-1.8,0.3-2.6l0,0c0.1-0.5,0.3-0.9,0.5-1.1c0-0.1,0.2-0.2,0.3-0.3c0.2-0.1,0.4-0.3,0.6-0.5
		c0.5-0.4,0.9-0.7,1.1-0.8l0,0c0.4-0.2,0.9-0.3,1.4-0.3c0.8,0,1.4,0.2,1.9,0.6c0.5,0.4,0.8,0.9,1,1.5c0.2,0.6,0.3,1.4,0.3,2.3
		c0,0.2,0,0.4,0,0.6l0.2,0l-0.1-0.1c-0.1,0.1-0.4,0.1-0.7,0.2c-0.4,0.1-0.7,0.1-0.8,0.2h0l0,0c-0.4,0-1,0.1-1.8,0.1
		c-0.4,0-0.7,0-0.9,0c-0.2,0-0.3,0-0.4,0c-0.1,0-0.2,0-0.2,0h-0.8l0,0.2c0,1.2,0.3,2.2,0.9,2.9c0.6,0.7,1.3,1.1,2.1,1.1
		c0.4,0,0.7,0,1-0.1c0.3-0.1,0.7-0.3,1.2-0.6l-0.1-0.1l-0.1,0.1l0.2,0.3L500.6,325.3l-0.2-0.1L500.6,325.3l0.1-0.1l-0.3-0.4
		l-0.1,0.1c-0.5,0.3-0.8,0.5-1.1,0.6c-0.3,0.1-0.6,0.1-0.9,0.1c-0.7,0-1.3-0.3-1.9-1c-0.5-0.6-0.8-1.5-0.8-2.7l-0.2,0v0.2h0.6
		c0.1,0,0.2,0,0.3,0c0,0,0.1,0,0.4,0c0.2,0,0.5,0,0.9,0c0.7,0,1.3,0,1.8-0.1l0-0.2l0,0.2c0.2,0,0.4-0.1,0.9-0.2
		c0.3-0.1,0.5-0.1,0.7-0.2l0.1,0l0-0.1c0-0.2,0-0.4,0-0.6c0-0.9-0.1-1.7-0.3-2.4c-0.2-0.7-0.6-1.2-1.1-1.7c-0.5-0.4-1.2-0.7-2.1-0.7
		c-0.6,0-1.1,0.1-1.6,0.4l0,0c-0.2,0.1-0.6,0.4-1.1,0.8c-0.3,0.2-0.5,0.4-0.6,0.5c-0.2,0.1-0.3,0.3-0.3,0.3
		c-0.2,0.3-0.4,0.7-0.5,1.2l0,0c-0.2,0.8-0.3,1.7-0.3,2.7c0,0.7,0.1,1.3,0.2,1.9c0.1,0.6,0.3,1.1,0.5,1.5c0.2,0.4,0.5,0.8,0.9,1.1
		c0.3,0.3,0.7,0.6,1.2,0.7c0.5,0.2,1,0.3,1.6,0.3c0.5,0,1-0.1,1.4-0.2l0,0l0,0c0.5-0.2,1.1-0.5,1.6-0.9l0,0l0.4-1.2l0-0.1
		L500.6,325.3z M498.5,320.6l0.2,0c0-0.1,0-0.2,0-0.3c0-1.1-0.1-1.8-0.4-2.3l0,0l0,0c-0.2-0.3-0.3-0.4-0.5-0.6
		c-0.2-0.1-0.4-0.2-0.7-0.2c-0.3,0-0.5,0.1-0.7,0.2c-0.2,0.1-0.4,0.3-0.6,0.6c-0.3,0.5-0.5,1.3-0.5,2.3c0,0.1,0,0.2,0,0.2l0,0.1
		l0.1,0c0.4,0.1,1,0.1,1.8,0.1c0.5,0,1,0,1.3-0.1l0.1,0l0-0.1L498.5,320.6l0-0.2c-0.3,0.1-0.8,0.1-1.3,0.1c-0.8,0-1.4,0-1.7-0.1
		l0,0.2l0.2,0c0-0.1,0-0.2,0-0.2c0-1,0.1-1.7,0.4-2.1c0.1-0.2,0.3-0.4,0.5-0.5c0.2-0.1,0.3-0.2,0.6-0.2c0.2,0,0.4,0.1,0.5,0.2
		c0.2,0.1,0.3,0.3,0.4,0.5l0.1-0.1l-0.1,0.1c0.2,0.4,0.4,1.1,0.4,2.1c0,0.1,0,0.2,0,0.3L498.5,320.6l0-0.2L498.5,320.6z"/>
	<path class="st4" d="M502.9,323.5h0.7c0,0.8,0.1,1.4,0.1,1.6c0.3,0.4,0.6,0.7,0.9,0.9s0.7,0.3,1.1,0.3c0.6,0,1-0.2,1.3-0.5
		c0.3-0.3,0.4-0.7,0.4-1.2c0-0.3,0-0.6-0.1-0.8c-0.1-0.2-0.3-0.4-0.6-0.6c-0.2-0.1-0.7-0.2-1.3-0.4c-0.7-0.2-1.2-0.4-1.5-0.6
		c-0.3-0.2-0.6-0.5-0.8-1c-0.2-0.4-0.3-0.9-0.3-1.5c0-1,0.3-1.9,0.9-2.6c0.6-0.7,1.5-1,2.7-1c0.5,0,0.9,0.1,1.3,0.2
		c0.4,0.1,0.8,0.3,1.1,0.5l0,0.1c0,0.3-0.1,0.5-0.1,0.8c0,0.3,0,0.9-0.1,1.9l-0.7,0c0-0.1,0-0.2,0-0.4c0-0.3-0.1-0.7-0.1-1
		c-0.2-0.3-0.4-0.5-0.7-0.7c-0.3-0.1-0.6-0.2-1-0.2c-0.5,0-0.9,0.1-1.2,0.4c-0.3,0.3-0.4,0.6-0.4,1c0,0.4,0.1,0.7,0.2,0.9
		c0.1,0.2,0.3,0.3,0.6,0.4c0.2,0.1,0.7,0.2,1.4,0.4c0.7,0.2,1.1,0.3,1.3,0.4c0.3,0.2,0.6,0.4,0.8,0.6c0.2,0.2,0.3,0.5,0.5,0.9
		c0.1,0.4,0.2,0.7,0.2,1.2c0,1.1-0.3,2-1,2.8c-0.7,0.8-1.7,1.1-2.9,1.1c-0.4,0-0.8,0-1.2-0.1c-0.4-0.1-0.9-0.3-1.4-0.5l-0.1-0.2
		c0-0.6,0.1-1,0.1-1.2L502.9,323.5z"/>
	<path class="st4" d="M502.9,323.5v0.2h0.7v-0.2l-0.2,0c0,0.8,0.1,1.4,0.1,1.6l0,0l0,0c0.3,0.4,0.6,0.7,0.9,1
		c0.3,0.2,0.8,0.3,1.2,0.3c0.6,0,1.1-0.2,1.4-0.6c0.3-0.4,0.5-0.8,0.5-1.3c0-0.3-0.1-0.6-0.2-0.8c-0.1-0.2-0.3-0.5-0.7-0.6l0,0l0,0
		c-0.3-0.1-0.7-0.3-1.4-0.4c-0.7-0.2-1.1-0.4-1.5-0.6c-0.3-0.2-0.6-0.5-0.7-0.9c-0.2-0.4-0.3-0.9-0.3-1.4c0-1,0.3-1.8,0.9-2.5
		c0.6-0.6,1.4-1,2.6-1c0.5,0,0.9,0.1,1.3,0.2c0.4,0.1,0.7,0.3,1.1,0.5l0.1-0.1l-0.2,0l0,0.1l0.2,0l-0.2,0c0,0.3-0.1,0.5-0.1,0.8
		c0,0.3,0,0.9-0.1,1.9l0.2,0l0-0.2l-0.7,0l0,0.2l0.2,0c0-0.1,0-0.2,0-0.4v0c0-0.3-0.1-0.7-0.1-1l0,0l0,0c-0.2-0.3-0.4-0.6-0.7-0.7
		c-0.3-0.2-0.6-0.2-1-0.2c-0.5,0-1,0.2-1.3,0.5c-0.3,0.3-0.5,0.7-0.5,1.1c0,0.4,0.1,0.7,0.2,1c0.1,0.2,0.4,0.4,0.6,0.5
		c0.3,0.1,0.7,0.2,1.4,0.4c0.7,0.2,1.1,0.3,1.3,0.4l0.1-0.1l-0.1,0.1c0.3,0.1,0.6,0.3,0.7,0.6c0.2,0.2,0.3,0.5,0.4,0.8
		c0.1,0.3,0.2,0.7,0.2,1.1c0,1.1-0.3,2-1,2.7c-0.7,0.7-1.6,1.1-2.8,1.1c-0.4,0-0.8,0-1.2-0.1c-0.4-0.1-0.9-0.3-1.4-0.5l-0.1,0.1
		l0.1-0.1l-0.1-0.2l-0.1,0.1l0.2,0c0-0.6,0.1-1,0.1-1.2l0,0l0.1-1.9L502.9,323.5v0.2V323.5l-0.2,0l-0.1,1.9l0.2,0l-0.2,0
		c0,0.2,0,0.6-0.1,1.2l0,0.1l0.1,0.2l0,0l0,0c0.6,0.2,1.1,0.4,1.5,0.5c0.4,0.1,0.8,0.1,1.3,0.1c1.3,0,2.3-0.4,3-1.2
		c0.7-0.8,1.1-1.8,1.1-2.9c0-0.4-0.1-0.8-0.2-1.2c-0.1-0.4-0.3-0.7-0.5-0.9c-0.2-0.3-0.5-0.5-0.8-0.6l0,0l0,0
		c-0.3-0.1-0.7-0.2-1.4-0.4c-0.7-0.2-1.1-0.3-1.3-0.4c-0.2-0.1-0.4-0.2-0.5-0.4c-0.1-0.2-0.2-0.4-0.2-0.8c0-0.4,0.1-0.6,0.4-0.9
		c0.2-0.2,0.6-0.4,1.1-0.4c0.3,0,0.6,0.1,0.9,0.2c0.2,0.1,0.5,0.3,0.6,0.6l0.1-0.1l-0.2,0c0.1,0.3,0.1,0.6,0.1,1v0
		c0,0.2,0,0.3,0,0.4l0,0.1l1,0l0-0.2c0-1,0.1-1.6,0.1-1.9c0-0.3,0-0.5,0.1-0.8l0,0l0-0.1l0-0.1l-0.1,0c-0.3-0.2-0.7-0.4-1.1-0.5
		c-0.4-0.1-0.9-0.2-1.4-0.2c-1.2,0-2.1,0.4-2.8,1.1c-0.7,0.7-1,1.6-1,2.7c0,0.6,0.1,1.1,0.3,1.6c0.2,0.5,0.5,0.8,0.9,1
		c0.4,0.2,0.9,0.4,1.5,0.6c0.7,0.2,1.1,0.3,1.3,0.4l0.1-0.1l-0.1,0.1c0.3,0.2,0.5,0.3,0.5,0.5c0.1,0.2,0.1,0.4,0.1,0.7
		c0,0.4-0.1,0.8-0.4,1.1c-0.3,0.3-0.6,0.4-1.2,0.5c-0.4,0-0.7-0.1-1-0.3c-0.3-0.2-0.6-0.5-0.8-0.9l-0.1,0.1l0.2,0
		c0-0.2-0.1-0.7-0.1-1.6l0-0.2h-1l0,0.2L502.9,323.5z"/>
	<path class="st4" d="M510.9,318.5V318l0.8-0.6c0.1-0.1,0.3-0.2,0.4-0.3v-1.5c0-0.5,0-1.2-0.1-2c0.6-0.2,1-0.4,1.1-0.5
		c0,0,0.4-0.2,1.1-0.7l0.2,0.2l-0.1,1.2l-0.1,1.3l-0.1,2h0.3c0.8,0,1.4,0,1.8-0.1l-0.2,1.5c-0.1,0-0.1,0-0.2,0l-0.9,0h-0.9v3.7
		c0,1.1,0,1.8,0,2c0,0.4,0.1,0.6,0.3,0.8c0.2,0.2,0.4,0.3,0.8,0.3c0.2,0,0.4,0,0.5,0c0.1,0,0.3-0.1,0.5-0.1l0.1,0.5l-0.3,0.4
		c-0.3,0.3-0.5,0.6-0.7,0.9c-0.2,0.1-0.4,0.2-0.6,0.3c-0.2,0-0.4,0.1-0.6,0.1c-0.7,0-1.2-0.2-1.6-0.7c-0.4-0.4-0.6-1-0.6-1.7l0-3.7
		v-2.8h-0.2C511.5,318.4,511.2,318.4,510.9,318.5z"/>
	<path class="st4" d="M510.9,318.5h0.2V318l0.7-0.6c0.1-0.1,0.3-0.2,0.4-0.3l0,0v-1.6c0-0.5,0-1.2-0.1-2l-0.2,0l0.1,0.1
		c0.6-0.2,1-0.4,1.1-0.5l0,0l0,0l0,0c0.1-0.1,0.5-0.3,1.1-0.6l-0.1-0.1l-0.1,0.1l0.2,0.2l-0.1,1.1l-0.1,1.3l0,0l-0.1,2.1h0.5
		c0.8,0,1.4,0,1.8-0.1l0-0.2l-0.2,0l-0.2,1.5l0.2,0l0-0.2c-0.1,0-0.1,0-0.2,0v0.2l0-0.2l-0.9,0h-1v3.9c0,1.2,0,1.8,0,2.1l0.2,0
		l-0.2,0c0,0.4,0.1,0.7,0.3,0.9c0.2,0.2,0.5,0.4,0.9,0.4v-0.2l0,0.2c0.1,0,0.1,0,0.2,0c0.1,0,0.2,0,0.3,0c0.1,0,0.3-0.1,0.5-0.1
		l0-0.2l-0.2,0l0.1,0.4l-0.3,0.3l0,0c-0.3,0.3-0.5,0.6-0.7,0.9l0.1,0.1l-0.1-0.1c-0.2,0.1-0.4,0.2-0.6,0.2c-0.2,0-0.3,0.1-0.5,0.1
		c-0.7,0-1.2-0.2-1.5-0.6c-0.4-0.4-0.6-0.9-0.6-1.6v0l0-3.7v-2.9h-0.4c-0.3,0-0.7,0-1,0L510.9,318.5h0.2H510.9l0,0.2
		c0.3,0,0.6,0,0.9,0h0.1v2.6v0l0,3.7v0c0,0.7,0.2,1.3,0.6,1.8c0.4,0.5,1,0.7,1.8,0.7c0.2,0,0.4,0,0.6-0.1c0.2,0,0.4-0.1,0.7-0.3l0,0
		l0,0c0.2-0.3,0.4-0.5,0.7-0.9l-0.1-0.1l0.1,0.1l0.4-0.5l-0.2-0.7l-0.1,0c-0.2,0.1-0.3,0.1-0.5,0.1c-0.1,0-0.2,0-0.3,0
		c0,0-0.1,0-0.2,0h0h0c-0.3,0-0.5-0.1-0.6-0.2c-0.1-0.2-0.2-0.4-0.3-0.7l0,0v0c0-0.2,0-0.9,0-2v-3.6h0.7l0.9,0h0c0.1,0,0.1,0,0.2,0
		l0.1,0l0.2-1.8l-0.2,0c-0.4,0.1-1,0.1-1.8,0.1h-0.1l0.1-1.8v0l0.1-1.3l0.1-1.2l-0.4-0.4l-0.1,0.1c-0.4,0.2-0.6,0.4-0.8,0.5
		c-0.1,0.1-0.2,0.1-0.2,0.1l-0.1,0l0,0l0,0l0,0l0,0l0,0l0,0l0,0l0.1,0.1l-0.1-0.1c-0.2,0.1-0.5,0.2-1.1,0.5l-0.1,0l0,0.1
		c0,0.8,0.1,1.5,0.1,2v1.5h0.2l-0.1-0.1c-0.1,0.1-0.2,0.2-0.4,0.3l-0.9,0.7v0.8l0.2,0L510.9,318.5z"/>
	<path class="st4" d="M517.7,332.7c0.1-0.5,0.2-0.9,0.2-1.1l0.1-1.1l0.2-0.1c0.1,0.2,0.3,0.4,0.5,0.5c0.2,0.1,0.5,0.2,0.8,0.2
		c0.3,0,0.6-0.1,0.9-0.4c0.3-0.3,0.6-0.8,0.9-1.7l0.4-1.1l-2.9-9.3c-0.2-0.6-0.3-0.9-0.5-1c-0.2-0.1-0.5-0.2-0.9-0.2v-0.9
		c0.6,0,1.3,0,2.2,0c1,0,1.9,0,2.7,0v0.9H522c-0.4,0-0.6,0-0.8,0.2c-0.1,0.1-0.1,0.2-0.1,0.3c0,0.1,0,0.3,0.1,0.5l0.4,1.5l1.3,4.3
		l0.8-2.3c0.8-2.3,1.2-3.6,1.2-4c0-0.1,0-0.1,0-0.2c0-0.1-0.1-0.1-0.2-0.1c-0.2-0.1-0.5-0.1-0.9-0.1v-0.9c0.4,0,0.9,0,1.4,0
		c0.7,0,1.4,0,2,0v0.9H527c-0.2,0-0.3,0-0.5,0.1c-0.1,0-0.2,0.1-0.2,0.2c-0.1,0.1-0.2,0.5-0.5,1.2c-0.4,0.9-0.6,1.7-0.9,2.3
		c-0.7,1.9-1.1,3.1-1.3,3.7l-1.4,4.4c-0.4,1.3-0.9,2.3-1.4,2.9c-0.5,0.6-1.1,0.9-1.8,0.9c-0.2,0-0.4,0-0.6-0.1
		C518.1,332.9,517.9,332.8,517.7,332.7z"/>
	<path class="st4" d="M517.7,332.7l0.2,0c0.1-0.5,0.2-0.9,0.2-1.1l0.1-1l0.1,0l0-0.2l-0.1,0.1c0.2,0.2,0.3,0.4,0.5,0.5l0,0l0,0
		c0.3,0.1,0.5,0.2,0.8,0.2c0.4,0,0.7-0.2,1-0.4c0.3-0.3,0.6-0.9,0.9-1.8l0,0l0.4-1.1l-2.9-9.4c-0.1-0.3-0.2-0.5-0.3-0.7
		c-0.1-0.2-0.2-0.3-0.3-0.4c-0.2-0.2-0.5-0.2-0.9-0.2l-0.1,0l0,0.2h0.2v-0.9h-0.2l0,0.2c0.6,0,1.3,0,2.2,0c1,0,1.9,0,2.7,0l0-0.2
		H522v0.7h0v0.2l0-0.2l-0.1,0c-0.4,0-0.6,0-0.8,0.2l0,0l0,0c-0.1,0.1-0.2,0.3-0.2,0.4c0,0.2,0,0.3,0.1,0.5l0.2,0l-0.2,0l0.4,1.5
		l1.5,4.7l0.9-2.8c0.4-1.2,0.7-2.1,0.9-2.7c0.1-0.3,0.2-0.6,0.2-0.8c0-0.2,0.1-0.4,0.1-0.5c0-0.1,0-0.2-0.1-0.3l0,0l0,0
		c-0.1-0.1-0.2-0.2-0.3-0.2l0,0l0,0c-0.2-0.1-0.5-0.1-0.9-0.1l0,0.2h0.2v-0.9h-0.2l0,0.2c0.4,0,0.9,0,1.5,0c0.7,0,1.4,0,2,0l0-0.2
		H527v0.9h0.2v-0.2H527v0.2l0-0.2l0,0c-0.2,0-0.3,0-0.5,0.1l0.1,0.1l-0.1-0.1c-0.1,0.1-0.2,0.2-0.3,0.3c0,0-0.1,0.1-0.1,0.2
		c-0.1,0.2-0.2,0.6-0.4,1.1c-0.4,0.9-0.6,1.7-0.9,2.3c-0.7,1.9-1.1,3.1-1.3,3.7l0,0l-1.4,4.4c-0.4,1.3-0.9,2.3-1.4,2.8l0,0
		c-0.5,0.5-1,0.8-1.7,0.8c-0.2,0-0.4,0-0.6-0.1c-0.2,0-0.4-0.1-0.6-0.2L517.7,332.7l0.2,0L517.7,332.7l-0.1,0.1
		c0.3,0.1,0.5,0.2,0.7,0.3c0.2,0,0.4,0.1,0.7,0.1c0.8,0,1.4-0.3,1.9-0.9l0,0c0.5-0.6,1-1.6,1.4-2.9l1.4-4.4l0,0
		c0.2-0.5,0.6-1.8,1.3-3.6c0.2-0.6,0.5-1.4,0.9-2.3c0.1-0.4,0.2-0.6,0.3-0.8c0-0.1,0.1-0.2,0.1-0.2c0-0.1,0.1-0.1,0.1-0.1
		c0.1-0.1,0.1-0.1,0.2-0.2l0,0l0,0c0.1-0.1,0.2-0.1,0.3-0.1l0,0l0,0h0.1h0.2v-1.2l-0.2,0c-0.6,0-1.3,0-2,0c-0.6,0-1.1,0-1.4,0
		l-0.2,0v1.2l0.2,0c0.4,0,0.6,0,0.8,0.1l0-0.2l0,0.2c0.1,0,0.1,0.1,0.1,0.1l0.1-0.1l-0.1,0.1c0,0,0,0,0,0.1c0,0.1,0,0.2-0.1,0.4
		c-0.1,0.6-0.5,1.8-1.1,3.5l-0.6,1.9l-1.2-3.8l-0.2,0l0.2,0l-0.4-1.5l0,0c-0.1-0.2-0.1-0.3-0.1-0.4c0-0.1,0-0.1,0.1-0.2l-0.1-0.1
		l0.1,0.1c0.1-0.1,0.3-0.1,0.6-0.1l0.1,0h0h0.2h0.2v-1.2l-0.2,0c-0.8,0-1.7,0-2.7,0c-0.8,0-1.6,0-2.1,0l-0.2,0v1.2l0.2,0l0.1,0
		c0.4,0,0.6,0.1,0.7,0.1c0,0,0.1,0.1,0.2,0.3c0.1,0.2,0.2,0.4,0.2,0.6l2.9,9.3l-0.3,1l0.2,0.1l-0.2-0.1c-0.3,0.9-0.6,1.5-0.8,1.7
		c-0.2,0.2-0.5,0.3-0.7,0.4c-0.2,0-0.5-0.1-0.7-0.2l-0.1,0.1l0.1-0.1c-0.2-0.1-0.3-0.3-0.5-0.5l-0.1-0.1l-0.4,0.1l-0.1,1.2l0.2,0
		l-0.2,0c0,0.2-0.1,0.6-0.2,1.1l0,0.1l0.1,0.1L517.7,332.7z"/>
	<path class="st4" d="M533.4,326.1v0.9c-0.7-0.1-1.5-0.1-2.3-0.1c-0.8,0-1.7,0-2.7,0.1v-0.9c0.6,0,0.9-0.1,1-0.1
		c0.1,0,0.2-0.1,0.2-0.1c0-0.1,0.1-0.1,0.1-0.3c0-0.2,0.1-0.9,0.1-2.1c0-1.2,0-2.2,0-3.2v-3.7c0-1.2,0-2.2-0.1-3.2
		c0-0.5-0.1-0.8-0.1-0.9c0-0.1-0.1-0.1-0.1-0.1c-0.1-0.1-0.2-0.1-0.3-0.1c-0.1,0-0.4,0-0.8-0.1v-0.8c0.7-0.1,1.3-0.2,1.8-0.3
		c0.4-0.1,1-0.3,1.8-0.6l0.2,0.1l-0.1,2.3c0,1.3,0,2.8-0.1,4.7v2.9c0,1.1,0,1.9,0,2.4c0,1.3,0,2.1,0.1,2.4c0,0.3,0,0.5,0.1,0.5
		c0,0.1,0,0.1,0.1,0.1c0.1,0.1,0.1,0.1,0.3,0.1C532.5,326,532.8,326.1,533.4,326.1z"/>
	<path class="st4" d="M533.4,326.1h-0.2v0.9h0.2l0-0.2c-0.8-0.1-1.5-0.1-2.4-0.1c-0.8,0-1.7,0-2.8,0.1l0,0.2h0.2v-0.9h-0.2l0,0.2
		c0.3,0,0.5,0,0.7,0c0.2,0,0.3,0,0.4-0.1l0,0c0.1,0,0.2-0.1,0.3-0.2c0.1-0.1,0.1-0.2,0.1-0.3l-0.2,0l0.2,0c0-0.1,0-0.4,0.1-0.7
		c0-0.4,0-0.8,0-1.4c0-1.2,0-2.2,0-3.2v-3.7c0-1.2,0-2.2-0.1-3.2c0-0.3,0-0.5,0-0.6c0-0.1,0-0.1,0-0.2c0-0.1,0-0.1,0-0.1l0,0l0,0
		c0-0.1-0.1-0.1-0.2-0.2l-0.1,0.1l0.1-0.1c-0.1-0.1-0.2-0.1-0.4-0.2l0,0c-0.1,0-0.1,0-0.3,0c-0.1,0-0.3,0-0.5,0l0,0.2h0.2v-0.8h-0.2
		l0,0.2c0.7-0.1,1.3-0.2,1.8-0.3c0.5-0.1,1.1-0.3,1.8-0.6l-0.1-0.1l-0.1,0.1l0.1,0.1l-0.1,2.2v0c0,1.3,0,2.8-0.1,4.7v2.9
		c0,1.1,0,1.9,0,2.4c0,1.3,0,2.1,0.1,2.4c0,0.1,0,0.3,0,0.4c0,0.1,0,0.2,0,0.2l0.1-0.1l-0.2,0.1c0,0.1,0.1,0.1,0.1,0.2l0.1-0.1
		L532,326c0.1,0.1,0.2,0.1,0.4,0.2l0-0.2l0,0.2c0,0,0.1,0,0.1,0c0.1,0,0.4,0,0.8,0.1L533.4,326.1h-0.2H533.4l0-0.2
		c-0.3,0-0.5,0-0.6,0c-0.1,0-0.1,0-0.2,0l0,0l0,0l0,0l0,0l0,0c-0.1,0-0.2-0.1-0.2-0.1l0,0l0,0l0-0.1l0,0l0,0c0,0,0-0.1,0-0.1
		c0-0.1,0-0.2,0-0.3c0-0.3,0-1.1-0.1-2.4c0-0.5,0-1.3,0-2.4v-2.9c0-1.8,0-3.4,0.1-4.7v0l0.1-2.3l-0.3-0.2l-0.1,0
		c-0.7,0.3-1.3,0.5-1.8,0.6c-0.4,0.1-1,0.2-1.8,0.3l-0.1,0v1.1l0.2,0c0.2,0,0.4,0,0.5,0c0.1,0,0.2,0,0.3,0l0-0.2l0,0.2
		c0.1,0,0.2,0.1,0.3,0.1l0,0l0,0c0,0,0,0,0,0.1l0.1-0.1l-0.2,0.1c0,0,0,0,0,0.1c0,0.1,0,0.4,0.1,0.8c0,1,0.1,2,0.1,3.2v3.7
		c0,0.9,0,2,0,3.2c0,0.6,0,1.1,0,1.4c0,0.3,0,0.6-0.1,0.7l0,0l0,0c0,0.1,0,0.2-0.1,0.2c0,0-0.1,0.1-0.1,0.1l0.1,0.2l0-0.2
		c0,0-0.1,0-0.3,0c-0.2,0-0.4,0-0.7,0l-0.2,0v1.2l0.2,0c1-0.1,1.9-0.1,2.7-0.1c0.8,0,1.6,0,2.3,0.1l0.2,0v-1.2l-0.1,0L533.4,326.1z"
		/>
	<path class="st4" d="M542.7,325.3l-0.4,1.1c-0.5,0.4-1,0.6-1.5,0.8c-0.4,0.1-0.8,0.2-1.3,0.2c-0.6,0-1.1-0.1-1.6-0.3
		c-0.5-0.2-0.8-0.4-1.2-0.7c-0.3-0.3-0.6-0.7-0.8-1.1c-0.2-0.4-0.4-0.9-0.5-1.5c-0.1-0.6-0.2-1.2-0.2-1.9c0-1,0.1-1.9,0.3-2.6
		c0.1-0.5,0.3-0.9,0.5-1.2c0.1-0.1,0.4-0.4,0.9-0.8c0.5-0.4,0.9-0.7,1.1-0.8c0.4-0.2,0.9-0.3,1.5-0.3c0.8,0,1.5,0.2,2,0.6
		s0.9,1,1.1,1.6c0.2,0.6,0.3,1.4,0.3,2.4c0,0.2,0,0.4,0,0.6c-0.1,0.1-0.4,0.1-0.7,0.2c-0.4,0.1-0.7,0.1-0.8,0.2
		c-0.4,0-1,0.1-1.8,0.1c-0.7,0-1.1,0-1.2,0c-0.1,0-0.2,0-0.3,0h-0.6c0,1.2,0.3,2.1,0.9,2.8c0.5,0.7,1.2,1,2,1c0.3,0,0.7,0,0.9-0.1
		c0.3-0.1,0.7-0.3,1.1-0.6L542.7,325.3z M540.5,320.6c0-1.2-0.1-2-0.4-2.5c-0.3-0.5-0.7-0.7-1.1-0.7c-0.5,0-0.9,0.2-1.2,0.7
		c-0.3,0.5-0.5,1.3-0.4,2.5c0.4,0.1,0.9,0.1,1.8,0.1C539.7,320.7,540.2,320.7,540.5,320.6z"/>
	<path class="st4" d="M542.7,325.3l-0.2-0.1l-0.4,1.1l0.2,0.1l-0.1-0.1c-0.5,0.4-1,0.6-1.5,0.8l0.1,0.2l0-0.2
		c-0.4,0.1-0.8,0.2-1.3,0.2c-0.6,0-1.1-0.1-1.5-0.2c-0.4-0.2-0.8-0.4-1.1-0.7c-0.3-0.3-0.6-0.6-0.8-1.1c-0.2-0.4-0.4-0.9-0.5-1.5
		c-0.1-0.6-0.2-1.2-0.2-1.8c0-1,0.1-1.8,0.3-2.6l0,0c0.1-0.5,0.3-0.9,0.5-1.1c0-0.1,0.2-0.2,0.3-0.3c0.2-0.1,0.4-0.3,0.6-0.5
		c0.5-0.4,0.9-0.7,1.1-0.8l0,0c0.4-0.2,0.9-0.3,1.4-0.3c0.8,0,1.4,0.2,1.9,0.6c0.5,0.4,0.8,0.9,1,1.5c0.2,0.6,0.3,1.4,0.3,2.3
		c0,0.2,0,0.4,0,0.6l0.2,0l-0.1-0.1c-0.1,0.1-0.4,0.1-0.7,0.2c-0.4,0.1-0.7,0.1-0.8,0.2h0l0,0c-0.4,0-1,0.1-1.8,0.1
		c-0.4,0-0.7,0-0.9,0c-0.2,0-0.3,0-0.4,0c-0.1,0-0.2,0-0.2,0h-0.8l0,0.2c0,1.2,0.3,2.2,0.9,2.9c0.6,0.7,1.3,1.1,2.1,1.1
		c0.4,0,0.7,0,1-0.1c0.3-0.1,0.7-0.3,1.2-0.6l-0.1-0.1l-0.1,0.1l0.2,0.3L542.7,325.3l-0.2-0.1L542.7,325.3l0.1-0.1l-0.3-0.4
		l-0.1,0.1c-0.5,0.3-0.8,0.5-1.1,0.6c-0.3,0.1-0.6,0.1-0.9,0.1c-0.7,0-1.3-0.3-1.9-1c-0.5-0.6-0.8-1.5-0.8-2.7l-0.2,0v0.2h0.6
		c0.1,0,0.2,0,0.3,0c0,0,0.1,0,0.4,0c0.2,0,0.5,0,0.9,0c0.7,0,1.3,0,1.8-0.1l0-0.2l0,0.2c0.2,0,0.4-0.1,0.9-0.2
		c0.3-0.1,0.5-0.1,0.7-0.2l0.1,0l0-0.1c0-0.2,0-0.4,0-0.6c0-0.9-0.1-1.7-0.3-2.4c-0.2-0.7-0.6-1.2-1.1-1.7c-0.5-0.4-1.2-0.7-2.1-0.7
		c-0.6,0-1.1,0.1-1.6,0.4l0,0c-0.2,0.1-0.6,0.4-1.1,0.8c-0.3,0.2-0.5,0.4-0.6,0.5c-0.2,0.1-0.3,0.3-0.3,0.3
		c-0.2,0.3-0.4,0.7-0.5,1.2l0,0c-0.2,0.8-0.3,1.7-0.3,2.7c0,0.7,0.1,1.3,0.2,1.9c0.1,0.6,0.3,1.1,0.5,1.5c0.2,0.4,0.5,0.8,0.9,1.1
		c0.3,0.3,0.7,0.6,1.2,0.7c0.5,0.2,1,0.3,1.6,0.3c0.5,0,1-0.1,1.4-0.2l0,0l0,0c0.5-0.2,1.1-0.5,1.6-0.9l0,0l0.4-1.2l0-0.1
		L542.7,325.3z M540.5,320.6l0.2,0c0-0.1,0-0.2,0-0.3c0-1.1-0.1-1.8-0.4-2.3l0,0l0,0c-0.2-0.3-0.3-0.4-0.5-0.6
		c-0.2-0.1-0.4-0.2-0.7-0.2c-0.3,0-0.5,0.1-0.7,0.2c-0.2,0.1-0.4,0.3-0.6,0.6c-0.3,0.5-0.5,1.3-0.5,2.3c0,0.1,0,0.2,0,0.2l0,0.1
		l0.1,0c0.4,0.1,1,0.1,1.8,0.1c0.5,0,1,0,1.3-0.1l0.1,0l0-0.1L540.5,320.6l0-0.2c-0.3,0.1-0.8,0.1-1.3,0.1c-0.8,0-1.4,0-1.7-0.1
		l0,0.2l0.2,0c0-0.1,0-0.2,0-0.2c0-1,0.1-1.7,0.4-2.1c0.1-0.2,0.3-0.4,0.5-0.5c0.2-0.1,0.3-0.2,0.6-0.2c0.2,0,0.4,0.1,0.5,0.2
		c0.2,0.1,0.3,0.3,0.4,0.5l0.1-0.1l-0.1,0.1c0.2,0.4,0.4,1.1,0.4,2.1c0,0.1,0,0.2,0,0.3L540.5,320.6l0-0.2L540.5,320.6z"/>
	<polygon class="st4" points="555.3,318.3 559.3,318.3 559.3,319.7 555.3,319.7 555.3,324.2 554,324.2 554,319.7 550,319.7 
		550,318.3 554,318.3 554,313.8 555.3,313.8 	"/>
	<polygon class="st4" points="555.3,318.3 555.3,318.7 558.9,318.7 558.9,319.3 554.9,319.3 554.9,323.8 554.4,323.8 554.4,319.3 
		550.4,319.3 550.4,318.7 554.4,318.7 554.4,314.2 554.9,314.2 554.9,318.7 555.3,318.7 555.3,318.3 555.7,318.3 555.7,313.3 
		553.5,313.3 553.5,317.8 549.6,317.8 549.6,320.2 553.5,320.2 553.5,324.6 555.7,324.6 555.7,320.2 559.7,320.2 559.7,317.8 
		555.3,317.8 555.3,318.3 555.7,318.3 	"/>
	<path class="st4" d="M566.4,326c0.7,0,1.1-0.1,1.2-0.1c0.1,0,0.1-0.1,0.2-0.1c0-0.1,0.1-0.2,0.1-0.4c0-0.3,0.1-1,0.1-2.1
		c0-0.6,0-1.4,0-2.4v-3.6l0-3.3c0-0.5,0-0.9-0.1-1.1c0-0.2-0.1-0.3-0.1-0.4c-0.1-0.1-0.2-0.1-0.3-0.2c-0.1,0-0.5-0.1-1.1-0.1v-0.9
		c0.8,0,1.3,0.1,1.7,0.1l1.3,0l0.8,0c1.2,2,2.7,4.3,4.5,6.9c1.3,1.9,2.3,3.4,3.1,4.4v-2.6c0-4,0-6.4-0.1-7.1c0-0.3-0.1-0.5-0.2-0.5
		c-0.1-0.1-0.6-0.2-1.4-0.2v-0.9c0.7,0,1.4,0.1,2,0.1c0.6,0,1.4,0,2.3-0.1v0.9c-0.7,0-1.2,0.1-1.3,0.2c0,0-0.1,0.1-0.1,0.2
		c-0.1,0.4-0.1,1.2-0.2,2.6c0,1.3,0,2.3,0,3c0,5,0,8,0.1,9l-0.1,0.1c-0.5-0.1-1-0.2-1.5-0.3c-1.9-2.7-4.7-6.7-8.2-12.1v5.6
		c0,1.2,0,2.4,0.1,3.6c0,0.9,0.1,1.4,0.1,1.6c0,0.1,0.1,0.2,0.1,0.2s0.2,0.1,0.3,0.1c0.4,0.1,0.7,0.1,0.9,0.1c0,0,0.1,0,0.2,0v0.9
		c-1.1,0-1.8,0-1.9,0c-0.6,0-1.4,0-2.4,0.1V326z"/>
	<path class="st4" d="M566.4,326l0,0.2c0.4,0,0.6,0,0.8-0.1c0.1,0,0.2,0,0.3,0c0.1,0,0.1,0,0.2,0l0,0l0,0c0.1,0,0.2-0.1,0.2-0.2l0,0
		c0-0.1,0.1-0.1,0.1-0.2c0-0.1,0-0.2,0.1-0.3l0,0v0c0-0.3,0.1-1,0.1-2.1l0,0c0-0.6,0-1.4,0-2.4v-3.6v0l0-3.3c0-0.5,0-0.9-0.1-1.1
		c0-0.2-0.1-0.3-0.2-0.4c-0.1-0.1-0.2-0.2-0.4-0.2c-0.1,0-0.2-0.1-0.4-0.1c-0.2,0-0.5,0-0.8-0.1l0,0.2h0.2v-0.9h-0.2l0,0.2
		c0.8,0,1.3,0.1,1.7,0.1h0l1.3,0l0.8,0l0-0.2l-0.1,0.1c1.2,2,2.7,4.3,4.5,6.9c1.3,1.9,2.3,3.4,3.1,4.4l0.3,0.4v-3.1c0-2,0-3.6,0-4.8
		c0-1.2,0-2-0.1-2.3l-0.2,0l0.2,0c0-0.1,0-0.3-0.1-0.4c0-0.1-0.1-0.2-0.1-0.3c-0.1-0.1-0.1-0.1-0.2-0.1c-0.3-0.1-0.7-0.1-1.3-0.1
		l0,0.2h0.2v-0.9h-0.2l0,0.2c0.7,0,1.4,0.1,2,0.1c0.6,0,1.4,0,2.3-0.1l0-0.2h-0.2v0.9h0.2l0-0.2c-0.4,0-0.7,0-0.9,0.1
		c-0.2,0-0.4,0.1-0.5,0.2l0.1,0.1l-0.1-0.1c-0.1,0.1-0.1,0.2-0.2,0.3c0,0.2-0.1,0.5-0.1,0.9c0,0.4-0.1,1-0.1,1.6c0,1.3,0,2.3,0,3
		c0,5,0,8,0.1,9l0.2,0l-0.1-0.1l-0.1,0.1l0.1,0.1l0-0.2c-0.5-0.1-1-0.2-1.5-0.3l0,0.2l0.1-0.1c-1.9-2.7-4.7-6.7-8.2-12.1l-0.3-0.4
		v6.1c0,1.2,0,2.4,0.1,3.6c0,0.4,0,0.8,0,1.1c0,0.3,0,0.4,0.1,0.6v0c0,0.1,0.1,0.2,0.2,0.3c0.1,0.1,0.2,0.1,0.4,0.2
		c0.4,0.1,0.7,0.1,0.9,0.1c0,0,0.1,0,0.2,0l0-0.2h-0.2v0.9h0.2l0-0.2c-1.1,0-1.8,0-1.9,0c-0.6,0-1.4,0-2.4,0.1l0,0.2h0.2v-1H566.4
		l0,0.2L566.4,326h-0.2v1.1l0.2,0c1,0,1.8-0.1,2.4-0.1c0.2,0,0.8,0,1.9,0l0.2,0v-1.2l-0.2,0c-0.1,0-0.1,0-0.2,0
		c-0.2,0-0.4,0-0.8-0.1c-0.1,0-0.2-0.1-0.2-0.1c0,0-0.1-0.1-0.1-0.1l0,0c0-0.1,0-0.2-0.1-0.5c0-0.3,0-0.6,0-1c0-1.3-0.1-2.5-0.1-3.6
		v-5.6h-0.2l-0.1,0.1c3.5,5.4,6.3,9.4,8.2,12.1l0,0.1l0.1,0c0.5,0.1,1,0.2,1.5,0.3l0.1,0l0.2-0.2l0.1-0.1l0-0.1
		c-0.1-1-0.1-4.1-0.1-9c0-0.6,0-1.6,0-2.9c0-0.7,0-1.2,0.1-1.6c0-0.4,0.1-0.7,0.1-0.9c0-0.1,0-0.1,0-0.1l0,0c0,0,0.1-0.1,0.4-0.1
		c0.2,0,0.5-0.1,0.9-0.1l0.2,0v-1.3l-0.2,0c-0.9,0-1.7,0.1-2.3,0.1c-0.6,0-1.3,0-2-0.1l-0.2,0v1.3l0.2,0c0.4,0,0.7,0,0.9,0.1
		c0.1,0,0.2,0,0.3,0.1c0.1,0,0.1,0,0.1,0.1c0,0,0,0.1,0.1,0.1c0,0.1,0,0.2,0.1,0.3l0,0c0,0.3,0.1,1.1,0.1,2.3c0,1.2,0,2.8,0,4.8v2.6
		h0.2l0.1-0.1c-0.8-1.1-1.9-2.5-3.1-4.4c-1.8-2.6-3.2-4.9-4.5-6.9l0-0.1l-0.9,0l0,0.2l0-0.2l-1.3,0l0,0.2v-0.2c-0.4,0-0.9,0-1.7-0.1
		l-0.2,0v1.3l0.1,0c0.3,0,0.6,0.1,0.8,0.1c0.2,0,0.3,0,0.4,0.1c0.1,0,0.2,0.1,0.2,0.1c0,0,0.1,0.1,0.1,0.3c0,0.1,0,0.5,0.1,1l0,3.3
		l0.2,0h-0.2v3.6c0,1,0,1.8,0,2.4v0c0,1.1-0.1,1.8-0.1,2l0.2,0l-0.2,0c0,0.1,0,0.2,0,0.2c0,0.1,0,0.1,0,0.1l0,0c0,0-0.1,0.1-0.1,0.1
		l0.1,0.1l-0.1-0.2c0,0,0,0-0.1,0c-0.2,0-0.5,0.1-1.1,0.1l-0.2,0v0.2H566.4z"/>
	<path class="st4" d="M581.9,318v-0.9c0.5,0,1-0.1,1.6-0.3c0.5-0.1,1.2-0.4,2-0.7l0.1,0.1c-0.1,1.5-0.1,2.8-0.1,4.1v1.3
		c0,1.1,0,1.8,0.1,2.1c0.1,0.5,0.2,0.8,0.4,1.1c0.2,0.2,0.5,0.4,0.9,0.4c0.4,0,0.8-0.1,1.1-0.4c0.3-0.3,0.5-0.6,0.6-0.9
		c0.1-0.2,0.1-0.6,0.1-1.2v-1.9l0-1.6c0-0.5,0-0.8-0.1-0.9c0-0.1-0.1-0.1-0.2-0.2c-0.1,0-0.5-0.1-1.1-0.1v-0.9
		c0.9-0.1,1.6-0.3,1.9-0.4c0.3-0.1,0.9-0.3,1.7-0.6l0.2,0.1l-0.1,2.1c0,1.5-0.1,2.3-0.1,2.5v2.3c0,1.4,0,2.2,0.1,2.5
		c0,0.1,0.1,0.2,0.1,0.3c0.1,0.1,0.5,0.1,1.1,0.2v0.9l-1.8-0.1l-1.7,0.1l-0.1-0.1l0.1-0.9c0-0.1,0-0.4,0-0.9
		c-0.2,0.2-0.4,0.4-0.6,0.6l-1,1.2c-0.4,0.2-0.8,0.3-1.2,0.3c-0.8,0-1.4-0.3-1.9-0.8c-0.5-0.6-0.7-1.3-0.7-2.2c0-0.1,0-0.5,0-1.2
		c0-0.4,0-0.9,0-1.5l0-2.4c0-0.4,0-0.7-0.1-0.8c0-0.1-0.1-0.2-0.2-0.2C582.9,318.1,582.5,318,581.9,318z"/>
	<path class="st4" d="M581.9,318h0.2v-0.9h-0.2l0,0.2c0.5,0,1.1-0.1,1.6-0.3c0.5-0.1,1.2-0.4,2-0.7l-0.1-0.1l-0.1,0.1l0.1,0.1
		l0.1-0.1l-0.2,0c-0.1,1.5-0.1,2.8-0.1,4.1v1.3c0,1.1,0,1.8,0.1,2.2v0c0.1,0.5,0.2,0.9,0.5,1.2c0.3,0.3,0.6,0.4,1,0.4
		c0.5,0,0.9-0.2,1.2-0.5c0.3-0.3,0.5-0.6,0.6-0.9l0,0c0-0.1,0.1-0.3,0.1-0.5c0-0.2,0-0.5,0-0.8v-1.9l0-1.6l-0.2,0h0.2
		c0-0.3,0-0.5,0-0.6c0-0.1,0-0.2,0-0.2c0-0.1,0-0.1-0.1-0.2l-0.1,0.1l0.1-0.1c-0.1-0.1-0.1-0.2-0.3-0.2c0,0-0.1,0-0.2,0
		c-0.2,0-0.5-0.1-1-0.1l0,0.2h0.2v-0.9h-0.2l0,0.2c0.9-0.1,1.6-0.3,1.9-0.4c0.3-0.1,0.9-0.3,1.7-0.6l-0.1-0.1l-0.1,0.1l0.1,0.1
		l-0.1,2l0,0c0,1.5-0.1,2.3-0.1,2.5v2.3c0,0.7,0,1.2,0,1.7c0,0.4,0,0.7,0.1,0.9l0,0c0,0.2,0.1,0.3,0.2,0.4l0,0l0,0
		c0.1,0,0.1,0.1,0.2,0.1c0.2,0.1,0.5,0.1,1,0.1l0-0.2h-0.2v0.7l-1.7-0.1l-1.6,0.1l0,0l-0.1,0.1l0.2,0l0.1-0.9v0c0-0.1,0-0.4,0-0.9
		v-0.4l-0.3,0.3c-0.2,0.2-0.4,0.4-0.6,0.6l0,0l-1,1.2l0.1,0.1l-0.1-0.1c-0.4,0.2-0.8,0.3-1.2,0.3c-0.8,0-1.3-0.3-1.8-0.8
		c-0.4-0.5-0.7-1.2-0.7-2.1c0-0.1,0-0.5,0-1.2v0c0-0.4,0-0.9,0-1.5v0l0-2.4v0c0-0.2,0-0.4,0-0.5c0-0.1,0-0.2-0.1-0.3
		c-0.1-0.1-0.2-0.2-0.3-0.3c0,0-0.1,0-0.2-0.1c-0.2,0-0.5-0.1-0.9-0.1L581.9,318h0.2H581.9l0,0.2c0.3,0,0.5,0,0.7,0.1
		c0.1,0,0.1,0,0.2,0c0,0,0.1,0,0.1,0c0.1,0,0.1,0.1,0.1,0.2c0,0,0,0.1,0,0.2c0,0.1,0,0.3,0,0.5v0l0,2.4v0c0,0.6,0,1.1,0,1.5v0
		c0,0.7,0,1.1,0,1.2c0,0.9,0.2,1.7,0.7,2.3c0.5,0.6,1.2,0.9,2,0.9c0.4,0,0.9-0.1,1.3-0.3l0,0l1-1.2l-0.1-0.1l0.1,0.1
		c0.2-0.2,0.4-0.4,0.6-0.6l-0.1-0.1h-0.2c0,0.4,0,0.7,0,0.9l0.2,0l-0.2,0l-0.1,0.9l0.1,0.1l0,0.1l1.8-0.1l2,0.1v-1.2l-0.2,0
		c-0.3,0-0.6,0-0.7-0.1c-0.1,0-0.2,0-0.2,0c-0.1,0-0.1,0-0.1,0l-0.1,0.1l0.1-0.1c0,0-0.1-0.1-0.1-0.2l0,0c0-0.1,0-0.4-0.1-0.9
		c0-0.4,0-1,0-1.7v-2.3c0-0.2,0-1,0.1-2.4l-0.2,0l0.2,0l0.1-2.1l-0.3-0.2l-0.1,0c-0.8,0.3-1.4,0.5-1.7,0.6c-0.3,0.1-1,0.2-1.9,0.4
		l-0.1,0v1.1l0.1,0c0.3,0,0.6,0,0.7,0.1c0.1,0,0.2,0,0.2,0l0.1,0l0,0c0.1,0,0.1,0.1,0.1,0.1l0,0l0,0c0,0,0,0,0,0.1
		c0,0.1,0,0.4,0,0.8v0l0,1.6l0.2,0h-0.2v1.9c0,0.3,0,0.6,0,0.7c0,0.2,0,0.3-0.1,0.4l0,0c-0.1,0.3-0.3,0.5-0.6,0.8
		c-0.3,0.3-0.6,0.4-1,0.4c-0.3,0-0.6-0.1-0.8-0.3c-0.2-0.2-0.3-0.5-0.4-1v0c0-0.3-0.1-1.1-0.1-2.1v-1.3c0-1.3,0-2.6,0.1-4.1l0-0.1
		l-0.2-0.2l-0.1-0.1l-0.1,0c-0.8,0.3-1.5,0.6-2,0.7c-0.5,0.1-1,0.2-1.5,0.3l-0.1,0v1.2l0.2,0L581.9,318z"/>
	<path class="st4" d="M593.5,318.5V318l0.8-0.6c0.1-0.1,0.3-0.2,0.4-0.3v-1.5c0-0.5,0-1.2-0.1-2c0.6-0.2,1-0.4,1.1-0.5
		c0,0,0.4-0.2,1.1-0.7l0.2,0.2l-0.1,1.2L597,315l-0.1,2h0.3c0.8,0,1.4,0,1.8-0.1l-0.2,1.5c-0.1,0-0.1,0-0.2,0l-0.9,0h-0.9v3.7
		c0,1.1,0,1.8,0,2c0,0.4,0.1,0.6,0.3,0.8c0.2,0.2,0.4,0.3,0.8,0.3c0.2,0,0.4,0,0.5,0c0.1,0,0.3-0.1,0.5-0.1l0.1,0.5l-0.3,0.4
		c-0.3,0.3-0.5,0.6-0.7,0.9c-0.2,0.1-0.4,0.2-0.6,0.3c-0.2,0-0.4,0.1-0.6,0.1c-0.7,0-1.2-0.2-1.6-0.7c-0.4-0.4-0.6-1-0.6-1.7l0-3.7
		v-2.8h-0.2C594.2,318.4,593.8,318.4,593.5,318.5z"/>
	<path class="st4" d="M593.5,318.5h0.2V318l0.7-0.6c0.1-0.1,0.3-0.2,0.4-0.3l0,0v-1.6c0-0.5,0-1.2-0.1-2l-0.2,0l0.1,0.1
		c0.6-0.2,1-0.4,1.1-0.5l0,0l0,0l0,0c0.1-0.1,0.5-0.3,1.1-0.6l-0.1-0.1l-0.1,0.1l0.2,0.2l-0.1,1.1l-0.1,1.3l0,0l-0.1,2.1h0.5
		c0.8,0,1.4,0,1.8-0.1l0-0.2l-0.2,0l-0.2,1.5l0.2,0l0-0.2c-0.1,0-0.1,0-0.2,0v0.2l0-0.2l-0.9,0h-1v3.9c0,1.2,0,1.8,0,2.1l0.2,0
		l-0.2,0c0,0.4,0.1,0.7,0.3,0.9c0.2,0.2,0.5,0.4,0.9,0.4v-0.2l0,0.2c0.1,0,0.1,0,0.2,0c0.1,0,0.2,0,0.3,0c0.1,0,0.3-0.1,0.5-0.1
		l0-0.2l-0.2,0l0.1,0.4l-0.3,0.3l0,0c-0.3,0.3-0.5,0.6-0.7,0.9l0.1,0.1l-0.1-0.1c-0.2,0.1-0.4,0.2-0.6,0.2c-0.2,0-0.3,0.1-0.5,0.1
		c-0.7,0-1.2-0.2-1.5-0.6c-0.4-0.4-0.6-0.9-0.6-1.6v0l0-3.7v-2.9h-0.4c-0.3,0-0.7,0-1,0L593.5,318.5h0.2H593.5l0,0.2
		c0.3,0,0.6,0,0.9,0h0.1v2.6v0l0,3.7v0c0,0.7,0.2,1.3,0.6,1.8c0.4,0.5,1,0.7,1.8,0.7c0.2,0,0.4,0,0.6-0.1c0.2,0,0.4-0.1,0.7-0.3l0,0
		l0,0c0.2-0.3,0.4-0.5,0.7-0.9l-0.1-0.1l0.1,0.1l0.4-0.5l-0.2-0.7l-0.1,0c-0.2,0.1-0.3,0.1-0.5,0.1c-0.1,0-0.2,0-0.3,0
		c0,0-0.1,0-0.2,0h0h0c-0.3,0-0.5-0.1-0.6-0.2c-0.1-0.2-0.2-0.4-0.3-0.7l0,0v0c0-0.2,0-0.9,0-2v-3.6h0.7l0.9,0h0c0.1,0,0.1,0,0.2,0
		l0.1,0l0.2-1.8l-0.2,0c-0.4,0.1-1,0.1-1.8,0.1h-0.1l0.1-1.8v0l0.1-1.3l0.1-1.2l-0.4-0.4l-0.1,0.1c-0.4,0.2-0.6,0.4-0.8,0.5
		c-0.1,0.1-0.2,0.1-0.2,0.1l-0.1,0l0,0l0,0l0,0l0,0l0,0l0,0l0,0l0.1,0.1l-0.1-0.1c-0.2,0.1-0.5,0.2-1.1,0.5l-0.1,0l0,0.1
		c0,0.8,0.1,1.5,0.1,2v1.5h0.2l-0.1-0.1c-0.1,0.1-0.2,0.2-0.4,0.3l-0.9,0.7v0.8l0.2,0L593.5,318.5z"/>
	<path class="st4" d="M605.4,326.1v0.9c-0.7,0-1.4-0.1-2.3-0.1c-0.9,0-1.9,0-2.9,0.1v-0.9c0.5,0,0.8,0,1-0.1c0.1,0,0.1-0.1,0.2-0.2
		c0.1-0.1,0.1-0.4,0.1-0.8l0-1c0-0.2,0-0.5,0-1v-1.5c0-0.7,0-1.5-0.1-2.4c0-0.5,0-0.7-0.1-0.8c0-0.1-0.1-0.1-0.2-0.1
		c-0.1-0.1-0.5-0.1-1-0.1v-0.9c1.1-0.2,1.8-0.4,2.1-0.5c0.3-0.1,0.7-0.3,1.2-0.5l0.2,0.1l0,2.3c0.4-0.5,0.7-0.9,0.9-1.2
		c0.3-0.5,0.5-0.8,0.7-0.9c0.2-0.2,0.5-0.3,0.9-0.3c0.2,0,0.4,0,0.6,0.1l-0.1,1.6c0,0.9,0,1.4,0,1.5l-0.4,0.1
		c-0.1-0.2-0.3-0.4-0.4-0.5c-0.2-0.2-0.5-0.2-0.7-0.2c-0.4,0-0.7,0.1-0.9,0.4c-0.3,0.3-0.4,0.6-0.5,0.8c0,0.2,0,0.8,0,1.9v1.1l0,1.5
		c0,0.6,0,0.9,0,1.1c0,0.1,0.1,0.2,0.2,0.3c0.1,0.1,0.3,0.1,0.6,0.2L605.4,326.1z"/>
	<path class="st4" d="M605.4,326.1h-0.2v0.9h0.2l0-0.2c-0.7,0-1.4-0.1-2.3-0.1c-0.9,0-1.9,0-2.9,0.1l0,0.2h0.2v-0.9h-0.2v0.2
		c0.5,0,0.8,0,1-0.1l-0.1-0.1l0.1,0.1c0.1-0.1,0.2-0.1,0.3-0.3l0,0l0,0c0.1-0.2,0.1-0.5,0.1-0.9l-0.2,0l0.2,0l0-1v0c0-0.2,0-0.6,0-1
		v-1.5c0-0.7,0-1.5-0.1-2.4c0-0.2,0-0.4,0-0.6c0-0.1,0-0.1,0-0.2c0,0,0-0.1,0-0.1l0,0c0-0.1-0.1-0.2-0.2-0.2l-0.1,0.1l0.1-0.1
		c-0.1,0-0.2-0.1-0.4-0.1c-0.2,0-0.4,0-0.7,0l0,0.2h0.2v-0.9h-0.2l0,0.2c1.1-0.2,1.8-0.4,2.2-0.5c0.4-0.1,0.7-0.3,1.2-0.6l-0.1-0.1
		l-0.1,0.1l0.2,0.1l0,2.6l0.3-0.4c0.4-0.5,0.7-0.9,0.9-1.3l-0.1-0.1l0.1,0.1c0.3-0.5,0.5-0.7,0.7-0.8l0,0c0.2-0.2,0.4-0.2,0.7-0.2
		c0.2,0,0.4,0,0.5,0.1l0.1-0.1l-0.2,0l-0.1,1.6v0c0,0.9,0,1.4,0,1.5l0.2,0l-0.1-0.1l-0.4,0.1l0.1,0.1l0.1-0.1
		c-0.2-0.3-0.3-0.4-0.5-0.6c-0.2-0.2-0.5-0.3-0.8-0.3c-0.4,0-0.8,0.2-1,0.5c-0.3,0.3-0.4,0.6-0.5,0.9l0,0v0c0,0.1,0,0.3,0,0.6
		c0,0.3,0,0.7,0,1.3v1.1v0l0,1.5c0,0.3,0,0.5,0,0.7c0,0.2,0,0.3,0,0.4c0,0.2,0.1,0.3,0.2,0.4c0.1,0.1,0.2,0.1,0.3,0.1
		c0.1,0,0.3,0.1,0.4,0.1l0-0.2l0,0.2l0.7,0.1L605.4,326.1h-0.2H605.4l0-0.2l-0.7-0.1l0,0c-0.2,0-0.3,0-0.4-0.1
		c-0.1,0-0.1-0.1-0.2-0.1c-0.1-0.1-0.1-0.1-0.1-0.2c0,0,0-0.2,0-0.3c0-0.2,0-0.4,0-0.7l0-1.5l-0.2,0h0.2v-1.1c0-0.5,0-1,0-1.3
		c0-0.3,0-0.5,0-0.6l-0.2,0l0.2,0c0-0.2,0.2-0.5,0.4-0.8c0.2-0.2,0.5-0.4,0.8-0.4c0.2,0,0.4,0.1,0.6,0.2c0.1,0.1,0.2,0.2,0.4,0.5
		l0.1,0.1l0.6-0.2l0-0.1c0-0.1,0-0.6,0-1.5l-0.2,0l0.2,0l0.1-1.7l-0.1,0c-0.2-0.1-0.4-0.2-0.7-0.2c-0.4,0-0.7,0.1-1,0.3l0,0
		c-0.2,0.2-0.4,0.5-0.7,0.9l0,0c-0.2,0.3-0.5,0.7-0.9,1.2l0.1,0.1l0.2,0l0-2.4l-0.4-0.2l-0.1,0c-0.4,0.2-0.8,0.4-1.1,0.5
		c-0.3,0.1-1,0.3-2.1,0.5l-0.1,0v1.1l0.2,0c0.3,0,0.5,0,0.7,0c0.2,0,0.3,0,0.3,0.1l0,0l0,0c0,0,0.1,0,0.1,0.1l0,0l0,0l0,0l0,0l0,0
		l0,0c0,0,0,0.1,0,0.2c0,0.1,0,0.3,0,0.5c0,0.9,0.1,1.8,0.1,2.4v1.5c0,0.5,0,0.8,0,1v0l0,1v0c0,0.4,0,0.6-0.1,0.7l0.1,0.1l-0.1-0.1
		c0,0.1-0.1,0.1-0.1,0.1l0,0c-0.1,0.1-0.4,0.1-0.9,0.1h-0.2v1.2l0.2,0c1,0,2-0.1,2.9-0.1c0.8,0,1.6,0,2.3,0.1l0.2,0V326l-0.1,0
		L605.4,326.1z"/>
	<path class="st4" d="M607.9,327v-0.8c0.7-0.1,1.1-0.1,1.1-0.2c0.1-0.1,0.2-0.2,0.2-0.4c0.1-0.4,0.1-1.5,0.1-3.2c0-2.3,0-3.7-0.1-4
		c0-0.1-0.1-0.2-0.1-0.3c-0.1-0.1-0.5-0.1-1.2-0.2v-0.9c0.9-0.1,1.6-0.2,2-0.4c0.5-0.1,1-0.3,1.5-0.6l0.2,0.1
		c-0.1,1.2-0.1,2.3-0.1,3.3v3.8c0,1.3,0,2.1,0.1,2.3c0,0.1,0.1,0.2,0.1,0.3c0.2,0.1,0.6,0.2,1.2,0.2v0.9c-0.8,0-1.8,0-2.8,0
		C609.4,326.9,608.6,327,607.9,327z M610.4,310.8c0.4,0,0.7,0.2,1,0.5c0.3,0.3,0.4,0.7,0.4,1.2c0,0.5-0.1,0.9-0.4,1.2
		c-0.3,0.3-0.6,0.5-1,0.5c-0.4,0-0.7-0.2-1-0.5c-0.3-0.3-0.4-0.7-0.4-1.2c0-0.5,0.1-0.9,0.4-1.2C609.7,310.9,610,310.8,610.4,310.8z
		"/>
	<path class="st4" d="M607.9,327h0.2v-0.8h-0.2l0,0.2c0.3,0,0.6-0.1,0.8-0.1c0.1,0,0.2,0,0.3-0.1c0.1,0,0.1,0,0.2-0.1
		c0.1-0.1,0.2-0.3,0.2-0.5l-0.2,0l0.2,0c0.1-0.4,0.1-1.5,0.1-3.2c0-1.2,0-2.1,0-2.8c0-0.3,0-0.6,0-0.8c0-0.2,0-0.4,0-0.4v0
		c0-0.1,0-0.2-0.1-0.2c0-0.1-0.1-0.1-0.1-0.2l0,0l0,0c-0.1,0-0.1-0.1-0.2-0.1c-0.2-0.1-0.6-0.1-1.1-0.1l0,0.2h0.2v-0.9h-0.2l0,0.2
		c0.9-0.1,1.6-0.2,2.1-0.4c0.5-0.1,1-0.3,1.5-0.6l-0.1-0.1l-0.1,0.1l0.2,0.1l0.1-0.1l-0.2,0c-0.1,1.2-0.1,2.3-0.1,3.3v3.8
		c0,0.7,0,1.2,0,1.6c0,0.4,0,0.6,0.1,0.8l0.2,0l-0.2,0c0,0.1,0,0.2,0.1,0.2c0,0.1,0.1,0.1,0.1,0.2l0,0c0.1,0.1,0.3,0.1,0.5,0.1
		c0.2,0,0.5,0.1,0.8,0.1l0-0.2h-0.2v0.9h0.2l0-0.2c-0.9,0-1.8,0-2.8,0c-0.9,0-1.6,0-2.3,0L607.9,327h0.2H607.9l0,0.2
		c0.7,0,1.4,0,2.3,0c1,0,1.9,0,2.8,0l0.2,0V326l-0.2,0c-0.3,0-0.6,0-0.7-0.1c-0.2,0-0.3-0.1-0.4-0.1l-0.1,0.1l0.1-0.1l0,0
		c0,0,0-0.1,0-0.1l0,0l0,0c0-0.1,0-0.3-0.1-0.7c0-0.4,0-0.9,0-1.5v-3.8c0-1,0-2.1,0.1-3.3l0-0.1l-0.4-0.2l-0.1,0
		c-0.5,0.3-1,0.5-1.5,0.6c-0.4,0.1-1.1,0.3-2,0.4l-0.1,0v1.2l0.2,0c0.3,0,0.6,0,0.8,0c0.1,0,0.2,0,0.2,0c0.1,0,0.1,0,0.1,0l0.1-0.1
		l-0.1,0.1l0,0c0,0,0,0.1,0.1,0.2v0c0,0.1,0,0.2,0,0.4c0,0.6,0,1.8,0,3.5c0,1.7,0,2.8-0.1,3.1l0,0v0c0,0.2-0.1,0.3-0.1,0.3l0,0l0,0
		l0,0l0,0l0,0c0,0,0,0-0.1,0c-0.2,0-0.5,0.1-1,0.1l-0.1,0v1.1l0.2,0L607.9,327z M610.4,310.8v0.2c0.3,0,0.6,0.1,0.8,0.4
		c0.2,0.3,0.4,0.7,0.4,1.1c0,0.4-0.1,0.8-0.4,1.1c-0.2,0.3-0.5,0.4-0.8,0.4c-0.3,0-0.6-0.1-0.8-0.4c-0.2-0.3-0.4-0.7-0.4-1.1
		c0-0.4,0.1-0.8,0.4-1.1c0.2-0.3,0.5-0.4,0.8-0.4V310.8v-0.2c-0.4,0-0.8,0.2-1.1,0.6c-0.3,0.4-0.4,0.8-0.4,1.3c0,0.5,0.1,1,0.4,1.3
		c0.3,0.4,0.7,0.6,1.1,0.6c0.4,0,0.8-0.2,1.1-0.6c0.3-0.4,0.4-0.8,0.4-1.3c0-0.5-0.1-0.9-0.4-1.3c-0.3-0.4-0.7-0.6-1.1-0.6V310.8z"
		/>
	<path class="st4" d="M614.3,318.5V318l0.8-0.6c0.1-0.1,0.3-0.2,0.4-0.3v-1.5c0-0.5,0-1.2-0.1-2c0.6-0.2,1-0.4,1.1-0.5
		c0,0,0.4-0.2,1.1-0.7l0.2,0.2l-0.1,1.2l-0.1,1.3l-0.1,2h0.3c0.8,0,1.4,0,1.8-0.1l-0.2,1.5c-0.1,0-0.1,0-0.2,0l-0.9,0h-0.9v3.7
		c0,1.1,0,1.8,0,2c0,0.4,0.1,0.6,0.3,0.8c0.2,0.2,0.4,0.3,0.8,0.3c0.2,0,0.4,0,0.5,0c0.1,0,0.3-0.1,0.5-0.1l0.1,0.5l-0.3,0.4
		c-0.3,0.3-0.5,0.6-0.7,0.9c-0.2,0.1-0.4,0.2-0.6,0.3c-0.2,0-0.4,0.1-0.6,0.1c-0.7,0-1.2-0.2-1.6-0.7c-0.4-0.4-0.6-1-0.6-1.7l0-3.7
		v-2.8h-0.2C614.9,318.4,614.6,318.4,614.3,318.5z"/>
	<path class="st4" d="M614.3,318.5h0.2V318l0.7-0.6c0.1-0.1,0.3-0.2,0.4-0.3l0,0v-1.6c0-0.5,0-1.2-0.1-2l-0.2,0l0.1,0.1
		c0.6-0.2,1-0.4,1.1-0.5l0,0l0,0l0,0c0.1-0.1,0.5-0.3,1.1-0.6l-0.1-0.1l-0.1,0.1l0.2,0.2l-0.1,1.1l-0.1,1.3v0l-0.1,2.1h0.5
		c0.8,0,1.4,0,1.8-0.1l0-0.2l-0.2,0l-0.2,1.5l0.2,0l0-0.2c-0.1,0-0.1,0-0.2,0v0.2l0-0.2l-0.9,0h-1v3.9c0,1.2,0,1.8,0,2.1l0.2,0
		l-0.2,0c0,0.4,0.1,0.7,0.3,0.9c0.2,0.2,0.5,0.4,0.9,0.4v-0.2l0,0.2c0.1,0,0.1,0,0.2,0c0.1,0,0.2,0,0.3,0c0.1,0,0.3-0.1,0.5-0.1
		l0-0.2l-0.2,0l0.1,0.4l-0.3,0.3l0,0c-0.3,0.3-0.5,0.6-0.7,0.9l0.1,0.1l-0.1-0.1c-0.2,0.1-0.4,0.2-0.6,0.2c-0.2,0-0.3,0.1-0.5,0.1
		c-0.7,0-1.2-0.2-1.5-0.6c-0.4-0.4-0.6-0.9-0.6-1.6v0l0-3.7v-2.9h-0.4c-0.3,0-0.7,0-1,0L614.3,318.5h0.2H614.3l0,0.2
		c0.3,0,0.6,0,0.9,0h0.1v2.6v0l0,3.7v0c0,0.7,0.2,1.3,0.6,1.8c0.4,0.5,1,0.7,1.8,0.7c0.2,0,0.4,0,0.6-0.1c0.2,0,0.4-0.1,0.7-0.3l0,0
		l0,0c0.2-0.3,0.4-0.5,0.7-0.9l-0.1-0.1l0.1,0.1l0.4-0.5l-0.2-0.7l-0.1,0c-0.2,0.1-0.3,0.1-0.5,0.1c-0.1,0-0.2,0-0.3,0
		c0,0-0.1,0-0.2,0h0h0c-0.3,0-0.5-0.1-0.6-0.2c-0.1-0.2-0.2-0.4-0.3-0.7l0,0c0-0.2,0-0.9,0-2v-3.6h0.7l0.9,0h0c0.1,0,0.1,0,0.2,0
		l0.1,0l0.2-1.8l-0.2,0c-0.4,0.1-1,0.1-1.8,0.1h-0.1l0.1-1.8l0,0l0.1-1.3l0.1-1.2l-0.4-0.4l-0.1,0.1c-0.4,0.2-0.6,0.4-0.8,0.5
		c-0.1,0.1-0.2,0.1-0.2,0.1l-0.1,0l0,0l0,0l0,0l0,0l0,0l0,0l0,0l0.1,0.1l-0.1-0.1c-0.2,0.1-0.5,0.2-1.1,0.5l-0.1,0l0,0.1
		c0,0.8,0.1,1.5,0.1,2v1.5h0.2l-0.1-0.1c-0.1,0.1-0.2,0.2-0.4,0.3l-0.9,0.7v0.8l0.2,0L614.3,318.5z"/>
	<path class="st4" d="M621.1,327v-0.8c0.7-0.1,1.1-0.1,1.1-0.2c0.1-0.1,0.2-0.2,0.2-0.4c0.1-0.4,0.1-1.5,0.1-3.2c0-2.3,0-3.7-0.1-4
		c0-0.1-0.1-0.2-0.1-0.3c-0.1-0.1-0.5-0.1-1.2-0.2v-0.9c0.9-0.1,1.6-0.2,2-0.4c0.5-0.1,1-0.3,1.5-0.6l0.2,0.1
		c-0.1,1.2-0.1,2.3-0.1,3.3v3.8c0,1.3,0,2.1,0.1,2.3c0,0.1,0.1,0.2,0.1,0.3c0.2,0.1,0.6,0.2,1.2,0.2v0.9c-0.8,0-1.8,0-2.8,0
		C622.5,326.9,621.8,327,621.1,327z M623.6,310.8c0.4,0,0.7,0.2,1,0.5c0.3,0.3,0.4,0.7,0.4,1.2c0,0.5-0.1,0.9-0.4,1.2
		c-0.3,0.3-0.6,0.5-1,0.5c-0.4,0-0.7-0.2-1-0.5s-0.4-0.7-0.4-1.2c0-0.5,0.1-0.9,0.4-1.2C622.8,310.9,623.2,310.8,623.6,310.8z"/>
	<path class="st4" d="M621.1,327h0.2v-0.8h-0.2l0,0.2c0.3,0,0.6-0.1,0.8-0.1c0.1,0,0.2,0,0.3-0.1c0.1,0,0.1,0,0.2-0.1
		c0.1-0.1,0.2-0.3,0.2-0.5l-0.2,0l0.2,0c0.1-0.4,0.1-1.5,0.1-3.2c0-1.2,0-2.1,0-2.8c0-0.3,0-0.6,0-0.8c0-0.2,0-0.4,0-0.4v0
		c0-0.1,0-0.2-0.1-0.2c0-0.1-0.1-0.1-0.1-0.2l0,0l0,0c-0.1,0-0.1-0.1-0.2-0.1c-0.2-0.1-0.6-0.1-1.1-0.1l0,0.2h0.2v-0.9h-0.2l0,0.2
		c0.9-0.1,1.6-0.2,2.1-0.4c0.5-0.1,1-0.3,1.5-0.6l-0.1-0.1l-0.1,0.1l0.2,0.1l0.1-0.1l-0.2,0c-0.1,1.2-0.1,2.3-0.1,3.3v3.8
		c0,0.7,0,1.2,0,1.6c0,0.4,0,0.6,0.1,0.8l0.2,0l-0.2,0c0,0.1,0,0.2,0.1,0.2c0,0.1,0.1,0.1,0.1,0.2l0,0c0.1,0.1,0.3,0.1,0.5,0.1
		c0.2,0,0.5,0.1,0.8,0.1l0-0.2H626v0.9h0.2l0-0.2c-0.9,0-1.8,0-2.8,0c-0.9,0-1.6,0-2.3,0L621.1,327h0.2H621.1l0,0.2
		c0.7,0,1.4,0,2.3,0c1,0,1.9,0,2.8,0l0.2,0V326l-0.2,0c-0.3,0-0.6,0-0.7-0.1c-0.2,0-0.3-0.1-0.4-0.1l-0.1,0.1l0.1-0.1l0,0
		c0,0,0-0.1,0-0.1l0,0l0,0c0-0.1,0-0.3-0.1-0.7c0-0.4,0-0.9,0-1.5v-3.8c0-1,0-2.1,0.1-3.3l0-0.1l-0.4-0.2l-0.1,0
		c-0.5,0.3-1,0.5-1.5,0.6c-0.4,0.1-1.1,0.3-2,0.4l-0.1,0v1.2l0.2,0c0.3,0,0.6,0,0.8,0c0.1,0,0.2,0,0.2,0c0.1,0,0.1,0,0.1,0l0.1-0.1
		l-0.1,0.1l0,0c0,0,0,0.1,0.1,0.2v0c0,0.1,0,0.2,0,0.4c0,0.6,0,1.8,0,3.5c0,1.7,0,2.8-0.1,3.1v0l0,0c0,0.2-0.1,0.3-0.1,0.3l0,0l0,0
		l0,0l0,0l0,0c0,0,0,0-0.1,0c-0.2,0-0.5,0.1-1,0.1l-0.1,0v1.1l0.2,0L621.1,327z M623.6,310.8v0.2c0.3,0,0.6,0.1,0.8,0.4
		c0.2,0.3,0.4,0.7,0.4,1.1c0,0.4-0.1,0.8-0.4,1.1c-0.2,0.3-0.5,0.4-0.8,0.4c-0.3,0-0.6-0.1-0.8-0.4c-0.2-0.3-0.4-0.7-0.4-1.1
		c0-0.4,0.1-0.8,0.4-1.1c0.2-0.3,0.5-0.4,0.8-0.4V310.8v-0.2c-0.4,0-0.8,0.2-1.1,0.6c-0.3,0.4-0.4,0.8-0.4,1.3c0,0.5,0.1,1,0.4,1.3
		c0.3,0.4,0.7,0.6,1.1,0.6c0.4,0,0.8-0.2,1.1-0.6c0.3-0.4,0.4-0.8,0.4-1.3c0-0.5-0.1-0.9-0.4-1.3c-0.3-0.4-0.7-0.6-1.1-0.6V310.8z"
		/>
	<path class="st4" d="M627.8,321.7c0-1.3,0.2-2.3,0.5-3.2c0.3-0.8,0.9-1.5,1.6-1.9c0.7-0.4,1.5-0.6,2.4-0.6c1.4,0,2.4,0.5,3.2,1.4
		c0.7,0.9,1.1,2.2,1.1,4c0,1-0.1,1.9-0.3,2.6c-0.2,0.7-0.5,1.3-0.8,1.8c-0.4,0.5-0.7,0.8-1.1,1c-0.7,0.4-1.4,0.6-2.2,0.6
		c-1.4,0-2.4-0.5-3.1-1.4C628.2,325,627.8,323.6,627.8,321.7z M630.3,321.2c0,2,0.2,3.4,0.7,4.2c0.3,0.6,0.8,0.8,1.3,0.8
		c0.5,0,0.9-0.2,1.2-0.6c0.4-0.6,0.6-1.7,0.6-3.3c0-1.1-0.1-2.1-0.2-2.9c-0.2-0.8-0.4-1.4-0.7-1.7c-0.3-0.3-0.7-0.5-1.1-0.5
		c-0.4,0-0.7,0.1-0.9,0.4c-0.3,0.2-0.5,0.6-0.6,1.2C630.4,319.3,630.3,320.1,630.3,321.2z"/>
	<path class="st4" d="M627.8,321.7h0.2c0-1.3,0.2-2.3,0.5-3.1c0.3-0.8,0.8-1.4,1.5-1.8c0.7-0.4,1.4-0.6,2.3-0.6c1.3,0,2.3,0.4,3,1.3
		c0.7,0.9,1,2.1,1,3.9c0,1-0.1,1.9-0.3,2.6c-0.2,0.7-0.5,1.3-0.8,1.7c-0.3,0.4-0.7,0.8-1.1,1l0,0c-0.6,0.4-1.4,0.6-2.2,0.6
		c-1.3,0-2.3-0.5-3-1.4c-0.7-0.9-1.1-2.3-1.1-4.1H627.8h-0.2c0,1.9,0.4,3.3,1.1,4.3c0.8,1,1.9,1.5,3.3,1.5c0.9,0,1.6-0.2,2.3-0.6
		l0,0c0.4-0.2,0.8-0.6,1.2-1.1c0.4-0.5,0.7-1.1,0.9-1.8c0.2-0.8,0.3-1.6,0.3-2.7c0-1.8-0.4-3.1-1.1-4.1c-0.8-0.9-1.9-1.4-3.3-1.4
		c-0.9,0-1.8,0.2-2.5,0.7c-0.7,0.4-1.3,1.1-1.6,2c-0.4,0.9-0.5,1.9-0.5,3.2H627.8z M630.3,321.2h-0.2c0,2,0.2,3.4,0.7,4.3
		c0.2,0.3,0.4,0.5,0.6,0.7c0.2,0.2,0.5,0.2,0.8,0.2c0.3,0,0.5-0.1,0.7-0.2c0.2-0.1,0.4-0.3,0.6-0.5c0.4-0.6,0.6-1.7,0.6-3.4
		c0-1.1-0.1-2.1-0.2-3c-0.2-0.8-0.4-1.4-0.7-1.8c-0.3-0.3-0.7-0.5-1.2-0.5c-0.4,0-0.8,0.1-1,0.4c-0.3,0.3-0.5,0.7-0.7,1.3
		c-0.2,0.6-0.2,1.4-0.2,2.5H630.3h0.2c0-1.1,0.1-1.9,0.2-2.4c0.1-0.5,0.3-0.9,0.6-1.1c0.2-0.2,0.5-0.3,0.8-0.3c0.4,0,0.7,0.1,1,0.4
		c0.3,0.3,0.5,0.8,0.6,1.6c0.2,0.8,0.2,1.8,0.2,2.9c0,1.6-0.2,2.7-0.5,3.2c-0.1,0.2-0.3,0.3-0.5,0.4c-0.2,0.1-0.4,0.1-0.6,0.1
		c-0.3,0-0.5-0.1-0.7-0.2c-0.2-0.1-0.4-0.3-0.5-0.6c-0.4-0.8-0.7-2.2-0.7-4.2H630.3z"/>
	<path class="st4" d="M648.6,326.1v0.9c-0.8-0.1-1.5-0.1-2-0.1c-0.6,0-1.1,0-1.5,0.1l-0.2-0.2c0-0.2,0.1-0.8,0.1-1.9l0-1.8v-0.9
		c0-1.3,0-2.2-0.1-2.6s-0.2-0.7-0.5-1c-0.3-0.3-0.6-0.4-1-0.4c-0.4,0-0.8,0.1-1,0.4c-0.3,0.3-0.4,0.5-0.5,0.8c0,0.1-0.1,0.7-0.1,1.8
		v1.9c0,0.5,0,1.2,0,2c0,0.4,0,0.6,0.1,0.7c0,0.1,0.1,0.1,0.1,0.2c0.1,0.1,0.2,0.1,0.4,0.2c0.1,0,0.3,0,0.8,0.1v0.9
		c-0.7,0-1.5,0-2.4,0c-1.1,0-1.9,0-2.5,0v-0.9c0.5,0,0.8,0,1-0.1c0.1,0,0.1-0.1,0.2-0.2c0.1-0.1,0.1-0.4,0.1-0.8l0-1
		c0-0.2,0-0.5,0-1v-1.5c0-0.7,0-1.5-0.1-2.4c0-0.5,0-0.7-0.1-0.8c0-0.1-0.1-0.1-0.2-0.1c-0.1-0.1-0.5-0.1-1-0.1v-0.9
		c1.1-0.2,1.8-0.4,2.1-0.5c0.3-0.1,0.7-0.3,1.2-0.5l0.2,0.1v1.8l1.6-1.6c0.2-0.1,0.4-0.2,0.5-0.2c0.1,0,0.3-0.1,0.6-0.1
		c0.6,0,1.1,0.1,1.4,0.3c0.3,0.2,0.6,0.4,0.8,0.8c0.2,0.3,0.4,0.7,0.5,1c0.1,0.4,0.1,0.9,0.1,1.7c0,0.9,0,1.4,0,1.6
		c0,0.1,0,0.2,0,0.3l0,1.2c0,1.3,0,2,0,2.3c0,0.3,0.1,0.5,0.2,0.6c0.1,0.1,0.3,0.1,0.5,0.2C648.2,326.1,648.3,326.1,648.6,326.1z"/>
	<path class="st4" d="M648.6,326.1h-0.2v0.9h0.2l0-0.2c-0.8-0.1-1.5-0.1-2-0.1c-0.6,0-1.1,0-1.6,0.1l0,0.2l0.1-0.1l-0.2-0.2
		l-0.1,0.1l0.2,0c0-0.2,0.1-0.8,0.1-1.9v0l0-1.8v-0.9c0-1.3,0-2.2-0.1-2.6c-0.1-0.4-0.3-0.8-0.5-1.1c-0.3-0.3-0.7-0.4-1.1-0.4
		c-0.4,0-0.8,0.1-1.1,0.4c-0.3,0.3-0.5,0.5-0.6,0.8c0,0.1,0,0.1,0,0.2c0,0.2,0,0.7,0,1.3c0,0.1,0,0.2,0,0.4v0v1.9c0,0.5,0,1.2,0,2
		l0.2,0l-0.2,0c0,0.2,0,0.3,0,0.5c0,0.1,0,0.2,0.1,0.3l0,0c0,0.1,0.1,0.2,0.2,0.3l0.1-0.1l-0.1,0.1c0.1,0.1,0.3,0.1,0.5,0.2l0,0l0,0
		c0,0,0.1,0,0.3,0c0.1,0,0.3,0,0.5,0.1l0-0.2H643v0.9h0.2l0-0.2c-0.7,0-1.5,0-2.4,0c-1.1,0-1.9,0-2.6,0l0,0.2h0.2v-0.9h-0.2v0.2
		c0.5,0,0.8,0,1-0.1l-0.1-0.1l0.1,0.1c0.1-0.1,0.2-0.1,0.3-0.3l0,0l0,0c0.1-0.2,0.1-0.5,0.1-0.9l-0.2,0l0.2,0l0-1v0c0-0.2,0-0.6,0-1
		v-1.5c0-0.7,0-1.5-0.1-2.4c0-0.2,0-0.4,0-0.6c0-0.1,0-0.1,0-0.2c0,0,0-0.1,0-0.1l0,0c0-0.1-0.1-0.2-0.2-0.2l-0.1,0.1l0.1-0.1
		c-0.1,0-0.2-0.1-0.4-0.1c-0.2,0-0.4,0-0.7,0l0,0.2h0.2v-0.9h-0.2l0,0.2c1.1-0.2,1.8-0.4,2.2-0.5c0.4-0.1,0.7-0.3,1.2-0.6l-0.1-0.1
		l-0.1,0.1l0.2,0.1v2.1l1.9-1.9l-0.1-0.1l0.1,0.1c0.2-0.1,0.3-0.2,0.5-0.2c0.1,0,0.3,0,0.5,0c0.6,0,1.1,0.1,1.4,0.2
		c0.3,0.2,0.5,0.4,0.8,0.7c0.2,0.3,0.4,0.6,0.4,1c0.1,0.3,0.1,0.9,0.1,1.6c0,0.8,0,1.4,0,1.6l0.2,0l-0.2,0c0,0.1,0,0.2,0,0.3v0
		l0,1.2c0,1.3,0,2,0.1,2.4c0,0.2,0,0.3,0.1,0.4c0,0.1,0.1,0.2,0.1,0.3c0.1,0.1,0.2,0.1,0.3,0.1c0.1,0,0.2,0.1,0.4,0.1l0,0
		c0.1,0,0.3,0,0.5,0.1L648.6,326.1h-0.2H648.6l0-0.2c-0.2,0-0.4,0-0.5-0.1l0,0c-0.1,0-0.2,0-0.3-0.1c-0.1,0-0.1,0-0.1-0.1
		c0,0,0-0.1-0.1-0.1c0-0.1,0-0.2-0.1-0.3c0-0.3,0-1.1,0-2.3l0-1.2v0c0-0.1,0-0.2,0-0.3v0c0-0.2,0-0.8,0-1.6c0-0.8,0-1.3-0.1-1.7
		c-0.1-0.4-0.3-0.7-0.5-1.1c-0.2-0.3-0.5-0.6-0.9-0.8c-0.4-0.2-0.9-0.3-1.5-0.3c-0.2,0-0.4,0-0.6,0.1c-0.2,0-0.3,0.1-0.5,0.2l0,0
		l-1.4,1.4v-1.5l-0.4-0.2l-0.1,0c-0.4,0.2-0.8,0.4-1.1,0.5c-0.3,0.1-1,0.3-2.1,0.5l-0.1,0v1.1l0.2,0c0.3,0,0.5,0,0.7,0
		c0.2,0,0.3,0,0.3,0.1l0,0l0,0c0,0,0.1,0,0.1,0.1l0,0l0,0l0,0l0,0l0,0l0,0c0,0,0,0.1,0,0.2c0,0.1,0,0.3,0,0.5c0,0.9,0.1,1.8,0.1,2.4
		v1.5c0,0.5,0,0.8,0,1v0l0,1v0c0,0.4,0,0.6-0.1,0.7l0.1,0.1l-0.1-0.1c0,0.1-0.1,0.1-0.1,0.1l0,0c-0.1,0.1-0.4,0.1-0.9,0.1h-0.2v1.2
		l0.2,0c0.6,0,1.4,0,2.5,0c0.9,0,1.7,0,2.4,0l0.2,0V326l-0.1,0c-0.2,0-0.4,0-0.5-0.1c-0.1,0-0.2,0-0.2,0l0,0.2l0-0.2
		c-0.2,0-0.3-0.1-0.4-0.1l0,0l0,0c0,0,0,0-0.1-0.1l0,0c0,0,0-0.1,0-0.2c0-0.1,0-0.3,0-0.4v0v0c0-0.8,0-1.5,0-2v-1.9v0
		c0-0.1,0-0.3,0-0.4c0-0.4,0-0.7,0-1c0-0.1,0-0.2,0-0.3c0-0.1,0-0.1,0-0.1c0.1-0.2,0.2-0.4,0.5-0.7c0.2-0.2,0.5-0.3,0.9-0.3
		c0.4,0,0.7,0.1,0.9,0.3c0.2,0.2,0.4,0.5,0.5,0.9c0.1,0.4,0.1,1.2,0.1,2.5v0.9h0.2l-0.2,0l0,1.8l0.2,0l-0.2,0
		c-0.1,1.1-0.1,1.8-0.1,1.9l0,0.1l0.3,0.3l0.1,0c0.4-0.1,0.9-0.1,1.5-0.1c0.5,0,1.2,0,2,0.1l0.2,0V326l-0.1,0L648.6,326.1z"/>
</g>
</svg>
