<?xml version="1.0" encoding="utf-8"?>
<!-- Generator: Adobe Illustrator 23.0.1, SVG Export Plug-In . SVG Version: 6.00 Build 0)  -->
<svg version="1.1" id="Layer_1" xmlns="http://www.w3.org/2000/svg" xmlns:xlink="http://www.w3.org/1999/xlink" x="0px" y="0px"
	 viewBox="0 0 288 288" style="enable-background:new 0 0 288 288;" xml:space="preserve">
<style type="text/css">
	.st0{fill:#FFFFFF;}
	.st1{fill:#6AAA37;}
</style>
<circle class="st0" cx="144" cy="144" r="136.01"/>
<g>
	<g>
		<path class="st1" d="M243.28,44.72C217.87,19.32,182.77,3.6,144,3.6c-38.77,0-73.87,15.72-99.28,41.12
			C19.32,70.13,3.6,105.23,3.6,144c0,38.77,15.72,73.87,41.12,99.28c25.4,25.41,60.51,41.12,99.28,41.12
			c38.77,0,73.87-15.72,99.28-41.12c25.41-25.4,41.12-60.51,41.12-99.28C284.4,105.23,268.68,70.13,243.28,44.72z M240.17,240.17
			c-24.61,24.61-58.62,39.84-96.17,39.84c-37.55,0-71.56-15.23-96.17-39.84C23.22,215.56,7.99,181.55,7.99,144
			c0-37.55,15.23-71.56,39.84-96.17C72.44,23.22,106.45,7.99,144,7.99c37.55,0,71.56,15.23,96.17,39.84
			c24.61,24.61,39.84,58.62,39.84,96.17C280.01,181.55,264.78,215.56,240.17,240.17z"/>
	</g>
	<polygon class="st0" points="135.37,106.91 135.37,106.91 135.37,106.91 	"/>
	<g>
		<path class="st0" d="M144,12.94c36.19,0,68.95,14.67,92.67,38.39c23.72,23.72,38.38,56.48,38.39,92.67
			c0,36.19-14.67,68.95-38.39,92.67c-23.72,23.72-56.48,38.38-92.67,38.39c-36.19,0-68.95-14.67-92.67-38.39
			C27.61,212.95,12.94,180.19,12.94,144c0-36.19,14.67-68.95,38.39-92.67C75.05,27.61,107.81,12.94,144,12.94 M105.09,99.92
			C105.09,99.92,105.09,99.92,105.09,99.92c-3.27,0-6.21,0.55-8.84,1.54c-3.96,1.48-7.18,3.92-9.8,6.83
			c-1.35,1.5-2.54,3.12-3.59,4.81l-0.45-11.07H67.06l0.11,1.86c0.46,7.61,0.61,15.43,0.61,24.99v69.38h16.68v-57.69
			c0-2.75,0.3-5.47,1-7.72l0.01-0.04l0.01-0.04c1-3.97,2.98-7.95,5.6-10.85c1.31-1.45,2.77-2.63,4.35-3.44
			c1.57-0.81,3.25-1.25,5.06-1.26c2.26,0,4.15,0.58,5.81,1.63c1.24,0.79,2.35,1.87,3.33,3.24c1.47,2.04,2.63,4.73,3.41,7.93
			c0.78,3.2,1.18,6.89,1.18,10.93v57.31h16.68v-59.04c0-2.88,0.44-5.83,1.01-7.97c1.08-3.86,3.03-7.45,5.52-9.99
			c1.25-1.27,2.62-2.29,4.08-2.98c1.46-0.69,3.01-1.07,4.65-1.07c2.44,0,4.44,0.59,6.17,1.68c1.3,0.82,2.45,1.95,3.46,3.42
			c1.52,2.19,2.71,5.15,3.51,8.8c0.8,3.65,1.21,7.98,1.21,12.9v54.25h16.68V141.9c0-8.18-0.92-14.88-2.5-20.35
			c-2.35-8.2-6.2-13.66-10.53-17.02c-4.32-3.37-9.06-4.61-13.09-4.61c0,0-0.01,0-0.01,0c-0.01,0-0.01,0-0.02,0
			c-3.71,0-6.94,0.61-9.83,1.81c-2.89,1.2-5.42,2.96-7.75,5.18c-2.53,2.37-4.92,5.46-6.99,9.23c-1.71-4.17-4.11-7.79-7.13-10.56
			c-3.85-3.54-8.74-5.66-14.24-5.66C105.11,99.92,105.1,99.92,105.09,99.92 M225.3,200.17C225.31,200.17,225.31,200.17,225.3,200.17
			c5.17,0,9.77-0.79,13.56-1.89c3.79-1.1,6.75-2.49,8.71-3.76l0.97-0.64l-0.21-1.14l-2.73-15.04l-2.13,1.17
			c-1.89,1.04-4,2.12-6.54,2.96c-2.55,0.83-5.53,1.42-9.17,1.42c-3.42,0-6.58-0.76-9.44-2.21c-4.28-2.17-7.9-5.91-10.47-11.09
			c-2.57-5.18-4.09-11.8-4.08-19.62c0-9.4,2.25-17.83,6.41-23.78c2.08-2.98,4.62-5.35,7.61-6.98c2.99-1.63,6.45-2.54,10.43-2.54
			c7.02,0,11.69,1.99,14.61,4.08l2.13,1.52l3.95-16.79l-1.06-0.66c-2.02-1.26-4.83-2.5-8.19-3.46c-3.36-0.95-7.27-1.6-11.43-1.6
			c0,0-0.01,0-0.01,0c-6.3,0-12.09,1.35-17.21,3.86c-7.68,3.76-13.8,10.1-17.97,18.21c-4.17,8.11-6.42,17.98-6.42,28.93
			c0,14.47,3.71,26.69,10.45,35.37c3.37,4.34,7.5,7.77,12.26,10.12C214.08,198.93,219.47,200.17,225.3,200.17 M39.33,198.26h16.99
			v-96.23H39.33V198.26"/>
	</g>
	<g>
		<path class="st0" d="M105.12,99.92c5.49,0,10.39,2.12,14.24,5.66c3.02,2.77,5.41,6.39,7.13,10.56c2.06-3.77,4.46-6.85,6.99-9.23
			c2.34-2.22,4.86-3.99,7.75-5.18c2.89-1.2,6.12-1.81,9.83-1.81c0.01,0,0.01,0,0.02,0c0,0,0.01,0,0.01,0
			c4.03,0,8.77,1.25,13.09,4.61c4.33,3.36,8.17,8.82,10.53,17.02c1.57,5.47,2.5,12.17,2.5,20.35v56.35h-16.68v-54.25
			c0-4.91-0.41-9.25-1.21-12.9c-0.8-3.65-1.99-6.61-3.51-8.8c-1.01-1.47-2.16-2.59-3.46-3.42c-1.73-1.09-3.73-1.68-6.17-1.68
			c-1.64,0-3.19,0.38-4.65,1.07c-1.46,0.69-2.83,1.71-4.08,2.98c-2.49,2.54-4.44,6.13-5.52,9.99c-0.57,2.14-1.01,5.08-1.01,7.97
			v59.04h-16.68v-57.31c0-4.03-0.4-7.73-1.18-10.93c-0.78-3.2-1.94-5.89-3.41-7.93c-0.98-1.36-2.09-2.44-3.33-3.24
			c-1.66-1.05-3.54-1.63-5.81-1.63c-1.81,0-3.49,0.45-5.06,1.26c-1.57,0.81-3.04,1.99-4.35,3.44c-2.62,2.9-4.59,6.88-5.6,10.85
			l-0.01,0.04l-0.01,0.04c-0.7,2.25-1,4.97-1,7.72v57.69H67.78v-69.38c0-9.56-0.15-17.38-0.61-24.99l-0.11-1.86H82.4l0.45,11.07
			c1.06-1.69,2.24-3.31,3.59-4.81c2.61-2.91,5.84-5.35,9.8-6.83c2.63-0.98,5.58-1.54,8.84-1.54c0,0,0.01,0,0.01,0
			C105.1,99.92,105.11,99.92,105.12,99.92 M105.12,98.62L105.12,98.62l-0.03,0c-3.3,0-6.43,0.54-9.3,1.62
			c-3.85,1.44-7.32,3.85-10.31,7.18c-0.51,0.56-1,1.15-1.49,1.78l-0.3-7.22l-0.05-1.25H82.4H67.06h-1.38l0.08,1.38l0.11,1.86
			c0.43,7.1,0.61,14.55,0.61,24.91v69.38v1.3h1.3h16.68h1.3v-1.3v-57.69c0-2.81,0.32-5.35,0.94-7.34l0.01-0.05l0.01-0.02l0.01-0.03
			l0.01-0.04c0.99-3.93,2.93-7.68,5.3-10.3c1.24-1.37,2.58-2.43,3.98-3.15c1.46-0.75,2.92-1.11,4.47-1.11
			c1.93,0,3.61,0.47,5.11,1.43c1.09,0.7,2.09,1.68,2.97,2.9c1.38,1.92,2.46,4.44,3.2,7.48c0.76,3.12,1.15,6.69,1.15,10.62v57.31v1.3
			h1.3h16.68h1.3v-1.3v-59.04c0-2.5,0.36-5.35,0.96-7.62c1.04-3.72,2.88-7.06,5.2-9.42c1.16-1.19,2.41-2.1,3.71-2.71
			c1.34-0.63,2.68-0.94,4.09-0.94c2.11,0,3.9,0.49,5.47,1.48c1.16,0.74,2.17,1.74,3.09,3.06c1.44,2.08,2.56,4.89,3.31,8.34
			c0.78,3.56,1.18,7.81,1.18,12.62v54.25v1.3h1.3h16.68h1.3v-1.3V141.9c0-7.86-0.86-14.83-2.55-20.71
			c-2.24-7.82-5.94-13.77-10.98-17.69c-4.05-3.15-8.98-4.89-13.88-4.89h-0.03c-3.85,0-7.23,0.62-10.33,1.91
			c-2.88,1.19-5.55,2.97-8.15,5.44c-2.19,2.05-4.18,4.51-5.94,7.34c-1.7-3.43-3.84-6.35-6.4-8.69
			C115.97,100.69,110.74,98.62,105.12,98.62L105.12,98.62z"/>
		<path class="st0" d="M228.22,100.11C228.22,100.11,228.22,100.11,228.22,100.11c4.18,0,8.08,0.65,11.44,1.6
			c3.36,0.95,6.17,2.2,8.19,3.46l1.06,0.66l-3.95,16.79l-2.13-1.52c-2.93-2.09-7.59-4.08-14.61-4.08c-3.98,0-7.44,0.91-10.43,2.54
			c-2.99,1.63-5.53,4-7.61,6.98c-4.16,5.95-6.41,14.38-6.41,23.78c0,7.82,1.51,14.44,4.08,19.62c2.58,5.18,6.19,8.92,10.47,11.09
			c2.86,1.45,6.02,2.21,9.44,2.21c3.64,0,6.62-0.59,9.17-1.42c2.55-0.84,4.66-1.92,6.54-2.96l2.13-1.17l2.73,15.04l0.21,1.14
			l-0.97,0.64c-1.96,1.27-4.92,2.66-8.71,3.76c-3.79,1.1-8.39,1.89-13.55,1.89c0,0-0.01,0-0.01,0c-5.84,0-11.22-1.24-15.98-3.59
			c-4.76-2.34-8.89-5.78-12.26-10.12c-6.74-8.68-10.44-20.9-10.45-35.37c0-10.94,2.24-20.82,6.42-28.93
			c4.17-8.1,10.29-14.45,17.97-18.21C216.12,101.46,221.92,100.11,228.22,100.11 M228.22,98.81L228.22,98.81L228.22,98.81
			c-6.4,0-12.38,1.34-17.79,3.99c-7.78,3.81-14.19,10.3-18.55,18.78c-4.29,8.34-6.56,18.55-6.56,29.52
			c0,14.63,3.71,27.13,10.72,36.17c3.53,4.55,7.81,8.07,12.71,10.49c5.01,2.47,10.58,3.72,16.55,3.72c4.79,0,9.47-0.65,13.92-1.94
			c3.53-1.02,6.74-2.42,9.06-3.92l0.98-0.64l0.72-0.47l-0.15-0.85l-0.21-1.14l-2.73-15.04l-0.32-1.78l-1.58,0.87l-2.13,1.17
			c-1.85,1.02-3.89,2.07-6.32,2.86c-2.78,0.91-5.65,1.36-8.76,1.36c-3.16,0-6.14-0.7-8.85-2.07c-4.09-2.08-7.51-5.71-9.9-10.51
			c-2.58-5.2-3.95-11.78-3.95-19.04c0-9.15,2.19-17.34,6.18-23.04c2-2.86,4.41-5.08,7.17-6.58c2.9-1.58,6.2-2.38,9.81-2.38
			c7.01,0,11.4,2.09,13.86,3.84l2.12,1.52l1.58,1.13l0.44-1.89l3.95-16.79l0.21-0.91l-0.79-0.49l-1.06-0.66
			c-2.29-1.43-5.23-2.67-8.53-3.61C236.15,99.36,232.18,98.81,228.22,98.81L228.22,98.81z"/>
		<path class="st0" d="M56.32,102.03v96.23H39.33v-96.23H56.32 M57.62,100.73h-1.3H39.33h-1.3v1.3v96.23v1.3h1.3h16.99h1.3v-1.3
			v-96.23V100.73L57.62,100.73z"/>
		<g>
			<path class="st1" d="M236.67,51.33C212.95,27.61,180.19,12.94,144,12.94c-36.19,0-68.95,14.67-92.67,38.39
				C27.61,75.05,12.94,107.81,12.94,144c0,36.19,14.67,68.95,38.39,92.67c23.72,23.72,56.48,38.38,92.67,38.39
				c36.19,0,68.95-14.67,92.67-38.39c23.72-23.72,38.38-56.48,38.39-92.67C275.06,107.81,260.39,75.05,236.67,51.33z M39.22,79.54
				c0.2-1.19,0.54-2.33,0.95-3.45c0.41-1.11,0.86-2.21,1.28-3.32c0.3-0.79,0.61-1.57,0.88-2.37c0.2-0.59,0.35-1.2,0.48-1.82
				c0.08-0.36,0.07-0.75,0.11-1.13l0.01-0.17c0.02-0.16,0.13-0.23,0.27-0.17l0.19,0.12c1.01,0.76,2.01,1.53,2.95,2.4
				c0.53,0.49,1.06,0.99,1.56,1.51c0.79,0.83,1.51,1.73,2.13,2.73c0.15,0.24,0.12,0.33-0.13,0.45c-0.66,0.32-1.32,0.63-1.97,0.97
				c-1.27,0.68-2.43,1.54-3.41,2.68c-0.62,0.72-1.13,1.51-1.45,2.44l-0.04,0.1l-0.06,0.05c-0.01-0.08-0.02-0.15-0.02-0.21
				c-0.03-1.07,0.18-2.09,0.5-3.09c0.27-0.83,0.62-1.62,1.02-2.39l0.07-0.2l-0.11,0.15c-0.8,1.14-1.52,2.32-2.05,3.64
				c-0.47,1.18-0.76,2.41-0.73,3.72c0.03,1.3,0.37,2.5,0.96,3.63c0.11,0.22,0.24,0.42,0.36,0.64c0.06,0.12,0.12,0.26,0.16,0.39
				c0.14,0.46,0.27,0.93,0.4,1.4l0.01,0.23l-0.22-0.06c-0.82-0.53-1.56-1.17-2.2-1.93c-0.98-1.17-1.65-2.51-1.92-4.07
				C39.03,81.47,39.06,80.51,39.22,79.54z M56.32,198.26H39.33v-96.23h16.99V198.26z M58,78.65c-0.03,1.39-0.19,2.76-0.55,4.09
				c-0.31,1.13-0.75,2.19-1.39,3.15c-0.7,1.05-1.6,1.86-2.65,2.48c-1.25,0.73-2.6,1.13-4,1.3c-0.56,0.07-1.12,0.1-1.68,0.13
				c-0.28,0.02-0.57,0.01-0.79-0.23c-0.06-0.07-0.12-0.15-0.15-0.23c-0.23-0.62-0.36-1.27-0.43-1.94c-0.06-0.62-0.04-1.23,0.04-1.83
				c0.12-0.96,0.37-1.88,0.8-2.72c0.22-0.43,0.44-0.85,0.7-1.24c0.72-1.09,1.65-1.95,2.71-2.63c0.86-0.55,1.77-0.95,2.73-1.23
				l0.2-0.07c-1.14,0.12-2.26,0.33-3.35,0.7c-0.93,0.31-1.81,0.73-2.61,1.34c-0.92,0.7-1.66,1.58-2.18,2.68
				c-0.41,0.87-0.67,1.8-0.81,2.77c-0.12,0.83-0.16,1.66-0.14,2.49c0.01,0.3,0.03,0.6,0.04,0.9c0,0.07,0.04,0.19-0.07,0.2
				c-0.1,0.01-0.15-0.08-0.17-0.17c-0.08-0.26-0.16-0.52-0.23-0.79c-0.16-0.59-0.34-1.18-0.46-1.78c-0.19-0.86-0.25-1.75-0.22-2.64
				c0.03-0.9,0.17-1.77,0.45-2.61c0.33-0.99,0.81-1.88,1.48-2.64c0.64-0.73,1.38-1.29,2.17-1.78c1.33-0.82,2.75-1.43,4.17-2.05
				c1.02-0.45,2.04-0.91,3.05-1.39c0.58-0.27,1.12-0.61,1.63-1.02c0.15-0.13,0.3-0.27,0.45-0.41l0.18-0.19
				c0.07-0.07,0.14-0.15,0.25-0.12c0.11,0.04,0.13,0.15,0.15,0.25c0.1,0.62,0.22,1.24,0.3,1.87c0.12,1,0.25,2.01,0.32,3.02
				C58,77.08,58.01,77.87,58,78.65z M177.2,198.26h-16.68v-54.25c0-4.91-0.41-9.25-1.21-12.9c-0.8-3.65-1.99-6.61-3.51-8.8
				c-1.01-1.47-2.16-2.59-3.46-3.42c-1.73-1.09-3.73-1.68-6.17-1.68c-1.64,0-3.19,0.38-4.65,1.07c-1.46,0.69-2.83,1.71-4.08,2.98
				c-2.49,2.54-4.44,6.13-5.52,9.99c-0.57,2.14-1.01,5.08-1.01,7.97v59.04h-16.68v-57.31c0-4.03-0.4-7.73-1.18-10.93
				c-0.78-3.2-1.94-5.89-3.41-7.93c-0.98-1.36-2.09-2.44-3.33-3.24c-1.66-1.05-3.54-1.63-5.81-1.63c-1.81,0-3.49,0.45-5.06,1.26
				c-1.57,0.81-3.04,1.99-4.35,3.44c-2.62,2.9-4.59,6.88-5.6,10.85l-0.01,0.04l-0.01,0.04c-0.7,2.25-1,4.97-1,7.72v57.69H67.78
				v-69.38c0-9.56-0.15-17.38-0.61-24.99l-0.11-1.86H82.4l0.45,11.07c1.06-1.69,2.24-3.31,3.59-4.81c2.61-2.91,5.84-5.35,9.8-6.83
				c2.63-0.99,5.58-1.54,8.84-1.54c5.51-0.01,10.41,2.11,14.27,5.66c3.02,2.77,5.41,6.39,7.13,10.56c2.06-3.77,4.46-6.85,6.99-9.23
				c2.34-2.22,4.86-3.99,7.75-5.18c2.89-1.2,6.13-1.81,9.85-1.81c4.03,0,8.77,1.24,13.1,4.61c4.33,3.36,8.17,8.82,10.53,17.02
				c1.57,5.47,2.5,12.17,2.5,20.35V198.26z M247.57,194.52c-1.96,1.27-4.92,2.66-8.71,3.76c-3.79,1.1-8.39,1.89-13.55,1.89
				c-5.84,0-11.23-1.24-15.99-3.59c-4.76-2.34-8.89-5.78-12.26-10.12c-6.74-8.68-10.44-20.9-10.45-35.37
				c0-10.94,2.24-20.82,6.42-28.93c4.17-8.1,10.29-14.45,17.97-18.21c5.12-2.51,10.91-3.86,17.21-3.86c4.17,0,8.07,0.65,11.43,1.6
				c3.36,0.95,6.17,2.2,8.19,3.46l1.06,0.66l-3.95,16.79l-2.13-1.52c-2.93-2.09-7.59-4.08-14.61-4.08c-3.98,0-7.44,0.91-10.43,2.54
				c-2.99,1.63-5.53,4-7.61,6.98c-4.16,5.95-6.41,14.38-6.41,23.78c0,7.82,1.51,14.44,4.08,19.62c2.58,5.18,6.19,8.92,10.47,11.09
				c2.86,1.45,6.02,2.21,9.44,2.21c3.64,0,6.62-0.59,9.17-1.42c2.55-0.84,4.66-1.92,6.54-2.96l2.13-1.17l2.73,15.04l0.21,1.14
				L247.57,194.52z"/>
		</g>
		<g>
			<path class="st0" d="M57.62,73.28c-0.08-0.63-0.19-1.24-0.3-1.87c-0.02-0.11-0.04-0.22-0.15-0.25c-0.11-0.04-0.18,0.04-0.25,0.12
				l-0.18,0.19c-0.15,0.14-0.29,0.28-0.45,0.41c-0.51,0.41-1.05,0.75-1.63,1.02c-1.01,0.47-2.03,0.94-3.05,1.39
				c-1.42,0.62-2.84,1.22-4.17,2.05c-0.79,0.49-1.54,1.05-2.17,1.78c-0.67,0.77-1.15,1.65-1.48,2.64c-0.28,0.84-0.42,1.72-0.45,2.61
				c-0.03,0.89,0.03,1.77,0.22,2.64c0.13,0.6,0.31,1.19,0.46,1.78c0.07,0.27,0.15,0.53,0.23,0.79c0.03,0.09,0.07,0.18,0.17,0.17
				c0.11-0.02,0.08-0.13,0.07-0.2c-0.01-0.3-0.03-0.6-0.04-0.9c-0.02-0.84,0.03-1.67,0.14-2.49c0.14-0.97,0.4-1.89,0.81-2.77
				c0.52-1.1,1.26-1.98,2.18-2.68c0.8-0.61,1.68-1.02,2.61-1.34c1.09-0.37,2.21-0.58,3.35-0.7l-0.2,0.07
				c-0.96,0.28-1.88,0.68-2.73,1.23c-1.06,0.68-1.99,1.54-2.71,2.63c-0.26,0.39-0.49,0.82-0.7,1.24c-0.43,0.85-0.68,1.77-0.8,2.72
				c-0.08,0.61-0.1,1.22-0.04,1.83c0.07,0.67,0.2,1.32,0.43,1.94c0.03,0.09,0.09,0.17,0.15,0.23c0.22,0.24,0.51,0.25,0.79,0.23
				c0.56-0.03,1.13-0.06,1.68-0.13c1.4-0.17,2.75-0.57,4-1.3c1.05-0.61,1.94-1.42,2.65-2.48c0.64-0.95,1.08-2.02,1.39-3.15
				c0.36-1.34,0.52-2.71,0.55-4.09c0.02-0.78,0-1.57-0.05-2.35C57.87,75.29,57.74,74.29,57.62,73.28z"/>
		</g>
		<g>
			<path class="st0" d="M43.32,88.44l0.22,0.06l-0.01-0.23c-0.13-0.47-0.26-0.93-0.4-1.4c-0.04-0.13-0.09-0.27-0.16-0.39
				c-0.11-0.22-0.24-0.42-0.36-0.64c-0.59-1.12-0.93-2.33-0.96-3.63c-0.03-1.3,0.25-2.53,0.73-3.72c0.53-1.32,1.25-2.51,2.05-3.64
				l0.11-0.15l-0.07,0.2c-0.39,0.77-0.75,1.56-1.02,2.39c-0.32,1-0.53,2.02-0.5,3.09c0,0.06,0.01,0.12,0.02,0.21l0.06-0.05l0.04-0.1
				c0.31-0.93,0.83-1.73,1.45-2.44c0.97-1.14,2.13-2,3.41-2.68c0.65-0.34,1.31-0.65,1.97-0.97c0.24-0.12,0.27-0.21,0.13-0.45
				c-0.61-1-1.34-1.9-2.13-2.73c-0.5-0.53-1.03-1.02-1.56-1.51c-0.94-0.87-1.94-1.64-2.95-2.4l-0.19-0.12
				c-0.14-0.06-0.24,0-0.27,0.17l-0.01,0.17c-0.03,0.38-0.03,0.76-0.11,1.13c-0.13,0.61-0.28,1.23-0.48,1.82
				c-0.27,0.8-0.58,1.58-0.88,2.37c-0.42,1.11-0.87,2.21-1.28,3.32c-0.41,1.12-0.75,2.26-0.95,3.45c-0.16,0.96-0.19,1.92-0.02,2.89
				c0.27,1.57,0.94,2.91,1.92,4.07C41.76,87.27,42.5,87.91,43.32,88.44z"/>
		</g>
	</g>
	<g>
		<path class="st0" d="M80.16,229.16c-0.09,0.56-0.18,1.05-0.27,1.49l0,0c-0.02,0.08-0.04,0.15-0.06,0.19
			c-0.01,0.02-0.02,0.04-0.02,0.05l-0.01,0.01l0,0l0,0c-0.02,0.02-0.12,0.05-0.27,0.07l0,0h0c-0.51,0.1-1.11,0.15-1.8,0.15
			c-0.21,0-0.6-0.02-1.17-0.05c0-0.23-0.01-0.68-0.01-1.35c0-0.8-0.01-1.61-0.01-2.43c0-1.55-0.01-2.37-0.01-2.48
			c0-0.96,0.01-1.75,0.03-2.38c0.01-0.31,0.02-0.56,0.03-0.73c0.01-0.09,0.01-0.16,0.02-0.21c0-0.05,0.01-0.09,0.01-0.09
			c0.02-0.06,0.04-0.08,0.06-0.1c0.03-0.02,0.13-0.05,0.27-0.08c0.15-0.02,0.36-0.04,0.61-0.06l0.12-0.01v-1l-0.13,0.01
			c-0.74,0.03-1.53,0.05-2.36,0.05c-0.74,0-1.41-0.02-1.98-0.05l-0.13-0.01v1l0.12,0.01c0.29,0.01,0.53,0.04,0.7,0.06
			c0.08,0.01,0.15,0.03,0.2,0.04c0.05,0.01,0.08,0.03,0.08,0.04l0,0l0,0c0.02,0.02,0.04,0.04,0.05,0.08
			c0.01,0.02,0.02,0.09,0.03,0.18c0.03,0.28,0.05,0.83,0.06,1.63c0.01,0.42,0.01,1.54,0.01,3.34c0,1.23-0.01,2.28-0.03,3.16
			c-0.01,0.44-0.02,0.78-0.03,1.04c-0.01,0.25-0.02,0.42-0.03,0.48l0,0l-0.02,0.04l0,0l0,0c-0.01,0.02-0.06,0.07-0.15,0.13l0,0l0,0
			c-0.21,0.16-0.38,0.27-0.49,0.32l-0.07,0.03v0.64l0.13-0.01c0.91-0.05,1.6-0.08,2.04-0.08c0.29,0,0.82,0.01,1.58,0.03
			c0.99,0.03,1.53,0.04,1.62,0.04c0.59,0,1.02-0.01,1.31-0.04l0,0h0c0.14-0.02,0.28-0.05,0.42-0.1l0.08-0.03l0-0.08
			c0-0.1,0.02-0.43,0.06-0.97h0l0.17-1.73v-0.01c0-0.02,0.01-0.11,0.02-0.27l0.01-0.13h-0.81L80.16,229.16z"/>
		<path class="st0" d="M84.01,222.65c0.33,0,0.62-0.15,0.84-0.43c0.22-0.28,0.33-0.62,0.33-1.01c0-0.38-0.11-0.72-0.33-1
			c-0.22-0.28-0.51-0.43-0.84-0.43c-0.33,0-0.62,0.15-0.84,0.43c-0.22,0.28-0.33,0.62-0.33,1c0,0.39,0.11,0.73,0.34,1.01
			C83.4,222.5,83.69,222.65,84.01,222.65z"/>
		<path class="st0" d="M85.44,231.47c-0.14-0.02-0.24-0.05-0.27-0.08l-0.02-0.03c-0.01-0.02-0.02-0.05-0.03-0.09l0,0v0
			c-0.02-0.07-0.03-0.27-0.04-0.56c-0.01-0.29-0.01-0.69-0.01-1.18v-2.92c0-0.78,0.03-1.62,0.08-2.5l0-0.07l-0.28-0.19l-0.06,0.03
			c-0.41,0.21-0.79,0.36-1.13,0.46c-0.34,0.1-0.86,0.2-1.55,0.29l-0.11,0.01v0.88l0.12,0c0.26,0,0.47,0.01,0.62,0.03
			c0.07,0.01,0.13,0.02,0.17,0.03c0.04,0.01,0.06,0.02,0.07,0.03l0,0.01c0.01,0.02,0.03,0.07,0.04,0.14v0
			c0.01,0.05,0.02,0.16,0.03,0.31c0.02,0.47,0.03,1.38,0.03,2.72c0,1.3-0.02,2.11-0.07,2.41v0l0,0c-0.02,0.13-0.06,0.2-0.09,0.22
			c0,0-0.03,0.01-0.07,0.02c-0.12,0.03-0.38,0.07-0.75,0.1l-0.11,0.01v0.88l0.13-0.01c0.5-0.02,1.08-0.03,1.74-0.03
			c0.76,0,1.47,0.01,2.12,0.03l0.13,0v-0.91l-0.12-0.01C85.77,231.51,85.58,231.49,85.44,231.47z"/>
		<path class="st0" d="M91.47,219.5c-0.24,0-0.45,0.04-0.64,0.14c-0.19,0.09-0.35,0.21-0.5,0.37l0,0l-0.83,0.93l0,0
			c-0.52,0.56-0.86,0.97-1.02,1.24l0,0c-0.1,0.16-0.17,0.34-0.21,0.51c-0.04,0.18-0.08,0.47-0.1,0.87c-0.02,0.4-0.03,0.73-0.03,1.01
			c0,0.06-0.01,0.08-0.05,0.11l0,0l0,0c0,0-0.03,0.02-0.07,0.05c-0.13,0.09-0.42,0.28-0.86,0.56l-0.06,0.04v0.62l1.06-0.06l0.07,0
			v2.45c0,0.78-0.01,1.41-0.02,1.87c-0.01,0.46-0.02,0.77-0.04,0.91l0,0v0c-0.01,0.15-0.05,0.23-0.09,0.26
			c-0.01,0.01-0.03,0.02-0.08,0.04c-0.14,0.05-0.42,0.09-0.82,0.13l-0.11,0.01v0.89l0.13,0c0.95-0.03,1.58-0.04,1.86-0.04l2.47,0.05
			v-0.9l-0.11-0.01c-0.3-0.03-0.52-0.05-0.68-0.07c-0.08-0.01-0.14-0.01-0.18-0.02l-0.05-0.01l-0.01,0h0h0
			c-0.1-0.02-0.15-0.05-0.17-0.07c-0.03-0.04-0.06-0.08-0.08-0.15c-0.01-0.04-0.02-0.15-0.03-0.31c-0.01-0.16-0.02-0.39-0.02-0.66
			c-0.01-0.55-0.02-1.14-0.02-1.75v-2.62c0.33-0.01,0.53-0.02,0.6-0.02c0.02,0,0.14,0.01,0.34,0.02l0,0l0.8,0.02l0.13-0.88l0,0
			c0.01-0.1,0.03-0.2,0.05-0.29l0.02-0.07l-0.14-0.13l-0.04-0.04l-0.06,0.01c-0.28,0.03-0.62,0.05-1.01,0.06v0l-0.68,0.01v-1.07
			c0-0.46,0.01-0.83,0.02-1.11c0.01-0.28,0.03-0.48,0.06-0.58c0.03-0.13,0.09-0.23,0.18-0.3c0.13-0.1,0.31-0.16,0.55-0.16
			c0.17,0,0.3,0.03,0.4,0.08c0.1,0.05,0.22,0.15,0.35,0.3l0.07,0.08l0.43-0.24l0-0.07c0-0.06,0-0.12,0-0.18
			c0-0.47,0.03-0.98,0.1-1.52l0.01-0.09l-0.09-0.04C91.97,219.55,91.71,219.5,91.47,219.5z"/>
		<path class="st0" d="M98.06,224.42c-0.42-0.34-0.95-0.51-1.59-0.51c-0.45,0-0.85,0.09-1.19,0.28l0,0
			c-0.19,0.11-0.47,0.31-0.86,0.63c-0.19,0.16-0.35,0.29-0.47,0.4c-0.12,0.11-0.21,0.19-0.26,0.26c-0.16,0.21-0.29,0.52-0.41,0.94
			l0,0c-0.16,0.6-0.24,1.28-0.24,2.04c0,0.52,0.04,1,0.13,1.45c0.08,0.45,0.22,0.84,0.42,1.19c0.19,0.34,0.41,0.63,0.67,0.87
			c0.26,0.24,0.57,0.43,0.93,0.57c0.36,0.14,0.78,0.21,1.24,0.21c0.39,0,0.74-0.05,1.05-0.15l0,0l0,0c0.41-0.14,0.81-0.36,1.2-0.65
			l0.03-0.02l0.34-0.93l-0.04-0.05l-0.23-0.34l-0.1,0.06c-0.35,0.22-0.64,0.36-0.84,0.43c-0.21,0.07-0.43,0.1-0.68,0.1
			c-0.57,0-1.03-0.24-1.43-0.74c-0.37-0.47-0.59-1.12-0.64-1.94h0.32c0.08,0,0.15,0,0.21-0.01c0.02,0,0.11-0.01,0.27-0.01
			c0.16,0,0.37-0.01,0.65-0.01c0.57-0.01,1.02-0.03,1.37-0.06l0,0c0.13-0.01,0.34-0.05,0.65-0.12c0.24-0.06,0.41-0.11,0.54-0.16
			l0.07-0.03l0-0.08c0.01-0.15,0.01-0.31,0.01-0.47c0-0.72-0.08-1.33-0.25-1.85C98.76,225.19,98.47,224.76,98.06,224.42z
			 M95.02,227.34c0-0.03,0-0.05,0-0.08c0-0.77,0.11-1.32,0.31-1.64c0.11-0.18,0.23-0.3,0.36-0.39c0.13-0.08,0.27-0.12,0.42-0.12
			c0.15,0,0.29,0.04,0.41,0.12c0.12,0.08,0.24,0.2,0.34,0.36c0.18,0.3,0.28,0.85,0.28,1.64c0,0.03,0,0.07,0,0.1
			c-0.24,0.04-0.54,0.06-0.89,0.06C95.7,227.39,95.28,227.37,95.02,227.34z"/>
		<path class="st0" d="M105.29,227.93c-0.16-0.2-0.38-0.36-0.65-0.49l0,0l0,0c-0.19-0.09-0.53-0.19-1.04-0.3
			c-0.5-0.12-0.85-0.21-1.02-0.28c-0.17-0.07-0.29-0.16-0.37-0.29c-0.08-0.12-0.13-0.32-0.12-0.62c0-0.27,0.09-0.5,0.28-0.69
			c0.19-0.19,0.45-0.29,0.82-0.29c0.26,0,0.48,0.05,0.67,0.16c0.18,0.1,0.34,0.25,0.47,0.45c0.04,0.23,0.06,0.46,0.08,0.71v0
			c0.01,0.15,0.02,0.26,0.02,0.32l0.01,0.11l0.76,0.01l0-0.12c0.03-0.77,0.05-1.25,0.06-1.45c0.01-0.2,0.03-0.4,0.06-0.6l0-0.02
			l-0.03-0.11l-0.01-0.05l-0.04-0.03c-0.26-0.17-0.56-0.29-0.88-0.38c-0.32-0.08-0.67-0.12-1.05-0.12c-0.92,0-1.64,0.27-2.14,0.82
			c-0.5,0.55-0.75,1.24-0.75,2.05c0,0.45,0.08,0.86,0.23,1.2c0.15,0.35,0.37,0.62,0.66,0.8c0.28,0.18,0.67,0.33,1.18,0.47
			c0.5,0.13,0.84,0.24,1,0.32c0.21,0.12,0.34,0.25,0.4,0.38c0.07,0.13,0.1,0.32,0.1,0.54c0,0.34-0.1,0.62-0.31,0.85
			c-0.2,0.23-0.49,0.34-0.9,0.34c-0.3,0-0.56-0.07-0.79-0.21c-0.22-0.14-0.43-0.35-0.63-0.64c-0.02-0.17-0.04-0.56-0.06-1.17l0-0.12
			h-0.79l0,0.12l-0.04,1.44h0c-0.01,0.18-0.03,0.49-0.07,0.93l0,0.04l0.1,0.16l0.02,0.03l0.04,0.02c0.44,0.19,0.81,0.32,1.13,0.4
			c0.31,0.07,0.63,0.11,0.96,0.11c0.98,0,1.77-0.3,2.32-0.91c0.55-0.6,0.83-1.36,0.83-2.23c0-0.34-0.04-0.65-0.13-0.93
			C105.58,228.37,105.46,228.13,105.29,227.93z"/>
		<path class="st0" d="M111.06,230.76l-0.11,0.03c-0.14,0.04-0.26,0.07-0.35,0.08c-0.06,0.01-0.14,0.01-0.23,0.01
			c-0.04,0-0.08,0-0.12,0h0h0c-0.23,0-0.39-0.07-0.5-0.19c-0.11-0.13-0.18-0.31-0.2-0.56l0,0v0c-0.01-0.15-0.02-0.67-0.02-1.55
			v-2.74h0.54l0.67,0.02h0c0.06,0,0.11-0.01,0.18-0.02l0.09-0.02l0.14-1.41l-0.16,0.03c-0.3,0.05-0.75,0.08-1.36,0.08h-0.1
			l0.06-1.37v0l0.05-0.99l0.07-0.95l-0.29-0.28l-0.08,0.05c-0.28,0.16-0.49,0.29-0.64,0.37c-0.07,0.04-0.13,0.07-0.17,0.1
			l-0.05,0.03l-0.01,0.01l0,0c0,0,0,0,0,0v0l0,0c-0.13,0.06-0.42,0.18-0.86,0.37l-0.08,0.03l0.01,0.09c0.04,0.6,0.05,1.11,0.05,1.52
			v1.09c-0.08,0.08-0.16,0.15-0.24,0.22l-0.66,0.53v0.58l0.13-0.01c0.23-0.02,0.46-0.03,0.71-0.03h0.06v1.99l-0.03,2.83v0
			c0,0.53,0.16,0.99,0.49,1.36c0.33,0.37,0.79,0.55,1.34,0.55c0.16,0,0.31-0.02,0.46-0.05c0.16-0.04,0.32-0.1,0.51-0.2l0.02-0.01
			l0.02-0.02c0.15-0.19,0.33-0.42,0.53-0.68l0,0l0.29-0.36L111.06,230.76z"/>
		<path class="st0" d="M117.7,224.16c-0.44,0-0.81-0.01-1.1-0.03l-0.13-0.01v0.93l0.12,0c0.27,0.01,0.48,0.03,0.63,0.06
			c0.06,0.02,0.09,0.04,0.1,0.05c0.01,0.01,0.01,0.03,0.01,0.07c0,0.05-0.02,0.16-0.05,0.32c-0.11,0.47-0.39,1.38-0.83,2.7
			l-0.48,1.42l-0.89-2.9l0,0l-0.34-1.16l0,0c-0.04-0.14-0.06-0.26-0.06-0.34c0-0.06,0.02-0.09,0.06-0.13
			c0.06-0.05,0.22-0.1,0.46-0.09l0.05,0h0h0.16h0.12v-0.93l-0.13,0c-0.6,0.02-1.28,0.03-2.05,0.03c-0.65,0-1.2-0.01-1.64-0.03
			l-0.13-0.01v0.93l0.13,0l0.05,0c0.29,0,0.48,0.05,0.55,0.11c0.04,0.03,0.09,0.11,0.15,0.23c0.06,0.12,0.12,0.29,0.19,0.5
			l2.21,7.09l-0.26,0.78c-0.24,0.68-0.47,1.12-0.64,1.29c-0.19,0.19-0.37,0.27-0.57,0.27c-0.18,0-0.35-0.04-0.51-0.13
			c-0.14-0.11-0.26-0.23-0.36-0.37l-0.05-0.06l-0.34,0.08l-0.11,0.95h0c-0.02,0.16-0.07,0.45-0.15,0.87l-0.02,0.09l0.08,0.04
			c0.19,0.09,0.37,0.16,0.53,0.2c0.16,0.04,0.33,0.05,0.52,0.05c0.58,0,1.08-0.24,1.48-0.7l0,0c0.4-0.46,0.76-1.2,1.1-2.23
			l1.11-3.37l0,0c0.14-0.41,0.46-1.34,0.97-2.79c0.16-0.47,0.38-1.06,0.65-1.78c0.1-0.27,0.19-0.49,0.25-0.64
			c0.03-0.08,0.06-0.14,0.08-0.19c0.02-0.05,0.04-0.08,0.04-0.09c0.04-0.07,0.09-0.11,0.13-0.13l0,0l0,0
			c0.08-0.05,0.17-0.07,0.26-0.07l0.02,0l0,0h0.11h0.12v-0.93l-0.13,0.01C118.74,224.15,118.23,224.16,117.7,224.16z"/>
		<path class="st0" d="M123.5,231.46c-0.06,0-0.1-0.01-0.14-0.01l-0.04-0.01l-0.01,0l0,0l0,0l0,0c-0.09-0.02-0.14-0.05-0.15-0.06
			l0,0l0,0l-0.03-0.05l0,0l0,0c0-0.01-0.01-0.05-0.02-0.11c-0.01-0.06-0.01-0.15-0.02-0.25c-0.01-0.21-0.02-0.83-0.04-1.85
			c-0.01-0.41-0.01-1.03-0.01-1.86v-2.19c0-1.41,0.02-2.6,0.04-3.57v0l0.06-1.8l-0.25-0.18l-0.06,0.02
			c-0.57,0.22-1.02,0.38-1.35,0.46c-0.33,0.09-0.78,0.17-1.34,0.24l-0.11,0.01v0.86l0.12,0.01c0.17,0.01,0.31,0.02,0.41,0.02
			c0.1,0.01,0.17,0.01,0.19,0.02c0.11,0.02,0.17,0.05,0.2,0.08l0,0l0,0c0.01,0.01,0.02,0.02,0.03,0.04c0,0.01,0.01,0.03,0.01,0.06
			c0.02,0.11,0.03,0.31,0.05,0.61c0.03,0.74,0.05,1.56,0.05,2.46v2.83c0,0.7-0.01,1.51-0.02,2.42c-0.01,0.45-0.02,0.81-0.03,1.08
			c-0.01,0.27-0.03,0.45-0.04,0.52l0,0l0,0c-0.01,0.08-0.03,0.13-0.05,0.14c-0.02,0.02-0.04,0.04-0.1,0.06
			c-0.03,0.01-0.11,0.02-0.24,0.03c-0.13,0.01-0.3,0.02-0.52,0.03l-0.12,0v0.93l0.13-0.01c0.78-0.05,1.47-0.07,2.09-0.07
			c0.62,0,1.21,0.02,1.78,0.07l0.13,0.01v-0.93l-0.11-0.01C123.78,231.49,123.61,231.47,123.5,231.46z"/>
		<path class="st0" d="M130.28,224.42c-0.42-0.34-0.95-0.51-1.59-0.51c-0.45,0-0.85,0.09-1.19,0.28l0,0
			c-0.19,0.11-0.47,0.31-0.86,0.63c-0.19,0.16-0.35,0.29-0.47,0.4c-0.12,0.11-0.21,0.19-0.26,0.26c-0.16,0.21-0.29,0.52-0.41,0.94
			l0,0c-0.16,0.6-0.24,1.28-0.24,2.04c0,0.52,0.04,1,0.13,1.45c0.08,0.45,0.22,0.84,0.42,1.19c0.19,0.34,0.41,0.63,0.67,0.87
			c0.26,0.24,0.57,0.43,0.93,0.57c0.36,0.14,0.78,0.21,1.24,0.21c0.39,0,0.74-0.05,1.05-0.15l0,0l0,0c0.41-0.14,0.81-0.36,1.2-0.65
			l0.03-0.02l0.34-0.93l-0.04-0.05l-0.23-0.34l-0.1,0.06c-0.35,0.22-0.64,0.36-0.84,0.43c-0.21,0.07-0.43,0.1-0.68,0.1
			c-0.57,0-1.03-0.24-1.43-0.74c-0.37-0.47-0.59-1.12-0.64-1.94h0.32c0.08,0,0.15,0,0.21-0.01c0.02,0,0.11-0.01,0.27-0.01
			c0.16,0,0.37-0.01,0.65-0.01c0.57-0.01,1.02-0.03,1.37-0.06l0,0c0.13-0.01,0.34-0.05,0.65-0.12c0.24-0.06,0.41-0.11,0.54-0.16
			l0.07-0.03l0-0.08c0.01-0.15,0.01-0.31,0.01-0.47c0-0.72-0.08-1.33-0.25-1.85C130.99,225.19,130.69,224.76,130.28,224.42z
			 M127.24,227.34c0-0.03,0-0.05,0-0.08c0-0.77,0.11-1.32,0.31-1.64c0.11-0.18,0.23-0.3,0.36-0.39c0.13-0.08,0.27-0.12,0.42-0.12
			c0.15,0,0.29,0.04,0.41,0.12c0.12,0.08,0.24,0.2,0.34,0.36c0.18,0.3,0.28,0.85,0.28,1.64c0,0.03,0,0.07,0,0.1
			c-0.24,0.04-0.54,0.06-0.89,0.06C127.92,227.39,127.51,227.37,127.24,227.34z"/>
		<polygon class="st0" points="141.12,221.86 139.43,221.86 139.43,225.31 136.38,225.31 136.38,227.1 139.43,227.1 139.43,230.52 
			141.12,230.52 141.12,227.1 144.17,227.1 144.17,225.31 141.12,225.31 		"/>
		<path class="st0" d="M158.29,220.24c-0.46,0-0.97-0.02-1.53-0.05l-0.13-0.01v0.97l0.12,0c0.3,0.01,0.54,0.02,0.71,0.05
			c0.08,0.01,0.15,0.03,0.2,0.05c0.05,0.02,0.08,0.03,0.08,0.04c0.01,0.01,0.03,0.04,0.05,0.1c0.02,0.06,0.03,0.14,0.04,0.24l0,0
			c0.03,0.26,0.05,0.85,0.06,1.75c0.01,0.9,0.02,2.12,0.02,3.66v1.62c-0.6-0.79-1.32-1.82-2.18-3.1c-1.34-2.01-2.48-3.78-3.42-5.31
			l-0.04-0.06l-0.7,0.03v0l-0.99,0.03c-0.27,0-0.7-0.02-1.27-0.05l-0.13-0.01v0.96l0.11,0.01c0.24,0.02,0.43,0.04,0.58,0.06
			c0.14,0.02,0.24,0.04,0.27,0.05c0.09,0.03,0.13,0.07,0.16,0.1c0.03,0.03,0.06,0.11,0.08,0.23c0.02,0.11,0.04,0.38,0.04,0.79
			l0.03,2.49v2.75c0,0.76-0.01,1.38-0.03,1.85v0c-0.04,0.83-0.07,1.36-0.1,1.57c-0.01,0.08-0.02,0.14-0.04,0.18
			c-0.01,0.05-0.03,0.08-0.03,0.08l0,0c-0.02,0.03-0.05,0.05-0.07,0.07c-0.01,0-0.03,0.01-0.07,0.01c-0.14,0.02-0.41,0.05-0.81,0.07
			l-0.12,0.01v0.12v0.86l0.13-0.01c0.76-0.03,1.36-0.05,1.8-0.05c0.12,0,0.61,0.01,1.48,0.02l0.12,0v-0.95l-0.13,0.01
			c-0.06,0.01-0.11,0.01-0.13,0.01c-0.12,0-0.34-0.02-0.63-0.07c-0.1-0.01-0.15-0.04-0.16-0.06c-0.03-0.03-0.05-0.06-0.06-0.11l0,0
			c-0.01-0.05-0.03-0.19-0.04-0.39c-0.01-0.2-0.02-0.46-0.03-0.79c-0.03-0.96-0.04-1.88-0.04-2.77v-3.86
			c2.61,3.96,4.63,6.95,6.07,8.95l0.03,0.04l0.05,0.01c0.4,0.07,0.79,0.14,1.17,0.22l0.06,0.01l0.14-0.12l0.05-0.04l0-0.06
			c-0.06-0.8-0.09-3.11-0.09-6.91c0-0.48,0.01-1.24,0.03-2.26c0.01-0.51,0.03-0.93,0.05-1.25c0.02-0.32,0.05-0.55,0.08-0.68
			c0.01-0.04,0.02-0.05,0.03-0.06l0,0c0.01-0.01,0.11-0.05,0.27-0.08c0.16-0.02,0.38-0.04,0.65-0.05l0.12,0v-0.97l-0.13,0.01
			C159.32,220.23,158.74,220.24,158.29,220.24z"/>
		<path class="st0" d="M168.51,231.45c-0.07-0.01-0.12-0.02-0.16-0.03c-0.03-0.01-0.05-0.02-0.06-0.02
			c-0.02-0.01-0.04-0.05-0.05-0.13c-0.02-0.11-0.03-0.33-0.04-0.65c-0.01-0.32-0.02-0.74-0.02-1.27v-1.76
			c0-0.13,0.02-0.75,0.05-1.87h0l0.08-1.64l-0.24-0.17l-0.06,0.03c-0.61,0.24-1.05,0.4-1.29,0.47c-0.25,0.07-0.73,0.16-1.44,0.27
			l-0.1,0.02v0.87l0.11,0.01c0.24,0.02,0.44,0.03,0.57,0.05c0.07,0.01,0.12,0.02,0.16,0.02l0.05,0.01l0.02,0
			c0.05,0.02,0.06,0.04,0.07,0.06l0,0l0,0c0,0,0.01,0.02,0.02,0.06c0.02,0.1,0.03,0.31,0.03,0.6v0l0.01,1.22v1.46
			c0,0.23-0.01,0.42-0.02,0.57c-0.01,0.15-0.03,0.26-0.05,0.31c-0.08,0.21-0.22,0.41-0.44,0.62c-0.2,0.19-0.44,0.29-0.75,0.29
			c-0.26,0-0.45-0.08-0.6-0.24c-0.15-0.16-0.25-0.4-0.3-0.75v0c-0.03-0.26-0.05-0.81-0.05-1.62v-0.96c0-0.96,0.03-2,0.1-3.13l0-0.06
			l-0.14-0.13l-0.06-0.06l-0.08,0.03c-0.62,0.26-1.13,0.44-1.51,0.54c-0.39,0.1-0.78,0.17-1.17,0.19l-0.11,0.01v0.88l0.12,0.01
			c0.22,0.01,0.39,0.03,0.52,0.04c0.06,0.01,0.11,0.02,0.15,0.02c0.04,0.01,0.06,0.02,0.06,0.02c0.05,0.03,0.09,0.06,0.11,0.12
			c0.01,0.01,0.02,0.08,0.03,0.18c0.01,0.1,0.01,0.23,0.01,0.39v0l0.01,1.81c0,0.46,0,0.84-0.01,1.13v0
			c-0.01,0.55-0.02,0.86-0.02,0.95c0,0.72,0.18,1.32,0.56,1.77c0.37,0.45,0.91,0.68,1.55,0.68c0.34,0,0.68-0.08,1.01-0.23l0.03-0.01
			l0.79-0.94l0,0c0.08-0.08,0.16-0.18,0.25-0.27c0,0.16,0,0.29-0.01,0.35h0l-0.04,0.7l0.07,0.1l0.04,0.05l1.36-0.04l1.54,0.05v-0.93
			l-0.12-0.01C168.83,231.49,168.64,231.47,168.51,231.45z"/>
		<path class="st0" d="M174.31,230.76l-0.11,0.03c-0.14,0.04-0.26,0.07-0.35,0.08c-0.06,0.01-0.14,0.01-0.23,0.01
			c-0.04,0-0.08,0-0.12,0h0h0c-0.23,0-0.39-0.07-0.5-0.19c-0.11-0.13-0.18-0.31-0.2-0.56l0,0v0c-0.01-0.15-0.02-0.67-0.02-1.55
			v-2.74h0.54l0.67,0.02h0c0.06,0,0.11-0.01,0.18-0.02l0.09-0.02l0.14-1.41l-0.16,0.03c-0.3,0.05-0.75,0.08-1.36,0.08h-0.1
			l0.06-1.37v0l0.05-0.98l0.07-0.95l-0.29-0.28L172.6,221c-0.28,0.16-0.49,0.29-0.64,0.37c-0.07,0.04-0.13,0.07-0.17,0.1l-0.05,0.03
			l-0.01,0.01l0,0c0,0,0,0,0,0l0,0l0,0c-0.13,0.06-0.42,0.18-0.86,0.37l-0.08,0.03l0.01,0.09c0.04,0.6,0.05,1.11,0.05,1.52v1.09
			c-0.08,0.08-0.16,0.15-0.24,0.22l-0.66,0.53v0.58l0.13-0.01c0.23-0.02,0.46-0.03,0.71-0.03h0.06v1.99l-0.03,2.83v0
			c0,0.53,0.16,0.99,0.49,1.36c0.33,0.37,0.79,0.55,1.34,0.55c0.16,0,0.31-0.02,0.46-0.05c0.16-0.04,0.32-0.1,0.51-0.2l0.02-0.01
			l0.02-0.02c0.15-0.19,0.33-0.42,0.53-0.68l0,0l0.29-0.36L174.31,230.76z"/>
		<path class="st0" d="M179.79,223.87c-0.29,0-0.54,0.07-0.73,0.23l0,0c-0.14,0.12-0.32,0.35-0.56,0.7l0,0
			c-0.11,0.18-0.27,0.4-0.46,0.65l0.01-1.44l-0.31-0.17l-0.06,0.03c-0.32,0.19-0.61,0.32-0.86,0.4c-0.25,0.08-0.8,0.21-1.63,0.39
			l-0.1,0.02v0.88l0.12,0c0.21,0.01,0.38,0.02,0.51,0.03c0.12,0.01,0.21,0.03,0.22,0.04l0,0l0,0c0.03,0.01,0.04,0.03,0.06,0.05
			c0,0.01,0.02,0.08,0.02,0.17c0.01,0.1,0.02,0.23,0.02,0.4c0.03,0.72,0.04,1.34,0.04,1.85v1.12c0,0.36,0,0.62-0.01,0.78v0
			l-0.03,0.76v0c0,0.29-0.03,0.49-0.06,0.57c-0.02,0.04-0.05,0.07-0.08,0.08l0,0c-0.1,0.05-0.34,0.08-0.69,0.08h-0.12v0.91l0.13,0
			c0.76-0.03,1.5-0.04,2.21-0.04c0.63,0,1.21,0.01,1.72,0.04l0.13,0.01v-0.9l-0.11-0.01l-0.56-0.07l0,0
			c-0.12-0.01-0.21-0.03-0.28-0.04c-0.07-0.02-0.11-0.04-0.13-0.05c-0.05-0.04-0.08-0.09-0.1-0.16c-0.01-0.03-0.02-0.13-0.02-0.26
			c-0.01-0.13-0.01-0.31-0.01-0.53l-0.01-1.17v-0.86c0-0.42,0-0.75,0.01-0.99c0-0.24,0.01-0.39,0.02-0.44h0
			c0.03-0.19,0.13-0.38,0.32-0.58c0.18-0.19,0.37-0.27,0.61-0.27c0.18,0,0.33,0.05,0.49,0.16c0.08,0.06,0.19,0.18,0.3,0.36
			l0.05,0.09l0.46-0.18l0.01-0.08c0.01-0.11,0.02-0.48,0.03-1.15h0l0.04-1.3l-0.07-0.04C180.15,223.91,179.97,223.87,179.79,223.87z
			"/>
		<path class="st0" d="M182.97,222.65c0.33,0,0.62-0.15,0.84-0.43c0.22-0.28,0.33-0.62,0.33-1.01c0-0.38-0.11-0.72-0.33-1
			c-0.22-0.28-0.51-0.43-0.84-0.43c-0.33,0-0.62,0.15-0.84,0.43c-0.22,0.28-0.33,0.62-0.33,1c0,0.39,0.11,0.73,0.34,1.01
			C182.35,222.5,182.64,222.65,182.97,222.65z"/>
		<path class="st0" d="M184.39,231.47c-0.14-0.02-0.24-0.05-0.27-0.08l-0.03-0.03c-0.01-0.02-0.02-0.05-0.03-0.09l0,0l0,0
			c-0.02-0.07-0.03-0.27-0.04-0.56c-0.01-0.29-0.01-0.69-0.01-1.18v-2.92c0-0.78,0.03-1.62,0.08-2.5l0-0.07l-0.28-0.19l-0.06,0.03
			c-0.41,0.21-0.79,0.36-1.13,0.46c-0.34,0.1-0.86,0.2-1.55,0.29l-0.11,0.01v0.88l0.12,0c0.26,0,0.47,0.01,0.62,0.03
			c0.07,0.01,0.13,0.02,0.17,0.03c0.04,0.01,0.06,0.02,0.07,0.03l0,0.01c0.01,0.02,0.03,0.07,0.04,0.14v0
			c0.01,0.05,0.02,0.16,0.03,0.31c0.02,0.47,0.03,1.38,0.03,2.72c0,1.3-0.02,2.11-0.07,2.41l0,0v0c-0.02,0.13-0.06,0.2-0.09,0.22
			c0,0-0.03,0.01-0.07,0.02c-0.12,0.03-0.38,0.07-0.75,0.1l-0.11,0.01v0.88l0.13-0.01c0.5-0.02,1.08-0.03,1.74-0.03
			c0.76,0,1.47,0.01,2.12,0.03l0.13,0v-0.91l-0.12-0.01C184.73,231.51,184.54,231.49,184.39,231.47z"/>
		<path class="st0" d="M190.21,230.76l-0.11,0.03c-0.14,0.04-0.26,0.07-0.35,0.08c-0.06,0.01-0.14,0.01-0.23,0.01
			c-0.04,0-0.08,0-0.12,0h0h0c-0.23,0-0.39-0.07-0.5-0.19c-0.11-0.13-0.18-0.31-0.2-0.56l0,0c-0.01-0.15-0.02-0.67-0.02-1.55v-2.74
			h0.54l0.67,0.02h0c0.06,0,0.11-0.01,0.18-0.02l0.09-0.02l0.14-1.41l-0.16,0.03c-0.3,0.05-0.75,0.08-1.36,0.08h-0.1l0.06-1.37l0,0
			l0.05-0.98l0.07-0.95l-0.29-0.28l-0.08,0.05c-0.28,0.16-0.49,0.29-0.64,0.37c-0.07,0.04-0.13,0.07-0.17,0.1l-0.05,0.03l-0.01,0.01
			l0,0c-0.13,0.06-0.42,0.18-0.86,0.37l-0.08,0.03l0.01,0.09c0.04,0.6,0.05,1.11,0.05,1.52v1.09c-0.08,0.08-0.16,0.15-0.24,0.22
			l-0.66,0.53v0.58l0.13-0.01c0.23-0.02,0.46-0.03,0.71-0.03h0.06v1.99l-0.03,2.83v0c0,0.53,0.16,0.99,0.49,1.36
			c0.33,0.37,0.79,0.55,1.35,0.55c0.16,0,0.31-0.02,0.46-0.05c0.16-0.04,0.32-0.1,0.51-0.2l0.02-0.01l0.02-0.02
			c0.15-0.19,0.33-0.42,0.53-0.68l0,0l0.29-0.36L190.21,230.76z"/>
		<path class="st0" d="M194.46,231.47c-0.14-0.02-0.24-0.05-0.27-0.08l-0.02-0.03c-0.01-0.02-0.02-0.05-0.03-0.09l0,0l0,0
			c-0.02-0.07-0.03-0.27-0.04-0.56c-0.01-0.29-0.01-0.69-0.01-1.18v-2.92c0-0.78,0.03-1.62,0.08-2.5l0-0.07l-0.28-0.19l-0.06,0.03
			c-0.41,0.21-0.79,0.36-1.13,0.46c-0.34,0.1-0.86,0.2-1.55,0.29l-0.11,0.01v0.88l0.12,0c0.26,0,0.47,0.01,0.62,0.03
			c0.07,0.01,0.13,0.02,0.17,0.03c0.04,0.01,0.06,0.02,0.07,0.03l0,0.01c0.01,0.02,0.03,0.07,0.04,0.14v0
			c0.01,0.05,0.02,0.16,0.03,0.31c0.02,0.47,0.03,1.38,0.03,2.72c0,1.3-0.02,2.11-0.07,2.41v0l0,0c-0.02,0.13-0.06,0.2-0.09,0.22
			c0,0-0.03,0.01-0.07,0.02c-0.12,0.03-0.38,0.07-0.75,0.1l-0.11,0.01v0.88l0.13-0.01c0.5-0.02,1.08-0.03,1.74-0.03
			c0.76,0,1.47,0.01,2.12,0.03l0.13,0v-0.91l-0.12-0.01C194.8,231.51,194.61,231.49,194.46,231.47z"/>
		<path class="st0" d="M193.04,222.65c0.33,0,0.62-0.15,0.84-0.43c0.22-0.28,0.33-0.62,0.33-1.01c0-0.38-0.11-0.72-0.33-1
			c-0.22-0.28-0.51-0.43-0.84-0.43c-0.33,0-0.62,0.15-0.84,0.43c-0.22,0.28-0.33,0.62-0.33,1c0,0.39,0.11,0.73,0.34,1.01
			C192.43,222.5,192.72,222.65,193.04,222.65z"/>
		<path class="st0" d="M199.76,223.8c-0.72,0-1.37,0.17-1.92,0.5c-0.55,0.34-0.97,0.84-1.24,1.5c-0.27,0.66-0.41,1.48-0.41,2.46
			c0,1.44,0.28,2.55,0.87,3.32c0.58,0.77,1.43,1.15,2.49,1.15c0.66,0,1.25-0.15,1.78-0.46l0,0c0.31-0.19,0.61-0.46,0.89-0.81
			c0.28-0.36,0.5-0.83,0.67-1.41c0.16-0.58,0.25-1.26,0.25-2.04c0-1.35-0.28-2.4-0.85-3.12C201.69,224.16,200.84,223.8,199.76,223.8
			z M200.21,231.51c-0.13,0.07-0.28,0.11-0.45,0.11c-0.2,0-0.37-0.05-0.52-0.14c-0.15-0.09-0.28-0.24-0.39-0.44
			c-0.34-0.61-0.52-1.68-0.52-3.19c0-0.81,0.06-1.43,0.17-1.83c0.11-0.41,0.26-0.69,0.44-0.85c0.19-0.16,0.39-0.24,0.64-0.24
			c0.29,0,0.52,0.11,0.73,0.33c0.2,0.21,0.37,0.63,0.48,1.25c0.11,0.62,0.17,1.36,0.17,2.23c0,1.24-0.15,2.06-0.42,2.45
			C200.46,231.34,200.34,231.44,200.21,231.51z"/>
		<path class="st0" d="M212.22,231.53c-0.18-0.02-0.31-0.04-0.39-0.04l0,0c-0.1-0.01-0.18-0.02-0.23-0.04
			c-0.06-0.02-0.09-0.04-0.09-0.05c-0.01-0.01-0.03-0.05-0.05-0.11c-0.02-0.06-0.03-0.15-0.04-0.26c-0.02-0.22-0.03-0.82-0.04-1.78
			l-0.01-0.88c0-0.09,0-0.18,0.01-0.24v0c0.01-0.18,0.01-0.6,0.01-1.25c0-0.58-0.03-1.01-0.11-1.3c-0.07-0.29-0.2-0.56-0.37-0.82
			c-0.18-0.26-0.4-0.47-0.66-0.62c-0.28-0.15-0.66-0.22-1.16-0.22c-0.19,0-0.34,0.01-0.46,0.04c-0.12,0.03-0.25,0.08-0.41,0.16
			l-0.02,0.01l-1.05,1.06v-1.16l-0.31-0.17l-0.06,0.03c-0.32,0.19-0.61,0.32-0.86,0.4c-0.25,0.08-0.8,0.21-1.63,0.39l-0.1,0.02v0.88
			l0.12,0c0.21,0.01,0.38,0.02,0.51,0.03c0.12,0.01,0.21,0.03,0.22,0.04l0,0l0,0c0.03,0.01,0.04,0.03,0.06,0.05
			c0,0.01,0.02,0.07,0.02,0.17c0.01,0.1,0.02,0.23,0.02,0.4c0.03,0.72,0.04,1.34,0.04,1.85v1.12c0,0.36,0,0.62-0.01,0.78v0
			l-0.03,0.76v0c0,0.29-0.03,0.49-0.06,0.57c-0.02,0.04-0.05,0.07-0.08,0.08l0,0c-0.1,0.05-0.34,0.08-0.69,0.08h-0.12v0.91
			l0.13-0.01c0.46-0.02,1.11-0.03,1.94-0.03c0.72,0,1.33,0.01,1.83,0.03l0.13,0.01v-0.9l-0.11-0.01c-0.16-0.02-0.29-0.03-0.39-0.04
			c-0.09-0.01-0.16-0.02-0.17-0.02c-0.15-0.04-0.25-0.08-0.27-0.1l0,0l0,0c-0.01-0.01-0.03-0.03-0.05-0.08l0,0
			c-0.01-0.02-0.02-0.08-0.03-0.17c-0.01-0.08-0.01-0.19-0.02-0.32v0c-0.02-0.6-0.03-1.12-0.03-1.53v-1.44v0c0-0.1,0-0.19,0-0.28
			c0-0.31,0-0.56,0.01-0.74c0-0.09,0.01-0.16,0.01-0.22c0-0.05,0.01-0.09,0.01-0.1c0.05-0.16,0.16-0.34,0.36-0.52
			c0.19-0.17,0.42-0.25,0.71-0.26c0.3,0,0.51,0.09,0.68,0.25c0.17,0.17,0.29,0.4,0.35,0.7c0.06,0.29,0.09,0.95,0.09,1.95v0.67
			l-0.03,1.41c-0.05,0.87-0.08,1.36-0.09,1.48l0,0.05l0.2,0.25l0.07-0.01c0.33-0.04,0.72-0.06,1.17-0.06c0.39,0,0.9,0.02,1.52,0.06
			l0.13,0.01v-0.9L212.22,231.53z"/>
	</g>
</g>
</svg>
