<?xml version="1.0" encoding="utf-8"?>
<!-- Generator: Adobe Illustrator 22.0.1, SVG Export Plug-In . SVG Version: 6.00 Build 0)  -->
<svg version="1.1" id="Layer_1" xmlns="http://www.w3.org/2000/svg" xmlns:xlink="http://www.w3.org/1999/xlink" x="0px" y="0px"
	 viewBox="0 0 762.3 163.1" style="enable-background:new 0 0 762.3 163.1;" xml:space="preserve">
<style type="text/css">
	.st0{opacity:0.4;}
	.st1{stroke:#000000;stroke-miterlimit:10;}
	.st2{fill:#FFFFFF;}
</style>
<g>
	<title>Asset 1</title>
	<g id="shadow" class="st0">
		<g>
			<g>
				<g id="Layer_1-2_1_">
					<path class="st1" d="M29.2,115.7c-3-0.1-5.9,1.2-7.9,3.4c-2.1,2.5-3.3,5.8-3.1,9.1c-0.1,3.2,1,6.3,3,8.7c2,2.2,4.8,3.4,7.7,3.3
						c2.9,0.1,5.8-1.1,7.8-3.2s3.2-5.3,3.2-9.3c0.1-3.1-0.9-6.2-2.9-8.6C35.1,116.8,32.3,115.6,29.2,115.7 M32.1,136.4
						c-0.9,0.5-2,0.7-3,0.7s-2.1-0.2-3-0.7c-1.3-0.8-2.4-1.9-3-3.3c-0.7-1.6-1.1-3.3-1.1-5c-0.1-2.3,0.6-4.6,1.8-6.6
						c0.6-0.8,1.3-1.5,2.2-2c1-0.5,2-0.8,3.1-0.8s2.2,0.3,3.1,0.8c1.3,0.8,2.4,2,3,3.4c0.7,1.5,1,3.2,1,4.9c0.1,2.3-0.6,4.6-1.9,6.6
						C33.8,135.3,33,136,32.1,136.4"/>
					<path class="st1" d="M53.5,122.2c-1.3,0-2.5,0.3-3.7,0.9c-0.8,0.5-1.5,1.1-2,1.8l-0.1-2.3h-3.4v0.3c0.1,1.6,0.1,3.3,0.1,5.4
						v18.3h3.7v-8.5c1.3,1.4,3,2.1,4.9,2.1c2.1,0,4.1-0.8,5.5-2.3c1.7-1.9,2.5-4.4,2.4-6.9c0.1-2.3-0.7-4.5-2.1-6.3
						C57.5,123.1,55.5,122.2,53.5,122.2 M48.2,133.9c-0.1-0.4-0.1-0.8-0.1-1.2v-2.9c0-0.4,0.1-0.8,0.2-1.2l0,0
						c0.5-2,2.2-3.5,4.3-3.5c0.7,0,1.4,0.1,2,0.5c0.9,0.5,1.6,1.2,2,2.1c0.5,1,0.7,2.2,0.7,3.3c0.1,1.6-0.4,3.1-1.3,4.4
						c-0.8,1.1-2.1,1.7-3.5,1.7C50.5,137.3,48.8,135.9,48.2,133.9"/>
					<path class="st1" d="M69.6,117.7l-0.4,0.1l-3.2,0.9v3.9h-2.6v2.9H66v8.8c0,0.9,0.1,1.8,0.3,2.6c0.2,0.7,0.5,1.4,1,1.9l0,0
						c0.9,0.9,2.2,1.4,3.5,1.4c1,0,1.9-0.1,2.8-0.4l0.2-0.1l-0.2-2.9l-0.4,0.1c-0.5,0.1-1.1,0.2-1.7,0.2c-0.3,0-0.6,0-0.9-0.2
						c-0.4-0.2-0.7-0.5-0.8-0.9c-0.2-0.6-0.3-1.2-0.2-1.8v-8.7h4.3v-2.9h-4.4L69.6,117.7L69.6,117.7L69.6,117.7z"/>
					<polygon class="st1" points="78,139.9 78.3,139.9 81.7,139.9 81.7,122.6 78,122.6 					"/>
					<path class="st1" d="M82,118.2L82,118.2c0-0.6-0.2-1.1-0.6-1.6c-0.4-0.4-1-0.7-1.6-0.7c-1.2,0-2.2,1-2.2,2.2
						c0,0.6,0.2,1.1,0.6,1.5s1,0.6,1.5,0.6c0.6,0,1.2-0.2,1.6-0.6C81.8,119.4,82,118.8,82,118.2L82,118.2z"/>
					<path class="st1" d="M106,122.2c-1.4-0.1-2.8,0.4-3.9,1.2c-0.7,0.5-1.2,1.1-1.7,1.8c-0.4-0.8-1-1.5-1.7-2c-0.9-0.7-2-1-3.1-1
						c-1.2,0-2.4,0.3-3.5,1c-0.6,0.4-1.2,1-1.6,1.6l-0.1-2.2h-3.3v0.3c0.1,1.4,0.1,2.8,0.1,4.5v12.4h3.6v-10.4
						c0-0.5,0.1-0.9,0.2-1.4l0,0c0.2-0.7,0.7-1.4,1.2-1.9c0.6-0.5,1.4-0.9,2.2-0.9c0.5,0,0.9,0.1,1.4,0.3c0.6,0.3,1.1,0.8,1.3,1.5
						c0.3,0.8,0.5,1.6,0.5,2.5v10.3h3.6v-10.6c0-0.5,0.1-1,0.2-1.4c0.2-0.7,0.7-1.3,1.2-1.8c0.6-0.5,1.3-0.7,2-0.8
						c0.5,0,1,0.1,1.5,0.3c0.6,0.3,1.1,0.9,1.4,1.6c0.3,0.9,0.5,1.9,0.5,2.9v9.7h3.6v-10.1c0-3-0.8-4.8-2-6
						C108.7,122.8,107.3,122.2,106,122.2"/>
					<path class="st1" d="M102.1,123.4"/>
					<path class="st1" d="M121.3,118.2c0-0.6-0.2-1.1-0.6-1.6c-0.4-0.4-1-0.7-1.6-0.6c-0.6,0-1.2,0.2-1.6,0.6
						c-0.8,0.9-0.8,2.2,0,3.1c0.4,0.4,1,0.6,1.5,0.6c0.6,0,1.2-0.2,1.6-0.6C121.2,119.4,121.4,118.9,121.3,118.2L121.3,118.2z"/>
					<polygon class="st1" points="117.3,139.9 117.7,139.9 121,139.9 121,122.6 117.3,122.6 					"/>
					<path class="st1" d="M131.3,134.7L131.3,134.7l7.5-9.7v-2.3h-13.3v3.1h8.7c-0.6,0.7-1.2,1.4-1.8,2.1l0,0l-7.6,9.9v2.2h14.1v-3
						h-9.4C130.2,136.2,130.7,135.4,131.3,134.7"/>
					<path class="st1" d="M146.7,118.2L146.7,118.2c0-0.6-0.2-1.1-0.6-1.6c-0.4-0.4-1-0.7-1.6-0.6c-1.2,0-2.2,1-2.2,2.2
						c0,0.6,0.2,1.1,0.6,1.5s1,0.6,1.5,0.6c0.6,0,1.2-0.2,1.6-0.6C146.5,119.4,146.7,118.9,146.7,118.2L146.7,118.2z"/>
					<polygon class="st1" points="142.7,139.9 143,139.9 146.4,139.9 146.4,122.6 142.7,122.6 					"/>
					<path class="st1" d="M164.7,123.7c-1.1-1-2.5-1.5-4-1.5c-1.3,0-2.5,0.3-3.6,1c-0.6,0.4-1.2,0.9-1.7,1.5l-0.1-2.2H152v0.3
						c0.1,1.4,0.1,2.8,0.1,4.5v12.4h3.7v-10.3c0-0.4,0.1-0.9,0.2-1.3l0,0c0.2-0.8,0.7-1.5,1.4-2c0.7-0.6,1.5-0.9,2.4-0.8
						c0.6,0,1.1,0.1,1.7,0.4c0.7,0.3,1.2,0.9,1.4,1.6c0.3,0.8,0.5,1.7,0.4,2.6v9.9h3.7v-10.3C166.8,126.7,165.9,124.8,164.7,123.7"
						/>
					<path class="st1" d="M184.2,122.6l-0.1,1.9c-0.4-0.5-0.9-1-1.4-1.3c-1.1-0.7-2.3-1-3.6-1c-2.1,0-4,0.9-5.4,2.4
						c-1.6,1.9-2.5,4.3-2.4,6.8c-0.1,2.2,0.7,4.3,2.1,6c1.3,1.6,3.3,2.4,5.3,2.4c1.9,0.1,3.8-0.7,5.1-2.2v1c0,0.9-0.1,1.7-0.4,2.6
						c-0.3,0.9-0.9,1.7-1.8,2.2c-0.9,0.5-1.9,0.7-2.9,0.7c-1.7,0-3.3-0.4-4.7-1.3l-0.3-0.2l-0.9,2.9l0.2,0.1c1.7,1,3.7,1.5,5.7,1.4
						c2.3,0.1,4.5-0.6,6.3-2.1l0,0c0.9-0.8,1.5-1.8,1.9-3c0.4-1.6,0.6-3.2,0.6-4.8v-9.7c0-2,0.1-3.3,0.1-4.6v-0.3L184.2,122.6
						L184.2,122.6z M183.5,134c-0.7,2.2-3.1,3.4-5.3,2.7c-0.8-0.3-1.5-0.8-2-1.4c-0.8-1.2-1.2-2.6-1.2-4c-0.1-1.6,0.4-3.1,1.3-4.4
						c0.8-1,2-1.6,3.3-1.6c0.9,0,1.8,0.3,2.5,0.9c0.7,0.5,1.1,1.3,1.4,2.1l0,0c0.1,0.4,0.2,0.8,0.2,1.3v3
						C183.7,133,183.6,133.5,183.5,134"/>
					<polygon class="st1" points="215.9,125.8 205.3,125.8 205.3,116.1 205,116.1 201.7,116.1 201.7,139.9 205.3,139.9 205.3,129 
						215.9,129 215.9,139.9 219.5,139.9 219.5,116.1 215.9,116.1 					"/>
					<path class="st1" d="M235.7,123.1c-1.1-0.6-2.3-0.9-3.5-0.8c-2.3-0.1-4.5,0.9-6,2.7c-1.5,1.9-2.2,4.2-2.1,6.6
						c-0.1,2.3,0.7,4.6,2.3,6.3c1.7,1.6,3.9,2.5,6.2,2.4c1.9,0,3.9-0.3,5.7-1.1l0.2-0.1l-0.7-2.8l-0.3,0.2c-1.4,0.6-3,0.9-4.5,0.8
						c-1.4,0.1-2.7-0.4-3.8-1.3c-1-1-1.6-2.4-1.6-3.9h11.6v-0.3c0.1-0.5,0.1-1,0.1-1.4c0-1.8-0.5-3.7-1.4-5.2
						C237.4,124.3,236.6,123.5,235.7,123.1 M230.1,125.5c0.6-0.3,1.2-0.5,1.8-0.4c0.7,0,1.3,0.1,1.9,0.4c0.7,0.4,1.2,1,1.5,1.8
						c0.3,0.6,0.4,1.3,0.4,2h-8.2c0.2-1,0.6-1.9,1.1-2.7C229.2,126,229.6,125.7,230.1,125.5"/>
					<path class="st1" d="M256.2,135.6v-6.2c0.1-1.7-0.4-3.4-1.3-4.8c-0.5-0.7-1.2-1.3-2.1-1.7c-1-0.4-2.1-0.6-3.3-0.6
						c-2,0-3.9,0.5-5.6,1.5l-0.2,0.1l0.9,2.6l0.3-0.2c1.3-0.8,2.7-1.2,4.2-1.2c0.7,0,1.3,0.1,1.9,0.4c0.6,0.3,1.1,0.8,1.3,1.5
						c0.2,0.5,0.3,1.1,0.3,1.7l0,0c-2.5-0.1-5.1,0.4-7.3,1.6c-0.8,0.5-1.5,1.2-2,2c-0.5,0.9-0.7,1.8-0.7,2.8c0,1.3,0.5,2.6,1.4,3.5
						c1.1,1.1,2.5,1.6,4,1.6c1.9,0,3.7-0.7,5-2.1l0.2,1.7h3.4l-0.1-0.4C256.3,138.1,256.2,136.8,256.2,135.6 M252.5,134.7
						c-0.2,0.7-0.7,1.3-1.3,1.8c-0.7,0.5-1.6,0.8-2.4,0.8c-0.7,0-1.3-0.2-1.8-0.6c-0.5-0.5-0.8-1.3-0.7-2c0-0.6,0.2-1.2,0.5-1.7
						c0.6-0.7,1.4-1.2,2.4-1.4c1.1-0.3,2.2-0.4,3.4-0.4h0.2v2.6C252.6,134.1,252.6,134.4,252.5,134.7"/>
					<polygon class="st1" points="261.7,115.1 261.7,139.9 265.4,139.9 265.4,114.8 261.7,114.8 					"/>
					<path class="st1" d="M275.4,117.7l-0.4,0.1l-3.2,0.9v3.9h-2.6v2.9h2.6v8.8c0,0.9,0.1,1.8,0.3,2.6c0.2,0.7,0.5,1.4,1,1.9l0,0
						c0.9,0.9,2.2,1.4,3.5,1.4c1,0,1.9-0.1,2.8-0.4l0.2-0.1l-0.2-2.9l-0.4,0.1c-0.5,0.1-1.1,0.2-1.7,0.2c-0.3,0-0.6,0-0.9-0.2
						c-0.4-0.2-0.6-0.5-0.8-0.9c-0.2-0.6-0.3-1.2-0.2-1.8v-8.7h4.3v-2.9h-4.3L275.4,117.7L275.4,117.7z"/>
					<path class="st1" d="M296.5,123.7c-1.1-1-2.5-1.5-4-1.5c-1.1,0-2.3,0.3-3.2,0.9l0,0c-0.7,0.4-1.3,0.9-1.8,1.5v-9.8h-3.7v25h3.7
						v-10.3c0-0.4,0-0.9,0.2-1.3l0,0l0,0c0.3-0.8,0.7-1.5,1.4-2c0.7-0.5,1.5-0.8,2.4-0.8c0.6,0,1.1,0.1,1.7,0.4
						c0.7,0.4,1.2,0.9,1.4,1.7c0.3,0.8,0.5,1.7,0.4,2.6v9.9h3.7v-10.2C298.6,126.7,297.7,124.8,296.5,123.7"/>
					<path class="st1" d="M324.1,118.8c1.6,0,3.1,0.3,4.5,0.9l0.3,0.2l0.9-3l-0.2-0.1c-1.8-0.8-3.7-1.1-5.6-1.1
						c-3.3-0.1-6.6,1.1-9,3.5c-2.3,2.4-3.5,5.7-3.5,9c-0.2,3.3,1.1,6.5,3.4,8.9c2.3,2.1,5.3,3.2,8.4,3.1c1.3,0,2.5-0.1,3.8-0.3
						c0.9-0.2,1.7-0.4,2.5-0.8l0.2-0.1l-0.1-0.2l-0.7-2.7l-0.3,0.2c-1.5,0.6-3.1,1-4.8,0.9c-2.4,0.1-4.7-0.8-6.3-2.4
						c-1.6-1.8-2.4-4.2-2.2-6.6c-0.1-2.5,0.7-5,2.4-6.8C319.4,119.6,321.7,118.7,324.1,118.8"/>
					<path class="st1" d="M346.2,135.6v-6.2c0.1-1.7-0.4-3.4-1.3-4.8c-0.5-0.7-1.2-1.3-2.1-1.7c-1-0.4-2.1-0.6-3.3-0.6
						c-2,0-3.9,0.5-5.6,1.5l-0.2,0.1l0.9,2.6l0.3-0.2c1.3-0.8,2.7-1.2,4.2-1.2c0.7,0,1.3,0.1,1.9,0.4c0.6,0.3,1.1,0.8,1.3,1.5
						c0.2,0.5,0.3,1.1,0.3,1.7l0,0c-2.5-0.1-5.1,0.4-7.3,1.6c-0.8,0.5-1.5,1.2-2,2c-0.5,0.9-0.7,1.8-0.7,2.8c0,1.3,0.5,2.6,1.4,3.5
						c1.1,1.1,2.5,1.6,4,1.6c1.9,0,3.7-0.7,5-2.1l0.2,1.7h3.4l-0.1-0.4C346.2,138.1,346.2,136.8,346.2,135.6 M342.5,134.7
						c-0.2,0.7-0.7,1.3-1.3,1.8c-0.7,0.5-1.6,0.8-2.5,0.8c-0.7,0-1.3-0.2-1.8-0.6c-0.5-0.5-0.8-1.3-0.7-2c0-0.6,0.2-1.2,0.5-1.7
						c0.6-0.7,1.4-1.2,2.3-1.4c1.1-0.3,2.2-0.4,3.4-0.4h0.2v2.6C342.6,134.1,342.6,134.4,342.5,134.7"/>
					<path class="st1" d="M359.4,122.2c-1.9,0-3.6,1.1-4.5,2.8l-0.1-2.5h-3.3v0.3c0.1,1.5,0.1,3.2,0.1,5.2v11.8h3.6v-9.2
						c0-0.5,0.1-0.9,0.1-1.4c0.2-1,0.6-1.9,1.3-2.6c0.6-0.7,1.5-1,2.5-1c0.3,0,0.7,0,1,0.1l0.4,0.1v-3.5l-0.2-0.1
						C360,122.2,359.7,122.2,359.4,122.2"/>
					<path class="st1" d="M374.4,123.1c-1.1-0.6-2.3-0.9-3.5-0.8c-2.3-0.1-4.5,0.9-6,2.7c-1.5,1.9-2.2,4.2-2.1,6.6
						c-0.1,2.3,0.7,4.6,2.2,6.3c1.7,1.6,3.9,2.5,6.2,2.4c1.9,0.1,3.9-0.3,5.7-1.1l0.2-0.2l-0.7-2.8l-0.3,0.2
						c-1.4,0.6-2.9,0.9-4.5,0.8c-1.4,0.1-2.7-0.4-3.8-1.3c-1-1-1.6-2.4-1.6-3.9h11.7v-0.3c0.1-0.5,0.1-1,0.1-1.4
						c0-1.8-0.5-3.7-1.5-5.2C376,124.2,375.2,123.5,374.4,123.1 M368.7,125.4c0.6-0.3,1.2-0.4,1.8-0.4c0.7,0,1.3,0.1,1.9,0.4
						c0.7,0.4,1.3,1,1.5,1.8c0.3,0.6,0.4,1.3,0.4,2h-8.2c0.2-1,0.6-1.9,1.1-2.7C367.8,126,368.2,125.6,368.7,125.4"/>
					<path class="st1" d="M405.5,116.2c-1.5-0.6-3-1-4.6-0.9c-3.1,0-6.2,1.3-8.3,3.6c-2.2,2.6-3.4,6-3.3,9.4c-0.1,3.3,1,6.5,3.1,9
						c2.1,2.3,5,3.6,8.1,3.5c3.1,0.1,6-1.2,8.2-3.4c1.1-1.2,1.9-2.6,2.5-4.1c0.6-1.8,0.9-3.7,0.9-5.5c0.1-3.3-0.9-6.5-3-9
						C408.1,117.6,406.9,116.7,405.5,116.2 M403.5,136c-0.9,0.5-1.8,0.7-2.8,0.7s-1.9-0.2-2.8-0.7c-1.2-0.7-2.2-1.8-2.8-3.1
						c-0.7-1.5-1-3.2-1-4.8c-0.1-2.2,0.5-4.4,1.7-6.3c0.5-0.8,1.2-1.4,2-1.9c0.9-0.5,1.9-0.7,2.9-0.7s2,0.2,2.9,0.7
						c1.2,0.8,2.2,1.9,2.8,3.2c0.7,1.5,1,3.1,1,4.7c0.1,2.2-0.6,4.5-1.8,6.3C405.1,134.9,404.4,135.5,403.5,136"/>
					<path class="st1" d="M430.3,126.1c0,2.2,0,4.1,0.1,5.9c-0.8-1.4-1.6-2.8-2.5-4.3l-7.7-12.1h-4.5v24.7h4.4v-10.7
						c0-2.4,0-4.4-0.1-6.2c0.9,1.6,1.9,3.2,2.8,4.8l7.6,12.1h4.2v-24.7h-4.4L430.3,126.1z"/>
					<polygon class="st1" points="444.2,129.5 453.2,129.5 453.2,128.7 453.2,125.4 444.2,125.4 444.2,119.7 453.7,119.7 
						453.7,115.6 439.6,115.6 439.6,140.3 454.2,140.3 454.2,136.3 444.2,136.3 					"/>
					<path class="st1" d="M480.3,128.5c0.7-0.7,1.2-1.5,1.5-2.4c0.3-1,0.5-2,0.5-3.1s-0.2-2.1-0.6-3.1c-0.4-0.9-1-1.7-1.7-2.3l0,0
						c-0.9-0.7-1.9-1.3-2.9-1.5c-1.3-0.4-2.7-0.6-4.1-0.5c-2,0-3.9,0.1-5.9,0.5l-0.6,0.1v24.3h4.5v-9.1c0.5,0,1.1,0.1,1.6,0.1
						c1.5,0,2.9-0.2,4.3-0.7C478.2,130.2,479.3,129.5,480.3,128.5L480.3,128.5 M475.7,126.7c-1,0.4-2,0.7-3.1,0.6
						c-0.6,0-1.1,0-1.7-0.1v-7.8h0.4c0.4,0,1-0.1,1.6-0.1c0.7,0,1.3,0.1,2,0.2c0.8,0.2,1.4,0.6,2,1.2c0.5,0.7,0.7,1.5,0.7,2.3
						c0,0.6-0.1,1.2-0.3,1.8C477,125.7,476.4,126.3,475.7,126.7"/>
					<path class="st1" d="M489.5,115.6l-8.4,24.7h4.8l2.4-7.3h7.1l2.5,7.3h4.9l-8.5-24.7L489.5,115.6z M494.2,129.1h-4.8l1.9-5.7
						l0,0c0.2-0.5,0.3-1,0.5-1.5c0.1,0.5,0.3,1,0.5,1.6L494.2,129.1z"/>
					<polygon class="st1" points="500.2,119.7 507.3,119.7 507.3,140.3 511.9,140.3 511.9,119.7 518.9,119.7 518.9,115.6 
						500.2,115.6 					"/>
					<polygon class="st1" points="521.3,115.6 521.3,140.3 525.8,140.3 525.8,115.6 525,115.6 					"/>
					<polygon class="st1" points="535.3,129.5 544.3,129.5 544.3,128.7 544.3,125.4 535.3,125.4 535.3,119.7 544.9,119.7 
						544.9,115.6 530.8,115.6 530.8,140.3 545.4,140.3 545.4,136.3 535.3,136.3 					"/>
					<path class="st1" d="M563.6,126.1c0,2.2,0,4.1,0.1,5.9c-0.8-1.4-1.6-2.8-2.5-4.3l0,0l-7.7-12.1H549v24.7h4.4v-10.7
						c0-2.4,0-4.4-0.1-6.2c0.9,1.6,1.8,3.2,2.8,4.8l7.6,12.1h4.2v-24.7h-4.4L563.6,126.1z"/>
					<polygon class="st1" points="570.3,119.7 577.3,119.7 577.3,140.3 581.9,140.3 581.9,119.7 589,119.7 589,115.6 570.3,115.6 
											"/>
					<path class="st1" d="M612.6,135.6v-6.2c0.1-1.7-0.4-3.4-1.3-4.8c-0.5-0.7-1.2-1.3-2-1.7c-1-0.4-2.1-0.6-3.3-0.6
						c-2,0-3.9,0.5-5.6,1.5l-0.2,0.1l0.9,2.6l0.3-0.2c1.3-0.8,2.7-1.2,4.2-1.2c0.7,0,1.3,0.1,1.9,0.4c0.6,0.3,1.1,0.8,1.3,1.5
						c0.2,0.5,0.3,1.1,0.3,1.7l0,0c-2.5-0.1-5.1,0.4-7.3,1.6c-1.7,1-2.8,2.9-2.7,4.9c0,1.3,0.5,2.6,1.4,3.5c1.1,1.1,2.5,1.6,4,1.6
						c1.9,0,3.7-0.7,5-2.1l0.2,1.7h3.4l-0.1-0.4C612.7,138.2,612.6,136.8,612.6,135.6 M608.9,134.8c-0.3,0.7-0.7,1.3-1.3,1.8
						c-0.7,0.5-1.6,0.8-2.5,0.8c-0.7,0-1.3-0.2-1.8-0.6c-0.5-0.5-0.8-1.3-0.7-2c0-0.6,0.2-1.2,0.5-1.7c0.6-0.7,1.4-1.2,2.3-1.4
						c1.1-0.3,2.2-0.4,3.4-0.4h0.2v2.6C609.1,134.1,609,134.4,608.9,134.8"/>
					<path class="st1" d="M622.3,117.7l-0.4,0.1l-3.2,0.9v3.9h-2.6v2.9h2.6v8.8c0,0.9,0.1,1.8,0.3,2.6c0.2,0.7,0.5,1.4,1,1.9l0,0
						c0.9,0.9,2.2,1.4,3.5,1.4c1,0,1.9-0.1,2.8-0.4l0.2-0.1l-0.2-2.9l-0.4,0.1c-0.5,0.1-1.1,0.2-1.7,0.2c-0.3,0-0.6,0-0.9-0.2
						c-0.4-0.2-0.7-0.5-0.8-0.9c-0.2-0.6-0.3-1.2-0.2-1.8v-8.7h4.3v-2.9h-4.3L622.3,117.7z"/>
					<path class="st1" d="M651.6,135.6v-6.2c0.1-1.7-0.4-3.4-1.3-4.8c-0.5-0.7-1.2-1.3-2.1-1.7c-1-0.4-2.1-0.6-3.3-0.6
						c-2,0-3.9,0.5-5.6,1.5l-0.2,0.1l0.9,2.6l0.3-0.2c1.3-0.8,2.7-1.2,4.2-1.2c0.7,0,1.3,0.1,1.9,0.4c0.6,0.3,1.1,0.8,1.3,1.5
						c0.2,0.5,0.3,1.1,0.3,1.7l0,0c-2.5-0.1-5.1,0.4-7.3,1.6c-0.8,0.5-1.5,1.2-2,2c-0.5,0.9-0.7,1.8-0.7,2.8c0,1.3,0.5,2.6,1.4,3.5
						c1.1,1.1,2.5,1.6,4,1.6c1.9,0,3.7-0.7,5-2.1l0.2,1.7h3.4l-0.1-0.4C651.7,138.1,651.6,136.8,651.6,135.6 M647.9,134.7
						c-0.2,0.7-0.7,1.3-1.3,1.8c-0.7,0.5-1.6,0.8-2.5,0.8c-0.7,0-1.3-0.2-1.8-0.6c-0.5-0.5-0.8-1.3-0.7-2c0-0.6,0.2-1.2,0.5-1.7
						c0.6-0.7,1.4-1.2,2.3-1.4c1.1-0.3,2.2-0.4,3.4-0.4h0.2v2.6C648.1,134.1,648,134.4,647.9,134.7"/>
					<polygon class="st1" points="661.9,119.2 668.9,119.2 668.9,139.9 672.6,139.9 672.6,119.2 679.6,119.2 679.6,116.1 
						661.9,116.1 					"/>
					<polygon class="st1" points="682.4,139.9 682.7,139.9 686,139.9 686,122.6 682.4,122.6 					"/>
					<path class="st1" d="M686.4,118.2c0-0.6-0.2-1.1-0.6-1.6c-0.4-0.4-1-0.7-1.6-0.6c-0.6,0-1.2,0.2-1.6,0.6s-0.6,1-0.6,1.6
						s0.2,1.1,0.6,1.5c0.4,0.4,1,0.6,1.5,0.6c0.6,0,1.2-0.2,1.6-0.6C686.2,119.4,686.4,118.9,686.4,118.2L686.4,118.2z"/>
					<path class="st1" d="M710.3,122.2c-1.4-0.1-2.8,0.4-3.9,1.2c-0.7,0.5-1.2,1.1-1.7,1.8c-0.4-0.8-1-1.5-1.7-2c-0.9-0.7-2-1-3.1-1
						c-1.2,0-2.4,0.3-3.5,1c-0.6,0.4-1.2,1-1.6,1.6l-0.1-2.2h-3.3v0.3c0.1,1.4,0.1,2.8,0.1,4.5v12.4h3.6v-10.4
						c0-0.5,0.1-0.9,0.2-1.4l0,0c0.2-0.7,0.7-1.4,1.2-1.9c0.6-0.5,1.4-0.9,2.2-0.9c0.5,0,0.9,0.1,1.4,0.3c0.6,0.3,1.1,0.8,1.3,1.5
						c0.3,0.8,0.5,1.6,0.5,2.5v10.3h3.6v-10.6c0-0.5,0.1-1,0.2-1.4c0.2-0.7,0.7-1.3,1.2-1.8c0.6-0.5,1.3-0.7,2-0.8
						c0.5,0,1,0.1,1.5,0.3c0.6,0.3,1.1,0.9,1.4,1.6c0.3,0.9,0.5,1.9,0.5,2.9v9.7h3.6v-10.1c0-3-0.8-4.8-2-6
						C713.1,122.8,711.7,122.2,710.3,122.2"/>
					<path class="st1" d="M706.5,123.4L706.5,123.4L706.5,123.4z"/>
					<path class="st1" d="M732.2,123.1c-1.1-0.6-2.3-0.9-3.5-0.8c-2.3-0.1-4.5,0.9-6,2.7c-1.5,1.9-2.2,4.2-2.2,6.6
						c-0.1,2.3,0.7,4.6,2.3,6.3c1.7,1.6,3.9,2.5,6.2,2.4c1.9,0.1,3.9-0.3,5.7-1.1l0.2-0.1l-0.7-2.8l-0.3,0.2c-1.4,0.6-3,0.9-4.5,0.8
						c-1.4,0.1-2.7-0.4-3.8-1.3c-1.1-1-1.6-2.4-1.6-3.9h11.6v-0.3c0.1-0.5,0.1-1,0.1-1.4c0-1.8-0.5-3.7-1.5-5.2
						C733.8,124.3,733,123.6,732.2,123.1 M726.5,125.5c0.6-0.3,1.2-0.5,1.8-0.4c0.7,0,1.3,0.1,1.9,0.4c0.7,0.4,1.3,1,1.5,1.8
						c0.3,0.6,0.4,1.3,0.4,2h-8c0.2-1,0.5-1.9,1.2-2.7C725.6,126.1,726,125.7,726.5,125.5"/>
					<polygon class="st1" points="740.9,133.2 743.5,133.2 744,116.1 740,116.1 740.5,133.2 					"/>
					<path class="st1" d="M742,135.3c-0.6,0-1.2,0.2-1.7,0.7c-0.4,0.5-0.7,1.1-0.7,1.8c0,0.6,0.2,1.3,0.7,1.7c0.9,0.9,2.4,0.9,3.4,0
						l0,0c0.9-1,0.9-2.5,0-3.5C743.3,135.6,742.7,135.3,742,135.3"/>
					<path class="st1" d="M47.3,65c2.1-2.1,3.8-4.6,4.9-7.4l0.1-0.3l-4-5.4l-0.4,1c-0.5,1.1-1.1,2.2-1.7,3.3
						c-0.4,0.7-0.9,1.3-1.5,1.9c-0.4,0.4-0.9,0.7-1.3,0.9c-0.3,0.2-0.7,0.3-1.1,0.3c-0.7-0.1-1.4-0.3-2.1-0.6
						c-1.5-0.7-2.9-1.4-4.3-2.2c-1.4-0.9-3-1.6-4.6-2.2c-1.2-0.5-2.5-0.7-3.7-0.8c-0.9,0-1.8,0.2-2.6,0.6c-1,0.5-1.9,1.2-2.7,2
						c-1,1-1.8,2-2.5,3.2c-0.9,1.5-1.7,3-2.3,4.7l-0.4,0.4l5.4,2.9l0.3-0.7c0.4-1,0.8-2,1.4-2.9c0.4-0.7,0.9-1.2,1.6-1.6
						c0.6-0.4,1.2-0.5,1.9-0.5c0.5,0,1.1,0.1,1.6,0.2c0.8,0.3,1.5,0.7,2.2,1.1c1,0.5,2.2,1.2,3.7,2.1c1,0.7,1.9,1.2,2.6,1.5
						c0.6,0.3,1.2,0.5,1.9,0.7c0.8,0.1,1.7,0.2,2.5,0.2c0.9,0,1.8-0.2,2.6-0.6C45.7,66.3,46.5,65.7,47.3,65"/>
					<path class="st1" d="M91.1,82.1L91.1,82.1c0.7-0.1,1.4-0.2,2-0.5l0.4-0.1V81c0-0.5,0.1-2,0.3-4.5l0.8-8.1l0,0c0,0,0-0.2,0-0.4
						s0-0.5,0.1-0.9l0.1-0.7h-3.9L90.8,67c-0.4,2.6-0.8,4.9-1.2,6.9c-0.1,0.3-0.1,0.6-0.2,0.9L89.3,75l0,0c-0.1,0.1-0.2,0.1-0.4,0.1
						c-0.3,0.1-0.6,0.1-0.8,0.2l0,0c-2.8,0.5-5.6,0.7-8.3,0.7c-1,0-2.8-0.1-5.4-0.2c0-1.1,0-3.1,0-6.2c-0.3-3.6-0.3-7.4-0.3-11.2
						l0,0c0-7.2,0-11,0-11.5c0-4.5,0-8.1,0.1-11.1c0-1.5,0.1-2.6,0.2-3.4c0-0.4,0-0.7,0.1-1s0-0.2,0-0.3s0-0.1,0-0.1l0,0l0,0
						c0-0.1,0.1-0.2,0.1-0.3s0.1-0.1,0.1-0.1c0.1-0.1,0.3-0.1,0.4-0.2c0.5-0.1,0.9-0.2,1.4-0.3c0.7,0,1.4-0.1,2.3-0.1h0.6v-4.8h-0.7
						c-3.5,0.2-7.1,0.2-11,0.2c-3.5,0-6.5-0.1-9.2-0.2h-0.7V30h0.6c1.1,0,2.2,0.1,3.2,0.3c0.3,0,0.6,0.1,0.9,0.2
						c0.1,0,0.3,0.1,0.4,0.2l0,0l0,0c0.1,0,0.1,0.1,0.1,0.1c0,0.1,0.1,0.1,0.1,0.2c0,0,0,0.1,0,0.3c0.1,0.9,0.2,1.9,0.2,2.8
						c0.1,1.4,0.1,3.1,0.1,5.3l0,0c0,2,0.1,7.1,0.1,15.5c0,5.7,0,10.6-0.1,14.7c0,2-0.1,3.7-0.1,4.8c0,0.6,0,1.1-0.1,1.4
						s0,0.6-0.1,0.8l0,0c0,0.1,0,0.1-0.1,0.2l0,0c0.1,0.2,0.1,0.2,0,0.3c-0.2,0.1-0.3,0.3-0.5,0.4l0,0c-0.7,0.6-1.5,1.1-2.2,1.5
						L60,79.2v3.1h0.7c4.2-0.2,7.4-0.3,9.5-0.3c1.4,0,3.8,0,7.3,0.2l5.3,0.1h1.5H85C87.6,82.2,89.7,82.1,91.1,82.1L91.1,82.1z"/>
					<path class="st1" d="M108.1,82.1c3.6,0,6.8,0,9.8,0.2h0.7V78H118c-1.1-0.1-2-0.1-2.6-0.2c-0.3-0.1-0.6-0.1-0.8-0.2
						c-0.2,0-0.3-0.1-0.4-0.2l-0.1-0.1c-0.1-0.1-0.1-0.3-0.1-0.4l0,0c0-0.2-0.1-0.5-0.1-0.9c-0.1-1.3-0.1-3.7-0.1-7.2V55.1
						c0-3.6,0.1-7.5,0.4-11.6v-0.4l-1.4-0.9l-0.3,0.2c-1.7,0.9-3.4,1.6-5.2,2.1c-2.4,0.6-4.8,1.1-7.2,1.3l-0.5,0.1v4.2h0.6
						c1,0,1.9,0.1,2.9,0.1c0.3,0,0.5,0.1,0.8,0.1l0.2,0.1l0,0l0,0c0,0.1,0.1,0.1,0.1,0.2c0.1,0.2,0.1,0.3,0.1,0.5l0,0
						c0,0.2,0.1,0.7,0.1,1.5c0.1,2.2,0.2,6.4,0.2,12.6c0,3,0,5.5-0.1,7.3c-0.1,1.9-0.1,3.2-0.2,3.8l0,0c0,0.2-0.1,0.5-0.2,0.7
						c0,0.1-0.1,0.2-0.2,0.3h-0.1c-0.2,0.1-0.3,0.1-0.5,0.1c-1.1,0.2-2.1,0.3-3.2,0.4h-0.6V82h0.7C102.3,82.1,105,82.1,108.1,82.1"
						/>
					<path class="st1" d="M104.8,25.3c-1,1.3-1.6,3-1.6,4.7s0.5,3.4,1.6,4.7c0.5,0.6,1.1,1.1,1.8,1.5c0.7,0.3,1.4,0.5,2.2,0.5
						c0.8,0,1.5-0.2,2.2-0.5c0.7-0.4,1.3-0.9,1.8-1.5c1-1.4,1.6-3,1.6-4.7s-0.5-3.4-1.6-4.7c-0.5-0.6-1.1-1.1-1.8-1.5
						c-1.4-0.7-3-0.7-4.4,0C105.9,24.2,105.3,24.7,104.8,25.3"/>
					<path class="st1" d="M143.4,22c-1,0-2.1,0.2-3,0.6c-0.9,0.4-1.7,1-2.3,1.7l0,0l-3.9,4.3c-1.2,1.3-2.2,2.4-3,3.4
						c-0.6,0.7-1.2,1.5-1.8,2.4l0,0c-0.5,0.7-0.8,1.6-1,2.4c-0.1,0.5-0.2,1.1-0.3,1.6c-0.1,0.7-0.1,1.5-0.2,2.4
						c-0.1,1.9-0.2,3.4-0.2,4.7c0,0.1,0,0.2,0,0.3s-0.1,0.1-0.1,0.2l0,0l-0.1,0.1l-1.4,0.9l-2.8,1.8L123,49v3l5-0.3h0.3V63
						c0,3.6,0,6.5-0.1,8.7c0,1.1,0,2-0.1,2.7c-0.1,0.7-0.1,1.2-0.1,1.5l0,0c0,0.3-0.1,0.5-0.2,0.8c-0.1,0.1-0.1,0.3-0.2,0.4
						s-0.2,0.1-0.3,0.2c-0.5,0.1-0.9,0.2-1.4,0.3c-0.6,0.1-1.4,0.2-2.3,0.3H123v4.3h0.7c4.4-0.1,7.3-0.2,8.7-0.2l11.5,0.2V78h-0.6
						l-3.2-0.3l-0.8-0.1h-0.2H139c-0.3,0-0.5-0.1-0.8-0.3c-0.2-0.2-0.3-0.4-0.3-0.7c0-0.2-0.1-0.3-0.1-0.5c-0.1-0.7-0.1-2.1-0.2-4
						c-0.1-2.6-0.1-5.3-0.1-8.1V51.8l1.6-0.1h1.1h0.2l1.4,0.1l0,0l3.8,0.1l0.6-4.1l0,0c0.1-0.5,0.1-0.9,0.2-1.3l0.1-0.4l-0.9-0.9
						h-0.3c-1.3,0.1-2.9,0.2-4.7,0.3h-3.1v-4.9c0-2.1,0-3.8,0.1-5.2c0-0.6,0.1-1.2,0.1-1.7c0-0.3,0.1-0.7,0.2-1l0,0
						c0.1-0.5,0.4-1,0.8-1.4c0.3-0.2,0.7-0.4,1.1-0.5c0.5-0.1,1-0.2,1.5-0.2c0.6,0,1.3,0.1,1.8,0.4c0.6,0.4,1.2,0.8,1.6,1.4l0.3,0.4
						l2.1-1.1v-0.4c0-0.3,0-0.5,0-0.8c0-2.4,0.2-4.7,0.4-7.1l0.1-0.5l-0.5-0.1C146,22.3,144.7,22,143.4,22"/>
					<path class="st1" d="M129.5,34.4L129.5,34.4z"/>
					<path class="st1" d="M161.1,43.9L161.1,43.9L161.1,43.9z"/>
					<path class="st1" d="M156.3,80.1L156.3,80.1c1.3,1.2,2.7,2.1,4.3,2.6c1.9,0.7,3.8,1,5.8,1c1.7,0,3.3-0.2,4.9-0.7l0,0
						c2-0.7,3.9-1.7,5.6-3l0.1-0.1l1.6-4.4l-0.2-0.3l-1.1-1.6l-0.5,0.3c-1.2,0.8-2.5,1.5-3.9,2c-1,0.3-2.1,0.5-3.2,0.5
						c-1.3,0-2.5-0.3-3.6-0.8c-1.2-0.6-2.2-1.5-3-2.6c-1.9-2.6-2.9-5.7-3-8.9h1.4c0.4,0,0.7,0,1,0l0,0c0.1,0,0.3,0,0.4,0
						c0.6,0,1.9,0,3.9-0.1c2.6,0,4.8-0.1,6.4-0.3c0.4,0,0.8-0.1,1.2-0.2c0.5-0.1,1.1-0.2,1.9-0.4l0,0c0.9-0.2,1.7-0.4,2.5-0.7
						l0.4-0.2v-0.4c0-0.7,0.1-1.4,0.1-2.2c0.1-2.9-0.3-5.8-1.2-8.6c-0.7-2.4-2.2-4.4-4.1-6c-1-0.8-2.1-1.4-3.3-1.8
						c-1.3-0.4-2.7-0.6-4.1-0.6c-1.9-0.1-3.8,0.3-5.5,1.1l0,0c-0.6,0.3-1.1,0.7-1.6,1.1c-0.7,0.5-1.4,1.1-2.3,1.8
						c-0.9,0.7-1.6,1.4-2.2,1.9c-0.4,0.4-0.8,0.8-1.2,1.2c-0.9,1.3-1.6,2.8-1.9,4.4l0,0c-0.8,3.1-1.2,6.3-1.1,9.5
						c0,2.3,0.2,4.5,0.6,6.7c0.3,1.9,1,3.8,1.9,5.5C154,77.5,155.1,78.9,156.3,80.1 M160,58.1c0-1.5,0.1-3.1,0.4-4.6
						c0.2-1.1,0.5-2.1,1.1-3l0,0c0.4-0.7,1-1.3,1.6-1.8c0.6-0.4,1.3-0.6,1.9-0.6c0.7,0,1.3,0.2,1.9,0.5c0.6,0.4,1.2,1,1.6,1.7
						c0.5,0.9,0.8,1.9,1,2.9c0.2,1.5,0.4,3.1,0.3,4.7v0.4c-1.3,0.2-2.7,0.3-4.1,0.3c-1.5,0-2.7,0-3.8-0.1c-0.8,0-1.4-0.1-1.9-0.2
						V58.1"/>
					<path class="st1" d="M206.3,79.4c2.6-2.9,3.9-6.6,3.8-10.4c0-1.5-0.2-2.9-0.6-4.3l0,0c-0.3-1.2-0.9-2.4-1.7-3.4s-1.8-1.7-3-2.3
						l0,0c-0.6-0.3-1.2-0.5-1.9-0.7c-0.8-0.2-1.8-0.5-3-0.8s-2.2-0.5-3-0.7c-0.6-0.2-1.2-0.4-1.8-0.6l0,0c-0.7-0.2-1.3-0.7-1.7-1.3
						c-0.2-0.3-0.3-0.7-0.4-1.1c-0.1-0.6-0.2-1.2-0.2-1.8c0-1.2,0.5-2.3,1.3-3.2c0.4-0.4,1-0.8,1.6-1c0.7-0.2,1.4-0.4,2.2-0.3
						c1.1,0,2.1,0.2,3.1,0.7c0.9,0.5,1.6,1.2,2.1,2.1c0.2,1.1,0.3,2.2,0.4,3.3l0,0c0,0.7,0.1,1.2,0.1,1.5v0.6l3.6,0.1v-0.6
						c0.1-3.6,0.2-5.8,0.3-6.8s0.2-1.9,0.3-2.8v-0.1l-0.2-0.8l-0.2-0.1c-1.3-0.8-2.7-1.4-4.1-1.8c-1.6-0.4-3.3-0.6-4.9-0.6
						c-2,0-3.9,0.3-5.7,1c-1.6,0.6-3.1,1.6-4.3,2.9c-1.1,1.3-2,2.7-2.6,4.3c-0.6,1.7-0.9,3.5-0.9,5.2c0,1.9,0.4,3.8,1.2,5.6
						c0.6,1.5,1.7,2.8,3.1,3.7c1.7,1,3.6,1.7,5.5,2.2c1.2,0.3,2.1,0.6,2.9,0.8c0.6,0.2,1.2,0.4,1.7,0.6c0.4,0.2,0.8,0.5,1.2,0.8
						c0.3,0.3,0.5,0.5,0.7,0.9c0.9,2.2,0.5,4.6-1,6.4c-0.5,0.5-1,0.9-1.7,1.2c-2,0.7-4.2,0.5-6.1-0.6c-1.2-0.8-2.1-1.8-2.9-2.9
						c0-0.4-0.1-1-0.1-1.8s-0.1-2.1-0.2-3.6v-0.6h-3.8v0.6l-0.2,6.7c-0.1,0.8-0.1,2.3-0.3,4.3v0.2l0.6,0.9l0.2,0.1
						c1.7,0.8,3.5,1.4,5.2,1.8c1.5,0.3,3,0.5,4.5,0.5c2.1,0,4.2-0.3,6.2-1.1C203.4,81.9,205,80.8,206.3,79.4"/>
					<path class="st1" d="M229,82.9L229,82.9c0.8-0.2,1.6-0.6,2.4-1l0.1-0.1l0.1-0.1l2.5-3.1l1.4-1.7l-0.8-2.5l-0.6,0.2
						c-0.5,0.1-1.1,0.3-1.6,0.4c-0.4,0-0.7,0.1-1.1,0.1h-0.6l0,0c-0.5,0-0.9-0.1-1.4-0.2c-0.4-0.1-0.7-0.3-0.9-0.6
						c-0.3-0.3-0.5-0.7-0.6-1.1c-0.2-0.5-0.3-1-0.3-1.5l0,0c0-0.3-0.1-1.1-0.1-2.3s0-2.8,0-4.9V51.6h2.5l3.1,0.1l0,0
						c0.3,0,0.6,0,0.8-0.1l0.4-0.1l0.7-6.7l-0.8,0.1c-2.1,0.3-4.2,0.4-6.3,0.4h-0.4l0.3-6.3l0,0l0.2-4.6l0.3-4.4l-1.4-1.3l-0.3,0.3
						l-3,1.7l-0.8,0.4l-0.2,0.1h-0.1l0,0c-0.6,0.3-1.9,0.9-4,1.7l-0.4,0.2v0.4c0.2,2.8,0.2,5.2,0.2,7.1v5.1c-0.3,0.4-0.7,0.7-1.1,1
						l0,0l-3.1,2.5V52h0.7c1-0.1,2.1-0.1,3.3-0.1h0.2V61l-0.1,13.2l0,0c0,1.2,0.2,2.4,0.6,3.5c0.4,1.1,1,2,1.7,2.9l0,0
						c0.8,0.8,1.7,1.5,2.8,1.9s2.3,0.7,3.6,0.6C227.5,83.1,228.3,83,229,82.9"/>
					<path class="st1" d="M269.8,49.3c0.1-0.1,0.1-0.3,0.2-0.4c0.1-0.2,0.4-0.4,0.6-0.6l0,0c0.4-0.2,0.8-0.3,1.2-0.3h1.3v-4.5h-0.7
						c-2.2,0.1-4.5,0.2-7,0.2c-2.1,0-3.8-0.1-5.1-0.2h-0.7v4.4h0.6c1,0,2,0.1,2.9,0.3c0.1,0,0.2,0.1,0.3,0.1l0.1,0.1
						c0,0.1,0.1,0.2,0.1,0.3c0,0.2,0,0.4-0.1,0.5c-0.3,1.6-0.7,3.2-1.2,4.8c-0.7,2.3-1.6,5.2-2.8,8.7l-2.2,6.5l-4.1-13.3l-1.6-5.4
						l0,0c-0.2-0.5-0.3-1-0.3-1.6c0-0.1,0-0.2,0.1-0.3c0-0.1,0.1-0.2,0.2-0.2c0.2-0.2,0.5-0.3,0.7-0.3c0.5-0.1,0.9-0.1,1.4-0.1h1.6
						v-4.4h-0.6c-2.8,0.1-6,0.2-9.5,0.2c-3,0-5.6-0.1-7.6-0.2h-0.7V48h0.9c0.6,0,1.1,0,1.7,0.1c0.3,0.1,0.6,0.2,0.9,0.4l0,0
						c0.3,0.3,0.5,0.7,0.7,1c0.3,0.7,0.6,1.5,0.9,2.3l0,0l10.3,33l-1.2,3.6c-0.5,1.3-1,2.6-1.6,3.9c-0.4,0.8-0.8,1.5-1.4,2.1l0,0
						c-0.4,0.4-0.8,0.7-1.3,0.9c-0.4,0.2-0.9,0.3-1.3,0.3c-0.8,0-1.6-0.2-2.3-0.6c-0.6-0.5-1.2-1.1-1.7-1.7l-0.4-0.3l-1.6,0.4
						l-0.5,4.4c-0.1,0.8-0.3,2.1-0.7,4l-0.1,0.5l0.4,0.2c0.8,0.4,1.6,0.7,2.5,0.9l0,0c0.8,0.2,1.6,0.3,2.4,0.2
						c1.3,0,2.6-0.3,3.8-0.8c1.2-0.6,2.3-1.4,3.1-2.5c1.9-2.1,3.5-5.6,5.1-10.4l0,0l5.1-15.7l0,0c0.7-1.9,2.2-6.2,4.5-13l0,0
						c0.8-2.2,1.8-4.9,3-8.3c0.5-1.3,0.9-2.3,1.2-3C269.5,49.7,269.6,49.4,269.8,49.3"/>
					<path class="st1" d="M241.1,103.5L241.1,103.5L241.1,103.5z"/>
					<path class="st1" d="M250.4,100.4L250.4,100.4z"/>
					<path class="st1" d="M286.3,82c2.9,0,5.6,0.1,8.3,0.3l0.7,0.1v-4.5h-0.6l-2.3-0.2l-0.6-0.1h-0.2h-0.1c-0.2,0-0.3-0.1-0.5-0.2
						c-0.1,0-0.1-0.1-0.2-0.1l0,0c-0.1-0.1-0.1-0.1-0.1-0.2l0,0l0,0V77c-0.1-0.5-0.1-1-0.1-1.5l0,0c0-1-0.1-3.9-0.2-8.6l0,0
						c0-1.9-0.1-4.8-0.1-8.7V47.9c0-6.6,0.1-12.1,0.2-16.6l0,0l0.3-8.4l-1.3-0.9l-0.3,0.1c-2.1,0.8-4.2,1.5-6.3,2.2
						c-2.1,0.5-4.1,0.9-6.2,1.1l-0.6,0.1v4.1h0.6c0.8,0,1.4,0.1,1.9,0.1h0.6h0.3c0.3,0,0.6,0.2,0.9,0.3l0,0l0,0
						c0.1,0,0.1,0.1,0.1,0.2c0,0.1,0,0.2,0.1,0.3c0.1,0.5,0.1,1.4,0.2,2.8l0,0c0.1,3.4,0.2,7.3,0.2,11.4V58c0,3.3,0,7-0.1,11.2
						c0,2.1,0,3.8-0.1,5c0,0.6-0.1,1.1-0.1,1.5c0,0.3-0.1,0.6-0.1,0.8l0,0l0,0c0,0.2-0.1,0.4-0.2,0.6l0,0c-0.1,0.1-0.3,0.2-0.4,0.3
						l-0.4,0.1c-0.6,0.1-1.6,0.2-3.1,0.2h-0.6v4.4h0.7C280.2,82,283.4,81.9,286.3,82"/>
					<path class="st1" d="M316.3,83.7c1.7,0,3.3-0.2,4.9-0.7l0,0c2-0.7,3.9-1.7,5.6-3l0.1-0.1l1.6-4.4l-0.2-0.3l-1.1-1.6l-0.5,0.3
						c-1.2,0.8-2.5,1.5-3.9,2c-1,0.3-2.1,0.5-3.2,0.5c-1.2,0-2.5-0.3-3.6-0.8c-1.2-0.6-2.2-1.5-3-2.6c-1.9-2.6-2.9-5.7-3-8.9h1.5
						c0.4,0,0.7,0,1,0l0,0c0.1,0,0.3,0,0.4,0c0.6,0,1.9,0,3.9-0.1c2.6,0,4.8-0.1,6.4-0.3c0.4,0,0.8-0.1,1.2-0.2
						c0.5-0.1,1.1-0.2,1.9-0.4l0,0c0.9-0.2,1.7-0.4,2.5-0.7l0.4-0.2v-0.4c0-0.7,0.1-1.4,0.1-2.2c0.1-3-0.3-5.9-1.1-8.7
						c-0.7-2.4-2.2-4.4-4.1-6c-1-0.8-2.1-1.4-3.3-1.8c-1.3-0.4-2.7-0.6-4.1-0.6c-1.9,0-3.9,0.4-5.6,1.3l0,0
						c-0.6,0.3-1.1,0.7-1.6,1.1c-0.7,0.5-1.4,1.1-2.3,1.8s-1.6,1.4-2.2,1.9c-0.4,0.4-0.8,0.8-1.2,1.2c-0.9,1.3-1.6,2.8-1.9,4.4l0,0
						c-0.8,3.1-1.2,6.3-1.1,9.5c0,2.3,0.2,4.5,0.6,6.7c0.3,1.9,1,3.8,2,5.5c0.8,1.5,1.9,2.9,3.1,4.1l0,0c1.3,1.2,2.7,2.1,4.3,2.6
						C312.4,83.4,314.4,83.7,316.3,83.7 M309.9,58.2c0-1.5,0.1-3.1,0.4-4.6c0.2-1.1,0.5-2.1,1.1-3l0,0c0.4-0.7,1-1.3,1.6-1.8
						c0.6-0.4,1.3-0.6,1.9-0.6c0.7,0,1.3,0.2,1.9,0.5c0.6,0.4,1.2,1,1.5,1.7c0.5,0.9,0.8,1.9,1,2.9c0.2,1.5,0.4,3.1,0.3,4.7
						c0,0.2,0,0.3,0,0.4c-1.3,0.2-2.7,0.3-4.1,0.3c-1.5,0-2.7,0-3.7-0.1c-0.8,0-1.4-0.1-1.9-0.2L309.9,58.2"/>
					<path class="st1" d="M306.2,80.1L306.2,80.1L306.2,80.1z"/>
					<polygon class="st1" points="374.6,32.1 366.4,32.1 366.4,48.2 352.2,48.2 352.2,56.8 366.4,56.8 366.4,72.7 374.6,72.7 
						374.6,56.8 388.7,56.8 388.7,48.2 374.6,48.2 					"/>
					<path class="st1" d="M454.3,25.5c-2.1,0-4.5-0.1-7.1-0.2h-0.7v4.6h0.6c1.1,0,2.2,0.1,3.3,0.2c0.3,0,0.6,0.1,0.9,0.2
						c0.1,0,0.2,0.1,0.4,0.2c0.1,0.1,0.2,0.3,0.2,0.4c0.1,0.4,0.2,0.7,0.2,1.1l0,0c0.1,0.6,0.1,1.6,0.2,2.9
						c0.1,4.1,0.2,11.5,0.2,22.2v7.4c-2.7-3.6-6.1-8.4-10-14.3c-6.2-9.3-11.5-17.6-15.9-24.7l-0.2-0.3l-3.3,0.1l-4.6,0.1
						c-1.3,0-3.2-0.1-5.9-0.2h-0.7v4.6h0.6c1.1,0.1,2,0.2,2.7,0.3l0.8,0.1c0.1,0,0.3,0.1,0.4,0.1c0.2,0.1,0.3,0.1,0.5,0.2
						c0.1,0.1,0.2,0.1,0.2,0.2l0,0c0.2,0.3,0.3,0.6,0.4,1l0,0c0.1,0.4,0.1,0.9,0.1,1.3c0,0.6,0,1.4,0.1,2.4l0.1,11.6v12.8
						c0,3.5,0,6.4-0.1,8.6l0,0c-0.1,1.9-0.2,3.5-0.2,4.7s-0.1,2.1-0.2,2.5s-0.1,0.6-0.2,0.8c0,0.1-0.1,0.2-0.1,0.4
						c-0.1,0.1-0.2,0.2-0.3,0.3h-0.1c-0.2,0-0.7,0.1-1.4,0.2s-1.6,0.1-2.7,0.2h-0.6v4.6h0.7c3.5-0.2,6.3-0.2,8.4-0.2l6.9,0.1h0.6
						v-4.5l-0.7,0.1h-0.7c-1,0-2-0.1-2.9-0.3l0,0c-0.2,0-0.4-0.1-0.5-0.1s-0.1-0.1-0.2-0.1l0,0c-0.1-0.1-0.2-0.3-0.3-0.5
						c0-0.1-0.1-0.3-0.1-0.6c-0.1-0.9-0.2-2.5-0.3-4.8l0,0c-0.1-4.5-0.2-8.8-0.2-12.9V40.5C434.7,58.8,444,72.6,450.7,82l0.1,0.2
						h0.2c1.9,0.3,3.7,0.7,5.4,1l0.3,0.1l0.9-0.8v-0.3c-0.1-1.9-0.2-5.5-0.3-10.8s-0.1-12.5-0.1-21.3c0-2.2,0-5.7,0.1-10.5
						c0-2.4,0.1-4.3,0.2-5.8c0.1-1.1,0.2-2.1,0.4-3.2v-0.1c0,0,0-0.1,0.1-0.1l0,0c0.1-0.1,0.2-0.1,0.4-0.2c0.5-0.1,1-0.2,1.5-0.3
						c0.7-0.1,1.5-0.1,2.4-0.2h0.6v-4.5h-0.7C459,25.4,456.3,25.4,454.3,25.5"/>
					<polygon class="st1" points="422.7,71.1 422.7,71.2 422.7,71.2 					"/>
					<path class="st1" d="M486.8,46l-0.5,0.1v4.2h0.6c1.1,0.1,2,0.1,2.6,0.2c0.3,0,0.6,0.1,0.8,0.1h0.2h0.1l0,0
						c0.1,0,0.2,0.1,0.2,0.1l0.1,0.1l0,0l0,0c0,0.1,0,0.2,0.1,0.2c0.1,0.3,0.1,0.7,0.1,1.1c0,0.5,0,1,0,1.7l0,0l0.1,5.7v6.8
						c0,1.1,0,2-0.1,2.7c0,0.5-0.1,1-0.2,1.4c-0.4,1.1-1.1,2.1-2,2.9c-0.4,0.4-1,0.8-1.5,1c-0.6,0.2-1.2,0.3-1.9,0.3
						c-0.5,0-1.1-0.1-1.6-0.3c-0.5-0.2-0.9-0.5-1.2-0.8c-0.4-0.4-0.7-0.9-0.9-1.4c-0.2-0.6-0.4-1.3-0.5-2c-0.1-0.6-0.1-1.5-0.2-2.8
						s-0.1-2.8-0.1-4.7v-4.4c0-4.5,0.1-9.3,0.5-14.6v-0.3l-1-0.9l-0.4,0.2c-2.3,1-4.6,1.8-7,2.5c-1.8,0.5-3.6,0.8-5.4,0.9h-0.6v4.2
						h0.6c1,0,1.8,0.1,2.4,0.2l0.7,0.1h0.2h0.1l0,0c0.2,0.1,0.4,0.3,0.5,0.5l0,0c0,0.1,0,0.2,0.1,0.3c0.1,0.8,0.1,1.6,0.1,2.4l0,0
						l0.1,8.4c0,2.2,0,3.9,0,5.2l0,0c0,1.3-0.1,2.3-0.1,3s0,1.2,0,1.4c0,1.6,0.2,3.1,0.6,4.6c0.4,1.3,1.1,2.6,2,3.7
						c0.8,1,1.9,1.9,3.1,2.4c1.3,0.5,2.7,0.8,4.1,0.8c1.6,0,3.2-0.3,4.7-1l0.1-0.1l3.7-4.4c0.3-0.4,0.7-0.7,1.1-1.1
						c0,0.7,0,1.2,0,1.5l-0.2,3.3l0.5,0.8l6.4-0.2l7.2,0.2v-4.4h-0.6c-1.1-0.1-2-0.2-2.6-0.2c-0.2,0-0.5-0.1-0.7-0.1
						c-0.1,0-0.2-0.1-0.3-0.1l-0.1-0.1c-0.1-0.1-0.1-0.3-0.1-0.5c-0.1-0.4-0.1-0.8-0.1-1.1c-0.1-1.5-0.2-4.1-0.2-7.8v-8.2
						c0-0.3,0-1.2,0.1-2.6s0.1-3.5,0.2-6.1l0.4-7.7l-1.2-0.8l-0.3,0.1c-2.9,1.1-4.9,1.9-6,2.2C492.5,45.1,490.1,45.5,486.8,46
						L486.8,46z"/>
					<path class="st1" d="M528.3,74.5c-0.5,0.1-1.1,0.3-1.6,0.4l0,0c-0.4,0-0.7,0.1-1.1,0.1H525l0,0c-0.5,0-0.9-0.1-1.4-0.2
						c-0.4-0.1-0.7-0.3-0.9-0.6l0,0c-0.3-0.3-0.5-0.7-0.6-1.1c-0.2-0.5-0.3-1-0.3-1.5l0,0c0-0.3-0.1-1.1-0.1-2.3s0-2.8,0-4.9V51.6
						h2.5l3.1,0.1l0,0c0.3,0,0.6,0,0.8-0.1l0.5-0.1l0.7-6.7l-0.8,0.1c-2.1,0.3-4.2,0.4-6.3,0.4h-0.4l0.3-6.3l0,0l0.2-4.6l0.4-4.4
						l-1.4-1.3l-0.5,0.3l-3,1.7l-0.8,0.4l-0.2,0.1h-0.1l0,0c-0.6,0.3-1.9,0.9-4,1.7l-0.4,0.2v0.4c0.2,2.8,0.3,5.2,0.3,7.1v5.1
						c-0.4,0.4-0.7,0.7-1.1,1l0,0l-3.1,2.5V52h0.7c1-0.1,2.1-0.1,3.3-0.1h0.2V61l-0.1,13.2l0,0c0,1.2,0.2,2.4,0.6,3.5
						c0.4,1.1,1,2,1.7,2.9l0,0c0.8,0.9,1.7,1.5,2.8,1.9s2.3,0.7,3.5,0.6c0.7,0,1.4-0.1,2.1-0.2l0,0c0.8-0.2,1.6-0.6,2.4-1l0.1-0.1
						l0.1-0.1l2.5-3.1l1.4-1.7l-0.8-2.5L528.3,74.5z"/>
					<path class="st1" d="M550.9,43.4L550.9,43.4L550.9,43.4z"/>
					<path class="st1" d="M544.8,42.2l-0.3,0.2c-1.3,0.8-2.6,1.4-4,1.9c-0.6,0.2-1.5,0.4-2.8,0.7c-1.3,0.3-2.9,0.7-4.8,1.1l-0.5,0.1
						v4.2h0.6c1,0,1.8,0.1,2.4,0.1c0.3,0,0.5,0.1,0.7,0.1c0.1,0,0.2,0,0.3,0.1l0,0c0.1,0,0.2,0.1,0.2,0.2c0,0.1,0,0.1,0,0.2
						c0.1,0.4,0.1,1.2,0.2,2.4c0.1,3.4,0.2,6.2,0.2,8.6v5.2c0,1.7,0,2.9,0,3.6l0,0l-0.1,3.6l0,0c0,0.6,0,1.1-0.1,1.7
						c0,0.3-0.1,0.6-0.2,0.9c-0.1,0.2-0.2,0.3-0.3,0.4l0,0c-0.4,0.1-0.8,0.2-1.2,0.3c-0.7,0.1-1.3,0.1-2,0.1h-0.6v4.3h0.7
						c3.6-0.1,7-0.2,10.3-0.2c3,0,5.6,0.1,8,0.2h0.7V78l-0.5-0.1l-2.6-0.3l0,0c-0.4,0-0.9-0.1-1.3-0.2c-0.2,0-0.4-0.1-0.6-0.2l0,0
						c-0.2-0.2-0.4-0.4-0.4-0.7c0-0.1,0-0.2,0-0.4c-0.1-0.6-0.1-1.7-0.1-3.2l0,0l-0.1-5.4v-4c0-2,0-3.5,0-4.6c0-0.6,0-1,0-1.4
						s0-0.6,0-0.7c0.2-1,0.7-1.9,1.5-2.6c0.4-0.4,0.8-0.7,1.3-0.9c1.2-0.5,2.6-0.4,3.7,0.4c0.6,0.5,1,1,1.4,1.7l0.3,0.5l2.2-0.8
						v-0.4c0-0.1,0-0.3,0-0.6c0-0.8,0.1-2.4,0.1-4.7l0.2-6.1l-0.4-0.2c-0.8-0.4-1.6-0.6-2.4-0.5c-0.6,0-1.3,0.1-1.9,0.3
						c-0.6,0.2-1.1,0.5-1.5,0.8c-0.4,0.4-0.8,0.8-1.1,1.2c-0.4,0.5-0.9,1.2-1.5,2.1l0,0c-0.5,0.8-1.2,1.8-2,2.9v-6.5L544.8,42.2z"/>
					<path class="st1" d="M571.3,23.8c-1.4-0.7-3-0.7-4.3,0c-0.7,0.4-1.3,0.9-1.8,1.5c-1,1.3-1.6,3-1.5,4.7
						c-0.1,1.7,0.5,3.4,1.5,4.8c0.5,0.6,1.1,1.1,1.8,1.5c1.4,0.7,3,0.7,4.3,0c0.7-0.4,1.3-0.9,1.8-1.5c1.1-1.3,1.6-3,1.6-4.7
						s-0.5-3.4-1.6-4.7C572.6,24.7,572,24.2,571.3,23.8"/>
					<path class="st1" d="M578.9,82.3V78h-0.6c-0.9,0-1.8-0.1-2.6-0.2c-0.3,0-0.6-0.1-0.8-0.2c-0.2,0-0.3-0.1-0.4-0.2
						c0,0,0,0-0.1-0.1s-0.1-0.3-0.1-0.4l0,0c-0.1-0.3-0.1-0.6-0.1-0.9c-0.1-1.3-0.2-3.7-0.2-7.2V55.1c0-3.6,0.1-7.5,0.4-11.6v-0.4
						l-1.4-0.9l-0.3,0.2c-1.7,0.9-3.4,1.6-5.3,2.1c-2.4,0.6-4.8,1.1-7.2,1.3l-0.5,0.1v4.2h0.6c1,0,1.9,0.1,2.9,0.1
						c0.3,0,0.5,0.1,0.8,0.1l0.2,0.1l0,0l0,0c0,0.1,0.1,0.1,0.1,0.2c0.1,0.2,0.1,0.3,0.1,0.5l0,0c0,0.2,0.1,0.7,0.1,1.5
						c0.1,2.2,0.2,6.4,0.2,12.6c0,3,0,5.5-0.1,7.3c0,1.9-0.1,3.2-0.2,3.8l0,0c0,0.2-0.1,0.5-0.2,0.7c0,0.1-0.1,0.2-0.2,0.3h-0.1
						c-0.2,0.1-0.3,0.1-0.5,0.1c-1.1,0.2-2.1,0.3-3.2,0.4h-0.6V82h0.7c2.3-0.1,5-0.2,8.1-0.2c3.5,0,6.8,0.1,9.9,0.2L578.9,82.3z"/>
					<path class="st1" d="M599.6,81.9L599.6,81.9l0.2-0.2l2.5-3.1l1.4-1.7l-0.8-2.5l-0.6,0.2c-0.5,0.1-1.1,0.3-1.6,0.4l0,0
						c-0.4,0-0.7,0.1-1.1,0.1H599l0,0c-0.5,0-0.9-0.1-1.3-0.2s-0.7-0.3-0.9-0.6l0,0c-0.3-0.3-0.5-0.7-0.6-1.1
						c-0.2-0.5-0.3-1-0.3-1.5l0,0c0-0.3-0.1-1.1-0.1-2.3s0-2.8,0-4.9V51.6h2.5l3.1,0.1l0,0c0.3,0,0.6,0,0.8-0.1l0.5-0.1l0.7-6.7
						l-0.8,0.1c-2.1,0.3-4.2,0.4-6.3,0.4h-0.4l0.3-6.3l0,0l0.2-4.6l0.3-4.4l-1.4-1.3l-0.5,0.3l-3,1.7l-0.8,0.4l-0.2,0.1h-0.1l0,0
						c-0.6,0.3-1.9,0.9-4,1.7l-0.4,0.2v0.4c0.2,2.8,0.3,5.2,0.3,7.1v5.1c-0.4,0.4-0.7,0.7-1.1,1l0,0l-3.1,2.5V52h0.7
						c1-0.1,2.2-0.1,3.3-0.1h0.2V61l-0.1,13.2l0,0c0,1.2,0.2,2.4,0.6,3.5c0.4,1.1,1,2,1.7,2.9l0,0c0.8,0.9,1.7,1.5,2.8,1.9
						s2.3,0.7,3.5,0.6c0.7,0,1.4-0.1,2.1-0.2l0,0C598,82.6,598.8,82.3,599.6,81.9"/>
					<path class="st1" d="M625.8,82.3V78h-0.6c-0.9,0-1.8-0.1-2.6-0.2c-0.3,0-0.6-0.1-0.8-0.2c-0.2,0-0.3-0.1-0.4-0.2
						c0,0,0,0-0.1-0.1s-0.1-0.3-0.1-0.4l0,0c-0.1-0.3-0.1-0.6-0.1-0.9c-0.1-1.3-0.1-3.7-0.1-7.2V55.1c0-3.6,0.1-7.5,0.4-11.6v-0.4
						l-1.4-0.9l-0.3,0.2c-1.7,0.9-3.4,1.6-5.3,2.1c-2.4,0.6-4.8,1.1-7.2,1.3l-0.5,0.1v4.2h0.6c1,0,1.9,0.1,2.9,0.1
						c0.3,0,0.5,0.1,0.8,0.1l0.2,0.1l0,0l0,0c0,0.1,0.1,0.1,0.1,0.2c0.1,0.2,0.1,0.3,0.1,0.5l0,0c0,0.2,0.1,0.7,0.1,1.5
						c0.1,2.2,0.2,6.4,0.2,12.6c0,3,0,5.5-0.1,7.3c0,1.3-0.1,2.6-0.2,3.8l0,0c0,0.2-0.1,0.5-0.2,0.7c0,0.1-0.1,0.2-0.2,0.3h-0.1
						c-0.2,0.1-0.3,0.1-0.5,0.1c-1.1,0.2-2.1,0.3-3.2,0.4h-0.6V82h0.7c2.3-0.1,5-0.2,8.1-0.2c3.5,0,6.8,0.1,9.8,0.2L625.8,82.3z"/>
					<path class="st1" d="M610.4,30c0,1.7,0.5,3.4,1.6,4.7c0.5,0.6,1.1,1.1,1.8,1.5c1.4,0.7,3,0.7,4.3,0c0.7-0.4,1.3-0.9,1.8-1.5
						c1-1.3,1.6-3,1.6-4.7s-0.5-3.4-1.6-4.7c-0.5-0.6-1.1-1.1-1.8-1.5c-1.4-0.7-3-0.7-4.4,0c-0.7,0.4-1.3,0.9-1.8,1.5l0,0
						C610.9,26.6,610.4,28.3,610.4,30"/>
					<path class="st1" d="M662.9,61.6c0-2.8-0.3-5.6-1-8.4c-0.6-2.2-1.6-4.3-3-6.2c-1.3-1.7-3-3-5-3.8c-5.1-2-10.9-1.6-15.7,1.1
						c-2.6,1.6-4.7,4.1-5.8,7c-1.4,3.7-2,7.6-1.9,11.5c0,3,0.3,6,1,8.9c0.6,2.4,1.6,4.6,3,6.6l0,0c1.3,1.7,3,3.1,5,4
						c2.1,0.9,4.4,1.4,6.7,1.3c2.9,0,5.8-0.7,8.3-2.2l0,0c1.6-1,3-2.3,4.1-3.8c1.4-2,2.5-4.2,3.1-6.6l0,0
						C662.5,68,662.9,64.8,662.9,61.6 M652.3,72.2c-0.2,1.5-0.7,2.9-1.4,4.2c-0.4,0.6-0.9,1.1-1.6,1.5c-0.6,0.3-1.3,0.5-2,0.5
						c-0.8,0-1.7-0.2-2.4-0.7c-0.8-0.5-1.4-1.2-1.8-2l0,0c-0.9-1.8-1.5-3.8-1.8-5.8c-0.4-3-0.6-6-0.6-9c-0.1-2.9,0.2-5.7,0.8-8.5
						c0.3-1.5,1-2.8,2-3.9c1.3-1.1,3.2-1.4,4.8-0.7c0.6,0.3,1.1,0.7,1.5,1.1c0.6,0.6,1,1.4,1.3,2.2c0.4,1.2,0.8,2.4,1,3.6
						c0.6,3.4,0.8,6.9,0.7,10.3C652.8,67.4,652.7,69.8,652.3,72.2"/>
					<path class="st1" d="M691.7,74c-0.2,4-0.4,6.3-0.4,6.9v0.2l1,1.2h0.3c1.8-0.2,3.6-0.3,5.4-0.3s4.2,0.1,7,0.3h0.7V78h-0.6
						c-0.8-0.1-1.4-0.2-1.8-0.2l0,0c-0.4,0-0.7-0.1-1.1-0.2c-0.2,0-0.3-0.1-0.4-0.2l0,0c-0.1-0.1-0.2-0.3-0.2-0.5
						c-0.1-0.4-0.2-0.8-0.2-1.2c0-0.5-0.1-1.5-0.1-2.8s0-3.2-0.1-5.5v-4.1c0-0.4,0-0.8,0-1.1l0,0c0-0.9,0.1-2.8,0.1-5.8
						c0.1-2-0.1-4.1-0.5-6.1c-0.3-1.4-0.9-2.7-1.7-3.9l0,0c-0.8-1.2-1.9-2.2-3.1-2.9c-0.7-0.4-1.5-0.7-2.3-0.8
						c-1-0.2-2.1-0.3-3.1-0.2c-0.7,0-1.4,0-2.1,0.2s-1.3,0.4-1.9,0.7h-0.1l-4.8,4.8v-5.3l-1.5-0.8l-0.3,0.2c-1.3,0.8-2.6,1.4-4,1.9
						c-0.6,0.2-1.5,0.4-2.8,0.7c-1.3,0.3-2.9,0.7-4.8,1.1l-0.5,0.1v4.2h0.6c1,0,1.8,0.1,2.4,0.1c0.3,0,0.5,0.1,0.7,0.1
						c0.1,0,0.2,0,0.3,0.1l0,0c0.1,0,0.2,0.1,0.2,0.2c0,0.1,0,0.1,0,0.2c0.1,0.8,0.1,1.6,0.2,2.5l0,0c0.1,3.4,0.2,6.2,0.2,8.6v5.2
						c0,1.7,0,2.9,0,3.6l0,0l-0.1,3.6l0,0c0,0.6,0,1.1-0.1,1.7c0,0.3-0.1,0.6-0.2,0.9c-0.1,0.2-0.2,0.3-0.4,0.4l0,0
						c-0.4,0.1-0.8,0.2-1.2,0.3c-0.7,0.1-1.3,0.1-2,0.1h-0.6v4.4h0.7c2.1-0.1,5.2-0.2,9-0.2c3.4,0,6.2,0.1,8.5,0.2h0.7V78l-0.6-0.1
						l-1.8-0.2l-0.5-0.1h-0.3c-0.3-0.1-0.6-0.1-0.8-0.3c-0.1-0.1-0.3-0.1-0.4-0.2l0,0c-0.1-0.1-0.2-0.2-0.2-0.4l0,0
						c-0.1-0.2-0.1-0.5-0.1-0.8c0-0.4-0.1-0.9-0.1-1.5l0,0c-0.1-2.8-0.1-5.2-0.1-7.1v-6.8l0,0c0-0.5,0-0.9,0-1.3c0-1.5,0-2.6,0-3.4
						c0-0.4,0-0.8,0.1-1c0-0.2,0-0.3,0.1-0.5l0,0c0.3-0.9,0.9-1.8,1.7-2.4c0.4-0.4,0.9-0.7,1.5-0.9s1.2-0.3,1.8-0.3s1.2,0.1,1.8,0.3
						c0.5,0.2,1,0.5,1.3,0.9c0.8,0.9,1.4,2,1.6,3.2c0.2,1.1,0.3,2.2,0.3,3.3c0.1,1.5,0.1,3.4,0.1,5.8v3.1L691.7,74z"/>
					<path class="st1" d="M741.4,51.8l-0.4,1c-0.5,1.1-1.1,2.2-1.7,3.3c-0.4,0.7-0.9,1.3-1.5,1.9c-0.4,0.4-0.8,0.7-1.3,0.9
						c-0.4,0.2-0.7,0.3-1.1,0.3c-0.7-0.1-1.5-0.2-2.1-0.5l0,0c-1.5-0.7-2.9-1.4-4.3-2.2c-1.4-0.9-3-1.6-4.6-2.2
						c-1.2-0.5-2.5-0.7-3.8-0.8c-0.9,0-1.8,0.2-2.6,0.6c-1,0.5-1.9,1.2-2.7,2c-1,1-1.9,2.1-2.6,3.2c-0.9,1.5-1.7,3.1-2.3,4.7
						l-0.2,0.5l5.4,2.9l0.2-0.7c0.4-1,0.9-2,1.4-2.9c0.4-0.7,0.9-1.2,1.6-1.6c0.6-0.4,1.2-0.5,1.9-0.5c0.5,0,1,0.1,1.5,0.2
						c0.8,0.3,1.5,0.7,2.2,1.1c1,0.5,2.2,1.2,3.7,2.1c1,0.7,1.9,1.2,2.6,1.5c0.6,0.3,1.2,0.5,1.8,0.7l0,0c0.8,0.1,1.7,0.2,2.5,0.2
						c0.9,0,1.8-0.2,2.6-0.6c1-0.5,1.8-1.1,2.6-1.8c2.1-2.1,3.8-4.6,4.8-7.4l0.2-0.3L741.4,51.8z"/>
				</g>
			</g>
		</g>
	</g>
	<g id="text_1_">
		<g>
			<g>
				<g id="Layer_1-2_9_">
					<path class="st2" d="M29.2,113.7c-3-0.1-5.9,1.2-7.9,3.4c-2.1,2.5-3.3,5.8-3.1,9.1c-0.1,3.2,1,6.3,3,8.7c2,2.2,4.8,3.4,7.7,3.3
						c2.9,0.1,5.8-1.1,7.8-3.2s3.2-5.3,3.2-9.3c0.1-3.1-0.9-6.2-2.9-8.6C35.1,114.8,32.3,113.6,29.2,113.7 M32.1,134.4
						c-0.9,0.5-2,0.7-3,0.7s-2.1-0.2-3-0.7c-1.3-0.8-2.4-1.9-3-3.3c-0.7-1.6-1.1-3.3-1.1-5c-0.1-2.3,0.6-4.6,1.8-6.6
						c0.6-0.8,1.3-1.5,2.2-2c1-0.5,2-0.8,3.1-0.8s2.2,0.3,3.1,0.8c1.3,0.8,2.4,2,3,3.4c0.7,1.5,1,3.2,1,4.9c0.1,2.3-0.6,4.6-1.9,6.6
						C33.8,133.3,33,134,32.1,134.4"/>
					<path class="st2" d="M53.5,120.2c-1.3,0-2.5,0.3-3.7,0.9c-0.8,0.5-1.5,1.1-2,1.8l-0.1-2.3h-3.4v0.3c0.1,1.6,0.1,3.3,0.1,5.4
						v18.3h3.7v-8.5c1.3,1.4,3,2.1,4.9,2.1c2.1,0,4.1-0.8,5.5-2.3c1.7-1.9,2.5-4.4,2.4-6.9c0.1-2.3-0.7-4.5-2.1-6.3
						C57.5,121.1,55.5,120.2,53.5,120.2 M48.2,131.9c-0.1-0.4-0.1-0.8-0.1-1.2v-2.9c0-0.4,0.1-0.8,0.2-1.2l0,0
						c0.5-2,2.2-3.5,4.3-3.5c0.7,0,1.4,0.1,2,0.5c0.9,0.5,1.6,1.2,2,2.1c0.5,1,0.7,2.2,0.7,3.3c0.1,1.6-0.4,3.1-1.3,4.4
						c-0.8,1.1-2.1,1.7-3.5,1.7C50.5,135.3,48.8,133.9,48.2,131.9"/>
					<path class="st2" d="M69.6,115.7l-0.4,0.1l-3.2,0.9v3.9h-2.6v2.9H66v8.8c0,0.9,0.1,1.8,0.3,2.6c0.2,0.7,0.5,1.4,1,1.9l0,0
						c0.9,0.9,2.2,1.4,3.5,1.4c1,0,1.9-0.1,2.8-0.4l0.2-0.1l-0.2-2.9l-0.4,0.1c-0.5,0.1-1.1,0.2-1.7,0.2c-0.3,0-0.6,0-0.9-0.2
						c-0.4-0.2-0.7-0.5-0.8-0.9c-0.2-0.6-0.3-1.2-0.2-1.8v-8.7h4.3v-2.9h-4.4L69.6,115.7C69.5,115.7,69.6,115.7,69.6,115.7z"/>
					<polygon class="st2" points="78,137.9 78.3,137.9 81.7,137.9 81.7,120.6 78,120.6 					"/>
					<path class="st2" d="M82,116.2L82,116.2c0-0.6-0.2-1.1-0.6-1.6c-0.4-0.4-1-0.7-1.6-0.7c-1.2,0-2.2,1-2.2,2.2
						c0,0.6,0.2,1.1,0.6,1.5c0.4,0.4,1,0.6,1.5,0.6c0.6,0,1.2-0.2,1.6-0.6C81.8,117.4,82,116.8,82,116.2L82,116.2z"/>
					<path class="st2" d="M106,120.2c-1.4-0.1-2.8,0.4-3.9,1.2c-0.7,0.5-1.2,1.1-1.7,1.8c-0.4-0.8-1-1.5-1.7-2c-0.9-0.7-2-1-3.1-1
						c-1.2,0-2.4,0.3-3.5,1c-0.6,0.4-1.2,1-1.6,1.6l-0.1-2.2h-3.3v0.3c0.1,1.4,0.1,2.8,0.1,4.5v12.4h3.6v-10.4
						c0-0.5,0.1-0.9,0.2-1.4l0,0c0.2-0.7,0.7-1.4,1.2-1.9c0.6-0.5,1.4-0.9,2.2-0.9c0.5,0,0.9,0.1,1.4,0.3c0.6,0.3,1.1,0.8,1.3,1.5
						c0.3,0.8,0.5,1.6,0.5,2.5v10.3h3.6v-10.6c0-0.5,0.1-1,0.2-1.4c0.2-0.7,0.7-1.3,1.2-1.8c0.6-0.5,1.3-0.7,2-0.8
						c0.5,0,1,0.1,1.5,0.3c0.6,0.3,1.1,0.9,1.4,1.6c0.3,0.9,0.5,1.9,0.5,2.9v9.7h3.6v-10.1c0-3-0.8-4.8-2-6
						C108.7,120.8,107.3,120.2,106,120.2"/>
					<path class="st2" d="M102.1,121.4"/>
					<path class="st2" d="M121.3,116.2c0-0.6-0.2-1.1-0.6-1.6c-0.4-0.4-1-0.7-1.6-0.6c-0.6,0-1.2,0.2-1.6,0.6
						c-0.8,0.9-0.8,2.2,0,3.1c0.4,0.4,1,0.6,1.5,0.6c0.6,0,1.2-0.2,1.6-0.6C121.2,117.4,121.4,116.9,121.3,116.2L121.3,116.2z"/>
					<polygon class="st2" points="117.3,137.9 117.7,137.9 121,137.9 121,120.6 117.3,120.6 					"/>
					<path class="st2" d="M131.3,132.7L131.3,132.7l7.5-9.7v-2.3h-13.3v3.1h8.7c-0.6,0.7-1.2,1.4-1.8,2.1l0,0l-7.6,9.9v2.2h14.1v-3
						h-9.4C130.2,134.2,130.7,133.4,131.3,132.7"/>
					<path class="st2" d="M146.7,116.2L146.7,116.2c0-0.6-0.2-1.1-0.6-1.6c-0.4-0.4-1-0.7-1.6-0.6c-1.2,0-2.2,1-2.2,2.2
						c0,0.6,0.2,1.1,0.6,1.5s1,0.6,1.5,0.6c0.6,0,1.2-0.2,1.6-0.6C146.5,117.4,146.7,116.9,146.7,116.2L146.7,116.2z"/>
					<polygon class="st2" points="142.7,137.9 143,137.9 146.4,137.9 146.4,120.6 142.7,120.6 					"/>
					<path class="st2" d="M164.7,121.7c-1.1-1-2.5-1.5-4-1.5c-1.3,0-2.5,0.3-3.6,1c-0.6,0.4-1.2,0.9-1.7,1.5l-0.1-2.2H152v0.3
						c0.1,1.4,0.1,2.8,0.1,4.5v12.4h3.7v-10.3c0-0.4,0.1-0.9,0.2-1.3l0,0c0.2-0.8,0.7-1.5,1.4-2c0.7-0.6,1.5-0.9,2.4-0.8
						c0.6,0,1.1,0.1,1.7,0.4c0.7,0.3,1.2,0.9,1.4,1.6c0.3,0.8,0.5,1.7,0.4,2.6v9.9h3.7v-10.3C166.8,124.7,165.9,122.8,164.7,121.7"
						/>
					<path class="st2" d="M184.2,120.6l-0.1,1.9c-0.4-0.5-0.9-1-1.4-1.3c-1.1-0.7-2.3-1-3.6-1c-2.1,0-4,0.9-5.4,2.4
						c-1.6,1.9-2.5,4.3-2.4,6.8c-0.1,2.2,0.7,4.3,2.1,6c1.3,1.6,3.3,2.4,5.3,2.4c1.9,0.1,3.8-0.7,5.1-2.2v1c0,0.9-0.1,1.7-0.4,2.6
						c-0.3,0.9-0.9,1.7-1.8,2.2c-0.9,0.5-1.9,0.7-2.9,0.7c-1.7,0-3.3-0.4-4.7-1.3l-0.3-0.2l-0.9,2.9l0.2,0.1c1.7,1,3.7,1.5,5.7,1.4
						c2.3,0.1,4.5-0.6,6.3-2.1l0,0c0.9-0.8,1.5-1.8,1.9-3c0.4-1.6,0.6-3.2,0.6-4.8v-9.7c0-2,0.1-3.3,0.1-4.6v-0.3L184.2,120.6
						L184.2,120.6z M183.5,132c-0.7,2.2-3.1,3.4-5.3,2.7c-0.8-0.3-1.5-0.8-2-1.4c-0.8-1.2-1.2-2.6-1.2-4c-0.1-1.6,0.4-3.1,1.3-4.4
						c0.8-1,2-1.6,3.3-1.6c0.9,0,1.8,0.3,2.5,0.9c0.7,0.5,1.1,1.3,1.4,2.1l0,0c0.1,0.4,0.2,0.8,0.2,1.3v3
						C183.7,131,183.6,131.5,183.5,132"/>
					<polygon class="st2" points="215.9,123.8 205.3,123.8 205.3,114.1 205,114.1 201.7,114.1 201.7,137.9 205.3,137.9 205.3,127 
						215.9,127 215.9,137.9 219.5,137.9 219.5,114.1 215.9,114.1 					"/>
					<path class="st2" d="M235.7,121.1c-1.1-0.6-2.3-0.9-3.5-0.8c-2.3-0.1-4.5,0.9-6,2.7c-1.5,1.9-2.2,4.2-2.1,6.6
						c-0.1,2.3,0.7,4.6,2.3,6.3c1.7,1.6,3.9,2.5,6.2,2.4c1.9,0,3.9-0.3,5.7-1.1l0.2-0.1l-0.7-2.8l-0.3,0.2c-1.4,0.6-3,0.9-4.5,0.8
						c-1.4,0.1-2.7-0.4-3.8-1.3c-1-1-1.6-2.4-1.6-3.9h11.6v-0.3c0.1-0.5,0.1-1,0.1-1.4c0-1.8-0.5-3.7-1.4-5.2
						C237.4,122.3,236.6,121.5,235.7,121.1 M230.1,123.5c0.6-0.3,1.2-0.5,1.8-0.4c0.7,0,1.3,0.1,1.9,0.4c0.7,0.4,1.2,1,1.5,1.8
						c0.3,0.6,0.4,1.3,0.4,2h-8.2c0.2-1,0.6-1.9,1.1-2.7C229.2,124,229.6,123.7,230.1,123.5"/>
					<path class="st2" d="M256.2,133.6v-6.2c0.1-1.7-0.4-3.4-1.3-4.8c-0.5-0.7-1.2-1.3-2.1-1.7c-1-0.4-2.1-0.6-3.3-0.6
						c-2,0-3.9,0.5-5.6,1.5l-0.2,0.1l0.9,2.6l0.3-0.2c1.3-0.8,2.7-1.2,4.2-1.2c0.7,0,1.3,0.1,1.9,0.4c0.6,0.3,1.1,0.8,1.3,1.5
						c0.2,0.5,0.3,1.1,0.3,1.7l0,0c-2.5-0.1-5.1,0.4-7.3,1.6c-0.8,0.5-1.5,1.2-2,2c-0.5,0.9-0.7,1.8-0.7,2.8c0,1.3,0.5,2.6,1.4,3.5
						c1.1,1.1,2.5,1.6,4,1.6c1.9,0,3.7-0.7,5-2.1l0.2,1.7h3.4l-0.1-0.4C256.3,136.1,256.2,134.8,256.2,133.6 M252.5,132.7
						c-0.2,0.7-0.7,1.3-1.3,1.8c-0.7,0.5-1.6,0.8-2.4,0.8c-0.7,0-1.3-0.2-1.8-0.6c-0.5-0.5-0.8-1.3-0.7-2c0-0.6,0.2-1.2,0.5-1.7
						c0.6-0.7,1.4-1.2,2.4-1.4c1.1-0.3,2.2-0.4,3.4-0.4h0.2v2.6C252.6,132.1,252.6,132.4,252.5,132.7"/>
					<polygon class="st2" points="261.7,113.1 261.7,137.9 265.4,137.9 265.4,112.8 261.7,112.8 					"/>
					<path class="st2" d="M275.4,115.7l-0.4,0.1l-3.2,0.9v3.9h-2.6v2.9h2.6v8.8c0,0.9,0.1,1.8,0.3,2.6c0.2,0.7,0.5,1.4,1,1.9l0,0
						c0.9,0.9,2.2,1.4,3.5,1.4c1,0,1.9-0.1,2.8-0.4l0.2-0.1l-0.2-2.9l-0.4,0.1c-0.5,0.1-1.1,0.2-1.7,0.2c-0.3,0-0.6,0-0.9-0.2
						c-0.4-0.2-0.6-0.5-0.8-0.9c-0.2-0.6-0.3-1.2-0.2-1.8v-8.7h4.3v-2.9h-4.3L275.4,115.7L275.4,115.7z"/>
					<path class="st2" d="M296.5,121.7c-1.1-1-2.5-1.5-4-1.5c-1.1,0-2.3,0.3-3.2,0.9l0,0c-0.7,0.4-1.3,0.9-1.8,1.5v-9.8h-3.7v25h3.7
						v-10.3c0-0.4,0-0.9,0.2-1.3l0,0l0,0c0.3-0.8,0.7-1.5,1.4-2c0.7-0.5,1.5-0.8,2.4-0.8c0.6,0,1.1,0.1,1.7,0.4
						c0.7,0.4,1.2,0.9,1.4,1.7c0.3,0.8,0.5,1.7,0.4,2.6v9.9h3.7v-10.2C298.6,124.7,297.7,122.8,296.5,121.7"/>
					<path class="st2" d="M324.1,116.8c1.6,0,3.1,0.3,4.5,0.9l0.3,0.2l0.9-3l-0.2-0.1c-1.8-0.8-3.7-1.1-5.6-1.1
						c-3.3-0.1-6.6,1.1-9,3.5c-2.3,2.4-3.5,5.7-3.5,9c-0.2,3.3,1.1,6.5,3.4,8.9c2.3,2.1,5.3,3.2,8.4,3.1c1.3,0,2.5-0.1,3.8-0.3
						c0.9-0.2,1.7-0.4,2.5-0.8l0.2-0.1l-0.1-0.2l-0.7-2.7l-0.3,0.2c-1.5,0.6-3.1,1-4.8,0.9c-2.4,0.1-4.7-0.8-6.3-2.4
						c-1.6-1.8-2.4-4.2-2.2-6.6c-0.1-2.5,0.7-5,2.4-6.8C319.4,117.6,321.7,116.7,324.1,116.8"/>
					<path class="st2" d="M346.2,133.6v-6.2c0.1-1.7-0.4-3.4-1.3-4.8c-0.5-0.7-1.2-1.3-2.1-1.7c-1-0.4-2.1-0.6-3.3-0.6
						c-2,0-3.9,0.5-5.6,1.5l-0.2,0.1l0.9,2.6l0.3-0.2c1.3-0.8,2.7-1.2,4.2-1.2c0.7,0,1.3,0.1,1.9,0.4c0.6,0.3,1.1,0.8,1.3,1.5
						c0.2,0.5,0.3,1.1,0.3,1.7l0,0c-2.5-0.1-5.1,0.4-7.3,1.6c-0.8,0.5-1.5,1.2-2,2c-0.5,0.9-0.7,1.8-0.7,2.8c0,1.3,0.5,2.6,1.4,3.5
						c1.1,1.1,2.5,1.6,4,1.6c1.9,0,3.7-0.7,5-2.1l0.2,1.7h3.4l-0.1-0.4C346.2,136.1,346.2,134.8,346.2,133.6 M342.5,132.7
						c-0.2,0.7-0.7,1.3-1.3,1.8c-0.7,0.5-1.6,0.8-2.5,0.8c-0.7,0-1.3-0.2-1.8-0.6c-0.5-0.5-0.8-1.3-0.7-2c0-0.6,0.2-1.2,0.5-1.7
						c0.6-0.7,1.4-1.2,2.3-1.4c1.1-0.3,2.2-0.4,3.4-0.4h0.2v2.6C342.6,132.1,342.6,132.4,342.5,132.7"/>
					<path class="st2" d="M359.4,120.2c-1.9,0-3.6,1.1-4.5,2.8l-0.1-2.5h-3.3v0.3c0.1,1.5,0.1,3.2,0.1,5.2v11.8h3.6v-9.2
						c0-0.5,0.1-0.9,0.1-1.4c0.2-1,0.6-1.9,1.3-2.6c0.6-0.7,1.5-1,2.5-1c0.3,0,0.7,0,1,0.1l0.4,0.1v-3.5l-0.2-0.1
						C360,120.2,359.7,120.2,359.4,120.2"/>
					<path class="st2" d="M374.4,121.1c-1.1-0.6-2.3-0.9-3.5-0.8c-2.3-0.1-4.5,0.9-6,2.7c-1.5,1.9-2.2,4.2-2.1,6.6
						c-0.1,2.3,0.7,4.6,2.2,6.3c1.7,1.6,3.9,2.5,6.2,2.4c1.9,0.1,3.9-0.3,5.7-1.1l0.2-0.2l-0.7-2.8l-0.3,0.2
						c-1.4,0.6-2.9,0.9-4.5,0.8c-1.4,0.1-2.7-0.4-3.8-1.3c-1-1-1.6-2.4-1.6-3.9h11.7v-0.3c0.1-0.5,0.1-1,0.1-1.4
						c0-1.8-0.5-3.7-1.5-5.2C376,122.2,375.2,121.5,374.4,121.1 M368.7,123.4c0.6-0.3,1.2-0.4,1.8-0.4c0.7,0,1.3,0.1,1.9,0.4
						c0.7,0.4,1.3,1,1.5,1.8c0.3,0.6,0.4,1.3,0.4,2h-8.2c0.2-1,0.6-1.9,1.1-2.7C367.8,124,368.2,123.6,368.7,123.4"/>
					<path class="st2" d="M405.5,114.2c-1.5-0.6-3-1-4.6-0.9c-3.1,0-6.2,1.3-8.3,3.6c-2.2,2.6-3.4,6-3.3,9.4c-0.1,3.3,1,6.5,3.1,9
						c2.1,2.3,5,3.6,8.1,3.5c3.1,0.1,6-1.2,8.2-3.4c1.1-1.2,1.9-2.6,2.5-4.1c0.6-1.8,0.9-3.7,0.9-5.5c0.1-3.3-0.9-6.5-3-9
						C408.1,115.6,406.9,114.7,405.5,114.2 M403.5,134c-0.9,0.5-1.8,0.7-2.8,0.7s-1.9-0.2-2.8-0.7c-1.2-0.7-2.2-1.8-2.8-3.1
						c-0.7-1.5-1-3.2-1-4.8c-0.1-2.2,0.5-4.4,1.7-6.3c0.5-0.8,1.2-1.4,2-1.9c0.9-0.5,1.9-0.7,2.9-0.7s2,0.2,2.9,0.7
						c1.2,0.8,2.2,1.9,2.8,3.2c0.7,1.5,1,3.1,1,4.7c0.1,2.2-0.6,4.5-1.8,6.3C405.1,132.9,404.4,133.5,403.5,134"/>
					<path class="st2" d="M430.3,124.1c0,2.2,0,4.1,0.1,5.9c-0.8-1.4-1.6-2.8-2.5-4.3l-7.7-12.1h-4.5v24.7h4.4v-10.7
						c0-2.4,0-4.4-0.1-6.2c0.9,1.6,1.9,3.2,2.8,4.8l7.6,12.1h4.2v-24.7h-4.4L430.3,124.1z"/>
					<polygon class="st2" points="444.2,127.5 453.2,127.5 453.2,126.7 453.2,123.4 444.2,123.4 444.2,117.7 453.7,117.7 
						453.7,113.6 439.6,113.6 439.6,138.3 454.2,138.3 454.2,134.3 444.2,134.3 					"/>
					<path class="st2" d="M480.3,126.5c0.7-0.7,1.2-1.5,1.5-2.4c0.3-1,0.5-2,0.5-3.1s-0.2-2.1-0.6-3.1c-0.4-0.9-1-1.7-1.7-2.3l0,0
						c-0.9-0.7-1.9-1.3-2.9-1.5c-1.3-0.4-2.7-0.6-4.1-0.5c-2,0-3.9,0.1-5.9,0.5l-0.6,0.1v24.3h4.5v-9.1c0.5,0,1.1,0.1,1.6,0.1
						c1.5,0,2.9-0.2,4.3-0.7C478.2,128.2,479.3,127.5,480.3,126.5L480.3,126.5 M475.7,124.7c-1,0.4-2,0.7-3.1,0.6
						c-0.6,0-1.1,0-1.7-0.1v-7.8h0.4c0.4,0,1-0.1,1.6-0.1c0.7,0,1.3,0.1,2,0.2c0.8,0.2,1.4,0.6,2,1.2c0.5,0.7,0.7,1.5,0.7,2.3
						c0,0.6-0.1,1.2-0.3,1.8C477,123.7,476.4,124.3,475.7,124.7"/>
					<path class="st2" d="M489.5,113.6l-8.4,24.7h4.8l2.4-7.3h7.1l2.5,7.3h4.9l-8.5-24.7L489.5,113.6z M494.2,127.1h-4.8l1.9-5.7
						l0,0c0.2-0.5,0.3-1,0.5-1.5c0.1,0.5,0.3,1,0.5,1.6L494.2,127.1z"/>
					<polygon class="st2" points="500.2,117.7 507.3,117.7 507.3,138.3 511.9,138.3 511.9,117.7 518.9,117.7 518.9,113.6 
						500.2,113.6 					"/>
					<polygon class="st2" points="521.3,113.6 521.3,138.3 525.8,138.3 525.8,113.6 525,113.6 					"/>
					<polygon class="st2" points="535.3,127.5 544.3,127.5 544.3,126.7 544.3,123.4 535.3,123.4 535.3,117.7 544.9,117.7 
						544.9,113.6 530.8,113.6 530.8,138.3 545.4,138.3 545.4,134.3 535.3,134.3 					"/>
					<path class="st2" d="M563.6,124.1c0,2.2,0,4.1,0.1,5.9c-0.8-1.4-1.6-2.8-2.5-4.3l0,0l-7.7-12.1H549v24.7h4.4v-10.7
						c0-2.4,0-4.4-0.1-6.2c0.9,1.6,1.8,3.2,2.8,4.8l7.6,12.1h4.2v-24.7h-4.4L563.6,124.1z"/>
					<polygon class="st2" points="570.3,117.7 577.3,117.7 577.3,138.3 581.9,138.3 581.9,117.7 589,117.7 589,113.6 570.3,113.6 
											"/>
					<path class="st2" d="M612.6,133.6v-6.2c0.1-1.7-0.4-3.4-1.3-4.8c-0.5-0.7-1.2-1.3-2-1.7c-1-0.4-2.1-0.6-3.3-0.6
						c-2,0-3.9,0.5-5.6,1.5l-0.2,0.1l0.9,2.6l0.3-0.2c1.3-0.8,2.7-1.2,4.2-1.2c0.7,0,1.3,0.1,1.9,0.4c0.6,0.3,1.1,0.8,1.3,1.5
						c0.2,0.5,0.3,1.1,0.3,1.7l0,0c-2.5-0.1-5.1,0.4-7.3,1.6c-1.7,1-2.8,2.9-2.7,4.9c0,1.3,0.5,2.6,1.4,3.5c1.1,1.1,2.5,1.6,4,1.6
						c1.9,0,3.7-0.7,5-2.1l0.2,1.7h3.4l-0.1-0.4C612.7,136.2,612.6,134.8,612.6,133.6 M608.9,132.8c-0.3,0.7-0.7,1.3-1.3,1.8
						c-0.7,0.5-1.6,0.8-2.5,0.8c-0.7,0-1.3-0.2-1.8-0.6c-0.5-0.5-0.8-1.3-0.7-2c0-0.6,0.2-1.2,0.5-1.7c0.6-0.7,1.4-1.2,2.3-1.4
						c1.1-0.3,2.2-0.4,3.4-0.4h0.2v2.6C609.1,132.1,609,132.4,608.9,132.8"/>
					<path class="st2" d="M622.3,115.7l-0.4,0.1l-3.2,0.9v3.9h-2.6v2.9h2.6v8.8c0,0.9,0.1,1.8,0.3,2.6c0.2,0.7,0.5,1.4,1,1.9l0,0
						c0.9,0.9,2.2,1.4,3.5,1.4c1,0,1.9-0.1,2.8-0.4l0.2-0.1l-0.2-2.9l-0.4,0.1c-0.5,0.1-1.1,0.2-1.7,0.2c-0.3,0-0.6,0-0.9-0.2
						c-0.4-0.2-0.7-0.5-0.8-0.9c-0.2-0.6-0.3-1.2-0.2-1.8v-8.7h4.3v-2.9h-4.3L622.3,115.7z"/>
					<path class="st2" d="M651.6,133.6v-6.2c0.1-1.7-0.4-3.4-1.3-4.8c-0.5-0.7-1.2-1.3-2.1-1.7c-1-0.4-2.1-0.6-3.3-0.6
						c-2,0-3.9,0.5-5.6,1.5l-0.2,0.1l0.9,2.6l0.3-0.2c1.3-0.8,2.7-1.2,4.2-1.2c0.7,0,1.3,0.1,1.9,0.4c0.6,0.3,1.1,0.8,1.3,1.5
						c0.2,0.5,0.3,1.1,0.3,1.7l0,0c-2.5-0.1-5.1,0.4-7.3,1.6c-0.8,0.5-1.5,1.2-2,2c-0.5,0.9-0.7,1.8-0.7,2.8c0,1.3,0.5,2.6,1.4,3.5
						c1.1,1.1,2.5,1.6,4,1.6c1.9,0,3.7-0.7,5-2.1l0.2,1.7h3.4l-0.1-0.4C651.7,136.1,651.6,134.8,651.6,133.6 M647.9,132.7
						c-0.2,0.7-0.7,1.3-1.3,1.8c-0.7,0.5-1.6,0.8-2.5,0.8c-0.7,0-1.3-0.2-1.8-0.6c-0.5-0.5-0.8-1.3-0.7-2c0-0.6,0.2-1.2,0.5-1.7
						c0.6-0.7,1.4-1.2,2.3-1.4c1.1-0.3,2.2-0.4,3.4-0.4h0.2v2.6C648.1,132.1,648,132.4,647.9,132.7"/>
					<polygon class="st2" points="661.9,117.2 668.9,117.2 668.9,137.9 672.6,137.9 672.6,117.2 679.6,117.2 679.6,114.1 
						661.9,114.1 					"/>
					<polygon class="st2" points="682.4,137.9 682.7,137.9 686,137.9 686,120.6 682.4,120.6 					"/>
					<path class="st2" d="M686.4,116.2c0-0.6-0.2-1.1-0.6-1.6c-0.4-0.4-1-0.7-1.6-0.6c-0.6,0-1.2,0.2-1.6,0.6s-0.6,1-0.6,1.6
						s0.2,1.1,0.6,1.5c0.4,0.4,1,0.6,1.5,0.6c0.6,0,1.2-0.2,1.6-0.6C686.2,117.4,686.4,116.9,686.4,116.2L686.4,116.2z"/>
					<path class="st2" d="M710.3,120.2c-1.4-0.1-2.8,0.4-3.9,1.2c-0.7,0.5-1.2,1.1-1.7,1.8c-0.4-0.8-1-1.5-1.7-2c-0.9-0.7-2-1-3.1-1
						c-1.2,0-2.4,0.3-3.5,1c-0.6,0.4-1.2,1-1.6,1.6l-0.1-2.2h-3.3v0.3c0.1,1.4,0.1,2.8,0.1,4.5v12.4h3.6v-10.4
						c0-0.5,0.1-0.9,0.2-1.4l0,0c0.2-0.7,0.7-1.4,1.2-1.9c0.6-0.5,1.4-0.9,2.2-0.9c0.5,0,0.9,0.1,1.4,0.3c0.6,0.3,1.1,0.8,1.3,1.5
						c0.3,0.8,0.5,1.6,0.5,2.5v10.3h3.6v-10.6c0-0.5,0.1-1,0.2-1.4c0.2-0.7,0.7-1.3,1.2-1.8c0.6-0.5,1.3-0.7,2-0.8
						c0.5,0,1,0.1,1.5,0.3c0.6,0.3,1.1,0.9,1.4,1.6c0.3,0.9,0.5,1.9,0.5,2.9v9.7h3.6v-10.1c0-3-0.8-4.8-2-6
						C713.1,120.8,711.7,120.2,710.3,120.2"/>
					<path class="st2" d="M706.5,121.4L706.5,121.4L706.5,121.4z"/>
					<path class="st2" d="M732.2,121.1c-1.1-0.6-2.3-0.9-3.5-0.8c-2.3-0.1-4.5,0.9-6,2.7c-1.5,1.9-2.2,4.2-2.2,6.6
						c-0.1,2.3,0.7,4.6,2.3,6.3c1.7,1.6,3.9,2.5,6.2,2.4c1.9,0.1,3.9-0.3,5.7-1.1l0.2-0.1l-0.7-2.8l-0.3,0.2c-1.4,0.6-3,0.9-4.5,0.8
						c-1.4,0.1-2.7-0.4-3.8-1.3c-1.1-1-1.6-2.4-1.6-3.9h11.6v-0.3c0.1-0.5,0.1-1,0.1-1.4c0-1.8-0.5-3.7-1.5-5.2
						C733.8,122.3,733,121.6,732.2,121.1 M726.5,123.5c0.6-0.3,1.2-0.5,1.8-0.4c0.7,0,1.3,0.1,1.9,0.4c0.7,0.4,1.3,1,1.5,1.8
						c0.3,0.6,0.4,1.3,0.4,2h-8c0.2-1,0.5-1.9,1.2-2.7C725.6,124.1,726,123.7,726.5,123.5"/>
					<polygon class="st2" points="740.9,131.2 743.5,131.2 744,114.1 740,114.1 740.5,131.2 					"/>
					<path class="st2" d="M742,133.3c-0.6,0-1.2,0.2-1.7,0.7c-0.4,0.5-0.7,1.1-0.7,1.8c0,0.6,0.2,1.3,0.7,1.7c0.9,0.9,2.4,0.9,3.4,0
						l0,0c0.9-1,0.9-2.5,0-3.5C743.3,133.6,742.7,133.3,742,133.3"/>
					<path class="st2" d="M47.3,63c2.1-2.1,3.8-4.6,4.9-7.4l0.1-0.3l-4-5.4l-0.4,1c-0.5,1.1-1.1,2.2-1.7,3.3
						c-0.4,0.7-0.9,1.3-1.5,1.9c-0.4,0.4-0.9,0.7-1.3,0.9c-0.3,0.2-0.7,0.3-1.1,0.3c-0.7-0.1-1.4-0.3-2.1-0.6
						c-1.5-0.7-2.9-1.4-4.3-2.2c-1.4-0.9-3-1.6-4.6-2.2c-1.2-0.5-2.5-0.7-3.7-0.8c-0.9,0-1.8,0.2-2.6,0.6c-1,0.5-1.9,1.2-2.7,2
						c-1,1-1.8,2-2.5,3.2c-0.9,1.5-1.7,3-2.3,4.7l-0.4,0.4l5.4,2.9l0.3-0.7c0.4-1,0.8-2,1.4-2.9c0.4-0.7,0.9-1.2,1.6-1.6
						c0.6-0.4,1.2-0.5,1.9-0.5c0.5,0,1.1,0.1,1.6,0.2c0.8,0.3,1.5,0.7,2.2,1.1c1,0.5,2.2,1.2,3.7,2.1c1,0.7,1.9,1.2,2.6,1.5
						c0.6,0.3,1.2,0.5,1.9,0.7c0.8,0.1,1.7,0.2,2.5,0.2c0.9,0,1.8-0.2,2.6-0.6C45.7,64.3,46.5,63.7,47.3,63"/>
					<path class="st2" d="M91.1,80.1L91.1,80.1c0.7-0.1,1.4-0.2,2-0.5l0.4-0.1V79c0-0.5,0.1-2,0.3-4.5l0.8-8.1l0,0c0,0,0-0.2,0-0.4
						s0-0.5,0.1-0.9l0.1-0.7h-3.9L90.8,65c-0.4,2.6-0.8,4.9-1.2,6.9c-0.1,0.3-0.1,0.6-0.2,0.9L89.3,73l0,0c-0.1,0.1-0.2,0.1-0.4,0.1
						c-0.3,0.1-0.6,0.1-0.8,0.2l0,0c-2.8,0.5-5.6,0.7-8.3,0.7c-1,0-2.8-0.1-5.4-0.2c0-1.1,0-3.1,0-6.2c-0.3-3.6-0.3-7.4-0.3-11.2
						l0,0c0-7.2,0-11,0-11.5c0-4.5,0-8.1,0.1-11.1c0-1.5,0.1-2.6,0.2-3.4c0-0.4,0-0.7,0.1-1s0-0.2,0-0.3s0-0.1,0-0.1l0,0l0,0
						c0-0.1,0.1-0.2,0.1-0.3s0.1-0.1,0.1-0.1c0.1-0.1,0.3-0.1,0.4-0.2c0.5-0.1,0.9-0.2,1.4-0.3c0.7,0,1.4-0.1,2.3-0.1h0.6v-4.8h-0.7
						c-3.5,0.2-7.1,0.2-11,0.2c-3.5,0-6.5-0.1-9.2-0.2h-0.7V28h0.6c1.1,0,2.2,0.1,3.2,0.3c0.3,0,0.6,0.1,0.9,0.2
						c0.1,0,0.3,0.1,0.4,0.2l0,0l0,0c0.1,0,0.1,0.1,0.1,0.1c0,0.1,0.1,0.1,0.1,0.2c0,0,0,0.1,0,0.3c0.1,0.9,0.2,1.9,0.2,2.8
						c0.1,1.4,0.1,3.1,0.1,5.3l0,0c0,2,0.1,7.1,0.1,15.5c0,5.7,0,10.6-0.1,14.7c0,2-0.1,3.7-0.1,4.8c0,0.6,0,1.1-0.1,1.4
						s0,0.6-0.1,0.8l0,0c0,0.1,0,0.1-0.1,0.2l0,0c0.1,0.2,0.1,0.2,0,0.3c-0.2,0.1-0.3,0.3-0.5,0.4l0,0c-0.7,0.6-1.5,1.1-2.2,1.5
						L60,77.2v3.1h0.7c4.2-0.2,7.4-0.3,9.5-0.3c1.4,0,3.8,0,7.3,0.2l5.3,0.1h1.5H85C87.6,80.2,89.7,80.1,91.1,80.1L91.1,80.1z"/>
					<path class="st2" d="M108.1,80.1c3.6,0,6.8,0,9.8,0.2h0.7V76H118c-1.1-0.1-2-0.1-2.6-0.2c-0.3-0.1-0.6-0.1-0.8-0.2
						c-0.2,0-0.3-0.1-0.4-0.2l-0.1-0.1c-0.1-0.1-0.1-0.3-0.1-0.4l0,0c0-0.2-0.1-0.5-0.1-0.9c-0.1-1.3-0.1-3.7-0.1-7.2V53.1
						c0-3.6,0.1-7.5,0.4-11.6v-0.4l-1.4-0.9l-0.3,0.2c-1.7,0.9-3.4,1.6-5.2,2.1c-2.4,0.6-4.8,1.1-7.2,1.3l-0.5,0.1v4.2h0.6
						c1,0,1.9,0.1,2.9,0.1c0.3,0,0.5,0.1,0.8,0.1l0.2,0.1l0,0l0,0c0,0.1,0.1,0.1,0.1,0.2c0.1,0.2,0.1,0.3,0.1,0.5l0,0
						c0,0.2,0.1,0.7,0.1,1.5c0.1,2.2,0.2,6.4,0.2,12.6c0,3,0,5.5-0.1,7.3c-0.1,1.9-0.1,3.2-0.2,3.8l0,0c0,0.2-0.1,0.5-0.2,0.7
						c0,0.1-0.1,0.2-0.2,0.3h-0.1c-0.2,0.1-0.3,0.1-0.5,0.1c-1.1,0.2-2.1,0.3-3.2,0.4h-0.6V80h0.7C102.3,80.1,105,80.1,108.1,80.1"
						/>
					<path class="st2" d="M104.8,23.3c-1,1.3-1.6,3-1.6,4.7s0.5,3.4,1.6,4.7c0.5,0.6,1.1,1.1,1.8,1.5c0.7,0.3,1.4,0.5,2.2,0.5
						c0.8,0,1.5-0.2,2.2-0.5c0.7-0.4,1.3-0.9,1.8-1.5c1-1.4,1.6-3,1.6-4.7s-0.5-3.4-1.6-4.7c-0.5-0.6-1.1-1.1-1.8-1.5
						c-1.4-0.7-3-0.7-4.4,0C105.9,22.2,105.3,22.7,104.8,23.3"/>
					<path class="st2" d="M143.4,20c-1,0-2.1,0.2-3,0.6s-1.7,1-2.3,1.7l0,0l-3.9,4.3c-1.2,1.3-2.2,2.4-3,3.4
						c-0.6,0.7-1.2,1.5-1.8,2.4l0,0c-0.5,0.7-0.8,1.6-1,2.4c-0.1,0.5-0.2,1.1-0.3,1.6c-0.1,0.7-0.1,1.5-0.2,2.4
						c-0.1,1.9-0.2,3.4-0.2,4.7c0,0.1,0,0.2,0,0.3s-0.1,0.1-0.1,0.2l0,0l-0.1,0.1l-1.4,0.9l-2.8,1.8L123,47v3l5-0.3h0.3V61
						c0,3.6,0,6.5-0.1,8.7c0,1.1,0,2-0.1,2.7c-0.1,0.7-0.1,1.2-0.1,1.5l0,0c0,0.3-0.1,0.5-0.2,0.8c-0.1,0.1-0.1,0.3-0.2,0.4
						s-0.2,0.1-0.3,0.2c-0.5,0.1-0.9,0.2-1.4,0.3c-0.6,0.1-1.4,0.2-2.3,0.3H123v4.3h0.7c4.4-0.1,7.3-0.2,8.7-0.2l11.5,0.2V76h-0.6
						l-3.2-0.3l-0.8-0.1h-0.2H139c-0.3,0-0.5-0.1-0.8-0.3c-0.2-0.2-0.3-0.4-0.3-0.7c0-0.2-0.1-0.3-0.1-0.5c-0.1-0.7-0.1-2.1-0.2-4
						c-0.1-2.6-0.1-5.3-0.1-8.1V49.8l1.6-0.1h1.1h0.2l1.4,0.1l0,0l3.8,0.1l0.6-4.1l0,0c0.1-0.5,0.1-0.9,0.2-1.3l0.1-0.4l-0.9-0.9
						h-0.3c-1.3,0.1-2.9,0.2-4.7,0.3h-3.1v-4.9c0-2.1,0-3.8,0.1-5.2c0-0.6,0.1-1.2,0.1-1.7c0-0.3,0.1-0.7,0.2-1l0,0
						c0.1-0.5,0.4-1,0.8-1.4c0.3-0.2,0.7-0.4,1.1-0.5c0.5-0.1,1-0.2,1.5-0.2c0.6,0,1.3,0.1,1.8,0.4c0.6,0.4,1.2,0.8,1.6,1.4l0.3,0.4
						l2.1-1.1v-0.4c0-0.3,0-0.5,0-0.8c0-2.4,0.2-4.7,0.4-7.1l0.1-0.5l-0.5-0.1C146,20.3,144.7,20,143.4,20"/>
					<path class="st2" d="M129.5,32.4L129.5,32.4z"/>
					<path class="st2" d="M161.1,41.9L161.1,41.9L161.1,41.9z"/>
					<path class="st2" d="M156.3,78.1L156.3,78.1c1.3,1.2,2.7,2.1,4.3,2.6c1.9,0.7,3.8,1,5.8,1c1.7,0,3.3-0.2,4.9-0.7l0,0
						c2-0.7,3.9-1.7,5.6-3l0.1-0.1l1.6-4.4l-0.2-0.3l-1.1-1.6l-0.5,0.3c-1.2,0.8-2.5,1.5-3.9,2c-1,0.3-2.1,0.5-3.2,0.5
						c-1.3,0-2.5-0.3-3.6-0.8c-1.2-0.6-2.2-1.5-3-2.6c-1.9-2.6-2.9-5.7-3-8.9h1.4c0.4,0,0.7,0,1,0l0,0c0.1,0,0.3,0,0.4,0
						c0.6,0,1.9,0,3.9-0.1c2.6,0,4.8-0.1,6.4-0.3c0.4,0,0.8-0.1,1.2-0.2c0.5-0.1,1.1-0.2,1.9-0.4l0,0c0.9-0.2,1.7-0.4,2.5-0.7
						l0.4-0.2v-0.4c0-0.7,0.1-1.4,0.1-2.2c0.1-2.9-0.3-5.8-1.2-8.6c-0.7-2.4-2.2-4.4-4.1-6c-1-0.8-2.1-1.4-3.3-1.8
						c-1.3-0.4-2.7-0.6-4.1-0.6c-1.9-0.1-3.8,0.3-5.5,1.1l0,0c-0.6,0.3-1.1,0.7-1.6,1.1c-0.7,0.5-1.4,1.1-2.3,1.8
						c-0.9,0.7-1.6,1.4-2.2,1.9c-0.4,0.4-0.8,0.8-1.2,1.2c-0.9,1.3-1.6,2.8-1.9,4.4l0,0c-0.8,3.1-1.2,6.3-1.1,9.5
						c0,2.3,0.2,4.5,0.6,6.7c0.3,1.9,1,3.8,1.9,5.5C154,75.5,155.1,76.9,156.3,78.1 M160,56.1c0-1.5,0.1-3.1,0.4-4.6
						c0.2-1.1,0.5-2.1,1.1-3l0,0c0.4-0.7,1-1.3,1.6-1.8c0.6-0.4,1.3-0.6,1.9-0.6c0.7,0,1.3,0.2,1.9,0.5c0.6,0.4,1.2,1,1.6,1.7
						c0.5,0.9,0.8,1.9,1,2.9c0.2,1.5,0.4,3.1,0.3,4.7v0.4c-1.3,0.2-2.7,0.3-4.1,0.3c-1.5,0-2.7,0-3.8-0.1c-0.8,0-1.4-0.1-1.9-0.2
						V56.1"/>
					<path class="st2" d="M206.3,77.4c2.6-2.9,3.9-6.6,3.8-10.4c0-1.5-0.2-2.9-0.6-4.3l0,0c-0.3-1.2-0.9-2.4-1.7-3.4s-1.8-1.7-3-2.3
						l0,0c-0.6-0.3-1.2-0.5-1.9-0.7c-0.8-0.2-1.8-0.5-3-0.8s-2.2-0.5-3-0.7c-0.6-0.2-1.2-0.4-1.8-0.6l0,0c-0.7-0.2-1.3-0.7-1.7-1.3
						c-0.2-0.3-0.3-0.7-0.4-1.1c-0.1-0.6-0.2-1.2-0.2-1.8c0-1.2,0.5-2.3,1.3-3.2c0.4-0.4,1-0.8,1.6-1c0.7-0.2,1.4-0.4,2.2-0.3
						c1.1,0,2.1,0.2,3.1,0.7c0.9,0.5,1.6,1.2,2.1,2.1c0.2,1.1,0.3,2.2,0.4,3.3l0,0c0,0.7,0.1,1.2,0.1,1.5v0.6l3.6,0.1v-0.6
						c0.1-3.6,0.2-5.8,0.3-6.8s0.2-1.9,0.3-2.8v-0.1l-0.2-0.8l-0.2-0.1c-1.3-0.8-2.7-1.4-4.1-1.8c-1.6-0.4-3.3-0.6-4.9-0.6
						c-2,0-3.9,0.3-5.7,1c-1.6,0.6-3.1,1.6-4.3,2.9c-1.1,1.3-2,2.7-2.6,4.3c-0.6,1.7-0.9,3.5-0.9,5.2c0,1.9,0.4,3.8,1.2,5.6
						c0.6,1.5,1.7,2.8,3.1,3.7c1.7,1,3.6,1.7,5.5,2.2c1.2,0.3,2.1,0.6,2.9,0.8c0.6,0.2,1.2,0.4,1.7,0.6c0.4,0.2,0.8,0.5,1.2,0.8
						c0.3,0.3,0.5,0.5,0.7,0.9c0.9,2.2,0.5,4.6-1,6.4c-0.5,0.5-1,0.9-1.7,1.2c-2,0.7-4.2,0.5-6.1-0.6c-1.2-0.8-2.1-1.8-2.9-2.9
						c0-0.4-0.1-1-0.1-1.8s-0.1-2.1-0.2-3.6v-0.6h-3.8v0.6l-0.2,6.7c-0.1,0.8-0.1,2.3-0.3,4.3v0.2l0.6,0.9l0.2,0.1
						c1.7,0.8,3.5,1.4,5.2,1.8c1.5,0.3,3,0.5,4.5,0.5c2.1,0,4.2-0.3,6.2-1.1C203.4,79.9,205,78.8,206.3,77.4"/>
					<path class="st2" d="M229,80.9L229,80.9c0.8-0.2,1.6-0.6,2.4-1l0.1-0.1l0.1-0.1l2.5-3.1l1.4-1.7l-0.8-2.5l-0.6,0.2
						c-0.5,0.1-1.1,0.3-1.6,0.4c-0.4,0-0.7,0.1-1.1,0.1h-0.6l0,0c-0.5,0-0.9-0.1-1.4-0.2c-0.4-0.1-0.7-0.3-0.9-0.6
						c-0.3-0.3-0.5-0.7-0.6-1.1c-0.2-0.5-0.3-1-0.3-1.5l0,0c0-0.3-0.1-1.1-0.1-2.3s0-2.8,0-4.9V49.6h2.5l3.1,0.1l0,0
						c0.3,0,0.6,0,0.8-0.1l0.4-0.1l0.7-6.7l-0.8,0.1c-2.1,0.3-4.2,0.4-6.3,0.4h-0.4l0.3-6.3l0,0l0.2-4.6l0.3-4.4l-1.4-1.3l-0.3,0.3
						l-3,1.7l-0.8,0.4l-0.2,0.1h-0.1l0,0c-0.6,0.3-1.9,0.9-4,1.7l-0.4,0.2v0.4c0.2,2.8,0.2,5.2,0.2,7.1v5.1c-0.3,0.4-0.7,0.7-1.1,1
						l0,0l-3.1,2.5V50h0.7c1-0.1,2.1-0.1,3.3-0.1h0.2V59l-0.1,13.2l0,0c0,1.2,0.2,2.4,0.6,3.5c0.4,1.1,1,2,1.7,2.9l0,0
						c0.8,0.8,1.7,1.5,2.8,1.9s2.3,0.7,3.6,0.6C227.5,81.1,228.3,81,229,80.9"/>
					<path class="st2" d="M269.8,47.3c0.1-0.1,0.1-0.3,0.2-0.4c0.1-0.2,0.4-0.4,0.6-0.6l0,0c0.4-0.2,0.8-0.3,1.2-0.3h1.3v-4.5h-0.7
						c-2.2,0.1-4.5,0.2-7,0.2c-2.1,0-3.8-0.1-5.1-0.2h-0.7v4.4h0.6c1,0,2,0.1,2.9,0.3c0.1,0,0.2,0.1,0.3,0.1l0.1,0.1
						c0,0.1,0.1,0.2,0.1,0.3c0,0.2,0,0.4-0.1,0.5c-0.3,1.6-0.7,3.2-1.2,4.8c-0.7,2.3-1.6,5.2-2.8,8.7l-2.2,6.5l-4.1-13.3l-1.6-5.4
						l0,0c-0.2-0.5-0.3-1-0.3-1.6c0-0.1,0-0.2,0.1-0.3c0-0.1,0.1-0.2,0.2-0.2c0.2-0.2,0.5-0.3,0.7-0.3c0.5-0.1,0.9-0.1,1.4-0.1h1.6
						v-4.4h-0.6c-2.8,0.1-6,0.2-9.5,0.2c-3,0-5.6-0.1-7.6-0.2h-0.7V46h0.9c0.6,0,1.1,0,1.7,0.1c0.3,0.1,0.6,0.2,0.9,0.4l0,0
						c0.3,0.3,0.5,0.7,0.7,1c0.3,0.7,0.6,1.5,0.9,2.3l0,0l10.3,33l-1.2,3.6c-0.5,1.3-1,2.6-1.6,3.9c-0.4,0.8-0.8,1.5-1.4,2.1l0,0
						c-0.4,0.4-0.8,0.7-1.3,0.9c-0.4,0.2-0.9,0.3-1.3,0.3c-0.8,0-1.6-0.2-2.3-0.6c-0.6-0.5-1.2-1.1-1.7-1.7l-0.4-0.3l-1.6,0.4
						l-0.5,4.4c-0.1,0.8-0.3,2.1-0.7,4l-0.1,0.5l0.4,0.2c0.8,0.4,1.6,0.7,2.5,0.9l0,0c0.8,0.2,1.6,0.3,2.4,0.2
						c1.3,0,2.6-0.3,3.8-0.8c1.2-0.6,2.3-1.4,3.1-2.5c1.9-2.1,3.5-5.6,5.1-10.4l0,0l5.1-15.7l0,0c0.7-1.9,2.2-6.2,4.5-13l0,0
						c0.8-2.2,1.8-4.9,3-8.3c0.5-1.3,0.9-2.3,1.2-3C269.5,47.7,269.6,47.4,269.8,47.3"/>
					<path class="st2" d="M241.1,101.5L241.1,101.5L241.1,101.5z"/>
					<path class="st2" d="M250.4,98.4L250.4,98.4z"/>
					<path class="st2" d="M286.3,80c2.9,0,5.6,0.1,8.3,0.3l0.7,0.1v-4.5h-0.6l-2.3-0.2l-0.6-0.1h-0.2h-0.1c-0.2,0-0.3-0.1-0.5-0.2
						c-0.1,0-0.1-0.1-0.2-0.1l0,0c-0.1-0.1-0.1-0.1-0.1-0.2l0,0l0,0V75c-0.1-0.5-0.1-1-0.1-1.5l0,0c0-1-0.1-3.9-0.2-8.6l0,0
						c0-1.9-0.1-4.8-0.1-8.7V45.9c0-6.6,0.1-12.1,0.2-16.6l0,0l0.3-8.4l-1.3-0.9l-0.3,0.1c-2.1,0.8-4.2,1.5-6.3,2.2
						c-2.1,0.5-4.1,0.9-6.2,1.1l-0.6,0.1v4.1h0.6c0.8,0,1.4,0.1,1.9,0.1h0.6h0.3c0.3,0,0.6,0.2,0.9,0.3l0,0l0,0
						c0.1,0,0.1,0.1,0.1,0.2c0,0.1,0,0.2,0.1,0.3c0.1,0.5,0.1,1.4,0.2,2.8l0,0c0.1,3.4,0.2,7.3,0.2,11.4V56c0,3.3,0,7-0.1,11.2
						c0,2.1,0,3.8-0.1,5c0,0.6-0.1,1.1-0.1,1.5c0,0.3-0.1,0.6-0.1,0.8l0,0l0,0c0,0.2-0.1,0.4-0.2,0.6l0,0c-0.1,0.1-0.3,0.2-0.4,0.3
						l-0.4,0.1c-0.6,0.1-1.6,0.2-3.1,0.2h-0.6v4.4h0.7C280.2,80,283.4,79.9,286.3,80"/>
					<path class="st2" d="M316.3,81.7c1.7,0,3.3-0.2,4.9-0.7l0,0c2-0.7,3.9-1.7,5.6-3l0.1-0.1l1.6-4.4l-0.2-0.3l-1.1-1.6l-0.5,0.3
						c-1.2,0.8-2.5,1.5-3.9,2c-1,0.3-2.1,0.5-3.2,0.5c-1.2,0-2.5-0.3-3.6-0.8c-1.2-0.6-2.2-1.5-3-2.6c-1.9-2.6-2.9-5.7-3-8.9h1.5
						c0.4,0,0.7,0,1,0l0,0c0.1,0,0.3,0,0.4,0c0.6,0,1.9,0,3.9-0.1c2.6,0,4.8-0.1,6.4-0.3c0.4,0,0.8-0.1,1.2-0.2
						c0.5-0.1,1.1-0.2,1.9-0.4l0,0c0.9-0.2,1.7-0.4,2.5-0.7l0.4-0.2v-0.4c0-0.7,0.1-1.4,0.1-2.2c0.1-3-0.3-5.9-1.1-8.7
						c-0.7-2.4-2.2-4.4-4.1-6c-1-0.8-2.1-1.4-3.3-1.8c-1.3-0.4-2.7-0.6-4.1-0.6c-1.9,0-3.9,0.4-5.6,1.3l0,0
						c-0.6,0.3-1.1,0.7-1.6,1.1c-0.7,0.5-1.4,1.1-2.3,1.8s-1.6,1.4-2.2,1.9c-0.4,0.4-0.8,0.8-1.2,1.2c-0.9,1.3-1.6,2.8-1.9,4.4l0,0
						c-0.8,3.1-1.2,6.3-1.1,9.5c0,2.3,0.2,4.5,0.6,6.7c0.3,1.9,1,3.8,2,5.5c0.8,1.5,1.9,2.9,3.1,4.1l0,0c1.3,1.2,2.7,2.1,4.3,2.6
						C312.4,81.4,314.4,81.7,316.3,81.7 M309.9,56.2c0-1.5,0.1-3.1,0.4-4.6c0.2-1.1,0.5-2.1,1.1-3l0,0c0.4-0.7,1-1.3,1.6-1.8
						c0.6-0.4,1.3-0.6,1.9-0.6c0.7,0,1.3,0.2,1.9,0.5c0.6,0.4,1.2,1,1.5,1.7c0.5,0.9,0.8,1.9,1,2.9c0.2,1.5,0.4,3.1,0.3,4.7
						c0,0.2,0,0.3,0,0.4c-1.3,0.2-2.7,0.3-4.1,0.3c-1.5,0-2.7,0-3.7-0.1c-0.8,0-1.4-0.1-1.9-0.2L309.9,56.2"/>
					<path class="st2" d="M306.2,78.1L306.2,78.1L306.2,78.1z"/>
					<polygon class="st2" points="374.6,30.1 366.4,30.1 366.4,46.2 352.2,46.2 352.2,54.8 366.4,54.8 366.4,70.7 374.6,70.7 
						374.6,54.8 388.7,54.8 388.7,46.2 374.6,46.2 					"/>
					<path class="st2" d="M454.3,23.5c-2.1,0-4.5-0.1-7.1-0.2h-0.7v4.6h0.6c1.1,0,2.2,0.1,3.3,0.2c0.3,0,0.6,0.1,0.9,0.2
						c0.1,0,0.2,0.1,0.4,0.2c0.1,0.1,0.2,0.3,0.2,0.4c0.1,0.4,0.2,0.7,0.2,1.1l0,0c0.1,0.6,0.1,1.6,0.2,2.9
						c0.1,4.1,0.2,11.5,0.2,22.2v7.4c-2.7-3.6-6.1-8.4-10-14.3c-6.2-9.3-11.5-17.6-15.9-24.7l-0.2-0.3l-3.3,0.1l-4.6,0.1
						c-1.3,0-3.2-0.1-5.9-0.2h-0.7v4.6h0.6c1.1,0.1,2,0.2,2.7,0.3l0.8,0.1c0.1,0,0.3,0.1,0.4,0.1c0.2,0.1,0.3,0.1,0.5,0.2
						c0.1,0.1,0.2,0.1,0.2,0.2l0,0c0.2,0.3,0.3,0.6,0.4,1l0,0c0.1,0.4,0.1,0.9,0.1,1.3c0,0.6,0,1.4,0.1,2.4l0.1,11.6v12.8
						c0,3.5,0,6.4-0.1,8.6l0,0c-0.1,1.9-0.2,3.5-0.2,4.7s-0.1,2.1-0.2,2.5s-0.1,0.6-0.2,0.8c0,0.1-0.1,0.2-0.1,0.4
						c-0.1,0.1-0.2,0.2-0.3,0.3h-0.1c-0.2,0-0.7,0.1-1.4,0.2s-1.6,0.1-2.7,0.2h-0.6v4.6h0.7c3.5-0.2,6.3-0.2,8.4-0.2l6.9,0.1h0.6
						v-4.5l-0.7,0.1h-0.7c-1,0-2-0.1-2.9-0.3l0,0c-0.2,0-0.4-0.1-0.5-0.1s-0.1-0.1-0.2-0.1l0,0c-0.1-0.1-0.2-0.3-0.3-0.5
						c0-0.1-0.1-0.3-0.1-0.6c-0.1-0.9-0.2-2.5-0.3-4.8l0,0c-0.1-4.5-0.2-8.8-0.2-12.9V38.5C434.7,56.8,444,70.6,450.7,80l0.1,0.2
						h0.2c1.9,0.3,3.7,0.7,5.4,1l0.3,0.1l0.9-0.8v-0.3c-0.1-1.9-0.2-5.5-0.3-10.8s-0.1-12.5-0.1-21.3c0-2.2,0-5.7,0.1-10.5
						c0-2.4,0.1-4.3,0.2-5.8c0.1-1.1,0.2-2.1,0.4-3.2v-0.1c0,0,0-0.1,0.1-0.1l0,0c0.1-0.1,0.2-0.1,0.4-0.2c0.5-0.1,1-0.2,1.5-0.3
						c0.7-0.1,1.5-0.1,2.4-0.2h0.6v-4.5h-0.7C459,23.4,456.3,23.4,454.3,23.5"/>
					<polygon class="st2" points="422.7,69.1 422.7,69.2 422.7,69.2 					"/>
					<path class="st2" d="M486.8,44l-0.5,0.1v4.2h0.6c1.1,0.1,2,0.1,2.6,0.2c0.3,0,0.6,0.1,0.8,0.1h0.2h0.1l0,0
						c0.1,0,0.2,0.1,0.2,0.1l0.1,0.1l0,0l0,0c0,0.1,0,0.2,0.1,0.2c0.1,0.3,0.1,0.7,0.1,1.1c0,0.5,0,1,0,1.7l0,0l0.1,5.7v6.8
						c0,1.1,0,2-0.1,2.7c0,0.5-0.1,1-0.2,1.4c-0.4,1.1-1.1,2.1-2,2.9c-0.4,0.4-1,0.8-1.5,1c-0.6,0.2-1.2,0.3-1.9,0.3
						c-0.5,0-1.1-0.1-1.6-0.3c-0.5-0.2-0.9-0.5-1.2-0.8c-0.4-0.4-0.7-0.9-0.9-1.4c-0.2-0.6-0.4-1.3-0.5-2c-0.1-0.6-0.1-1.5-0.2-2.8
						s-0.1-2.8-0.1-4.7v-4.4c0-4.5,0.1-9.3,0.5-14.6v-0.3l-1-0.9l-0.4,0.2c-2.3,1-4.6,1.8-7,2.5c-1.8,0.5-3.6,0.8-5.4,0.9h-0.6v4.2
						h0.6c1,0,1.8,0.1,2.4,0.2l0.7,0.1h0.2h0.1l0,0c0.2,0.1,0.4,0.3,0.5,0.5l0,0c0,0.1,0,0.2,0.1,0.3c0.1,0.8,0.1,1.6,0.1,2.4l0,0
						l0.1,8.4c0,2.2,0,3.9,0,5.2l0,0c0,1.3-0.1,2.3-0.1,3s0,1.2,0,1.4c0,1.6,0.2,3.1,0.6,4.6c0.4,1.3,1.1,2.6,2,3.7
						c0.8,1,1.9,1.9,3.1,2.4c1.3,0.5,2.7,0.8,4.1,0.8c1.6,0,3.2-0.3,4.7-1l0.1-0.1l3.7-4.4c0.3-0.4,0.7-0.7,1.1-1.1
						c0,0.7,0,1.2,0,1.5l-0.2,3.3l0.5,0.8l6.4-0.2l7.2,0.2v-4.4h-0.6c-1.1-0.1-2-0.2-2.6-0.2c-0.2,0-0.5-0.1-0.7-0.1
						c-0.1,0-0.2-0.1-0.3-0.1l-0.1-0.1c-0.1-0.1-0.1-0.3-0.1-0.5c-0.1-0.4-0.1-0.8-0.1-1.1c-0.1-1.5-0.2-4.1-0.2-7.8v-8.2
						c0-0.3,0-1.2,0.1-2.6s0.1-3.5,0.2-6.1l0.4-7.7l-1.2-0.8l-0.3,0.1c-2.9,1.1-4.9,1.9-6,2.2C492.5,43.1,490.1,43.5,486.8,44
						L486.8,44z"/>
					<path class="st2" d="M528.3,72.5c-0.5,0.1-1.1,0.3-1.6,0.4l0,0c-0.4,0-0.7,0.1-1.1,0.1H525l0,0c-0.5,0-0.9-0.1-1.4-0.2
						c-0.4-0.1-0.7-0.3-0.9-0.6l0,0c-0.3-0.3-0.5-0.7-0.6-1.1c-0.2-0.5-0.3-1-0.3-1.5l0,0c0-0.3-0.1-1.1-0.1-2.3s0-2.8,0-4.9V49.6
						h2.5l3.1,0.1l0,0c0.3,0,0.6,0,0.8-0.1l0.5-0.1l0.7-6.7l-0.8,0.1c-2.1,0.3-4.2,0.4-6.3,0.4h-0.4l0.3-6.3l0,0l0.2-4.6l0.4-4.4
						l-1.4-1.3l-0.5,0.3l-3,1.7l-0.8,0.4l-0.2,0.1h-0.1l0,0c-0.6,0.3-1.9,0.9-4,1.7l-0.4,0.2v0.4c0.2,2.8,0.3,5.2,0.3,7.1v5.1
						c-0.4,0.4-0.7,0.7-1.1,1l0,0l-3.1,2.5V50h0.7c1-0.1,2.1-0.1,3.3-0.1h0.2V59l-0.1,13.2l0,0c0,1.2,0.2,2.4,0.6,3.5
						c0.4,1.1,1,2,1.7,2.9l0,0c0.8,0.9,1.7,1.5,2.8,1.9s2.3,0.7,3.5,0.6c0.7,0,1.4-0.1,2.1-0.2l0,0c0.8-0.2,1.6-0.6,2.4-1l0.1-0.1
						l0.1-0.1l2.5-3.1l1.4-1.7l-0.8-2.5L528.3,72.5z"/>
					<path class="st2" d="M550.9,41.4L550.9,41.4L550.9,41.4z"/>
					<path class="st2" d="M544.8,40.2l-0.3,0.2c-1.3,0.8-2.6,1.4-4,1.9c-0.6,0.2-1.5,0.4-2.8,0.7c-1.3,0.3-2.9,0.7-4.8,1.1l-0.5,0.1
						v4.2h0.6c1,0,1.8,0.1,2.4,0.1c0.3,0,0.5,0.1,0.7,0.1c0.1,0,0.2,0,0.3,0.1l0,0c0.1,0,0.2,0.1,0.2,0.2c0,0.1,0,0.1,0,0.2
						c0.1,0.4,0.1,1.2,0.2,2.4c0.1,3.4,0.2,6.2,0.2,8.6v5.2c0,1.7,0,2.9,0,3.6l0,0l-0.1,3.6l0,0c0,0.6,0,1.1-0.1,1.7
						c0,0.3-0.1,0.6-0.2,0.9c-0.1,0.2-0.2,0.3-0.3,0.4l0,0c-0.4,0.1-0.8,0.2-1.2,0.3c-0.7,0.1-1.3,0.1-2,0.1h-0.6v4.3h0.7
						c3.6-0.1,7-0.2,10.3-0.2c3,0,5.6,0.1,8,0.2h0.7V76l-0.5-0.1l-2.6-0.3l0,0c-0.4,0-0.9-0.1-1.3-0.2c-0.2,0-0.4-0.1-0.6-0.2l0,0
						c-0.2-0.2-0.4-0.4-0.4-0.7c0-0.1,0-0.2,0-0.4c-0.1-0.6-0.1-1.7-0.1-3.2l0,0l-0.1-5.4v-4c0-2,0-3.5,0-4.6c0-0.6,0-1,0-1.4
						s0-0.6,0-0.7c0.2-1,0.7-1.9,1.5-2.6c0.4-0.4,0.8-0.7,1.3-0.9c1.2-0.5,2.6-0.4,3.7,0.4c0.6,0.5,1,1,1.4,1.7l0.3,0.5l2.2-0.8
						v-0.4c0-0.1,0-0.3,0-0.6c0-0.8,0.1-2.4,0.1-4.7l0.2-6.1l-0.4-0.2c-0.8-0.4-1.6-0.6-2.4-0.5c-0.6,0-1.3,0.1-1.9,0.3
						c-0.6,0.2-1.1,0.5-1.5,0.8c-0.4,0.4-0.8,0.8-1.1,1.2c-0.4,0.5-0.9,1.2-1.5,2.1l0,0c-0.5,0.8-1.2,1.8-2,2.9v-6.5L544.8,40.2z"/>
					<path class="st2" d="M571.3,21.8c-1.4-0.7-3-0.7-4.3,0c-0.7,0.4-1.3,0.9-1.8,1.5c-1,1.3-1.6,3-1.5,4.7
						c-0.1,1.7,0.5,3.4,1.5,4.8c0.5,0.6,1.1,1.1,1.8,1.5c1.4,0.7,3,0.7,4.3,0c0.7-0.4,1.3-0.9,1.8-1.5c1.1-1.3,1.6-3,1.6-4.7
						s-0.5-3.4-1.6-4.7C572.6,22.7,572,22.2,571.3,21.8"/>
					<path class="st2" d="M578.9,80.3V76h-0.6c-0.9,0-1.8-0.1-2.6-0.2c-0.3,0-0.6-0.1-0.8-0.2c-0.2,0-0.3-0.1-0.4-0.2
						c0,0,0,0-0.1-0.1s-0.1-0.3-0.1-0.4l0,0c-0.1-0.3-0.1-0.6-0.1-0.9c-0.1-1.3-0.2-3.7-0.2-7.2V53.1c0-3.6,0.1-7.5,0.4-11.6v-0.4
						l-1.4-0.9l-0.3,0.2c-1.7,0.9-3.4,1.6-5.3,2.1c-2.4,0.6-4.8,1.1-7.2,1.3l-0.5,0.1v4.2h0.6c1,0,1.9,0.1,2.9,0.1
						c0.3,0,0.5,0.1,0.8,0.1l0.2,0.1l0,0l0,0c0,0.1,0.1,0.1,0.1,0.2c0.1,0.2,0.1,0.3,0.1,0.5l0,0c0,0.2,0.1,0.7,0.1,1.5
						c0.1,2.2,0.2,6.4,0.2,12.6c0,3,0,5.5-0.1,7.3c0,1.9-0.1,3.2-0.2,3.8l0,0c0,0.2-0.1,0.5-0.2,0.7c0,0.1-0.1,0.2-0.2,0.3h-0.1
						c-0.2,0.1-0.3,0.1-0.5,0.1c-1.1,0.2-2.1,0.3-3.2,0.4h-0.6V80h0.7c2.3-0.1,5-0.2,8.1-0.2c3.5,0,6.8,0.1,9.9,0.2L578.9,80.3z"/>
					<path class="st2" d="M599.6,79.9L599.6,79.9l0.2-0.2l2.5-3.1l1.4-1.7l-0.8-2.5l-0.6,0.2c-0.5,0.1-1.1,0.3-1.6,0.4l0,0
						c-0.4,0-0.7,0.1-1.1,0.1H599l0,0c-0.5,0-0.9-0.1-1.3-0.2s-0.7-0.3-0.9-0.6l0,0c-0.3-0.3-0.5-0.7-0.6-1.1
						c-0.2-0.5-0.3-1-0.3-1.5l0,0c0-0.3-0.1-1.1-0.1-2.3s0-2.8,0-4.9V49.6h2.5l3.1,0.1l0,0c0.3,0,0.6,0,0.8-0.1l0.5-0.1l0.7-6.7
						l-0.8,0.1c-2.1,0.3-4.2,0.4-6.3,0.4h-0.4l0.3-6.3l0,0l0.2-4.6l0.3-4.4l-1.4-1.3l-0.5,0.3l-3,1.7l-0.8,0.4l-0.2,0.1h-0.1l0,0
						c-0.6,0.3-1.9,0.9-4,1.7l-0.4,0.2v0.4c0.2,2.8,0.3,5.2,0.3,7.1v5.1c-0.4,0.4-0.7,0.7-1.1,1l0,0l-3.1,2.5V50h0.7
						c1-0.1,2.2-0.1,3.3-0.1h0.2V59l-0.1,13.2l0,0c0,1.2,0.2,2.4,0.6,3.5c0.4,1.1,1,2,1.7,2.9l0,0c0.8,0.9,1.7,1.5,2.8,1.9
						s2.3,0.7,3.5,0.6c0.7,0,1.4-0.1,2.1-0.2l0,0C598,80.6,598.8,80.3,599.6,79.9"/>
					<path class="st2" d="M625.8,80.3V76h-0.6c-0.9,0-1.8-0.1-2.6-0.2c-0.3,0-0.6-0.1-0.8-0.2c-0.2,0-0.3-0.1-0.4-0.2
						c0,0,0,0-0.1-0.1s-0.1-0.3-0.1-0.4l0,0c-0.1-0.3-0.1-0.6-0.1-0.9c-0.1-1.3-0.1-3.7-0.1-7.2V53.1c0-3.6,0.1-7.5,0.4-11.6v-0.4
						l-1.4-0.9l-0.3,0.2c-1.7,0.9-3.4,1.6-5.3,2.1c-2.4,0.6-4.8,1.1-7.2,1.3l-0.5,0.1v4.2h0.6c1,0,1.9,0.1,2.9,0.1
						c0.3,0,0.5,0.1,0.8,0.1l0.2,0.1l0,0l0,0c0,0.1,0.1,0.1,0.1,0.2c0.1,0.2,0.1,0.3,0.1,0.5l0,0c0,0.2,0.1,0.7,0.1,1.5
						c0.1,2.2,0.2,6.4,0.2,12.6c0,3,0,5.5-0.1,7.3c0,1.3-0.1,2.6-0.2,3.8l0,0c0,0.2-0.1,0.5-0.2,0.7c0,0.1-0.1,0.2-0.2,0.3h-0.1
						c-0.2,0.1-0.3,0.1-0.5,0.1c-1.1,0.2-2.1,0.3-3.2,0.4h-0.6V80h0.7c2.3-0.1,5-0.2,8.1-0.2c3.5,0,6.8,0.1,9.8,0.2L625.8,80.3z"/>
					<path class="st2" d="M610.4,28c0,1.7,0.5,3.4,1.6,4.7c0.5,0.6,1.1,1.1,1.8,1.5c1.4,0.7,3,0.7,4.3,0c0.7-0.4,1.3-0.9,1.8-1.5
						c1-1.3,1.6-3,1.6-4.7s-0.5-3.4-1.6-4.7c-0.5-0.6-1.1-1.1-1.8-1.5c-1.4-0.7-3-0.7-4.4,0c-0.7,0.4-1.3,0.9-1.8,1.5l0,0
						C610.9,24.6,610.4,26.3,610.4,28"/>
					<path class="st2" d="M662.9,59.6c0-2.8-0.3-5.6-1-8.4c-0.6-2.2-1.6-4.3-3-6.2c-1.3-1.7-3-3-5-3.8c-5.1-2-10.9-1.6-15.7,1.1
						c-2.6,1.6-4.7,4.1-5.8,7c-1.4,3.7-2,7.6-1.9,11.5c0,3,0.3,6,1,8.9c0.6,2.4,1.6,4.6,3,6.6l0,0c1.3,1.7,3,3.1,5,4
						c2.1,0.9,4.4,1.4,6.7,1.3c2.9,0,5.8-0.7,8.3-2.2l0,0c1.6-1,3-2.3,4.1-3.8c1.4-2,2.5-4.2,3.1-6.6l0,0
						C662.5,66,662.9,62.8,662.9,59.6 M652.3,70.2c-0.2,1.5-0.7,2.9-1.4,4.2c-0.4,0.6-0.9,1.1-1.6,1.5c-0.6,0.3-1.3,0.5-2,0.5
						c-0.8,0-1.7-0.2-2.4-0.7c-0.8-0.5-1.4-1.2-1.8-2l0,0c-0.9-1.8-1.5-3.8-1.8-5.8c-0.4-3-0.6-6-0.6-9c-0.1-2.9,0.2-5.7,0.8-8.5
						c0.3-1.5,1-2.8,2-3.9c1.3-1.1,3.2-1.4,4.8-0.7c0.6,0.3,1.1,0.7,1.5,1.1c0.6,0.6,1,1.4,1.3,2.2c0.4,1.2,0.8,2.4,1,3.6
						c0.6,3.4,0.8,6.9,0.7,10.3C652.8,65.4,652.7,67.8,652.3,70.2"/>
					<path class="st2" d="M691.7,72c-0.2,4-0.4,6.3-0.4,6.9v0.2l1,1.2h0.3c1.8-0.2,3.6-0.3,5.4-0.3s4.2,0.1,7,0.3h0.7V76h-0.6
						c-0.8-0.1-1.4-0.2-1.8-0.2l0,0c-0.4,0-0.7-0.1-1.1-0.2c-0.2,0-0.3-0.1-0.4-0.2l0,0c-0.1-0.1-0.2-0.3-0.2-0.5
						c-0.1-0.4-0.2-0.8-0.2-1.2c0-0.5-0.1-1.5-0.1-2.8s0-3.2-0.1-5.5v-4.1c0-0.4,0-0.8,0-1.1l0,0c0-0.9,0.1-2.8,0.1-5.8
						c0.1-2-0.1-4.1-0.5-6.1c-0.3-1.4-0.9-2.7-1.7-3.9l0,0c-0.8-1.2-1.9-2.2-3.1-2.9c-0.7-0.4-1.5-0.7-2.3-0.8
						c-1-0.2-2.1-0.3-3.1-0.2c-0.7,0-1.4,0-2.1,0.2s-1.3,0.4-1.9,0.7h-0.1l-4.8,4.8v-5.3l-1.5-0.8l-0.3,0.2c-1.3,0.8-2.6,1.4-4,1.9
						c-0.6,0.2-1.5,0.4-2.8,0.7c-1.3,0.3-2.9,0.7-4.8,1.1l-0.5,0.1v4.2h0.6c1,0,1.8,0.1,2.4,0.1c0.3,0,0.5,0.1,0.7,0.1
						c0.1,0,0.2,0,0.3,0.1l0,0c0.1,0,0.2,0.1,0.2,0.2c0,0.1,0,0.1,0,0.2c0.1,0.8,0.1,1.6,0.2,2.5l0,0c0.1,3.4,0.2,6.2,0.2,8.6v5.2
						c0,1.7,0,2.9,0,3.6l0,0l-0.1,3.6l0,0c0,0.6,0,1.1-0.1,1.7c0,0.3-0.1,0.6-0.2,0.9c-0.1,0.2-0.2,0.3-0.4,0.4l0,0
						c-0.4,0.1-0.8,0.2-1.2,0.3c-0.7,0.1-1.3,0.1-2,0.1h-0.6v4.4h0.7c2.1-0.1,5.2-0.2,9-0.2c3.4,0,6.2,0.1,8.5,0.2h0.7V76l-0.6-0.1
						l-1.8-0.2l-0.5-0.1h-0.3c-0.3-0.1-0.6-0.1-0.8-0.3c-0.1-0.1-0.3-0.1-0.4-0.2l0,0c-0.1-0.1-0.2-0.2-0.2-0.4l0,0
						c-0.1-0.2-0.1-0.5-0.1-0.8c0-0.4-0.1-0.9-0.1-1.5l0,0c-0.1-2.8-0.1-5.2-0.1-7.1v-6.8l0,0c0-0.5,0-0.9,0-1.3c0-1.5,0-2.6,0-3.4
						c0-0.4,0-0.8,0.1-1c0-0.2,0-0.3,0.1-0.5l0,0c0.3-0.9,0.9-1.8,1.7-2.4c0.4-0.4,0.9-0.7,1.5-0.9s1.2-0.3,1.8-0.3s1.2,0.1,1.8,0.3
						c0.5,0.2,1,0.5,1.3,0.9c0.8,0.9,1.4,2,1.6,3.2c0.2,1.1,0.3,2.2,0.3,3.3c0.1,1.5,0.1,3.4,0.1,5.8v3.1L691.7,72z"/>
					<path class="st2" d="M741.4,49.8l-0.4,1c-0.5,1.1-1.1,2.2-1.7,3.3c-0.4,0.7-0.9,1.3-1.5,1.9c-0.4,0.4-0.8,0.7-1.3,0.9
						c-0.4,0.2-0.7,0.3-1.1,0.3c-0.7-0.1-1.5-0.2-2.1-0.5l0,0c-1.5-0.7-2.9-1.4-4.3-2.2c-1.4-0.9-3-1.6-4.6-2.2
						c-1.2-0.5-2.5-0.7-3.8-0.8c-0.9,0-1.8,0.2-2.6,0.6c-1,0.5-1.9,1.2-2.7,2c-1,1-1.9,2.1-2.6,3.2c-0.9,1.5-1.7,3.1-2.3,4.7
						l-0.2,0.5l5.4,2.9l0.2-0.7c0.4-1,0.9-2,1.4-2.9c0.4-0.7,0.9-1.2,1.6-1.6c0.6-0.4,1.2-0.5,1.9-0.5c0.5,0,1,0.1,1.5,0.2
						c0.8,0.3,1.5,0.7,2.2,1.1c1,0.5,2.2,1.2,3.7,2.1c1,0.7,1.9,1.2,2.6,1.5c0.6,0.3,1.2,0.5,1.8,0.7l0,0c0.8,0.1,1.7,0.2,2.5,0.2
						c0.9,0,1.8-0.2,2.6-0.6c1-0.5,1.8-1.1,2.6-1.8c2.1-2.1,3.8-4.6,4.8-7.4l0.2-0.3L741.4,49.8z"/>
				</g>
			</g>
		</g>
	</g>
</g>
</svg>
