<svg id="Layer_1" data-name="Layer 1" xmlns="http://www.w3.org/2000/svg" xmlns:xlink="http://www.w3.org/1999/xlink" viewBox="0 0 364.09 364.09"><defs><style>.cls-1{fill:none;}.cls-2{clip-path:url(#clip-path);}.cls-3{fill:#6aaa37;}.cls-4{fill:#fff;}</style><clipPath id="clip-path" transform="translate(-44.21 -28.61)"><rect class="cls-1" width="444.88" height="429.21"/></clipPath></defs><title>logo</title><g class="cls-2"><path class="cls-3" d="M354.28,82.64a181.05,181.05,0,1,0,53,128,180.5,180.5,0,0,0-53-128m-4,252a175.38,175.38,0,1,1,51.37-124,174.8,174.8,0,0,1-51.37,124" transform="translate(-44.21 -28.61)"/><path class="cls-4" d="M226.27,392.7h0A182.09,182.09,0,0,1,155.4,42.92a180.79,180.79,0,0,1,70.86-14.31h0a182.09,182.09,0,0,1,70.86,349.78,180.74,180.74,0,0,1-70.85,14.31m0-362.08a180.08,180.08,0,0,0-70.08,345.92,178.92,178.92,0,0,0,70.08,14.15h0A180.08,180.08,0,0,0,296.34,44.77a178.92,178.92,0,0,0-70.08-14.15m0,356.42h0A176.43,176.43,0,0,1,157.6,48.13a175.27,175.27,0,0,1,68.66-13.86h0a176.43,176.43,0,0,1,68.66,338.91A175.27,175.27,0,0,1,226.26,387m0-350.76a174.42,174.42,0,0,0-67.87,335A174.42,174.42,0,0,0,294.13,50a173.15,173.15,0,0,0-67.87-13.71" transform="translate(-44.21 -28.61)"/><polygon class="cls-4" points="170.91 134.22 170.92 134.22 170.92 134.22 170.91 134.22"/><path class="cls-4" d="M226.26,41.66a169,169,0,1,1-119.5,49.5,168.49,168.49,0,0,1,119.5-49.5M176.09,153.81h0a31.15,31.15,0,0,0-24,10.79,44,44,0,0,0-4.63,6.2l-.58-14.27H127.05l.14,2.39c.59,9.82.79,19.9.79,32.23v89.47H149.5v-74.4a34.33,34.33,0,0,1,1.28-10v0l0-.05a33.58,33.58,0,0,1,7.22-14,20,20,0,0,1,5.6-4.43,14,14,0,0,1,6.53-1.62,13.51,13.51,0,0,1,7.49,2.1,15.88,15.88,0,0,1,4.3,4.18,29.46,29.46,0,0,1,4.39,10.22,59.89,59.89,0,0,1,1.53,14.1v73.9h21.51V204.49a42.21,42.21,0,0,1,1.3-10.27,30.26,30.26,0,0,1,7.12-12.88,18.65,18.65,0,0,1,5.26-3.85,13.91,13.91,0,0,1,6-1.37,14.34,14.34,0,0,1,7.95,2.17,15.64,15.64,0,0,1,4.46,4.4A32,32,0,0,1,246,194a78.8,78.8,0,0,1,1.55,16.63v70h21.52V208a95.53,95.53,0,0,0-3.22-26.24c-3-10.58-8-17.61-13.58-22a27.49,27.49,0,0,0-16.87-5.95h0a30.87,30.87,0,0,0-22.67,9,47.55,47.55,0,0,0-9,11.89,37.89,37.89,0,0,0-9.19-13.61,26.86,26.86,0,0,0-18.36-7.3h0m155,129.28h0a63.17,63.17,0,0,0,17.47-2.44,43.29,43.29,0,0,0,11.24-4.85l1.25-.82-.27-1.47-3.52-19.4-2.75,1.52a48.35,48.35,0,0,1-8.44,3.81,37.41,37.41,0,0,1-11.82,1.84,26.77,26.77,0,0,1-12.17-2.86c-5.52-2.8-10.18-7.62-13.51-14.3s-5.26-15.21-5.26-25.3c0-12.12,2.9-23,8.26-30.67a28.92,28.92,0,0,1,9.82-9,27.69,27.69,0,0,1,13.45-3.28c9.06,0,15.07,2.57,18.85,5.26l2.74,2,5.09-21.65-1.37-.86a41.72,41.72,0,0,0-10.56-4.46,54.77,54.77,0,0,0-14.75-2.06h0a49.9,49.9,0,0,0-22.19,5c-9.9,4.84-17.8,13-23.17,23.47s-8.28,23.19-8.28,37.3c0,18.66,4.78,34.41,13.47,45.6a45.37,45.37,0,0,0,15.81,13,46.26,46.26,0,0,0,20.6,4.63M91.3,280.62h21.91V156.53H91.3Z" transform="translate(-44.21 -28.61)"/><path class="cls-4" d="M176.13,153.81a26.86,26.86,0,0,1,18.36,7.3,37.89,37.89,0,0,1,9.19,13.61,47.55,47.55,0,0,1,9-11.89,30.87,30.87,0,0,1,22.67-9h0a27.49,27.49,0,0,1,16.87,5.95c5.58,4.34,10.54,11.37,13.58,22A96,96,0,0,1,269.07,208v72.67H247.55v-70A78.8,78.8,0,0,0,246,194a32,32,0,0,0-4.53-11.35,15.64,15.64,0,0,0-4.46-4.4,14.34,14.34,0,0,0-7.95-2.17,13.91,13.91,0,0,0-6,1.37,18.65,18.65,0,0,0-5.26,3.85,30.26,30.26,0,0,0-7.12,12.88,42.21,42.21,0,0,0-1.3,10.27v76.13H187.86v-73.9a59.39,59.39,0,0,0-1.52-14.1,29.47,29.47,0,0,0-4.4-10.22,15.71,15.71,0,0,0-4.29-4.18,13.51,13.51,0,0,0-7.49-2.1,14,14,0,0,0-6.53,1.62,20,20,0,0,0-5.6,4.43,33.58,33.58,0,0,0-7.22,14l0,.05v0a34.33,34.33,0,0,0-1.28,10v74.4H128V191.15c0-12.33-.2-22.41-.79-32.23l-.14-2.39h19.79l.58,14.27a44,44,0,0,1,4.63-6.2,31.15,31.15,0,0,1,24-10.79h0m0-1.67h0a34.18,34.18,0,0,0-12,2.08,33.68,33.68,0,0,0-13.29,9.26c-.65.72-1.29,1.48-1.92,2.29l-.38-9.31-.07-1.61H125.27l.11,1.78.14,2.4c.55,9.15.79,18.76.79,32.12v91.14h24.86V206.22a33.06,33.06,0,0,1,1.21-9.46l0-.06v-.12a32.14,32.14,0,0,1,6.84-13.29,18,18,0,0,1,5.13-4.06,12.41,12.41,0,0,1,5.76-1.44,12,12,0,0,1,6.59,1.84,14.41,14.41,0,0,1,3.83,3.74,27.82,27.82,0,0,1,4.13,9.65,58.27,58.27,0,0,1,1.48,13.7v75.57h24.87v-77.8a40,40,0,0,1,1.24-9.83,28.41,28.41,0,0,1,6.7-12.15,16.61,16.61,0,0,1,4.78-3.5,12.18,12.18,0,0,1,5.28-1.22,12.87,12.87,0,0,1,7.05,1.91,14.08,14.08,0,0,1,4,4,30.19,30.19,0,0,1,4.27,10.75,76.82,76.82,0,0,1,1.52,16.27v71.62h24.86V208a97.5,97.5,0,0,0-3.28-26.7c-2.9-10.08-7.66-17.76-14.16-22.81a29.4,29.4,0,0,0-17.9-6.3h0a32.49,32.49,0,0,0-23.83,9.47,46.7,46.7,0,0,0-7.66,9.47,37.8,37.8,0,0,0-8.25-11.21,28.42,28.42,0,0,0-19.49-7.73" transform="translate(-44.21 -28.61)"/><path class="cls-4" d="M334.85,154.06h0a54.77,54.77,0,0,1,14.75,2.06,41.72,41.72,0,0,1,10.56,4.46l1.37.86-5.09,21.65-2.74-2c-3.78-2.69-9.79-5.25-18.85-5.26a27.69,27.69,0,0,0-13.45,3.28,28.92,28.92,0,0,0-9.82,9c-5.36,7.68-8.27,18.55-8.26,30.67,0,10.09,1.95,18.63,5.26,25.3s8,11.5,13.51,14.31a26.76,26.76,0,0,0,12.17,2.85,37.12,37.12,0,0,0,11.82-1.84,48.35,48.35,0,0,0,8.44-3.81l2.75-1.52,3.52,19.4.27,1.47-1.26.82a43.26,43.26,0,0,1-11.22,4.85,63.36,63.36,0,0,1-17.48,2.44h0a46.26,46.26,0,0,1-20.6-4.63,45.34,45.34,0,0,1-15.81-13c-8.69-11.2-13.47-27-13.47-45.61,0-14.11,2.9-26.84,8.28-37.3s13.27-18.63,23.17-23.48a50,50,0,0,1,22.18-5m0-1.68h0a51.68,51.68,0,0,0-22.92,5.15c-10,4.91-18.3,13.28-23.92,24.21-5.54,10.76-8.46,23.92-8.47,38.07,0,18.86,4.79,35,13.83,46.63A47,47,0,0,0,309.76,280a47.87,47.87,0,0,0,21.34,4.79,64.48,64.48,0,0,0,17.95-2.5,45.28,45.28,0,0,0,11.68-5.05l1.26-.82.93-.61-.2-1.1-.27-1.47-3.52-19.39-.42-2.3-2,1.13-2.75,1.51a47.27,47.27,0,0,1-8.15,3.69,35.65,35.65,0,0,1-11.3,1.75,25,25,0,0,1-11.41-2.67c-5.27-2.68-9.69-7.36-12.77-13.55-3.33-6.71-5.09-15.2-5.09-24.56,0-11.8,2.83-22.35,8-29.71a27.25,27.25,0,0,1,9.24-8.49,26.12,26.12,0,0,1,12.66-3.07c9,0,14.7,2.69,17.87,4.95l2.74,1.95,2,1.46.57-2.44,5.1-21.65.27-1.17-1-.63-1.37-.86a43.52,43.52,0,0,0-11-4.65,55.91,55.91,0,0,0-15.21-2.13" transform="translate(-44.21 -28.61)"/><path class="cls-4" d="M113.21,280.62H91.3V156.53h21.91Zm1.67-125.76H89.62V282.29h25.26V154.86Z" transform="translate(-44.21 -28.61)"/><path class="cls-3" d="M345.76,91.16a169,169,0,1,0,49.49,119.5,168.49,168.49,0,0,0-49.49-119.5M91.15,127.54a24.23,24.23,0,0,1,1.23-4.45c.53-1.43,1.1-2.85,1.65-4.28.39-1,.79-2,1.13-3.06a18.74,18.74,0,0,0,.62-2.34,11.67,11.67,0,0,0,.14-1.45v-.22c0-.2.17-.29.35-.21l.24.15a46.58,46.58,0,0,1,3.79,3.1c.69.63,1.37,1.27,2,2a22,22,0,0,1,2.75,3.51c.18.31.15.43-.17.59-.84.41-1.7.8-2.53,1.25A14.87,14.87,0,0,0,98,125.53a9.54,9.54,0,0,0-1.87,3.15l0,.13-.08.06c0-.11,0-.18,0-.26a12.16,12.16,0,0,1,.65-4,20.54,20.54,0,0,1,1.32-3.08l.08-.26-.14.2a22.92,22.92,0,0,0-2.64,4.69,12.07,12.07,0,0,0-.94,4.79,10.49,10.49,0,0,0,1.24,4.68c.15.28.31.54.46.82a3.07,3.07,0,0,1,.2.5c.18.6.36,1.2.53,1.81v.3l-.28-.07a12.85,12.85,0,0,1-2.83-2.49,10.73,10.73,0,0,1-2.45-9m22.06,153.08H91.3V156.53h21.91Zm2.15-154.23a22.29,22.29,0,0,1-.7,5.27,13.84,13.84,0,0,1-1.79,4.06,10.34,10.34,0,0,1-3.42,3.2,13.27,13.27,0,0,1-5.16,1.67c-.72.09-1.45.14-2.17.18a1.17,1.17,0,0,1-1-.3,1,1,0,0,1-.2-.3,10.14,10.14,0,0,1-.55-2.51,11.43,11.43,0,0,1,1.08-5.87,15.79,15.79,0,0,1,.9-1.61,11.77,11.77,0,0,1,3.5-3.39,13.28,13.28,0,0,1,3.52-1.59l.26-.08a19.44,19.44,0,0,0-4.32.91,11.63,11.63,0,0,0-3.36,1.72,9.23,9.23,0,0,0-2.81,3.45,12.54,12.54,0,0,0-1,3.57A19.26,19.26,0,0,0,97.9,138c0,.38,0,.77,0,1.15,0,.1,0,.24-.09.27s-.19-.11-.23-.22c-.1-.34-.21-.68-.3-1-.2-.76-.43-1.52-.6-2.3a13.79,13.79,0,0,1-.28-3.4,11.91,11.91,0,0,1,.59-3.36A9.79,9.79,0,0,1,99,125.7a12,12,0,0,1,2.8-2.3,43.07,43.07,0,0,1,5.37-2.64c1.32-.58,2.63-1.18,3.94-1.79a10,10,0,0,0,2.1-1.31c.2-.17.39-.35.58-.53l.23-.25c.09-.09.19-.2.33-.15s.17.19.19.33c.13.8.28,1.6.38,2.41.16,1.29.32,2.59.42,3.89.08,1,.09,2,.07,3M269.07,280.62H247.55v-70A78.8,78.8,0,0,0,246,194a32,32,0,0,0-4.53-11.35,15.64,15.64,0,0,0-4.46-4.4,14.34,14.34,0,0,0-7.95-2.17,13.91,13.91,0,0,0-6,1.37,18.65,18.65,0,0,0-5.26,3.85,30.26,30.26,0,0,0-7.12,12.88,42.21,42.21,0,0,0-1.3,10.27v76.13H187.87v-73.9a59.89,59.89,0,0,0-1.53-14.1A29.65,29.65,0,0,0,182,182.4a15.88,15.88,0,0,0-4.3-4.18,13.51,13.51,0,0,0-7.49-2.1,14,14,0,0,0-6.53,1.62,20,20,0,0,0-5.6,4.43,33.7,33.7,0,0,0-7.22,14l0,.05v0a34.33,34.33,0,0,0-1.28,10v74.4H128V191.15c0-12.33-.2-22.41-.78-32.23l-.15-2.39h19.79l.58,14.27a44,44,0,0,1,4.63-6.2,31.15,31.15,0,0,1,24-10.79,26.84,26.84,0,0,1,18.4,7.3,37.8,37.8,0,0,1,9.19,13.61,47.55,47.55,0,0,1,9-11.89,30.87,30.87,0,0,1,22.69-9,27.52,27.52,0,0,1,16.89,5.95c5.58,4.34,10.54,11.37,13.58,22A96,96,0,0,1,269.07,208Zm90.74-4.82a43.26,43.26,0,0,1-11.22,4.85,63.36,63.36,0,0,1-17.48,2.44,46.16,46.16,0,0,1-20.61-4.63,45.26,45.26,0,0,1-15.81-13c-8.69-11.19-13.47-26.94-13.47-45.6,0-14.11,2.9-26.84,8.28-37.3s13.27-18.63,23.17-23.48a50.06,50.06,0,0,1,22.19-5,54.77,54.77,0,0,1,14.75,2.06,41.72,41.72,0,0,1,10.56,4.46l1.37.86-5.09,21.65-2.74-2c-3.78-2.69-9.79-5.25-18.85-5.26a27.69,27.69,0,0,0-13.45,3.28,28.92,28.92,0,0,0-9.82,9c-5.36,7.68-8.27,18.55-8.26,30.67,0,10.09,1.95,18.63,5.26,25.3s8,11.5,13.51,14.3a26.77,26.77,0,0,0,12.17,2.86,37.41,37.41,0,0,0,11.82-1.84,48.35,48.35,0,0,0,8.44-3.81l2.75-1.52,3.52,19.4.27,1.47Z" transform="translate(-44.21 -28.61)"/><path class="cls-4" d="M226.26,41.66a169,169,0,1,1-119.5,49.5,168.49,168.49,0,0,1,119.5-49.5M96.71,139.08v-.3c-.17-.61-.35-1.21-.53-1.8a2.85,2.85,0,0,0-.2-.51c-.15-.28-.31-.54-.46-.82A10.49,10.49,0,0,1,94.28,131a12.07,12.07,0,0,1,.94-4.79,22.92,22.92,0,0,1,2.64-4.69l.14-.2-.08.26a20.54,20.54,0,0,0-1.32,3.08,12.16,12.16,0,0,0-.65,4c0,.08,0,.15,0,.27l.08-.07,0-.13A9.54,9.54,0,0,1,98,125.53a14.87,14.87,0,0,1,4.39-3.45c.83-.45,1.69-.84,2.53-1.25.31-.16.35-.28.17-.59a22,22,0,0,0-2.75-3.51c-.64-.68-1.32-1.32-2-2-1.21-1.11-2.5-2.11-3.8-3.09l-.24-.15-.13,0c-.11,0-.2.09-.22.24V112a11.67,11.67,0,0,1-.14,1.45,20.61,20.61,0,0,1-.61,2.34c-.35,1-.75,2-1.14,3.06-.55,1.43-1.12,2.85-1.65,4.28a25.05,25.05,0,0,0-1.23,4.45,10.73,10.73,0,0,0,2.45,9A12.85,12.85,0,0,0,96.43,139l.28.07m1.12.33h0c.14,0,.09-.16.09-.26,0-.38,0-.77,0-1.15a19.26,19.26,0,0,1,.18-3.22,12.54,12.54,0,0,1,1-3.57,9.23,9.23,0,0,1,2.81-3.45,11.91,11.91,0,0,1,3.36-1.73,20,20,0,0,1,4.32-.9l-.26.08a13.28,13.28,0,0,0-3.52,1.59,11.77,11.77,0,0,0-3.5,3.39,15.79,15.79,0,0,0-.9,1.61,10.62,10.62,0,0,0-1,3.51,10.42,10.42,0,0,0-.05,2.37,10.16,10.16,0,0,0,.55,2.5,1,1,0,0,0,.2.3,1,1,0,0,0,.81.3h.21c.73,0,1.45-.09,2.17-.17a13.56,13.56,0,0,0,5.17-1.68,10.41,10.41,0,0,0,3.41-3.2,13.9,13.9,0,0,0,1.79-4.05,22.44,22.44,0,0,0,.7-5.28c0-1,0-2-.07-3-.1-1.3-.26-2.6-.42-3.89-.1-.81-.25-1.61-.38-2.41,0-.14,0-.28-.19-.33h-.07c-.11,0-.18.09-.26.16l-.23.25c-.19.18-.38.36-.58.53a10,10,0,0,1-2.1,1.31c-1.31.61-2.62,1.21-3.94,1.79a43.07,43.07,0,0,0-5.37,2.64,12,12,0,0,0-2.8,2.3A9.79,9.79,0,0,0,97,129.11a12.28,12.28,0,0,0-.59,3.36,14.29,14.29,0,0,0,.28,3.4c.17.78.4,1.54.6,2.3.09.34.2.68.3,1,0,.11.09.22.2.22m78.26,14.4h0a31.15,31.15,0,0,0-24,10.79,44,44,0,0,0-4.63,6.2l-.58-14.27H127.05l.14,2.39c.59,9.82.79,19.9.79,32.23v89.47H149.5v-74.4a34.33,34.33,0,0,1,1.28-10v0l0-.05a33.58,33.58,0,0,1,7.22-14,20,20,0,0,1,5.6-4.43,14,14,0,0,1,6.53-1.62,13.51,13.51,0,0,1,7.49,2.1,15.88,15.88,0,0,1,4.3,4.18,29.46,29.46,0,0,1,4.39,10.22,59.89,59.89,0,0,1,1.53,14.1v73.9h21.51V204.49a42.21,42.21,0,0,1,1.3-10.27,30.26,30.26,0,0,1,7.12-12.88,18.65,18.65,0,0,1,5.26-3.85,13.91,13.91,0,0,1,6-1.37,14.34,14.34,0,0,1,7.95,2.17,15.64,15.64,0,0,1,4.46,4.4A32,32,0,0,1,246,194a78.8,78.8,0,0,1,1.55,16.63v70h21.52V208a95.53,95.53,0,0,0-3.22-26.24c-3-10.58-8-17.61-13.58-22a27.49,27.49,0,0,0-16.87-5.95h0a30.87,30.87,0,0,0-22.67,9,47.55,47.55,0,0,0-9,11.89,37.89,37.89,0,0,0-9.19-13.61,26.86,26.86,0,0,0-18.36-7.3h0m155,129.28h0a63.17,63.17,0,0,0,17.47-2.44,43.44,43.44,0,0,0,11.24-4.85l1.25-.82-.27-1.47-3.52-19.4-2.75,1.52a48.35,48.35,0,0,1-8.44,3.81,37.41,37.41,0,0,1-11.82,1.84,26.77,26.77,0,0,1-12.17-2.86c-5.52-2.8-10.18-7.62-13.51-14.3s-5.26-15.21-5.26-25.3c0-12.12,2.9-23,8.26-30.67a28.92,28.92,0,0,1,9.82-9,27.69,27.69,0,0,1,13.45-3.28c9.06,0,15.08,2.57,18.85,5.26l2.74,2,5.09-21.65-1.37-.86a41.72,41.72,0,0,0-10.56-4.46,54.77,54.77,0,0,0-14.75-2.06h0a49.89,49.89,0,0,0-22.18,5c-9.9,4.84-17.8,13-23.17,23.47s-8.28,23.19-8.28,37.3c0,18.66,4.78,34.41,13.47,45.6a45.37,45.37,0,0,0,15.81,13,46.26,46.26,0,0,0,20.6,4.63M91.3,280.62h21.91V156.53H91.3Zm135-241h0A171,171,0,0,0,159.7,368.22,171,171,0,0,0,292.82,53.09a169.85,169.85,0,0,0-66.56-13.44m-131.6,83.1.6-1.55c.22-.56.44-1.12.65-1.67l.23-.59c.31-.82.64-1.68.93-2.55.15-.44.29-.91.41-1.41.5.41,1,.83,1.47,1.27l.21.2-2.76,3.62-.15.2,0,0,0,0c-.6.85-1.11,1.65-1.55,2.42m5.58-1.76.9-2.59c.43.48.83,1,1.2,1.43l-.92.47c-.41.22-.8.45-1.18.69m4.25,3.18c1-.51,2.08-1,3.18-1.45l.26-.12c1.38-.6,2.73-1.22,4-1.81a9.14,9.14,0,0,0,1-.54c.1.79.2,1.63.28,2.47l-3.81.4a21.86,21.86,0,0,0-4.77,1l-.15,0m-1.93,14.56a8.08,8.08,0,0,1-.21-1.26,8.92,8.92,0,0,1,0-1.92,8.65,8.65,0,0,1,.83-2.85,14.51,14.51,0,0,1,.79-1.41,9.66,9.66,0,0,1,2.91-2.81,11.54,11.54,0,0,1,3-1.35h0l.26-.08,3.13-1c0,.1,0,.21,0,.31a19.91,19.91,0,0,1-.64,4.8,11.3,11.3,0,0,1-1.52,3.46,8.2,8.2,0,0,1-2.75,2.58,11.3,11.3,0,0,1-4.39,1.42c-.48.06-1,.09-1.49.13m43.12,38.65,3.45-5.51a42.73,42.73,0,0,1,4.42-5.93,30,30,0,0,1,11.84-8.26,30.44,30.44,0,0,1,10.69-1.86h0a24.82,24.82,0,0,1,17,6.77,35.52,35.52,0,0,1,8.69,12.9l1.6,3.9,2-3.7a45.27,45.27,0,0,1,8.61-11.4,28.91,28.91,0,0,1,21.3-8.47h0A25.71,25.71,0,0,1,251,161.35c5.87,4.57,10.2,11.6,12.87,20.92A93.68,93.68,0,0,1,267.05,208V278.6H249.56V210.67a81,81,0,0,0-1.6-17.06,33.85,33.85,0,0,0-4.84-12.06,17.81,17.81,0,0,0-5-5,16.33,16.33,0,0,0-9-2.48,16,16,0,0,0-6.86,1.57,20.5,20.5,0,0,0-5.84,4.25,32.23,32.23,0,0,0-7.62,13.75h0a44.36,44.36,0,0,0-1.37,10.79V278.6H189.88V206.72a61.29,61.29,0,0,0-1.59-14.57,31.31,31.31,0,0,0-4.71-10.93,17.89,17.89,0,0,0-4.84-4.69,15.45,15.45,0,0,0-8.57-2.42,16.23,16.23,0,0,0-7.46,1.84,21.75,21.75,0,0,0-6.17,4.87,35.67,35.67,0,0,0-7.68,14.84h0v0a36.93,36.93,0,0,0-1.37,10.54V278.6H130V191.15c0-13.44-.23-23.11-.79-32.35v-.26H144.9l.51,12.34ZM331.1,283.09v-2a44.19,44.19,0,0,1-19.71-4.41,43.26,43.26,0,0,1-15.11-12.48c-8.53-11-13-26.34-13-44.37,0-13.57,2.79-26.14,8-36.38s13-18,22.27-22.59a48,48,0,0,1,21.3-4.77,52.14,52.14,0,0,1,14.21,2,40.14,40.14,0,0,1,10.05,4.23l.15.09-4.08,17.33-.3-.22c-3.61-2.56-10-5.62-20-5.63a29.85,29.85,0,0,0-14.42,3.52A31,31,0,0,0,309.94,187c-5.57,8-8.63,19.27-8.62,31.82,0,9.93,1.89,19,5.47,26.2,3.44,6.9,8.42,12.16,14.4,15.2a28.71,28.71,0,0,0,13.08,3.07,39.66,39.66,0,0,0,12.45-1.93,50.82,50.82,0,0,0,8.78-4l.3-.17,3,16.65,0,.16-.13.09a40.62,40.62,0,0,1-10.7,4.6,60.91,60.91,0,0,1-16.91,2.35ZM93.31,158.54h17.88V278.6H93.31Z" transform="translate(-44.21 -28.61)"/><path class="cls-4" d="M114.87,119.47c-.1-.81-.25-1.61-.38-2.41,0-.14,0-.28-.19-.33s-.24.06-.33.15l-.23.25c-.19.18-.38.36-.58.53a10,10,0,0,1-2.1,1.31c-1.3.61-2.62,1.21-3.94,1.79a43.07,43.07,0,0,0-5.37,2.64,12,12,0,0,0-2.8,2.3A9.79,9.79,0,0,0,97,129.11a12.28,12.28,0,0,0-.59,3.36,14.29,14.29,0,0,0,.28,3.4c.17.78.4,1.54.6,2.3.09.34.2.68.3,1,0,.11.1.23.23.21s.09-.16.09-.26c0-.38,0-.77,0-1.15a19.26,19.26,0,0,1,.18-3.22,12.54,12.54,0,0,1,1-3.57,9.23,9.23,0,0,1,2.81-3.45,11.63,11.63,0,0,1,3.36-1.72,19.41,19.41,0,0,1,4.33-.91l-.27.08a13.28,13.28,0,0,0-3.52,1.59,11.77,11.77,0,0,0-3.5,3.39,15.79,15.79,0,0,0-.9,1.61,11.43,11.43,0,0,0-1.08,5.87,10.14,10.14,0,0,0,.55,2.51,1,1,0,0,0,.2.3,1.17,1.17,0,0,0,1,.3c.73,0,1.45-.09,2.17-.18a13.37,13.37,0,0,0,5.17-1.67,10.41,10.41,0,0,0,3.41-3.2,13.84,13.84,0,0,0,1.79-4.06,22.29,22.29,0,0,0,.7-5.27c0-1,0-2-.07-3-.1-1.3-.26-2.6-.42-3.89" transform="translate(-44.21 -28.61)"/><path class="cls-4" d="M96.43,139l.28.07v-.3c-.17-.61-.35-1.21-.53-1.8a2.85,2.85,0,0,0-.2-.51c-.15-.28-.31-.54-.46-.82A10.49,10.49,0,0,1,94.28,131a12.07,12.07,0,0,1,.94-4.79,22.92,22.92,0,0,1,2.64-4.69l.14-.2-.08.26a20.54,20.54,0,0,0-1.32,3.08,12.16,12.16,0,0,0-.65,4c0,.08,0,.16,0,.26l.08-.06,0-.12A9.49,9.49,0,0,1,98,125.53a14.87,14.87,0,0,1,4.39-3.45c.83-.45,1.69-.84,2.53-1.25.32-.16.35-.28.17-.58a21.59,21.59,0,0,0-2.75-3.52c-.64-.68-1.32-1.32-2-2a48.51,48.51,0,0,0-3.8-3.1l-.24-.15c-.18-.08-.32,0-.35.21V112a11.67,11.67,0,0,1-.14,1.45,18.74,18.74,0,0,1-.62,2.34c-.34,1-.74,2-1.13,3.06-.55,1.43-1.12,2.85-1.65,4.28a25.05,25.05,0,0,0-1.23,4.45,10.73,10.73,0,0,0,2.45,9A12.6,12.6,0,0,0,96.43,139" transform="translate(-44.21 -28.61)"/><path class="cls-4" d="M143.93,320.47c-.11.72-.22,1.36-.34,1.91a1.64,1.64,0,0,1-.07.25l0,.07h0a1.3,1.3,0,0,1-.35.09h0a12,12,0,0,1-2.32.2q-.41,0-1.5-.06c0-.29,0-.87,0-1.73,0-1,0-2.08,0-3.14,0-2,0-3.06,0-3.19,0-1.24,0-2.26,0-3.07,0-.41,0-.72,0-.95s0-.2,0-.26l0-.12c0-.07.05-.11.08-.12a.91.91,0,0,1,.35-.1c.2,0,.46-.06.79-.08h.15V308.9h-.16c-1,.05-2,.07-3,.07s-1.82,0-2.56-.07h-.17v1.29H135c.38,0,.68.05.9.08l.25.06c.07,0,.11,0,.11.05h0a.13.13,0,0,1,.07.1s0,.12,0,.24c0,.36.06,1.07.07,2.1,0,.55,0,2,0,4.31,0,1.59,0,2.94,0,4.07,0,.57,0,1,0,1.34s0,.54,0,.61h0l0,.06h0a.88.88,0,0,1-.19.17h0a5.58,5.58,0,0,1-.63.41l-.08.05v.83h.16c1.18-.07,2.06-.1,2.63-.1.38,0,1.06,0,2,0l2.08.06c.76,0,1.32,0,1.69-.06h0a2.65,2.65,0,0,0,.54-.13l.1,0v-.11c0-.14,0-.56.08-1.26l.22-2.24h0s0-.15,0-.35l0-.18h-1Z" transform="translate(-44.21 -28.61)"/><path class="cls-4" d="M148.91,312.07a1.35,1.35,0,0,0,1.09-.56,2.17,2.17,0,0,0,0-2.59,1.37,1.37,0,0,0-1.09-.56,1.36,1.36,0,0,0-1.08.56,2,2,0,0,0-.43,1.29,2,2,0,0,0,.43,1.31,1.36,1.36,0,0,0,1.08.55" transform="translate(-44.21 -28.61)"/><path class="cls-4" d="M150.75,323.44a1.16,1.16,0,0,1-.36-.1l0,0a.43.43,0,0,1,0-.11h0c0-.09,0-.34,0-.72s0-.88,0-1.52v-3.76c0-1,0-2.09.1-3.23v-.09l-.37-.25-.08,0a8.7,8.7,0,0,1-1.46.6,14.66,14.66,0,0,1-2,.37l-.13,0v1.13h.15a5.61,5.61,0,0,1,.8,0l.22,0,.09,0h0a.51.51,0,0,1,.06.19h0c0,.06,0,.2,0,.4,0,.61,0,1.78,0,3.51s0,2.72-.08,3.1h0c0,.17-.07.25-.12.28l-.08,0a7.08,7.08,0,0,1-1,.13l-.14,0v1.12h.16c.65,0,1.4-.05,2.24-.05,1,0,1.9,0,2.73.05h.17v-1.18h-.15c-.3,0-.55,0-.73-.07" transform="translate(-44.21 -28.61)"/><path class="cls-4" d="M158.52,308a2.05,2.05,0,0,0-.83.17,2.46,2.46,0,0,0-.64.47h0L156,309.85a11.84,11.84,0,0,0-1.31,1.6h0a2.38,2.38,0,0,0-.28.66,6.73,6.73,0,0,0-.12,1.12c0,.51,0,.94,0,1.29a.18.18,0,0,1-.06.15h0l-.1.07-1.11.72-.07.05v.79l1.36-.07h.09v3.17c0,1,0,1.81,0,2.41s0,1-.05,1.18h0a.5.5,0,0,1-.11.33l-.11.05a4.9,4.9,0,0,1-1,.16h-.14v1.15H153l2.4-.06,3.18.06v-1.16h-.14l-.88-.09-.23,0h-.08a.5.5,0,0,1-.22-.1.38.38,0,0,1-.1-.19,3.09,3.09,0,0,1,0-.4c0-.21,0-.49,0-.85,0-.71,0-1.46,0-2.25v-3.38l.77,0,.43,0h0l1,0,.17-1.12h0c0-.13,0-.25.07-.37l0-.09-.18-.17,0-.05H159c-.37,0-.81.07-1.31.08h-.88v-1.38c0-.59,0-1.06,0-1.43A4.88,4.88,0,0,1,157,311a.69.69,0,0,1,.23-.39,1.11,1.11,0,0,1,.71-.21,1.23,1.23,0,0,1,.52.1,1.45,1.45,0,0,1,.44.39l.09.1.55-.31v-.1c0-.07,0-.15,0-.22a17.72,17.72,0,0,1,.13-2v-.12l-.11,0a2.59,2.59,0,0,0-1-.21" transform="translate(-44.21 -28.61)"/><path class="cls-4" d="M167,314.36a3.15,3.15,0,0,0-2.05-.66,3.18,3.18,0,0,0-1.54.36,9.87,9.87,0,0,0-1.1.82l-.61.51a2.67,2.67,0,0,0-.34.34,3.21,3.21,0,0,0-.52,1.21h0a10.13,10.13,0,0,0-.32,2.63,9.84,9.84,0,0,0,.17,1.87,4.86,4.86,0,0,0,.53,1.53,4.68,4.68,0,0,0,.86,1.12,3.82,3.82,0,0,0,1.2.73,5,5,0,0,0,3,.07h0a5.59,5.59,0,0,0,1.54-.85l0,0,.43-1.21,0-.06-.3-.44-.13.08a5.2,5.2,0,0,1-1.08.55,2.75,2.75,0,0,1-.88.13,2.23,2.23,0,0,1-1.84-.95,4.43,4.43,0,0,1-.83-2.5h1.88c.73,0,1.32,0,1.77-.08a5.34,5.34,0,0,0,.84-.16,5.74,5.74,0,0,0,.69-.2l.09,0V319c0-.2,0-.4,0-.61a7.92,7.92,0,0,0-.32-2.38,3.48,3.48,0,0,0-1.13-1.65m-3.92,3.75V318a4.16,4.16,0,0,1,.4-2.11,1.61,1.61,0,0,1,.46-.5,1.07,1.07,0,0,1,.55-.16,1,1,0,0,1,.53.15,1.53,1.53,0,0,1,.43.47,4.52,4.52,0,0,1,.36,2.12v.13a7.25,7.25,0,0,1-1.14.08,11.87,11.87,0,0,1-1.59-.08" transform="translate(-44.21 -28.61)"/><path class="cls-4" d="M176.35,318.88a2.31,2.31,0,0,0-.83-.63h0a8.34,8.34,0,0,0-1.35-.39,10.68,10.68,0,0,1-1.32-.37.85.85,0,0,1-.47-.37,1.46,1.46,0,0,1-.16-.79,1.25,1.25,0,0,1,.36-.9,1.41,1.41,0,0,1,1-.37,1.8,1.8,0,0,1,.87.2,1.58,1.58,0,0,1,.6.58,6.85,6.85,0,0,1,.1.91h0c0,.2,0,.33,0,.42v.14l1,0v-.16c0-1,.06-1.61.08-1.87s0-.52.08-.78v0l0-.14,0-.06-.05,0a3.89,3.89,0,0,0-1.14-.49,5.76,5.76,0,0,0-1.36-.16,3.54,3.54,0,0,0-2.76,1.07,4.17,4.17,0,0,0-.67,4.19,2.3,2.3,0,0,0,.85,1,6.07,6.07,0,0,0,1.53.6,12.94,12.94,0,0,1,1.29.41,1.24,1.24,0,0,1,.52.49,1.65,1.65,0,0,1,.13.7,1.59,1.59,0,0,1-.4,1.1,1.46,1.46,0,0,1-1.16.44,1.86,1.86,0,0,1-1-.27,2.64,2.64,0,0,1-.81-.82c0-.22-.06-.73-.08-1.51v-.15h-1V321l-.05,1.86q0,.35-.09,1.2v0l.12.2,0,0,.05,0a8.26,8.26,0,0,0,1.45.51,5.18,5.18,0,0,0,1.24.14,3.83,3.83,0,0,0,3-1.18A4.13,4.13,0,0,0,177,321a4.2,4.2,0,0,0-.16-1.2,2.64,2.64,0,0,0-.48-.93" transform="translate(-44.21 -28.61)"/><path class="cls-4" d="M183.78,322.53l-.14,0a3.2,3.2,0,0,1-.45.1,1.32,1.32,0,0,1-.3,0h-.16a.82.82,0,0,1-.64-.24,1.19,1.19,0,0,1-.25-.72h0c0-.19,0-.87,0-2V316.2h.7l.87,0h0l.23,0,.11,0,.18-1.82-.21,0a10.5,10.5,0,0,1-1.75.11h-.12l.07-1.77h0l.06-1.27.09-1.22-.37-.36-.1.06-.82.48-.22.12-.05,0h0l-1.11.47-.11,0v.12c.05.77.07,1.43.07,1.95v1.41a2.7,2.7,0,0,1-.31.28l-.86.68v.74h.17c.29,0,.6,0,.92,0h.08v2.57l0,3.65h0a2.54,2.54,0,0,0,.63,1.75,2.22,2.22,0,0,0,1.73.71,2.32,2.32,0,0,0,.59-.07,2.43,2.43,0,0,0,.66-.26l0,0,0,0,.69-.88.37-.46Z" transform="translate(-44.21 -28.61)"/><path class="cls-4" d="M192.34,314c-.57,0-1,0-1.41,0l-.17,0v1.2h.15a3.32,3.32,0,0,1,.81.08.24.24,0,0,1,.14.07.55.55,0,0,1,0,.09,3,3,0,0,1-.06.41c-.14.61-.5,1.77-1.07,3.47l-.62,1.84L189,317.38l-.43-1.49h0a1.79,1.79,0,0,1-.08-.44.19.19,0,0,1,.08-.16,1,1,0,0,1,.59-.12h.43V314h-.16c-.77,0-1.65,0-2.65,0-.83,0-1.54,0-2.11,0h-.17v1.2h.23a1.09,1.09,0,0,1,.7.14,1,1,0,0,1,.2.3,4,4,0,0,1,.24.64l2.86,9.14-.34,1a5.16,5.16,0,0,1-.83,1.66,1,1,0,0,1-.74.34,1.37,1.37,0,0,1-.66-.16,2.56,2.56,0,0,1-.46-.47l-.07-.08-.43.1L185,329c0,.2-.09.58-.19,1.12l0,.12.1.05a2.91,2.91,0,0,0,.69.25,2.81,2.81,0,0,0,.67.07,2.42,2.42,0,0,0,1.91-.9h0a8.7,8.7,0,0,0,1.42-2.88l1.42-4.34h0q.27-.79,1.26-3.6c.21-.6.49-1.37.84-2.3.13-.35.24-.63.32-.83s.08-.18.11-.24.05-.1.05-.11a.47.47,0,0,1,.18-.17h0a.63.63,0,0,1,.33-.09h.34V314h-.17c-.6,0-1.24,0-1.94,0" transform="translate(-44.21 -28.61)"/><path class="cls-4" d="M199.82,323.44l-.17,0h-.07a.38.38,0,0,1-.2-.08h0l0-.07h0a.41.41,0,0,1,0-.14,2.77,2.77,0,0,1,0-.33c0-.27,0-1.07-.06-2.39,0-.53,0-1.33,0-2.4v-2.83c0-1.82,0-3.35,0-4.6h0l.07-2.32L199,308l-.08,0a16,16,0,0,1-1.75.6,15.7,15.7,0,0,1-1.73.31l-.14,0v1.1h.15l.53,0,.25,0a.52.52,0,0,1,.26.09h0a.1.1,0,0,1,0,.05.45.45,0,0,1,0,.08c0,.14,0,.4.06.79,0,.95.06,2,.06,3.16V318c0,.91,0,1.95,0,3.12,0,.58,0,1.05,0,1.39a4.71,4.71,0,0,1,0,.67h0a.44.44,0,0,1-.06.18.31.31,0,0,1-.12.07,1.59,1.59,0,0,1-.31,0l-.67,0h-.15v1.2h.16c1-.06,1.91-.09,2.71-.09s1.56,0,2.29.09h.18v-1.21h-.15l-.64,0" transform="translate(-44.21 -28.61)"/><path class="cls-4" d="M208.57,314.36a3.48,3.48,0,0,0-3.58-.3,8.91,8.91,0,0,0-1.11.82l-.61.51a3.25,3.25,0,0,0-.33.34,3.36,3.36,0,0,0-.53,1.21h0a10.15,10.15,0,0,0-.31,2.63,9.88,9.88,0,0,0,.16,1.87,5.13,5.13,0,0,0,.54,1.53,4.44,4.44,0,0,0,.86,1.12,3.67,3.67,0,0,0,1.19.73,4.44,4.44,0,0,0,1.6.26,4.38,4.38,0,0,0,1.36-.19h0a5.73,5.73,0,0,0,1.54-.85l0,0,.44-1.21-.05-.06-.3-.44-.13.08a5,5,0,0,1-1.08.55,2.71,2.71,0,0,1-.88.13,2.23,2.23,0,0,1-1.84-.95,4.35,4.35,0,0,1-.82-2.5h1.88c.72,0,1.31,0,1.76-.08a5.14,5.14,0,0,0,.84-.16,5.23,5.23,0,0,0,.69-.2l.1,0V319c0-.2,0-.4,0-.61a7.62,7.62,0,0,0-.32-2.38,3.48,3.48,0,0,0-1.13-1.65m-3.92,3.75V318a4.14,4.14,0,0,1,.41-2.11,1.5,1.5,0,0,1,.46-.5,1,1,0,0,1,.54-.16,1,1,0,0,1,.53.15,1.55,1.55,0,0,1,.44.47,4.52,4.52,0,0,1,.36,2.12v.13a7.48,7.48,0,0,1-1.15.08,12,12,0,0,1-1.59-.08" transform="translate(-44.21 -28.61)"/><polygon class="cls-4" points="178.34 282.44 176.16 282.44 176.16 286.89 172.22 286.89 172.22 289.2 176.16 289.2 176.16 293.61 178.34 293.61 178.34 289.2 182.27 289.2 182.27 286.89 178.34 286.89 178.34 282.44"/><path class="cls-4" d="M244.68,309c-.59,0-1.25,0-2-.07h-.17v1.26h.16a9,9,0,0,1,.91.06l.26.06.1.05a.54.54,0,0,1,.06.13,1.66,1.66,0,0,1,.05.31h0c0,.34.06,1.09.08,2.26s0,2.74,0,4.72v2.09q-1.16-1.53-2.81-4-2.59-3.88-4.42-6.85l-.05-.08-.9,0-1.28,0c-.35,0-.9,0-1.65-.07h-.17v1.25h.15l.75.07a2.78,2.78,0,0,1,.35.06.42.42,0,0,1,.2.13.83.83,0,0,1,.1.29c0,.14,0,.49,0,1l0,3.21v3.55c0,1,0,1.77,0,2.38h0c0,1.07-.09,1.75-.12,2a2.42,2.42,0,0,1,0,.24c0,.06,0,.1,0,.1h0a.32.32,0,0,1-.09.08l-.1,0c-.17,0-.53.06-1.05.09h-.15v1.25h.17c1-.05,1.75-.07,2.32-.07l1.91,0h.16v-1.23l-.17,0h-.16a6.11,6.11,0,0,1-.82-.09.27.27,0,0,1-.29-.21h0a4.1,4.1,0,0,1-.05-.5c0-.26,0-.6,0-1,0-1.24-.05-2.43-.05-3.57v-5q5,7.67,7.82,11.55l0,.05h.07l1.51.29.07,0,.18-.15.06-.06v-.08c-.08-1-.11-4-.11-8.91,0-.62,0-1.59,0-2.91,0-.65,0-1.19.06-1.61a6.78,6.78,0,0,1,.1-.88c0-.05,0-.07,0-.08h0a.83.83,0,0,1,.35-.1,7.4,7.4,0,0,1,.84-.06h.15V308.9h-.17c-.91.05-1.67.07-2.25.07" transform="translate(-44.21 -28.61)"/><path class="cls-4" d="M257.86,323.42l-.2,0-.08,0a.28.28,0,0,1-.07-.18,5.57,5.57,0,0,1-.06-.84c0-.41,0-.95,0-1.63v-2.26c0-.17,0-1,.07-2.42l.1-2.12-.31-.22-.08,0a15.77,15.77,0,0,1-1.66.6q-.48.13-1.86.36l-.13,0v1.12h.15l.74.06.21,0h.08c.06,0,.08.05.09.07h0l0,.07a5.86,5.86,0,0,1,0,.78h0l0,1.57v1.89c0,.29,0,.54,0,.73a1.72,1.72,0,0,1-.07.4,2.21,2.21,0,0,1-.56.8,1.34,1.34,0,0,1-1,.37,1,1,0,0,1-.78-.3,1.71,1.71,0,0,1-.38-1h0c0-.34-.06-1-.06-2.09V318c0-1.24,0-2.58.12-4v-.07l-.18-.17-.07-.08-.1,0a14.63,14.63,0,0,1-1.95.7,8.07,8.07,0,0,1-1.51.25h-.14v1.14h.15c.28,0,.51,0,.67.05l.19,0,.08,0a.33.33,0,0,1,.15.16,1,1,0,0,1,0,.22c0,.13,0,.3,0,.51h0l0,2.33c0,.6,0,1.09,0,1.46h0c0,.71,0,1.11,0,1.23a3.48,3.48,0,0,0,.72,2.28,2.46,2.46,0,0,0,2,.87,3,3,0,0,0,1.3-.29h0l1-1.21.32-.34v.45l-.06.9.09.14.05.07,1.76-.06,2,.06v-1.2h-.15c-.3,0-.54,0-.72-.06" transform="translate(-44.21 -28.61)"/><path class="cls-4" d="M265.35,322.53l-.15,0a2.69,2.69,0,0,1-.45.1,1.19,1.19,0,0,1-.29,0h-.17a.8.8,0,0,1-.63-.24,1.13,1.13,0,0,1-.26-.72h0c0-.19,0-.87,0-2V316.2h.7l.87,0h0l.23,0,.11,0,.19-1.82-.21,0a10.59,10.59,0,0,1-1.75.11h-.13l.07-1.77h0l.06-1.27.1-1.22-.37-.36-.1.06-.83.48-.21.12-.06,0h0l-1.11.47-.1,0v.12c0,.77.07,1.43.07,1.95v1.41a2.79,2.79,0,0,1-.32.28l-.85.68v.74h.17c.29,0,.6,0,.92,0h.08v2.57l0,3.65h0a2.54,2.54,0,0,0,.63,1.75,2.24,2.24,0,0,0,1.73.71,2.32,2.32,0,0,0,.59-.07,2.43,2.43,0,0,0,.66-.26l0,0,0,0,.68-.88.37-.46Z" transform="translate(-44.21 -28.61)"/><path class="cls-4" d="M272.41,313.65a1.4,1.4,0,0,0-.94.3h0a4.61,4.61,0,0,0-.72.9h0c-.14.23-.34.51-.59.84l0-1.86-.4-.22-.08.05a5.79,5.79,0,0,1-1.11.51c-.32.11-1,.28-2.1.51l-.13,0v1.14h.16c.27,0,.49,0,.65,0a1.07,1.07,0,0,1,.29.05h0a.14.14,0,0,1,.07.06.83.83,0,0,1,0,.22c0,.13,0,.3,0,.52,0,.94.06,1.73.06,2.38v1.45c0,.46,0,.8,0,1h0l0,1h0a2.37,2.37,0,0,1-.08.73.2.2,0,0,1-.11.11h0a2.55,2.55,0,0,1-.89.11h-.16v1.17h.17c1,0,1.93-.06,2.84-.06s1.56,0,2.23.06h.16v-1.16l-.14,0-.72-.09h0a1.49,1.49,0,0,1-.36-.06.46.46,0,0,1-.16-.06.31.31,0,0,1-.13-.21c0-.05,0-.17,0-.34s0-.39,0-.68l0-1.5v-1.1c0-.55,0-1,0-1.28a5.46,5.46,0,0,1,0-.57,1.42,1.42,0,0,1,.41-.74,1,1,0,0,1,.78-.35,1,1,0,0,1,.63.2,1.79,1.79,0,0,1,.38.46l.07.12.58-.23V317c0-.14,0-.62.05-1.48l.05-1.67-.09,0a1.45,1.45,0,0,0-.66-.14" transform="translate(-44.21 -28.61)"/><path class="cls-4" d="M276.51,312.07a1.35,1.35,0,0,0,1.09-.56,2.17,2.17,0,0,0,0-2.59,1.37,1.37,0,0,0-1.09-.56,1.36,1.36,0,0,0-1.08.56,2,2,0,0,0-.43,1.29,2,2,0,0,0,.43,1.31,1.36,1.36,0,0,0,1.08.55" transform="translate(-44.21 -28.61)"/><path class="cls-4" d="M278.35,323.44a1.16,1.16,0,0,1-.36-.1l0,0a.53.53,0,0,1,0-.11h0c0-.09,0-.34-.05-.72s0-.88,0-1.52v-3.76c0-1,0-2.09.1-3.23v-.09l-.37-.25-.08,0a8.7,8.7,0,0,1-1.46.6,14.66,14.66,0,0,1-2,.37l-.13,0v1.13h.15a5.61,5.61,0,0,1,.8,0l.22,0,.09,0h0a.51.51,0,0,1,.06.19h0c0,.06,0,.2,0,.4,0,.61.05,1.78.05,3.51s0,2.72-.09,3.1h0c0,.17-.07.25-.12.28l-.08,0a7.08,7.08,0,0,1-1,.13l-.14,0v1.12h.16c.65,0,1.4-.05,2.24-.05,1,0,1.9,0,2.74.05h.16v-1.18h-.15c-.3,0-.55,0-.73-.07" transform="translate(-44.21 -28.61)"/><path class="cls-4" d="M285.85,322.53l-.15,0a3.2,3.2,0,0,1-.45.1,1.19,1.19,0,0,1-.29,0h-.17a.78.78,0,0,1-.63-.24,1.13,1.13,0,0,1-.26-.72h0c0-.19,0-.87,0-2V316.2h.7l.87,0h0l.23,0,.11,0,.18-1.82-.2,0a10.59,10.59,0,0,1-1.75.11h-.13l.07-1.77h0l.06-1.27.1-1.22-.37-.36-.11.06-.82.48-.21.12-.06,0h0l-1.11.47-.1,0v.12c.05.77.08,1.43.08,1.95v1.41a2.79,2.79,0,0,1-.32.28l-.85.68v.74h.17c.29,0,.59,0,.91,0h.09v2.57l0,3.65h0a2.54,2.54,0,0,0,.63,1.75,2.24,2.24,0,0,0,1.73.71,2.32,2.32,0,0,0,.59-.07,2.43,2.43,0,0,0,.66-.26l0,0,0,0,.68-.88.37-.46Z" transform="translate(-44.21 -28.61)"/><path class="cls-4" d="M291.33,323.44a1.16,1.16,0,0,1-.35-.1l0,0a.43.43,0,0,1,0-.11h0a5.26,5.26,0,0,1-.05-.72c0-.37,0-.88,0-1.52v-3.76c0-1,0-2.09.11-3.23v-.09l-.37-.25-.08,0a8.7,8.7,0,0,1-1.46.6,14.66,14.66,0,0,1-2,.37l-.14,0v1.13h.16a5.61,5.61,0,0,1,.8,0l.22,0,.09,0h0a.58.58,0,0,1,.05.19h0a2.11,2.11,0,0,1,0,.4c0,.61,0,1.78,0,3.51s0,2.72-.08,3.1h0a.45.45,0,0,1-.12.28l-.09,0a7.1,7.1,0,0,1-1,.13l-.15,0v1.12h.17c.65,0,1.39-.05,2.24-.05s1.9,0,2.73.05h.17v-1.18h-.15c-.31,0-.55,0-.74-.07" transform="translate(-44.21 -28.61)"/><path class="cls-4" d="M289.5,312.07a1.33,1.33,0,0,0,1.08-.56,2.17,2.17,0,0,0,0-2.59,1.36,1.36,0,0,0-1.08-.56,1.37,1.37,0,0,0-1.09.56,2.2,2.2,0,0,0,0,2.6,1.35,1.35,0,0,0,1.08.55" transform="translate(-44.21 -28.61)"/><path class="cls-4" d="M298.16,313.56a4.69,4.69,0,0,0-2.47.64,4,4,0,0,0-1.61,1.94,8.31,8.31,0,0,0-.52,3.17,6.93,6.93,0,0,0,1.12,4.28,3.78,3.78,0,0,0,3.21,1.48,4.54,4.54,0,0,0,2.29-.59h0a4.13,4.13,0,0,0,1.14-1.05,5.22,5.22,0,0,0,.86-1.82,9.42,9.42,0,0,0,.32-2.63,6.38,6.38,0,0,0-1.1-4,3.89,3.89,0,0,0-3.24-1.39m.59,9.94a1.31,1.31,0,0,1-1.25,0,1.49,1.49,0,0,1-.5-.57,9.06,9.06,0,0,1-.67-4.11,9.81,9.81,0,0,1,.21-2.36,2.32,2.32,0,0,1,.57-1.1,1.21,1.21,0,0,1,.83-.31,1.22,1.22,0,0,1,.94.43,3.3,3.3,0,0,1,.63,1.6,15.92,15.92,0,0,1,.22,2.88,6.34,6.34,0,0,1-.54,3.16,1.34,1.34,0,0,1-.44.42" transform="translate(-44.21 -28.61)"/><path class="cls-4" d="M314.22,323.52l-.5-.06h0a1,1,0,0,1-.3,0,.39.39,0,0,1-.13-.06.38.38,0,0,1-.06-.14,1.94,1.94,0,0,1-.05-.33c0-.28-.05-1.06-.05-2.3v-1.14a2.91,2.91,0,0,1,0-.31h0c0-.24,0-.77,0-1.61a7.62,7.62,0,0,0-.14-1.68,3.47,3.47,0,0,0-.48-1.06,2.49,2.49,0,0,0-.86-.79,3.07,3.07,0,0,0-1.5-.29,2.38,2.38,0,0,0-.59.06,2.17,2.17,0,0,0-.52.2h0l-1.36,1.36v-1.49l-.39-.22-.08.05a5.58,5.58,0,0,1-1.12.51q-.48.17-2.1.51l-.12,0v1.14H304c.28,0,.5,0,.66,0a1,1,0,0,1,.28.05h0a.22.22,0,0,1,.07.06,1.08,1.08,0,0,1,0,.22c0,.13,0,.3,0,.52,0,.94.05,1.73.05,2.38v1.45c0,.46,0,.8,0,1h0l0,1h0a2.27,2.27,0,0,1-.09.73.16.16,0,0,1-.1.11h0a2.55,2.55,0,0,1-.89.11h-.16v1.17H304c.59,0,1.42-.05,2.5-.05s1.72,0,2.36.05h.17v-1.16h-.15l-.5-.06-.22,0a.84.84,0,0,1-.35-.13h0a.32.32,0,0,1-.06-.11h0a1.09,1.09,0,0,1,0-.22c0-.1,0-.24,0-.41h0c0-.78,0-1.44,0-2v-1.86h0v-.36c0-.4,0-.72,0-.95s0-.21,0-.28l0-.13a1.47,1.47,0,0,1,.47-.67,1.3,1.3,0,0,1,.92-.33,1.2,1.2,0,0,1,.88.32,1.75,1.75,0,0,1,.45.9,17.89,17.89,0,0,1,.11,2.51v.87l0,1.81c-.06,1.12-.1,1.76-.11,1.91v.06l.25.32h.09a11.09,11.09,0,0,1,1.51-.08c.5,0,1.15,0,1.95.08h.17v-1.16Z" transform="translate(-44.21 -28.61)"/></g></svg>