<svg id="Layer_1" data-name="Layer 1" xmlns="http://www.w3.org/2000/svg" xmlns:xlink="http://www.w3.org/1999/xlink" viewBox="0 0 364.09 364.09"><defs><style>.cls-1{fill:none;}.cls-2{clip-path:url(#clip-path);}.cls-3{fill:#6aaa37;}.cls-4{fill:#fff;}</style><clipPath id="clip-path" transform="translate(-19.05 -9.94)"><rect class="cls-1" x="-25.17" y="-18.67" width="444.88" height="429.21"/></clipPath></defs><title>mini_logo</title><g class="cls-2"><path class="cls-3" d="M329.11,64a181.05,181.05,0,1,0,53,128,180.49,180.49,0,0,0-53-128m-4,252a175.39,175.39,0,1,1,51.36-124,174.84,174.84,0,0,1-51.36,124" transform="translate(-19.05 -9.94)"/><path class="cls-4" d="M201.1,374h0A182.1,182.1,0,0,1,130.23,24.25,181,181,0,0,1,201.09,9.94h0A182.1,182.1,0,0,1,272,359.73,181,181,0,0,1,201.1,374m0-362.09A180.09,180.09,0,0,0,131,357.88,179,179,0,0,0,201.09,372h0A180.08,180.08,0,0,0,271.17,26.1,178.88,178.88,0,0,0,201.09,12m0,356.42h0a176.42,176.42,0,0,1-68.65-338.9A175.2,175.2,0,0,1,201.09,15.6h0a176.43,176.43,0,0,1,68.66,338.91,175.23,175.23,0,0,1-68.65,13.86m0-350.75a174.42,174.42,0,0,0-67.87,335A174.42,174.42,0,0,0,269,31.32a173.37,173.37,0,0,0-67.88-13.7" transform="translate(-19.05 -9.94)"/><polygon class="cls-4" points="170.91 134.22 170.92 134.22 170.92 134.22 170.91 134.22"/><path class="cls-4" d="M201.09,23A169,169,0,1,1,81.6,72.49,168.46,168.46,0,0,1,201.09,23m84.24,236.8a46.28,46.28,0,0,0,20.6,4.62m22.61-102,2.74,1.95,5.1-21.65-1.37-.86a42,42,0,0,0-10.57-4.45,54.74,54.74,0,0,0-14.74-2.07h0a50.07,50.07,0,0,0-22.19,5m18.43,124.05h0A62.87,62.87,0,0,0,323.42,262a42.89,42.89,0,0,0,11.23-4.84l1.25-.82-.26-1.48-3.53-19.39L329.36,237a48.56,48.56,0,0,1-8.43,3.82M66.13,262H88V137.86H66.13Z" transform="translate(-19.05 -9.94)"/><path class="cls-4" d="M88,262H66.13V137.86H88Zm1.68-125.76H64.45V263.63H89.72V136.19Z" transform="translate(-19.05 -9.94)"/><path class="cls-3" d="M320.59,72.49A169,169,0,1,0,370.09,192a168.48,168.48,0,0,0-49.5-119.5" transform="translate(-19.05 -9.94)"/><path class="cls-4" d="M301.23,135.23c-.85-6.89-2.14-13.7-3.25-20.55-.19-1.17-.45-2.37-1.65-2.79s-2,.48-2.79,1.27l-2,2.14c-1.61,1.52-3.21,3.07-4.91,4.47A85.92,85.92,0,0,1,268.69,131c-11.17,5.2-22.36,10.36-33.64,15.27-15.59,6.8-31.21,13.47-45.88,22.53-8.75,5.4-16.92,11.61-23.92,19.63a84.57,84.57,0,0,0-16.34,29.12,101.52,101.52,0,0,0-5,28.76,118.69,118.69,0,0,0,2.38,29c1.43,6.61,3.36,13.08,5.11,19.61.79,2.92,1.68,5.81,2.56,8.69.3,1,.82,2,1.92,1.86s.84-1.42.81-2.23c-.11-3.3-.37-6.59-.46-9.88A165.91,165.91,0,0,1,157.82,266a105.06,105.06,0,0,1,8.9-30.47,78.86,78.86,0,0,1,24-29.5,99.33,99.33,0,0,1,28.71-14.73,168.21,168.21,0,0,1,36.94-7.74l-2.24.71A114.56,114.56,0,0,0,224,197.79a99.55,99.55,0,0,0-29.84,29,133.14,133.14,0,0,0-7.74,13.71,97.23,97.23,0,0,0-9.2,50.19A85.73,85.73,0,0,0,181.92,312a7.81,7.81,0,0,0,1.67,2.57c2.44,2.67,5.63,2.72,8.73,2.55,6.19-.34,12.39-.71,18.54-1.47,15.46-1.89,30.29-6.25,44.1-14.34a87.88,87.88,0,0,0,29.13-27.26,116.13,116.13,0,0,0,15.29-34.67,187.29,187.29,0,0,0,6-45.07c.19-8.61.05-17.27-.6-25.86-.83-11.12-2.19-22.19-3.57-33.25" transform="translate(-19.05 -9.94)"/><path class="cls-4" d="M143.73,302.13l2.41.61-.07-2.58q-2.15-7.73-4.45-15.39a24.17,24.17,0,0,0-1.75-4.31c-1.24-2.37-2.68-4.63-3.93-7a89.91,89.91,0,0,1-10.57-40c-.34-14.34,2.76-27.9,8-40.93,5.81-14.5,13.75-27.6,22.54-40.11l1.26-1.66L156.4,153a172.51,172.51,0,0,0-11.19,26.32c-3.52,11-5.84,22.24-5.56,34,0,.66.12,1.34.21,2.27l.68-.52L141,214c3.44-10.3,9.12-19,15.91-26.92a127.56,127.56,0,0,1,37.5-29.51c7.13-3.79,14.43-7.17,21.66-10.7,2.66-1.29,3-2.36,1.39-5a183.27,183.27,0,0,0-23.45-30c-5.51-5.8-11.3-11.29-17.13-16.68-10.32-9.54-21.34-18-32.45-26.44l-2-1.27c-1.54-.68-2.69,0-3,1.82l-.09,1.83c-.35,4.14-.31,8.37-1.16,12.38a185.68,185.68,0,0,1-5.29,20c-2.93,8.82-6.36,17.44-9.67,26.1-4.68,12.22-9.58,24.33-14.13,36.62a208,208,0,0,0-10.49,38A94.25,94.25,0,0,0,98.38,236a93.19,93.19,0,0,0,21.15,44.87,108,108,0,0,0,24.2,21.27" transform="translate(-19.05 -9.94)"/></g></svg>