<svg id="Layer_1" data-name="Layer 1" xmlns="http://www.w3.org/2000/svg" xmlns:xlink="http://www.w3.org/1999/xlink" viewBox="0 0 1483.81 364.09"><defs><style>.cls-1{fill:none;}.cls-2{clip-path:url(#clip-path);}.cls-3{fill:#6aaa37;}.cls-4{fill:#fff;}</style><clipPath id="clip-path" transform="translate(-14.21 -8.61)"><rect class="cls-1" x="-30" y="-20" width="444.88" height="429.21"/></clipPath></defs><title>rect_logo</title><g class="cls-2"><path class="cls-3" d="M324.28,62.64a181.05,181.05,0,1,0,53,128,180.5,180.5,0,0,0-53-128m-4,252a175.38,175.38,0,1,1,51.37-124,174.8,174.8,0,0,1-51.37,124" transform="translate(-14.21 -8.61)"/><path class="cls-4" d="M196.27,372.7h0A182.09,182.09,0,0,1,125.4,22.92,180.79,180.79,0,0,1,196.26,8.61h0a182.09,182.09,0,0,1,70.86,349.78,180.74,180.74,0,0,1-70.85,14.31m0-362.08a180.08,180.08,0,0,0-70.08,345.92,178.92,178.92,0,0,0,70.08,14.15h0A180.08,180.08,0,0,0,266.34,24.77a178.92,178.92,0,0,0-70.08-14.15m0,356.42h0A176.43,176.43,0,0,1,127.6,28.13a175.27,175.27,0,0,1,68.66-13.86h0a176.43,176.43,0,0,1,68.66,338.91A175.27,175.27,0,0,1,196.26,367m0-350.76a174.42,174.42,0,0,0-67.87,335A174.42,174.42,0,0,0,264.13,30a173.15,173.15,0,0,0-67.87-13.71" transform="translate(-14.21 -8.61)"/><polygon class="cls-4" points="170.91 134.22 170.92 134.22 170.92 134.22 170.91 134.22"/><path class="cls-4" d="M196.26,21.66a169,169,0,1,1-119.5,49.5,168.49,168.49,0,0,1,119.5-49.5M146.09,133.81h0a31.15,31.15,0,0,0-24,10.79,44,44,0,0,0-4.63,6.2l-.58-14.27H97.05l.14,2.39c.59,9.82.79,19.9.79,32.23v89.47H119.5v-74.4a34.33,34.33,0,0,1,1.28-10v0l0-.05a33.58,33.58,0,0,1,7.22-14,20,20,0,0,1,5.6-4.43,14,14,0,0,1,6.53-1.62,13.51,13.51,0,0,1,7.49,2.1,15.88,15.88,0,0,1,4.3,4.18,29.46,29.46,0,0,1,4.39,10.22,59.89,59.89,0,0,1,1.53,14.1v73.9h21.51V184.49a42.21,42.21,0,0,1,1.3-10.27,30.26,30.26,0,0,1,7.12-12.88,18.65,18.65,0,0,1,5.26-3.85,13.91,13.91,0,0,1,6-1.37,14.34,14.34,0,0,1,7.95,2.17,15.64,15.64,0,0,1,4.46,4.4A32,32,0,0,1,216,174a78.8,78.8,0,0,1,1.55,16.63v70h21.52V188a95.53,95.53,0,0,0-3.22-26.24c-3-10.58-8-17.61-13.58-22a27.49,27.49,0,0,0-16.87-5.95h0a30.87,30.87,0,0,0-22.67,9,47.55,47.55,0,0,0-9,11.89,37.89,37.89,0,0,0-9.19-13.61,26.86,26.86,0,0,0-18.36-7.3h0m155,129.28h0a63.17,63.17,0,0,0,17.47-2.44,43.29,43.29,0,0,0,11.24-4.85l1.25-.82-.27-1.47-3.52-19.4-2.75,1.52a48.35,48.35,0,0,1-8.44,3.81,37.41,37.41,0,0,1-11.82,1.84,26.77,26.77,0,0,1-12.17-2.86c-5.52-2.8-10.18-7.62-13.51-14.3s-5.26-15.21-5.26-25.3c0-12.12,2.9-23,8.26-30.67a28.92,28.92,0,0,1,9.82-9,27.69,27.69,0,0,1,13.45-3.28c9.06,0,15.07,2.57,18.85,5.26l2.74,2,5.09-21.65-1.37-.86a41.72,41.72,0,0,0-10.56-4.46,54.77,54.77,0,0,0-14.75-2.06h0a49.9,49.9,0,0,0-22.19,5c-9.9,4.84-17.8,13-23.17,23.47s-8.28,23.19-8.28,37.3c0,18.66,4.78,34.41,13.47,45.6a45.37,45.37,0,0,0,15.81,13,46.26,46.26,0,0,0,20.6,4.63M61.3,260.62H83.21V136.53H61.3Z" transform="translate(-14.21 -8.61)"/><path class="cls-4" d="M146.13,133.81a26.86,26.86,0,0,1,18.36,7.3,37.89,37.89,0,0,1,9.19,13.61,47.55,47.55,0,0,1,9-11.89,30.87,30.87,0,0,1,22.67-9h0a27.49,27.49,0,0,1,16.87,5.95c5.58,4.34,10.54,11.37,13.58,22A96,96,0,0,1,239.07,188v72.67H217.55v-70A78.8,78.8,0,0,0,216,174a32,32,0,0,0-4.53-11.35,15.64,15.64,0,0,0-4.46-4.4,14.34,14.34,0,0,0-7.95-2.17,13.91,13.91,0,0,0-6,1.37,18.65,18.65,0,0,0-5.26,3.85,30.26,30.26,0,0,0-7.12,12.88,42.21,42.21,0,0,0-1.3,10.27v76.13H157.86v-73.9a59.39,59.39,0,0,0-1.52-14.1,29.47,29.47,0,0,0-4.4-10.22,15.71,15.71,0,0,0-4.29-4.18,13.51,13.51,0,0,0-7.49-2.1,14,14,0,0,0-6.53,1.62,20,20,0,0,0-5.6,4.43,33.58,33.58,0,0,0-7.22,14l0,.05v0a34.33,34.33,0,0,0-1.28,10v74.4H98V171.15c0-12.33-.2-22.41-.79-32.23l-.14-2.39h19.79l.58,14.27a44,44,0,0,1,4.63-6.2,31.15,31.15,0,0,1,24-10.79h0m0-1.67h0a34.18,34.18,0,0,0-12,2.08,33.68,33.68,0,0,0-13.29,9.26c-.65.72-1.29,1.48-1.92,2.29l-.38-9.31-.07-1.61H95.27l.11,1.78.14,2.4c.55,9.15.79,18.76.79,32.12v91.14h24.86V186.22a33.06,33.06,0,0,1,1.21-9.46l0-.06v-.12a32.14,32.14,0,0,1,6.84-13.29,18,18,0,0,1,5.13-4.06,12.41,12.41,0,0,1,5.76-1.44,12,12,0,0,1,6.59,1.84,14.41,14.41,0,0,1,3.83,3.74,27.82,27.82,0,0,1,4.13,9.65,58.27,58.27,0,0,1,1.48,13.7v75.57h24.87v-77.8a40,40,0,0,1,1.24-9.83,28.41,28.41,0,0,1,6.7-12.15,16.61,16.61,0,0,1,4.78-3.5,12.18,12.18,0,0,1,5.28-1.22,12.87,12.87,0,0,1,7.05,1.91,14.08,14.08,0,0,1,4,4,30.19,30.19,0,0,1,4.27,10.75,76.82,76.82,0,0,1,1.52,16.27v71.62h24.86V188a97.5,97.5,0,0,0-3.28-26.7c-2.9-10.08-7.66-17.76-14.16-22.81a29.4,29.4,0,0,0-17.9-6.3h0a32.49,32.49,0,0,0-23.83,9.47,46.7,46.7,0,0,0-7.66,9.47,37.8,37.8,0,0,0-8.25-11.21,28.42,28.42,0,0,0-19.49-7.73" transform="translate(-14.21 -8.61)"/><path class="cls-4" d="M304.85,134.06h0a54.77,54.77,0,0,1,14.75,2.06,41.72,41.72,0,0,1,10.56,4.46l1.37.86-5.09,21.65-2.74-2c-3.78-2.69-9.79-5.25-18.85-5.26a27.69,27.69,0,0,0-13.45,3.28,28.92,28.92,0,0,0-9.82,9c-5.36,7.68-8.27,18.55-8.26,30.67,0,10.09,1.95,18.63,5.26,25.3s8,11.5,13.51,14.31a26.76,26.76,0,0,0,12.17,2.85,37.12,37.12,0,0,0,11.82-1.84,48.35,48.35,0,0,0,8.44-3.81l2.75-1.52,3.52,19.4.27,1.47-1.26.82a43.26,43.26,0,0,1-11.22,4.85,63.36,63.36,0,0,1-17.48,2.44h0a46.26,46.26,0,0,1-20.6-4.63,45.34,45.34,0,0,1-15.81-13c-8.69-11.2-13.47-26.95-13.47-45.61,0-14.11,2.9-26.84,8.28-37.3s13.27-18.63,23.17-23.48a50,50,0,0,1,22.18-5m0-1.68h0a51.68,51.68,0,0,0-22.92,5.15c-10,4.91-18.3,13.28-23.92,24.21-5.54,10.76-8.46,23.92-8.47,38.07,0,18.86,4.79,35,13.83,46.63A47,47,0,0,0,279.76,260a47.87,47.87,0,0,0,21.34,4.79,64.48,64.48,0,0,0,17.95-2.5,45.28,45.28,0,0,0,11.68-5.05l1.26-.82.93-.61-.2-1.1-.27-1.47-3.52-19.39-.42-2.3-2,1.13-2.75,1.51a47.27,47.27,0,0,1-8.15,3.69,35.65,35.65,0,0,1-11.3,1.75,25,25,0,0,1-11.41-2.67c-5.27-2.68-9.69-7.36-12.77-13.55-3.33-6.71-5.09-15.2-5.09-24.56,0-11.8,2.83-22.35,8-29.71a27.25,27.25,0,0,1,9.24-8.49,26.12,26.12,0,0,1,12.66-3.07c9,0,14.7,2.69,17.87,4.95l2.74,1.95,2,1.46.57-2.44,5.1-21.65.27-1.17-1-.63-1.37-.86a43.52,43.52,0,0,0-11-4.65,55.91,55.91,0,0,0-15.21-2.13" transform="translate(-14.21 -8.61)"/><path class="cls-4" d="M83.21,260.62H61.3V136.53H83.21Zm1.67-125.76H59.62V262.29H84.88V134.86Z" transform="translate(-14.21 -8.61)"/><path class="cls-3" d="M315.76,71.16a169,169,0,1,0,49.49,119.5,168.49,168.49,0,0,0-49.49-119.5M61.15,107.54a24.23,24.23,0,0,1,1.23-4.45c.53-1.43,1.1-2.85,1.65-4.28.39-1,.79-2,1.13-3.06a18.74,18.74,0,0,0,.62-2.34A11.67,11.67,0,0,0,65.92,92v-.22c0-.2.17-.29.35-.21l.24.15a46.58,46.58,0,0,1,3.79,3.1c.69.63,1.37,1.27,2,2a22,22,0,0,1,2.75,3.51c.18.31.15.43-.17.59-.84.41-1.7.8-2.53,1.25A14.87,14.87,0,0,0,68,105.53a9.54,9.54,0,0,0-1.87,3.15l0,.13-.08.06c0-.11,0-.18,0-.26a12.16,12.16,0,0,1,.65-4,20.54,20.54,0,0,1,1.32-3.08l.08-.26-.14.2a22.92,22.92,0,0,0-2.64,4.69,12.07,12.07,0,0,0-.94,4.79,10.49,10.49,0,0,0,1.24,4.68c.15.28.31.54.46.82a3.07,3.07,0,0,1,.2.5c.18.6.36,1.2.53,1.81v.3l-.28-.07a12.85,12.85,0,0,1-2.83-2.49,10.73,10.73,0,0,1-2.45-9M83.21,260.62H61.3V136.53H83.21Zm2.15-154.23a22.29,22.29,0,0,1-.7,5.27,13.84,13.84,0,0,1-1.79,4.06,10.34,10.34,0,0,1-3.42,3.2,13.27,13.27,0,0,1-5.16,1.67c-.72.09-1.45.14-2.17.18a1.17,1.17,0,0,1-1-.3,1,1,0,0,1-.2-.3,10.14,10.14,0,0,1-.55-2.51,11.43,11.43,0,0,1,1.08-5.87,15.79,15.79,0,0,1,.9-1.61,11.77,11.77,0,0,1,3.5-3.39,13.28,13.28,0,0,1,3.52-1.59l.26-.08a19.44,19.44,0,0,0-4.32.91,11.63,11.63,0,0,0-3.36,1.72,9.23,9.23,0,0,0-2.81,3.45,12.54,12.54,0,0,0-1,3.57A19.26,19.26,0,0,0,67.9,118c0,.38,0,.77,0,1.15,0,.1,0,.24-.09.27s-.19-.11-.23-.22c-.1-.34-.21-.68-.3-1-.2-.76-.43-1.52-.6-2.3a13.79,13.79,0,0,1-.28-3.4,11.91,11.91,0,0,1,.59-3.36A9.79,9.79,0,0,1,69,105.7a12,12,0,0,1,2.8-2.3,43.07,43.07,0,0,1,5.37-2.64c1.32-.58,2.63-1.18,3.94-1.79a10,10,0,0,0,2.1-1.31c.2-.17.39-.35.58-.53l.23-.25c.09-.09.19-.2.33-.15s.17.19.19.33c.13.8.28,1.6.38,2.41.16,1.29.32,2.59.42,3.89.08,1,.09,2,.07,3M239.07,260.62H217.55v-70A78.8,78.8,0,0,0,216,174a32,32,0,0,0-4.53-11.35,15.64,15.64,0,0,0-4.46-4.4,14.34,14.34,0,0,0-7.95-2.17,13.91,13.91,0,0,0-6,1.37,18.65,18.65,0,0,0-5.26,3.85,30.26,30.26,0,0,0-7.12,12.88,42.21,42.21,0,0,0-1.3,10.27v76.13H157.87v-73.9a59.89,59.89,0,0,0-1.53-14.1A29.65,29.65,0,0,0,152,162.4a15.88,15.88,0,0,0-4.3-4.18,13.51,13.51,0,0,0-7.49-2.1,14,14,0,0,0-6.53,1.62,20,20,0,0,0-5.6,4.43,33.7,33.7,0,0,0-7.22,14l0,.05v0a34.33,34.33,0,0,0-1.28,10v74.4H98V171.15c0-12.33-.2-22.41-.78-32.23l-.15-2.39h19.79l.58,14.27a44,44,0,0,1,4.63-6.2,31.15,31.15,0,0,1,24-10.79,26.84,26.84,0,0,1,18.4,7.3,37.8,37.8,0,0,1,9.19,13.61,47.55,47.55,0,0,1,9-11.89,30.87,30.87,0,0,1,22.69-9,27.52,27.52,0,0,1,16.89,5.95c5.58,4.34,10.54,11.37,13.58,22A96,96,0,0,1,239.07,188Zm90.74-4.82a43.26,43.26,0,0,1-11.22,4.85,63.36,63.36,0,0,1-17.48,2.44,46.16,46.16,0,0,1-20.61-4.63,45.26,45.26,0,0,1-15.81-13c-8.69-11.19-13.47-26.94-13.47-45.6,0-14.11,2.9-26.84,8.28-37.3s13.27-18.63,23.17-23.48a50.06,50.06,0,0,1,22.19-5,54.77,54.77,0,0,1,14.75,2.06,41.72,41.72,0,0,1,10.56,4.46l1.37.86-5.09,21.65-2.74-2c-3.78-2.69-9.79-5.25-18.85-5.26a27.69,27.69,0,0,0-13.45,3.28,28.92,28.92,0,0,0-9.82,9c-5.36,7.68-8.27,18.55-8.26,30.67,0,10.09,1.95,18.63,5.26,25.3s8,11.5,13.51,14.3a26.77,26.77,0,0,0,12.17,2.86,37.41,37.41,0,0,0,11.82-1.84,48.35,48.35,0,0,0,8.44-3.81l2.75-1.52,3.52,19.4.27,1.47Z" transform="translate(-14.21 -8.61)"/><path class="cls-4" d="M196.26,21.66a169,169,0,1,1-119.5,49.5,168.49,168.49,0,0,1,119.5-49.5M66.71,119.08v-.3c-.17-.61-.35-1.21-.53-1.8a2.85,2.85,0,0,0-.2-.51c-.15-.28-.31-.54-.46-.82A10.49,10.49,0,0,1,64.28,111a12.07,12.07,0,0,1,.94-4.79,22.92,22.92,0,0,1,2.64-4.69l.14-.2-.08.26a20.54,20.54,0,0,0-1.32,3.08,12.16,12.16,0,0,0-.65,4c0,.08,0,.15,0,.27l.08-.07,0-.13A9.54,9.54,0,0,1,68,105.53a14.87,14.87,0,0,1,4.39-3.45c.83-.45,1.69-.84,2.53-1.25.31-.16.35-.28.17-.59a22,22,0,0,0-2.75-3.51c-.64-.68-1.32-1.32-2-2-1.21-1.11-2.5-2.11-3.8-3.09l-.24-.15-.13,0c-.11,0-.2.09-.22.24V92a11.67,11.67,0,0,1-.14,1.45,20.61,20.61,0,0,1-.61,2.34c-.35,1-.75,2-1.14,3.06-.55,1.43-1.12,2.85-1.65,4.28a25.05,25.05,0,0,0-1.23,4.45,10.73,10.73,0,0,0,2.45,9A12.85,12.85,0,0,0,66.43,119l.28.07m1.12.33h0c.14,0,.09-.16.09-.26,0-.38,0-.77,0-1.15a19.26,19.26,0,0,1,.18-3.22,12.54,12.54,0,0,1,1-3.57,9.23,9.23,0,0,1,2.81-3.45A11.91,11.91,0,0,1,75.29,106a20,20,0,0,1,4.32-.9l-.26.08a13.28,13.28,0,0,0-3.52,1.59,11.77,11.77,0,0,0-3.5,3.39,15.79,15.79,0,0,0-.9,1.61,10.62,10.62,0,0,0-1,3.51,10.42,10.42,0,0,0-.05,2.37,10.16,10.16,0,0,0,.55,2.5,1,1,0,0,0,.2.3,1,1,0,0,0,.81.3h.21c.73,0,1.45-.09,2.17-.17a13.56,13.56,0,0,0,5.17-1.68,10.41,10.41,0,0,0,3.41-3.2,13.9,13.9,0,0,0,1.79-4,22.44,22.44,0,0,0,.7-5.28c0-1,0-2-.07-3-.1-1.3-.26-2.6-.42-3.89-.1-.81-.25-1.61-.38-2.41,0-.14,0-.28-.19-.33h-.07c-.11,0-.18.09-.26.16l-.23.25c-.19.18-.38.36-.58.53A10,10,0,0,1,81.06,99c-1.31.61-2.62,1.21-3.94,1.79a43.07,43.07,0,0,0-5.37,2.64,12,12,0,0,0-2.8,2.3A9.79,9.79,0,0,0,67,109.11a12.28,12.28,0,0,0-.59,3.36,14.29,14.29,0,0,0,.28,3.4c.17.78.4,1.54.6,2.3.09.34.2.68.3,1,0,.11.09.22.2.22m78.26,14.4h0a31.15,31.15,0,0,0-24,10.79,44,44,0,0,0-4.63,6.2l-.58-14.27H97.05l.14,2.39c.59,9.82.79,19.9.79,32.23v89.47H119.5v-74.4a34.33,34.33,0,0,1,1.28-10v0l0-.05a33.58,33.58,0,0,1,7.22-14,20,20,0,0,1,5.6-4.43,14,14,0,0,1,6.53-1.62,13.51,13.51,0,0,1,7.49,2.1,15.88,15.88,0,0,1,4.3,4.18,29.46,29.46,0,0,1,4.39,10.22,59.89,59.89,0,0,1,1.53,14.1v73.9h21.51V184.49a42.21,42.21,0,0,1,1.3-10.27,30.26,30.26,0,0,1,7.12-12.88,18.65,18.65,0,0,1,5.26-3.85,13.91,13.91,0,0,1,6-1.37,14.34,14.34,0,0,1,7.95,2.17,15.64,15.64,0,0,1,4.46,4.4A32,32,0,0,1,216,174a78.8,78.8,0,0,1,1.55,16.63v70h21.52V188a95.53,95.53,0,0,0-3.22-26.24c-3-10.58-8-17.61-13.58-22a27.49,27.49,0,0,0-16.87-5.95h0a30.87,30.87,0,0,0-22.67,9,47.55,47.55,0,0,0-9,11.89,37.89,37.89,0,0,0-9.19-13.61,26.86,26.86,0,0,0-18.36-7.3h0m155,129.28h0a63.17,63.17,0,0,0,17.47-2.44,43.44,43.44,0,0,0,11.24-4.85l1.25-.82-.27-1.47-3.52-19.4-2.75,1.52a48.35,48.35,0,0,1-8.44,3.81,37.41,37.41,0,0,1-11.82,1.84,26.77,26.77,0,0,1-12.17-2.86c-5.52-2.8-10.18-7.62-13.51-14.3s-5.26-15.21-5.26-25.3c0-12.12,2.9-23,8.26-30.67a28.92,28.92,0,0,1,9.82-9,27.69,27.69,0,0,1,13.45-3.28c9.06,0,15.08,2.57,18.85,5.26l2.74,2,5.09-21.65-1.37-.86a41.72,41.72,0,0,0-10.56-4.46,54.77,54.77,0,0,0-14.75-2.06h0a49.89,49.89,0,0,0-22.18,5c-9.9,4.84-17.8,13-23.17,23.47s-8.28,23.19-8.28,37.3c0,18.66,4.78,34.41,13.47,45.6a45.37,45.37,0,0,0,15.81,13,46.26,46.26,0,0,0,20.6,4.63M61.3,260.62H83.21V136.53H61.3Zm135-241h0A171,171,0,0,0,129.7,348.22,171,171,0,0,0,262.82,33.09a169.85,169.85,0,0,0-66.56-13.44m-131.6,83.1.6-1.55c.22-.56.44-1.12.65-1.67l.23-.59c.31-.82.64-1.68.93-2.55.15-.44.29-.91.41-1.41.5.41,1,.83,1.47,1.27l.21.2-2.76,3.62-.15.2,0,0,0,0c-.6.85-1.11,1.65-1.55,2.42M70.24,101l.9-2.59c.43.48.83,1,1.2,1.43l-.92.47c-.41.22-.8.45-1.18.69m4.25,3.18c1-.51,2.08-1,3.18-1.45l.26-.12c1.38-.6,2.73-1.22,4-1.81a9.14,9.14,0,0,0,1-.54c.1.79.2,1.63.28,2.47l-3.81.4a21.86,21.86,0,0,0-4.77,1l-.15,0m-1.93,14.56a8.08,8.08,0,0,1-.21-1.26,8.92,8.92,0,0,1,0-1.92,8.65,8.65,0,0,1,.83-2.85,14.51,14.51,0,0,1,.79-1.41,9.66,9.66,0,0,1,2.91-2.81,11.54,11.54,0,0,1,3-1.35h0l.26-.08,3.13-1c0,.1,0,.21,0,.31a19.91,19.91,0,0,1-.64,4.8,11.3,11.3,0,0,1-1.52,3.46,8.2,8.2,0,0,1-2.75,2.58,11.3,11.3,0,0,1-4.39,1.42c-.48.06-1,.09-1.49.13m43.12,38.65,3.45-5.51a42.73,42.73,0,0,1,4.42-5.93,30,30,0,0,1,11.84-8.26,30.44,30.44,0,0,1,10.69-1.86h0a24.82,24.82,0,0,1,17,6.77,35.52,35.52,0,0,1,8.69,12.9l1.6,3.9,2-3.7a45.27,45.27,0,0,1,8.61-11.4,28.91,28.91,0,0,1,21.3-8.47h0A25.71,25.71,0,0,1,221,141.35c5.87,4.57,10.2,11.6,12.87,20.92A93.68,93.68,0,0,1,237.05,188V258.6H219.56V190.67a81,81,0,0,0-1.6-17.06,33.85,33.85,0,0,0-4.84-12.06,17.81,17.81,0,0,0-5-5,16.33,16.33,0,0,0-9-2.48,16,16,0,0,0-6.86,1.57,20.5,20.5,0,0,0-5.84,4.25,32.23,32.23,0,0,0-7.62,13.75h0a44.36,44.36,0,0,0-1.37,10.79V258.6H159.88V186.72a61.29,61.29,0,0,0-1.59-14.57,31.31,31.31,0,0,0-4.71-10.93,17.89,17.89,0,0,0-4.84-4.69,15.45,15.45,0,0,0-8.57-2.42,16.23,16.23,0,0,0-7.46,1.84,21.75,21.75,0,0,0-6.17,4.87,35.67,35.67,0,0,0-7.68,14.84h0v0a36.93,36.93,0,0,0-1.37,10.54V258.6H100V171.15c0-13.44-.23-23.11-.79-32.35v-.26H114.9l.51,12.34ZM301.1,263.09v-2a44.19,44.19,0,0,1-19.71-4.41,43.26,43.26,0,0,1-15.11-12.48c-8.53-11-13-26.34-13-44.37,0-13.57,2.79-26.14,8-36.38s13-18,22.27-22.59a48,48,0,0,1,21.3-4.77,52.14,52.14,0,0,1,14.21,2,40.14,40.14,0,0,1,10.05,4.23l.15.09-4.08,17.33-.3-.22c-3.61-2.56-10-5.62-20-5.63a29.85,29.85,0,0,0-14.42,3.52A31,31,0,0,0,279.94,167c-5.57,8-8.63,19.27-8.62,31.82,0,9.93,1.89,19,5.47,26.2,3.44,6.9,8.42,12.16,14.4,15.2a28.71,28.71,0,0,0,13.08,3.07,39.66,39.66,0,0,0,12.45-1.93,50.82,50.82,0,0,0,8.78-4l.3-.17,3,16.65,0,.16-.13.09a40.62,40.62,0,0,1-10.7,4.6,60.91,60.91,0,0,1-16.91,2.35ZM63.31,138.54H81.19V258.6H63.31Z" transform="translate(-14.21 -8.61)"/><path class="cls-4" d="M84.87,99.47c-.1-.81-.25-1.61-.38-2.41,0-.14,0-.28-.19-.33s-.24.06-.33.15l-.23.25c-.19.18-.38.36-.58.53A10,10,0,0,1,81.06,99c-1.3.61-2.62,1.21-3.94,1.79a43.07,43.07,0,0,0-5.37,2.64,12,12,0,0,0-2.8,2.3A9.79,9.79,0,0,0,67,109.11a12.28,12.28,0,0,0-.59,3.36,14.29,14.29,0,0,0,.28,3.4c.17.78.4,1.54.6,2.3.09.34.2.68.3,1,0,.11.1.23.23.21s.09-.16.09-.26c0-.38,0-.77,0-1.15a19.26,19.26,0,0,1,.18-3.22,12.54,12.54,0,0,1,1-3.57,9.23,9.23,0,0,1,2.81-3.45A11.63,11.63,0,0,1,75.29,106a19.41,19.41,0,0,1,4.33-.91l-.27.08a13.28,13.28,0,0,0-3.52,1.59,11.77,11.77,0,0,0-3.5,3.39,15.79,15.79,0,0,0-.9,1.61,11.43,11.43,0,0,0-1.08,5.87,10.14,10.14,0,0,0,.55,2.51,1,1,0,0,0,.2.3,1.17,1.17,0,0,0,1,.3c.73,0,1.45-.09,2.17-.18a13.37,13.37,0,0,0,5.17-1.67,10.41,10.41,0,0,0,3.41-3.2,13.84,13.84,0,0,0,1.79-4.06,22.29,22.29,0,0,0,.7-5.27c0-1,0-2-.07-3-.1-1.3-.26-2.6-.42-3.89" transform="translate(-14.21 -8.61)"/><path class="cls-4" d="M66.43,119l.28.07v-.3c-.17-.61-.35-1.21-.53-1.8a2.85,2.85,0,0,0-.2-.51c-.15-.28-.31-.54-.46-.82A10.49,10.49,0,0,1,64.28,111a12.07,12.07,0,0,1,.94-4.79,22.92,22.92,0,0,1,2.64-4.69l.14-.2-.08.26a20.54,20.54,0,0,0-1.32,3.08,12.16,12.16,0,0,0-.65,4c0,.08,0,.16,0,.26l.08-.06,0-.12A9.49,9.49,0,0,1,68,105.53a14.87,14.87,0,0,1,4.39-3.45c.83-.45,1.69-.84,2.53-1.25.32-.16.35-.28.17-.58a21.59,21.59,0,0,0-2.75-3.52c-.64-.68-1.32-1.32-2-2a48.51,48.51,0,0,0-3.8-3.1l-.24-.15c-.18-.08-.32,0-.35.21V92a11.67,11.67,0,0,1-.14,1.45,18.74,18.74,0,0,1-.62,2.34c-.34,1-.74,2-1.13,3.06-.55,1.43-1.12,2.85-1.65,4.28a25.05,25.05,0,0,0-1.23,4.45,10.73,10.73,0,0,0,2.45,9A12.6,12.6,0,0,0,66.43,119" transform="translate(-14.21 -8.61)"/></g><path class="cls-3" d="M417.53,165.93h15.23l4.85,14.29h7.57l-15.93-46.67H421.3l-15.86,46.67h7.37ZM427,147.85l4.17,12.26h-12l4.18-12.33h0c.66-2.08,1.24-4.15,1.78-6.2.52,2,1.09,4.06,1.84,6.28" transform="translate(-14.21 -8.61)"/><path class="cls-3" d="M452.54,157.63v35.94h7.09V176.92a12.48,12.48,0,0,0,9.57,4,14.58,14.58,0,0,0,10.74-4.56c2.87-3,4.7-7.6,4.7-13.58a19,19,0,0,0-4.09-12.41,13.35,13.35,0,0,0-10.34-4.79,14.39,14.39,0,0,0-7.19,1.76,13.36,13.36,0,0,0-4,3.52l-.21-4.54h-6.56l0,.64c.13,3.1.27,6.46.27,10.63m15.85-6.06a8.2,8.2,0,0,1,3.88.91,8.83,8.83,0,0,1,3.85,4.16,14.94,14.94,0,0,1,1.36,6.45,14.28,14.28,0,0,1-2.48,8.73,8.18,8.18,0,0,1-6.81,3.26,8.54,8.54,0,0,1-8.3-6.47,12.83,12.83,0,0,1-.26-2.29v-5.59a9.54,9.54,0,0,1,.38-2.27h0a8.85,8.85,0,0,1,8.37-6.88" transform="translate(-14.21 -8.61)"/><path class="cls-3" d="M493.46,157.63v35.94h7.09V176.92a12.48,12.48,0,0,0,9.57,4,14.58,14.58,0,0,0,10.74-4.56c2.87-3,4.71-7.6,4.7-13.58a18.94,18.94,0,0,0-4.1-12.41,13.31,13.31,0,0,0-10.33-4.79,14.39,14.39,0,0,0-7.19,1.76,13.36,13.36,0,0,0-4,3.52l-.22-4.54h-6.55l0,.64c.13,3.1.27,6.46.27,10.63m15.85-6.06a8.2,8.2,0,0,1,3.88.91,8.83,8.83,0,0,1,3.85,4.16,14.94,14.94,0,0,1,1.36,6.45,14.28,14.28,0,0,1-2.48,8.73,8.18,8.18,0,0,1-6.81,3.26,8.54,8.54,0,0,1-8.3-6.47,12.83,12.83,0,0,1-.26-2.29v-5.59a9.08,9.08,0,0,1,.39-2.27h0a8.85,8.85,0,0,1,8.37-6.88" transform="translate(-14.21 -8.61)"/><polygon class="cls-3" points="527.33 122.52 520.17 122.52 520.17 123.13 520.17 171.61 527.33 171.61 527.33 122.52"/><path class="cls-3" d="M561,178.59a1.65,1.65,0,0,1-.1.4c-.07.21-.19.47-.32.77a17.3,17.3,0,0,1-4.81,6.37h0a15.45,15.45,0,0,1-5,2.78l-.58.18,9.61,2.29v-.24c1.6-.3-2.68,2.6.32,0a25.79,25.79,0,0,0,5.66-7.5,114.4,114.4,0,0,0,5.7-13.17h0l9.22-24.08h-7.61l-6.61,19.56h0c-.59,1.71-1.1,3.48-1.56,5.06-.49-1.6-1.05-3.36-1.59-4.93h0l-7.3-19.69h-7.81l12.4,30.9a5.06,5.06,0,0,1,.37,1.33" transform="translate(-14.21 -8.61)"/><path class="cls-3" d="M560.14,191.12Z" transform="translate(-14.21 -8.61)"/><polygon class="cls-3" points="580.11 137.75 572.95 137.75 572.95 171.61 573.57 171.61 580.11 171.61 580.11 137.75"/><path class="cls-3" d="M590.61,142.06a4.52,4.52,0,0,0,3.18-1.19,4,4,0,0,0,1.21-2.93v-.15a4.38,4.38,0,0,0-1.15-3,4.17,4.17,0,0,0-3.1-1.26,4.23,4.23,0,0,0-3.1,1.25,4.43,4.43,0,0,0,0,6.07,4.11,4.11,0,0,0,3,1.25" transform="translate(-14.21 -8.61)"/><path class="cls-3" d="M605.5,155.81v24.41h7.16V160a8.15,8.15,0,0,1,.37-2.56h0v0a8.19,8.19,0,0,1,2.69-4,7.41,7.41,0,0,1,4.68-1.66,7.12,7.12,0,0,1,3.26.7,6,6,0,0,1,2.81,3.2,13.72,13.72,0,0,1,.86,5.13v19.42h7.16v-20.1c0-5.72-1.81-9.4-4.27-11.6a11.84,11.84,0,0,0-7.87-2.9,13.21,13.21,0,0,0-7.13,2,12.12,12.12,0,0,0-3.28,3l-.27-4.28h-6.5l.05.66c.2,2.68.27,5.42.27,8.79" transform="translate(-14.21 -8.61)"/><path class="cls-3" d="M657.62,180.08a12.49,12.49,0,0,0,9.9-4.34v1.91a15.36,15.36,0,0,1-.75,5,8,8,0,0,1-3.47,4.38,11,11,0,0,1-5.68,1.35,17.8,17.8,0,0,1-9.25-2.47l-.66-.42-1.87,5.71.39.26c2.79,1.85,7.18,2.79,11.19,2.8,4.19,0,8.92-.95,12.27-4.07h0a12.93,12.93,0,0,0,3.68-6,31.23,31.23,0,0,0,1.17-9.38V155.94c0-4,.13-6.57.27-8.93l0-.65h-6.42l-.21,3.79a10.71,10.71,0,0,0-2.77-2.61,12.61,12.61,0,0,0-7-1.92,14.5,14.5,0,0,0-10.61,4.71c-2.85,3.07-4.7,7.57-4.7,13.23a17.8,17.8,0,0,0,4.06,11.74,13.52,13.52,0,0,0,10.44,4.78M667,168.69a8.25,8.25,0,0,1-14.37,2.43,13.11,13.11,0,0,1-2.29-7.9,13.61,13.61,0,0,1,2.59-8.61,8.1,8.1,0,0,1,6.5-3.11,7.66,7.66,0,0,1,5,1.71,8.59,8.59,0,0,1,2.74,4.13h0a7.81,7.81,0,0,1,.31,2.5v5.87a9.78,9.78,0,0,1-.45,3" transform="translate(-14.21 -8.61)"/><path class="cls-3" d="M703.93,169.29a21.33,21.33,0,0,0,.53,5.18,8.29,8.29,0,0,0,1.91,3.72h0a8.84,8.84,0,0,0,6.85,2.68,15.19,15.19,0,0,0,5.49-.85l.4-.17-.34-5.64-.73.2a12.9,12.9,0,0,1-3.27.38,4.09,4.09,0,0,1-1.82-.36,3.08,3.08,0,0,1-1.52-1.8,10.24,10.24,0,0,1-.5-3.56v-17h8.5v-5.75H711v-9.55l-.77.2-6.25,1.68v7.67h-5.06v5.75h5.06Z" transform="translate(-14.21 -8.61)"/><path class="cls-3" d="M735,157.3v0a8.38,8.38,0,0,1,2.73-3.89,7.47,7.47,0,0,1,4.64-1.62,7,7,0,0,1,3.26.71,6.07,6.07,0,0,1,2.81,3.23,13.7,13.7,0,0,1,.87,5.15v19.36h7.16v-20c0-5.75-1.81-9.45-4.26-11.66a11.6,11.6,0,0,0-7.75-2.91,12.86,12.86,0,0,0-6.37,1.76h0a11.72,11.72,0,0,0-3.47,2.92V131.13h-7.15v49.09h7.15v-20.3a6.69,6.69,0,0,1,.36-2.59Z" transform="translate(-14.21 -8.61)"/><path class="cls-3" d="M781.73,180.89a27.23,27.23,0,0,0,11.11-2.07l.46-.21-1.3-5.45-.67.28a20.86,20.86,0,0,1-8.79,1.64,10.85,10.85,0,0,1-7.36-2.5c-1.79-1.61-3-4.05-3.19-7.6h22.83l.06-.55a23.8,23.8,0,0,0,.21-2.83,19.24,19.24,0,0,0-2.85-10.27,12.22,12.22,0,0,0-4.36-4.07,14,14,0,0,0-6.89-1.64A14.8,14.8,0,0,0,769.3,151a20,20,0,0,0-4.23,12.88c0,5,1.54,9.32,4.43,12.34s7.08,4.73,12.23,4.72M776.92,152a7.6,7.6,0,0,1,3.6-.85,7.76,7.76,0,0,1,3.75.86,6.91,6.91,0,0,1,3,3.53,11.73,11.73,0,0,1,.82,4h-16a12.31,12.31,0,0,1,2.25-5.38,8,8,0,0,1,2.54-2.18" transform="translate(-14.21 -8.61)"/><path class="cls-3" d="M827.92,162.16a25.25,25.25,0,0,0,4.1.26c5.84,0,11.06-1.71,14.33-5.17h0c2.41-2.49,3.67-5.9,3.67-10.13a12.85,12.85,0,0,0-4.18-10h0c-2.86-2.56-7.26-3.92-13.14-3.92a68.29,68.29,0,0,0-11.36.88l-.52.09v46h7.1Zm12.19-8c-1.81,1.52-4.51,2.36-8,2.36a21.1,21.1,0,0,1-4.24-.34V139.45c.42-.08,1-.16,1.62-.22.91-.08,2-.13,3.29-.13,3.15,0,5.69.71,7.4,2.06a6.58,6.58,0,0,1,2,2.55,8.89,8.89,0,0,1,.71,3.67,8.31,8.31,0,0,1-2.82,6.73" transform="translate(-14.21 -8.61)"/><path class="cls-3" d="M858,157.15v23.07h7.09v-18a16.54,16.54,0,0,1,.26-2.66,9.56,9.56,0,0,1,2.54-5.14,6.64,6.64,0,0,1,4.81-2,8.53,8.53,0,0,1,1.89.18l.75.17V146l-.47-.12a7.28,7.28,0,0,0-1.83-.22,10.05,10.05,0,0,0-8.76,5.6l-.15-4.86h-6.44l0,.66c.2,3,.27,6.3.27,10.13" transform="translate(-14.21 -8.61)"/><path class="cls-3" d="M886.29,142.06a4.52,4.52,0,0,0,3.18-1.19,4,4,0,0,0,1.21-2.93v-.15a4.34,4.34,0,0,0-1.16-3,4.14,4.14,0,0,0-3.1-1.26,4.22,4.22,0,0,0-3.09,1.25,4.43,4.43,0,0,0-.05,6.07,4.11,4.11,0,0,0,3,1.25" transform="translate(-14.21 -8.61)"/><polygon class="cls-3" points="868.63 171.61 869.25 171.61 875.79 171.61 875.79 137.75 868.63 137.75 868.63 171.61"/><path class="cls-3" d="M901.18,155.81v24.41h7.16V160a8.15,8.15,0,0,1,.37-2.56h0v0a8.19,8.19,0,0,1,2.69-4,7.41,7.41,0,0,1,4.68-1.66,7.12,7.12,0,0,1,3.26.7,6,6,0,0,1,2.81,3.2,13.72,13.72,0,0,1,.86,5.13v19.42h7.16v-20.1c0-5.72-1.81-9.4-4.27-11.6a11.84,11.84,0,0,0-7.87-2.9,13.21,13.21,0,0,0-7.13,2,12.12,12.12,0,0,0-3.28,3l-.27-4.28h-6.49l0,.66c.2,2.68.27,5.42.27,8.79" transform="translate(-14.21 -8.61)"/><path class="cls-3" d="M965.73,178.72l-.1-.47-1.18-5.17-.68.3a16.21,16.21,0,0,1-7,1.56,10.36,10.36,0,0,1-7.65-3.08,12,12,0,0,1-3.06-8.5,12.52,12.52,0,0,1,2.8-8.32,10.31,10.31,0,0,1,8.11-3.4,13.06,13.06,0,0,1,6.57,1.47l.68.38,1.71-5.82-.46-.23a15.92,15.92,0,0,0-3.54-1.2,22.67,22.67,0,0,0-5-.55,18.07,18.07,0,0,0-13.19,5.08,17.89,17.89,0,0,0-5,12.86,17.53,17.53,0,0,0,4.61,12.49,16.61,16.61,0,0,0,12.25,4.77,26.25,26.25,0,0,0,5.88-.65,16.68,16.68,0,0,0,3.77-1.31Z" transform="translate(-14.21 -8.61)"/><path class="cls-3" d="M977.37,142.06a4.52,4.52,0,0,0,3.18-1.19,4,4,0,0,0,1.21-2.93v-.15a4.39,4.39,0,0,0-1.16-3,4.15,4.15,0,0,0-3.1-1.26,4.24,4.24,0,0,0-3.1,1.25,4.45,4.45,0,0,0,0,6.07,4.14,4.14,0,0,0,3,1.25" transform="translate(-14.21 -8.61)"/><polygon class="cls-3" points="959.71 171.61 960.32 171.61 966.87 171.61 966.87 137.75 959.71 137.75 959.71 171.61"/><path class="cls-3" d="M992.26,157.63v35.94h7.09V176.92a12.48,12.48,0,0,0,9.57,4,14.59,14.59,0,0,0,10.74-4.56c2.87-3,4.7-7.6,4.7-13.58a18.94,18.94,0,0,0-4.1-12.41,13.31,13.31,0,0,0-10.33-4.79,14.37,14.37,0,0,0-7.19,1.76,13.36,13.36,0,0,0-4,3.52l-.22-4.54H992l0,.64c.14,3.1.27,6.46.27,10.63m15.85-6.06a8.2,8.2,0,0,1,3.88.91,8.83,8.83,0,0,1,3.85,4.16,14.94,14.94,0,0,1,1.36,6.45,14.28,14.28,0,0,1-2.48,8.73,8.19,8.19,0,0,1-6.82,3.26,8.54,8.54,0,0,1-8.29-6.47,12.83,12.83,0,0,1-.26-2.29v-5.59a9.54,9.54,0,0,1,.38-2.27h0a8.85,8.85,0,0,1,8.37-6.88" transform="translate(-14.21 -8.61)"/><polygon class="cls-3" points="1026.13 122.52 1018.97 122.52 1018.97 123.13 1018.97 171.61 1026.13 171.61 1026.13 122.52"/><path class="cls-3" d="M1066,180.89a27.23,27.23,0,0,0,11.11-2.07l.46-.21-1.3-5.45-.67.28a20.86,20.86,0,0,1-8.79,1.64,10.85,10.85,0,0,1-7.36-2.5c-1.79-1.61-3-4.05-3.2-7.6H1079l.06-.55a24.3,24.3,0,0,0,.2-2.83,19.13,19.13,0,0,0-2.84-10.27,12.36,12.36,0,0,0-4.35-4.07,14,14,0,0,0-6.9-1.64,14.8,14.8,0,0,0-11.69,5.33,20,20,0,0,0-4.23,12.88c0,5,1.54,9.32,4.43,12.34s7.08,4.73,12.23,4.72M1061.14,152a7.6,7.6,0,0,1,3.6-.85,7.73,7.73,0,0,1,3.75.86,6.91,6.91,0,0,1,3,3.53,11.73,11.73,0,0,1,.82,4h-16a12.31,12.31,0,0,1,2.25-5.38,8,8,0,0,1,2.54-2.18" transform="translate(-14.21 -8.61)"/><path class="cls-3" d="M1100,174a6.68,6.68,0,0,1-4.39,1.27,14.94,14.94,0,0,1-7.48-2.26l-.67-.44-.25.76-1.64,5,.43.25a19.11,19.11,0,0,0,9.48,2.31c4,0,7.18-1,9.4-2.88a9.46,9.46,0,0,0,3.41-7.51,9.05,9.05,0,0,0-2.31-6.34,16.93,16.93,0,0,0-6.64-4.08,16.39,16.39,0,0,1-4.52-2.25,3.55,3.55,0,0,1-1-1.19,3.65,3.65,0,0,1,.89-4.18,5.46,5.46,0,0,1,3.65-1.16,12.1,12.1,0,0,1,6.34,1.79l.66.42,1.9-5.53-.43-.25a16.88,16.88,0,0,0-8.34-2.11,12.77,12.77,0,0,0-8.67,3,9.59,9.59,0,0,0-3.2,7.22,8.28,8.28,0,0,0,2.28,5.71,16.44,16.44,0,0,0,6.75,4.1,12.72,12.72,0,0,1,4.46,2.41,3.72,3.72,0,0,1,.91,1.34,4.26,4.26,0,0,1,.3,1.67,3.75,3.75,0,0,1-1.34,3" transform="translate(-14.21 -8.61)"/><path class="cls-3" d="M1148,181a17,17,0,0,0,11.5-4.3c3.21-2.94,5.37-7.47,5.36-13.64a18,18,0,0,0-4.5-12.55,15.81,15.81,0,0,0-11.82-4.85,16.44,16.44,0,0,0-11.91,4.75c-3,3.09-4.88,7.6-4.88,13.19a17.87,17.87,0,0,0,4.68,12.69A15.82,15.82,0,0,0,1148,181M1141.25,155a8.28,8.28,0,0,1,7.15-3.74,8,8,0,0,1,4.17,1.09,9.67,9.67,0,0,1,3.79,4.67,16.27,16.27,0,0,1,1.2,6.16,14,14,0,0,1-2.7,8.71,8.22,8.22,0,0,1-13.24,0,13.87,13.87,0,0,1-2.65-8.57,15,15,0,0,1,2.28-8.32" transform="translate(-14.21 -8.61)"/><path class="cls-3" d="M1174.28,180.22h7.09V152.11h7.89v-5.75h-7.89v-1.14a13.56,13.56,0,0,1,1.2-6.29,4.68,4.68,0,0,1,1.71-1.84,5.31,5.31,0,0,1,2.81-.69,8.35,8.35,0,0,1,3.52.68l.73.34,1-5.86-.46-.18a14.17,14.17,0,0,0-5.29-1,11.4,11.4,0,0,0-11.46,8.43,22.34,22.34,0,0,0-.88,6.61v.93h-4.59v5.75h4.59Z" transform="translate(-14.21 -8.61)"/><polygon class="cls-3" points="1164.03 124.98 1164.03 124.98 1164.03 124.98 1164.03 124.98"/><polygon class="cls-3" points="398.5 205.84 397.89 205.84 391.41 205.84 391.41 252.51 398.5 252.51 398.5 205.84"/><path class="cls-3" d="M446.61,241.69v19.43h7.16V241c0-5.72-1.81-9.4-4.27-11.6a11.87,11.87,0,0,0-7.87-2.9,13.27,13.27,0,0,0-7.14,2,12.22,12.22,0,0,0-3.27,3l-.27-4.28h-6.5l.05.66c.2,2.68.27,5.42.27,8.79v24.41h7.16V240.88a7.85,7.85,0,0,1,.37-2.55h0v0a8.19,8.19,0,0,1,2.69-4,7.34,7.34,0,0,1,4.67-1.66,7.19,7.19,0,0,1,3.27.7,6,6,0,0,1,2.8,3.2,13.5,13.5,0,0,1,.87,5.12" transform="translate(-14.21 -8.61)"/><path class="cls-3" d="M465.82,250.19a21.3,21.3,0,0,0,.54,5.18,8.15,8.15,0,0,0,1.91,3.72h0l0,0a8.87,8.87,0,0,0,6.84,2.68,15,15,0,0,0,5.5-.86l.4-.16-.34-5.64-.73.19a12.45,12.45,0,0,1-3.28.39,4.07,4.07,0,0,1-1.81-.36,3.08,3.08,0,0,1-1.52-1.8,10.3,10.3,0,0,1-.5-3.57V233h8.49v-5.74h-8.49V217.7l-.77.21-6.26,1.67v7.68h-5.05V233h5.05Z" transform="translate(-14.21 -8.61)"/><path class="cls-3" d="M503.25,261.79a27,27,0,0,0,11.1-2.08l.46-.21-1.29-5.44-.67.28a20.91,20.91,0,0,1-8.8,1.64,10.82,10.82,0,0,1-7.35-2.5c-1.79-1.61-3-4-3.2-7.6h22.84l.06-.55a24.3,24.3,0,0,0,.2-2.83,19.15,19.15,0,0,0-2.85-10.27,12.3,12.3,0,0,0-4.35-4.08,14.13,14.13,0,0,0-6.9-1.63,14.72,14.72,0,0,0-11.68,5.33,20,20,0,0,0-4.23,12.88c0,5,1.54,9.32,4.42,12.34s7.08,4.72,12.24,4.72M495.9,235a7.83,7.83,0,0,1,2.53-2.18,8.24,8.24,0,0,1,7.35,0,6.86,6.86,0,0,1,3,3.53,11.51,11.51,0,0,1,.83,4h-16A12.33,12.33,0,0,1,495.9,235" transform="translate(-14.21 -8.61)"/><path class="cls-3" d="M537.22,275.2c4.2,0,8.93-.94,12.28-4.06h0a13,13,0,0,0,3.68-6,31.64,31.64,0,0,0,1.16-9.38V236.84c0-4,.14-6.57.27-8.93l0-.65h-6.42l-.21,3.79a10.75,10.75,0,0,0-2.78-2.61,12.61,12.61,0,0,0-7-1.92,14.46,14.46,0,0,0-10.6,4.71c-2.85,3.07-4.71,7.57-4.71,13.23A17.87,17.87,0,0,0,527,256.2,13.61,13.61,0,0,0,537.43,261" transform="translate(-14.21 -8.61)"/><path class="cls-3" d="M537.43,261a12.48,12.48,0,0,0,9.9-4.35v1.92a15,15,0,0,1-.76,5A7.94,7.94,0,0,1,543.1,268a11,11,0,0,1-5.67,1.36,17.87,17.87,0,0,1-9.25-2.47l-.67-.42-1.87,5.7.39.27c2.8,1.85,7.18,2.79,11.19,2.79" transform="translate(-14.21 -8.61)"/><path class="cls-4" d="M532.75,235.51a8.06,8.06,0,0,1,6.49-3.11,7.67,7.67,0,0,1,5,1.71,8.65,8.65,0,0,1,2.73,4.13h0a7.77,7.77,0,0,1,.31,2.5v5.86a9.78,9.78,0,0,1-.44,3A8.25,8.25,0,0,1,532.45,252a13.13,13.13,0,0,1-2.3-7.9,13.59,13.59,0,0,1,2.6-8.61" transform="translate(-14.21 -8.61)"/><path class="cls-3" d="M572.22,261.12v-18a16.43,16.43,0,0,1,.26-2.66,9.56,9.56,0,0,1,2.54-5.14,6.69,6.69,0,0,1,4.81-2,8,8,0,0,1,1.89.19l.75.17v-6.85l-.47-.11a7.28,7.28,0,0,0-1.83-.22,10,10,0,0,0-8.76,5.59l-.15-4.85h-6.45l.05.65c.2,3,.27,6.31.27,10.14v23.07Z" transform="translate(-14.21 -8.61)"/><path class="cls-3" d="M589.07,229.78l1.76,5.1.66-.42a15.71,15.71,0,0,1,8.16-2.33,8.2,8.2,0,0,1,3.7.74,5.09,5.09,0,0,1,2.56,2.84,9.51,9.51,0,0,1,.54,3.35v.07c-6.12,0-11,1.11-14.32,3.22a10.67,10.67,0,0,0-5.3,9.52,10,10,0,0,0,2.68,6.88,10.63,10.63,0,0,0,7.92,3.11,13,13,0,0,0,9.71-4.16l.39,3.42h6.68l-.14-.73a44.87,44.87,0,0,1-.52-7.71v-12.2c0-3.34-.62-6.81-2.59-9.49a10.08,10.08,0,0,0-4-3.25,15.44,15.44,0,0,0-6.4-1.22,20.84,20.84,0,0,0-11.06,3Zm17.52,19.73a5.57,5.57,0,0,1-.31,1.7h0a7.49,7.49,0,0,1-2.5,3.48,7.69,7.69,0,0,1-4.8,1.57,5.12,5.12,0,0,1-3.52-1.23A4.92,4.92,0,0,1,594,251.2a5.39,5.39,0,0,1,1-3.33,8.14,8.14,0,0,1,4.59-2.7,26.3,26.3,0,0,1,6.65-.71h.34Z" transform="translate(-14.21 -8.61)"/><path class="cls-3" d="M641.05,233v-5.74h-8.49V217.7l-.78.21-6.25,1.67v7.68h-5.06V233h5.06v17.19a21.33,21.33,0,0,0,.53,5.18,8.26,8.26,0,0,0,1.92,3.72h0v0h0a8.85,8.85,0,0,0,6.84,2.68,15.15,15.15,0,0,0,5.49-.85l.41-.17-.34-5.65-.73.2a12.45,12.45,0,0,1-3.28.39,4.12,4.12,0,0,1-1.82-.36,3.11,3.11,0,0,1-1.52-1.8,10.57,10.57,0,0,1-.49-3.57V233Z" transform="translate(-14.21 -8.61)"/><polygon class="cls-3" points="634.84 252.51 635.46 252.51 642.01 252.51 642.01 218.65 634.84 218.65 634.84 252.51"/><path class="cls-3" d="M656.89,218.71h0a4.37,4.37,0,0,0-1.15-3.05,4.21,4.21,0,0,0-3.1-1.26,4.36,4.36,0,0,0-3.15,7.33,4.13,4.13,0,0,0,3,1.25,4.5,4.5,0,0,0,3.18-1.19,4,4,0,0,0,1.21-2.93Z" transform="translate(-14.21 -8.61)"/><path class="cls-3" d="M677.28,246l-6.54-18.75h-7.67l12.87,33.86h6.51l13.29-33.86H688.2L681.72,246c-.85,2.33-1.61,4.5-2.26,6.64-.6-2.14-1.33-4.31-2.18-6.64" transform="translate(-14.21 -8.61)"/><path class="cls-3" d="M716,261.79a27,27,0,0,0,11.1-2.08l.47-.21-1.3-5.44-.67.28a20.89,20.89,0,0,1-8.79,1.64,10.85,10.85,0,0,1-7.36-2.5c-1.79-1.61-3-4-3.2-7.6H729.1l.06-.55a24.3,24.3,0,0,0,.2-2.83,19.15,19.15,0,0,0-2.85-10.27,12.3,12.3,0,0,0-4.35-4.08,14.12,14.12,0,0,0-6.89-1.63,14.74,14.74,0,0,0-11.69,5.33,20,20,0,0,0-4.23,12.88c0,5,1.54,9.32,4.42,12.34s7.08,4.72,12.24,4.72M708.66,235a7.93,7.93,0,0,1,2.53-2.18,7.66,7.66,0,0,1,3.6-.86,7.8,7.8,0,0,1,3.76.87,7,7,0,0,1,3,3.53,11.73,11.73,0,0,1,.82,4h-16a12.45,12.45,0,0,1,2.26-5.38" transform="translate(-14.21 -8.61)"/><path class="cls-3" d="M762.93,261.86a12.93,12.93,0,0,0,9.71-4.16l.39,3.42h6.68l-.13-.73a44.8,44.8,0,0,1-.53-7.71v-12.2c0-3.34-.61-6.8-2.58-9.49a10.18,10.18,0,0,0-4-3.25,15.4,15.4,0,0,0-6.4-1.22,20.8,20.8,0,0,0-11,3l-.41.26,1.76,5.1.66-.42a15.73,15.73,0,0,1,8.16-2.33,8.2,8.2,0,0,1,3.7.74,5.09,5.09,0,0,1,2.56,2.84,9.51,9.51,0,0,1,.54,3.35v.07c-6.12,0-11,1.11-14.32,3.22a10.72,10.72,0,0,0-5.29,9.52,9.94,9.94,0,0,0,2.68,6.88,10.59,10.59,0,0,0,7.91,3.11m-2.42-14a8.18,8.18,0,0,1,4.59-2.7,26.3,26.3,0,0,1,6.65-.71h.34v5a5.45,5.45,0,0,1-.31,1.69,7.41,7.41,0,0,1-2.49,3.48,7.74,7.74,0,0,1-4.81,1.57A5.12,5.12,0,0,1,761,255a4.94,4.94,0,0,1-1.46-3.82,5.39,5.39,0,0,1,1-3.33" transform="translate(-14.21 -8.61)"/><path class="cls-3" d="M797.12,261.12V240.89a7.89,7.89,0,0,1,.36-2.56h0v0a8.26,8.26,0,0,1,2.69-4,7.37,7.37,0,0,1,4.68-1.66,7.12,7.12,0,0,1,3.26.7,6,6,0,0,1,2.81,3.2,13.7,13.7,0,0,1,.87,5.12v19.43H819V241c0-5.72-1.81-9.4-4.28-11.6a11.84,11.84,0,0,0-7.87-2.9,13.21,13.21,0,0,0-7.13,2,12.27,12.27,0,0,0-3.28,3l-.27-4.28h-6.49l.05.66c.2,2.68.26,5.42.26,8.79v24.41Z" transform="translate(-14.21 -8.61)"/><path class="cls-3" d="M859.6,260.45c-.19-2.19-.26-5.49-.26-8.37V212h-7.16v18.36a12.09,12.09,0,0,0-9.37-3.87,14.26,14.26,0,0,0-10.74,4.85c-2.78,3.12-4.5,7.62-4.5,13.13v.16h0a18.81,18.81,0,0,0,4.17,12.41,13.55,13.55,0,0,0,10.4,4.79,12.92,12.92,0,0,0,10.73-5.19l.21,4.45h6.59Zm-7.42-13.63a10,10,0,0,1-.25,2.41h0a8.75,8.75,0,0,1-3,4.87,8.12,8.12,0,0,1-5.06,1.74,8.14,8.14,0,0,1-7.72-5,15.3,15.3,0,0,1-1.3-6.46,14.51,14.51,0,0,1,2.46-8.64,8.08,8.08,0,0,1,6.7-3.35,7.94,7.94,0,0,1,5.22,1.88,8.4,8.4,0,0,1,2.74,4.52h0a9.91,9.91,0,0,1,.25,2.33Z" transform="translate(-14.21 -8.61)"/><polygon class="cls-3" points="880.45 231.95 897.64 231.95 897.64 225.86 880.45 225.86 880.45 211.99 899.05 211.99 899.05 205.84 873.36 205.84 873.36 206.46 873.36 252.51 880.45 252.51 880.45 231.95"/><path class="cls-3" d="M941.77,227.26V247.9a8,8,0,0,1-.5,2.8,8.29,8.29,0,0,1-2.62,3.42,7.45,7.45,0,0,1-4.62,1.59,6.71,6.71,0,0,1-3.13-.68,5.83,5.83,0,0,1-2.7-3.3,17,17,0,0,1-.84-5.79V227.26H920.2V247a22.1,22.1,0,0,0,1.07,7.27,11,11,0,0,0,4.67,6,11.88,11.88,0,0,0,6.13,1.59,13,13,0,0,0,7.33-2.15,13.45,13.45,0,0,0,3.08-2.89l.27,4.3h6.5l0-.67c-.2-2.53-.27-5.49-.27-8.85V227.26Z" transform="translate(-14.21 -8.61)"/><path class="cls-3" d="M967.64,238.32v0a8.19,8.19,0,0,1,2.69-4,7.35,7.35,0,0,1,4.68-1.66,7.12,7.12,0,0,1,3.26.7,5.94,5.94,0,0,1,2.8,3.2,13.5,13.5,0,0,1,.87,5.12v19.43h7.16V241c0-5.72-1.81-9.4-4.27-11.6a11.85,11.85,0,0,0-7.87-2.9,13.27,13.27,0,0,0-7.14,2,12.22,12.22,0,0,0-3.27,3l-.27-4.28h-6.5l.05.66c.2,2.68.27,5.42.27,8.79v24.41h7.16V240.89a8.15,8.15,0,0,1,.37-2.56Z" transform="translate(-14.21 -8.61)"/><path class="cls-3" d="M1015.87,232.53a13.17,13.17,0,0,1,6.57,1.47l.67.39,1.72-5.82-.46-.23a15.85,15.85,0,0,0-3.55-1.2,22.57,22.57,0,0,0-5-.55,18.09,18.09,0,0,0-13.19,5.07,17.9,17.9,0,0,0-4.95,12.86,17.57,17.57,0,0,0,4.6,12.5,16.65,16.65,0,0,0,12.26,4.77,26.21,26.21,0,0,0,5.88-.66,16.26,16.26,0,0,0,3.77-1.3l.42-.22-.1-.46-1.18-5.17-.68.3a16.21,16.21,0,0,1-7,1.56,10.36,10.36,0,0,1-7.65-3.08,12,12,0,0,1-3.06-8.5,12.52,12.52,0,0,1,2.8-8.32,10.35,10.35,0,0,1,8.11-3.41" transform="translate(-14.21 -8.61)"/><path class="cls-3" d="M1035.07,250.19a21.3,21.3,0,0,0,.54,5.18,8.15,8.15,0,0,0,1.91,3.72h0l0,0h0a8.87,8.87,0,0,0,6.84,2.68,15,15,0,0,0,5.5-.86l.4-.16-.34-5.64-.73.19a12.42,12.42,0,0,1-3.27.39,4.16,4.16,0,0,1-1.83-.36,3.06,3.06,0,0,1-1.51-1.8,10.3,10.3,0,0,1-.5-3.57V233h8.49v-5.74h-8.49V217.7l-.77.21-6.26,1.67v7.68h-5V233h5Z" transform="translate(-14.21 -8.61)"/><path class="cls-3" d="M1066.44,218.69h0a4.39,4.39,0,0,0-1.16-3,4.18,4.18,0,0,0-3.1-1.27,4.35,4.35,0,0,0-3.14,7.33,4.1,4.1,0,0,0,3,1.25,4.52,4.52,0,0,0,3.18-1.19,4,4,0,0,0,1.21-2.93Z" transform="translate(-14.21 -8.61)"/><polygon class="cls-3" points="1044.39 252.51 1045 252.51 1051.55 252.51 1051.55 218.65 1044.39 218.65 1044.39 252.51"/><path class="cls-3" d="M1074.58,244.46a17.83,17.83,0,0,0,4.68,12.68,15.79,15.79,0,0,0,11.57,4.72,17,17,0,0,0,11.5-4.3c3.21-2.94,5.37-7.47,5.36-13.64a18,18,0,0,0-4.5-12.55,15.8,15.8,0,0,0-11.82-4.85,16.44,16.44,0,0,0-11.91,4.75c-3,3.09-4.88,7.59-4.88,13.19m9.51-8.52a8.28,8.28,0,0,1,7.15-3.74,7.93,7.93,0,0,1,4.17,1.09,9.67,9.67,0,0,1,3.79,4.67,16.27,16.27,0,0,1,1.2,6.16,14,14,0,0,1-2.7,8.71,8.22,8.22,0,0,1-13.24,0,13.87,13.87,0,0,1-2.65-8.57,14.94,14.94,0,0,1,2.28-8.32" transform="translate(-14.21 -8.61)"/><path class="cls-3" d="M1123.67,261.12V240.89a7.87,7.87,0,0,1,.37-2.56h0v0a8.19,8.19,0,0,1,2.69-4,7.35,7.35,0,0,1,4.68-1.66,7.12,7.12,0,0,1,3.26.7,6,6,0,0,1,2.81,3.2,13.71,13.71,0,0,1,.86,5.12v19.43h7.16V241c0-5.72-1.81-9.4-4.27-11.6a11.84,11.84,0,0,0-7.87-2.9,13.21,13.21,0,0,0-7.13,2,12.12,12.12,0,0,0-3.28,3l-.27-4.28h-6.5l0,.66c.2,2.68.27,5.42.27,8.79v24.41Z" transform="translate(-14.21 -8.61)"/><path class="cls-3" d="M1174,227.74a15.4,15.4,0,0,0-6.4-1.22,20.86,20.86,0,0,0-11.06,3l-.4.26,1.76,5.1.66-.42a15.73,15.73,0,0,1,8.16-2.33,8.2,8.2,0,0,1,3.7.74,5.09,5.09,0,0,1,2.56,2.84,9.51,9.51,0,0,1,.54,3.35v.07c-6.12,0-11,1.11-14.32,3.22a10.69,10.69,0,0,0-5.29,9.52,9.94,9.94,0,0,0,2.68,6.88,10.59,10.59,0,0,0,7.91,3.11,12.93,12.93,0,0,0,9.71-4.16l.39,3.42h6.68l-.14-.73a45.9,45.9,0,0,1-.52-7.71v-12.2c0-3.34-.61-6.81-2.58-9.49a10.11,10.11,0,0,0-4-3.25m-.34,21.77a5.45,5.45,0,0,1-.31,1.69,7.37,7.37,0,0,1-2.5,3.48,7.69,7.69,0,0,1-4.8,1.57,5.12,5.12,0,0,1-3.52-1.23,4.92,4.92,0,0,1-1.46-3.82,5.39,5.39,0,0,1,1-3.33,8.18,8.18,0,0,1,4.59-2.7,26.3,26.3,0,0,1,6.65-.71h.34Z" transform="translate(-14.21 -8.61)"/><polygon class="cls-3" points="1177.33 204.03 1177.33 252.51 1184.49 252.51 1184.49 203.42 1177.33 203.42 1177.33 204.03"/><path class="cls-3" d="M1225.81,261.12h6.83l1.25-20.06c.32-5.36.6-11.2.77-16.21,1.17,4.35,2.64,9,4.31,13.94h0l7.49,22.06h5.32l8.16-22.45c1.84-5,3.41-9.62,4.75-14,.08,5.1.4,11.06.67,16.18h0l1.18,20.54h7l-2.9-46.67h-8.49l-8.24,22.38h0c-1.75,4.95-3.2,9.35-4.3,13.43-1.09-4.17-2.48-8.57-4.11-13.43h0l-7.9-22.39h-8.49Z" transform="translate(-14.21 -8.61)"/><path class="cls-3" d="M1298.33,261.79a27,27,0,0,0,11.11-2.08l.46-.21-1.3-5.44-.66.28a21,21,0,0,1-8.8,1.64,10.86,10.86,0,0,1-7.36-2.5c-1.79-1.61-3-4-3.19-7.6h22.83l.06-.55a21.82,21.82,0,0,0,.21-2.83,19.15,19.15,0,0,0-2.85-10.27,12.39,12.39,0,0,0-4.35-4.08,14.16,14.16,0,0,0-6.9-1.63,14.75,14.75,0,0,0-11.69,5.33,20,20,0,0,0-4.22,12.88c0,5,1.54,9.32,4.42,12.34s7.08,4.72,12.23,4.72M1291,235a8,8,0,0,1,2.54-2.18,7.6,7.6,0,0,1,3.6-.86,7.72,7.72,0,0,1,3.75.87,6.86,6.86,0,0,1,3,3.53,11.5,11.5,0,0,1,.82,4h-16A12.31,12.31,0,0,1,1291,235" transform="translate(-14.21 -8.61)"/><path class="cls-3" d="M1318,244.66a18.81,18.81,0,0,0,4.17,12.41,13.55,13.55,0,0,0,10.4,4.79,12.92,12.92,0,0,0,10.73-5.19l.21,4.44h6.59l-.06-.66c-.2-2.19-.27-5.49-.27-8.37V212h-7.16v18.37a12.08,12.08,0,0,0-9.37-3.87,14.27,14.27,0,0,0-10.74,4.85c-2.78,3.12-4.5,7.62-4.5,13.13v.16Zm9.7-8.91a8,8,0,0,1,6.69-3.35,7.94,7.94,0,0,1,5.22,1.88,8.34,8.34,0,0,1,2.74,4.52h0a10,10,0,0,1,.25,2.34v5.66a10,10,0,0,1-.25,2.41h0a8.73,8.73,0,0,1-3,4.87,8.12,8.12,0,0,1-5,1.74,8.14,8.14,0,0,1-7.73-5,15.45,15.45,0,0,1-1.3-6.46,14.42,14.42,0,0,1,2.47-8.64" transform="translate(-14.21 -8.61)"/><path class="cls-3" d="M1364.4,223a4.52,4.52,0,0,0,3.18-1.19,4,4,0,0,0,1.21-2.93v-.16h0a4.37,4.37,0,0,0-1.15-3,4.18,4.18,0,0,0-3.1-1.27,4.35,4.35,0,0,0-3.15,7.33,4.11,4.11,0,0,0,3,1.25" transform="translate(-14.21 -8.61)"/><polygon class="cls-3" points="1346.74 252.51 1347.35 252.51 1353.9 252.51 1353.9 218.65 1346.74 218.65 1346.74 252.51"/><path class="cls-3" d="M1393.79,261.79a26.3,26.3,0,0,0,5.89-.66,16.44,16.44,0,0,0,3.77-1.3l.42-.22-.11-.46-1.17-5.17-.69.3a16.14,16.14,0,0,1-7,1.56,10.37,10.37,0,0,1-7.65-3.08,12,12,0,0,1-3.06-8.5,12.53,12.53,0,0,1,2.81-8.32,10.31,10.31,0,0,1,8.1-3.41,13.19,13.19,0,0,1,6.58,1.47l.67.39,1.71-5.82-.46-.23a15.74,15.74,0,0,0-3.54-1.2,22.67,22.67,0,0,0-5-.55,17.18,17.18,0,0,0-18.14,17.93c0,5.12,1.65,9.46,4.61,12.5a16.62,16.62,0,0,0,12.25,4.77" transform="translate(-14.21 -8.61)"/><path class="cls-3" d="M1415.5,223a4.52,4.52,0,0,0,3.18-1.19,4,4,0,0,0,1.21-2.93v-.16h0a4.42,4.42,0,0,0-1.15-3,4.18,4.18,0,0,0-3.1-1.27,4.35,4.35,0,0,0-3.15,7.33,4.11,4.11,0,0,0,3,1.25" transform="translate(-14.21 -8.61)"/><polygon class="cls-3" points="1397.84 252.51 1398.45 252.51 1405 252.51 1405 218.65 1397.84 218.65 1397.84 252.51"/><path class="cls-3" d="M1445.3,232.67a7.12,7.12,0,0,1,3.26.7,6,6,0,0,1,2.81,3.2,13.71,13.71,0,0,1,.86,5.12v19.43h7.16V241c0-5.72-1.8-9.4-4.27-11.6a11.84,11.84,0,0,0-7.87-2.9,13.21,13.21,0,0,0-7.13,2,12.11,12.11,0,0,0-3.28,3l-.27-4.28h-6.5l.06.66c.2,2.68.26,5.42.26,8.79v24.41h7.16V240.88a8.13,8.13,0,0,1,.37-2.55h0v0a8.26,8.26,0,0,1,2.69-4,7.37,7.37,0,0,1,4.68-1.66" transform="translate(-14.21 -8.61)"/><path class="cls-3" d="M1484.67,261.79a27,27,0,0,0,11.1-2.08l.47-.21-1.3-5.44-.67.28a20.86,20.86,0,0,1-8.79,1.64,10.85,10.85,0,0,1-7.36-2.5c-1.79-1.61-3-4-3.2-7.6h22.84l.06-.55a24.3,24.3,0,0,0,.2-2.83,19.15,19.15,0,0,0-2.85-10.27,12.3,12.3,0,0,0-4.35-4.08,14.12,14.12,0,0,0-6.89-1.63,14.72,14.72,0,0,0-11.69,5.33,20,20,0,0,0-4.23,12.88c0,5,1.54,9.32,4.43,12.34s7.07,4.72,12.23,4.72M1477.32,235a8,8,0,0,1,2.54-2.18,7.59,7.59,0,0,1,3.59-.86,7.8,7.8,0,0,1,3.76.87,6.91,6.91,0,0,1,3,3.53,11.73,11.73,0,0,1,.82,4h-16a12.31,12.31,0,0,1,2.25-5.38" transform="translate(-14.21 -8.61)"/><path class="cls-4" d="M537.34,261a12.45,12.45,0,0,0,9.9-4.35v1.92a15.26,15.26,0,0,1-.75,5A8,8,0,0,1,543,268a11.6,11.6,0,0,1-5.8,1.33" transform="translate(-14.21 -8.61)"/></svg>