<svg xmlns="http://www.w3.org/2000/svg" viewBox="0 0 728.33 125.05"><defs><style>.cls-1{fill:#6aaa37;}</style></defs><title>Asset 1</title><g id="Layer_2" data-name="Layer 2"><g id="Layer_1-2" data-name="Layer 1"><path class="cls-1" d="M12.15,93.68a10.49,10.49,0,0,0-7.94,3.43,13.31,13.31,0,0,0-3.14,9.06,12.9,12.9,0,0,0,3,8.72,10.1,10.1,0,0,0,7.73,3.35A10.59,10.59,0,0,0,19.63,115c2-2.12,3.25-5.26,3.25-9.31A13,13,0,0,0,20,97.07a10.11,10.11,0,0,0-7.82-3.39M15,114.45a6.35,6.35,0,0,1-3,.72,6.22,6.22,0,0,1-3-.73,7.23,7.23,0,0,1-3-3.33,11.82,11.82,0,0,1-1.06-5,11.6,11.6,0,0,1,1.8-6.56,6.39,6.39,0,0,1,2.21-2,6.27,6.27,0,0,1,3.1-.76,6.29,6.29,0,0,1,3.11.78,7.3,7.3,0,0,1,3,3.45,12,12,0,0,1,1,4.88,11.36,11.36,0,0,1-1.87,6.6,6.71,6.71,0,0,1-2.23,2"/><path class="cls-1" d="M36.36,100.22a7.31,7.31,0,0,0-3.67.89,6.63,6.63,0,0,0-2,1.8l-.12-2.32H27.19l0,.33c.07,1.58.13,3.29.13,5.42v18.33H31v-8.49a6.37,6.37,0,0,0,4.88,2.06,7.45,7.45,0,0,0,5.48-2.32,9.83,9.83,0,0,0,2.4-6.93,9.69,9.69,0,0,0-2.09-6.33,6.76,6.76,0,0,0-5.27-2.44m-5.27,11.72a7.1,7.1,0,0,1-.13-1.16v-2.86a4.63,4.63,0,0,1,.2-1.15h0a4.51,4.51,0,0,1,4.27-3.51,4.32,4.32,0,0,1,2,.46,4.58,4.58,0,0,1,2,2.13,7.54,7.54,0,0,1,.7,3.29,7.3,7.3,0,0,1-1.27,4.45,4.15,4.15,0,0,1-3.47,1.66,4.35,4.35,0,0,1-4.24-3.3"/><path class="cls-1" d="M52.49,95.72l-.4.1-3.19.86v3.91H46.33v2.93H48.9v8.77a11,11,0,0,0,.28,2.64,4.19,4.19,0,0,0,1,1.9h0a4.53,4.53,0,0,0,3.49,1.37,7.71,7.71,0,0,0,2.8-.44l.21-.08-.17-2.88-.37.1a6.84,6.84,0,0,1-1.68.19,2,2,0,0,1-.92-.18,1.58,1.58,0,0,1-.78-.92,5.29,5.29,0,0,1-.25-1.81v-8.67h4.33v-2.93H52.49Z"/><polygon class="cls-1" points="60.91 117.86 61.22 117.86 64.56 117.86 64.56 100.59 60.91 100.59 60.91 117.86"/><path class="cls-1" d="M64.9,96.23h0a2.23,2.23,0,0,0-.59-1.55A2.1,2.1,0,0,0,62.73,94a2.21,2.21,0,0,0-1.6,3.73,2.09,2.09,0,0,0,1.53.64,2.29,2.29,0,0,0,1.63-.61,2.06,2.06,0,0,0,.61-1.49Z"/><path class="cls-1" d="M88.86,100.22A5.91,5.91,0,0,0,85,101.45a6.73,6.73,0,0,0-1.66,1.8,5.38,5.38,0,0,0-1.67-2,5.14,5.14,0,0,0-3.12-1,6,6,0,0,0-3.47,1,6.38,6.38,0,0,0-1.59,1.56l-.11-2.17H70.1l0,.34c.1,1.36.14,2.77.14,4.48v12.45h3.58V107.51a4,4,0,0,1,.22-1.37h0a4.45,4.45,0,0,1,1.25-1.95,3.32,3.32,0,0,1,2.2-.86,3,3,0,0,1,1.37.31,2.86,2.86,0,0,1,1.32,1.47,6,6,0,0,1,.47,2.48v10.28h3.58V107.27a4.91,4.91,0,0,1,.22-1.41,4.09,4.09,0,0,1,1.24-1.79,3.16,3.16,0,0,1,2-.75,3.28,3.28,0,0,1,1.46.31,3,3,0,0,1,1.37,1.59,7.81,7.81,0,0,1,.47,2.91v9.73h3.58V107.75c0-3-.83-4.85-2-6a5.31,5.31,0,0,0-3.78-1.53"/><path class="cls-1" d="M85,101.45Z"/><path class="cls-1" d="M104.24,96.22a2.23,2.23,0,0,0-.59-1.55,2.11,2.11,0,0,0-1.58-.64,2.22,2.22,0,0,0-1.58.63,2.29,2.29,0,0,0,0,3.1,2.11,2.11,0,0,0,1.54.64,2.25,2.25,0,0,0,1.62-.61,2,2,0,0,0,.62-1.49Z"/><polygon class="cls-1" points="100.24 117.86 100.56 117.86 103.9 117.86 103.9 100.59 100.24 100.59 100.24 117.86"/><path class="cls-1" d="M114.19,112.65h0l7.48-9.74,0-2.32H108.39v3.07h8.71c-.61.72-1.19,1.39-1.79,2.14h0l-7.59,9.89v2.17h14.14v-3h-9.42c.61-.71,1.18-1.41,1.76-2.18"/><path class="cls-1" d="M129.62,96.23h0a2.23,2.23,0,0,0-.59-1.55,2.11,2.11,0,0,0-1.58-.64,2.21,2.21,0,0,0-1.61,3.73,2.09,2.09,0,0,0,1.54.64,2.27,2.27,0,0,0,1.62-.61,2,2,0,0,0,.62-1.49Z"/><polygon class="cls-1" points="125.62 117.86 125.93 117.86 129.27 117.86 129.27 100.59 125.62 100.59 125.62 117.86"/><path class="cls-1" d="M147.59,101.7a6,6,0,0,0-4-1.48,6.75,6.75,0,0,0-3.64,1,6.2,6.2,0,0,0-1.67,1.54l-.13-2.19h-3.32l0,.34c.1,1.37.13,2.77.13,4.48v12.45h3.66V107.54a4.12,4.12,0,0,1,.18-1.3h0a4.16,4.16,0,0,1,1.37-2,3.78,3.78,0,0,1,2.39-.85,3.55,3.55,0,0,1,1.66.36,3,3,0,0,1,1.43,1.63,6.64,6.64,0,0,1,.44,2.62v9.9h3.66V107.61c0-2.91-.93-4.79-2.18-5.91"/><path class="cls-1" d="M167.07,100.59l-.1,1.93a5.69,5.69,0,0,0-1.42-1.33,6.4,6.4,0,0,0-3.58-1,7.35,7.35,0,0,0-5.41,2.4,9.74,9.74,0,0,0-2.4,6.75,9.1,9.1,0,0,0,2.07,6,6.93,6.93,0,0,0,5.33,2.43,6.37,6.37,0,0,0,5.05-2.21v1a7.74,7.74,0,0,1-.39,2.58,4,4,0,0,1-1.76,2.23,5.64,5.64,0,0,1-2.9.69,9.06,9.06,0,0,1-4.72-1.26l-.34-.21-.95,2.91.2.13a11,11,0,0,0,5.71,1.43,9.17,9.17,0,0,0,6.26-2.07h0a6.6,6.6,0,0,0,1.88-3,16.29,16.29,0,0,0,.59-4.79v-9.66c0-2,.07-3.35.14-4.56l0-.33h-3.28ZM166.35,112a4.21,4.21,0,0,1-7.33,1.24,6.66,6.66,0,0,1-1.17-4,6.94,6.94,0,0,1,1.32-4.39,4.18,4.18,0,0,1,3.32-1.59,4,4,0,0,1,2.53.88,4.39,4.39,0,0,1,1.4,2.1h0a4,4,0,0,1,.16,1.27v3a4.9,4.9,0,0,1-.23,1.51"/><polygon class="cls-1" points="198.79 103.76 188.21 103.76 188.21 94.06 187.9 94.06 184.59 94.06 184.59 117.86 188.21 117.86 188.21 107 198.79 107 198.79 117.86 202.45 117.86 202.45 94.06 198.79 94.06 198.79 103.76"/><path class="cls-1" d="M218.65,101.05a7.21,7.21,0,0,0-3.52-.83,7.52,7.52,0,0,0-6,2.71A10.22,10.22,0,0,0,207,109.5a8.91,8.91,0,0,0,2.26,6.3,8.36,8.36,0,0,0,6.24,2.41,13.83,13.83,0,0,0,5.67-1.06l.23-.11-.66-2.78-.34.15a10.58,10.58,0,0,1-4.49.83,5.52,5.52,0,0,1-3.75-1.27,5.38,5.38,0,0,1-1.63-3.88h11.65l0-.28a12.6,12.6,0,0,0,.1-1.44,9.72,9.72,0,0,0-1.45-5.24,6.18,6.18,0,0,0-2.22-2.08m-5.59,2.4a3.72,3.72,0,0,1,1.83-.44,4,4,0,0,1,1.92.44,3.56,3.56,0,0,1,1.54,1.8,5.91,5.91,0,0,1,.42,2h-8.16a6.34,6.34,0,0,1,1.15-2.74,3.87,3.87,0,0,1,1.3-1.11"/><path class="cls-1" d="M239.07,113.56v-6.22a8.08,8.08,0,0,0-1.32-4.84,5.11,5.11,0,0,0-2.06-1.66,7.8,7.8,0,0,0-3.26-.62,10.65,10.65,0,0,0-5.64,1.52l-.2.14.89,2.6.34-.22a8,8,0,0,1,4.16-1.18,4.19,4.19,0,0,1,1.89.37,2.58,2.58,0,0,1,1.3,1.46,4.7,4.7,0,0,1,.28,1.71v0a14,14,0,0,0-7.31,1.64,5.87,5.87,0,0,0-2,2,5.76,5.76,0,0,0-.69,2.81,5.09,5.09,0,0,0,1.37,3.51,5.41,5.41,0,0,0,4,1.58,6.6,6.6,0,0,0,5-2.12l.2,1.74h3.41l-.07-.37a23.24,23.24,0,0,1-.27-3.93m-3.71-.75a3.86,3.86,0,0,1-1.27,1.77,3.93,3.93,0,0,1-2.45.8,2.6,2.6,0,0,1-1.8-.63,2.49,2.49,0,0,1-.74-2,2.76,2.76,0,0,1,.51-1.69,4.15,4.15,0,0,1,2.35-1.38,13.61,13.61,0,0,1,3.39-.37h.17v2.57a2.77,2.77,0,0,1-.16.87"/><polygon class="cls-1" points="244.63 93.14 244.63 117.86 248.29 117.86 248.29 92.82 244.63 92.82 244.63 93.14"/><path class="cls-1" d="M258.33,95.72l-.4.1-3.19.86v3.91h-2.58v2.93h2.58v8.77a11.05,11.05,0,0,0,.27,2.64,4.3,4.3,0,0,0,1,1.9h0a4.5,4.5,0,0,0,3.49,1.37,7.71,7.71,0,0,0,2.8-.44l.21-.08-.17-2.88-.38.1a6.68,6.68,0,0,1-1.67.19,2.08,2.08,0,0,1-.93-.18,1.56,1.56,0,0,1-.77-.92,5.29,5.29,0,0,1-.25-1.81v-8.67h4.33v-2.93h-4.33Z"/><path class="cls-1" d="M279.37,101.7a6,6,0,0,0-4-1.48,6.59,6.59,0,0,0-3.24.89h0a5.92,5.92,0,0,0-1.76,1.49V92.82h-3.66v25h3.66V107.51a3.25,3.25,0,0,1,.18-1.32h0v0a4.23,4.23,0,0,1,1.39-2,3.81,3.81,0,0,1,2.37-.83,3.71,3.71,0,0,1,1.66.36,3.07,3.07,0,0,1,1.43,1.65,6.91,6.91,0,0,1,.44,2.63v9.87h3.66V107.65c0-2.94-.93-4.82-2.17-6"/><path class="cls-1" d="M307,96.82a10.57,10.57,0,0,1,4.54.93l.33.16.9-3-.23-.12a12.66,12.66,0,0,0-5.64-1.07,12.38,12.38,0,0,0-9,3.46,12.53,12.53,0,0,0-3.45,9,12.08,12.08,0,0,0,3.37,8.94,11.84,11.84,0,0,0,8.39,3.1,19.59,19.59,0,0,0,3.77-.35,9.74,9.74,0,0,0,2.49-.79l.23-.11-.06-.25-.72-2.74-.34.17a11.83,11.83,0,0,1-4.75.93,8.37,8.37,0,0,1-6.34-2.43,9.38,9.38,0,0,1-2.25-6.57,9.5,9.5,0,0,1,2.4-6.85,8.53,8.53,0,0,1,6.33-2.4"/><path class="cls-1" d="M329.06,113.56v-6.22a8.08,8.08,0,0,0-1.32-4.84,5.11,5.11,0,0,0-2.06-1.66,7.8,7.8,0,0,0-3.26-.62,10.65,10.65,0,0,0-5.64,1.52l-.2.14.89,2.6.34-.22a8,8,0,0,1,4.16-1.18,4.19,4.19,0,0,1,1.89.37,2.58,2.58,0,0,1,1.3,1.46,4.7,4.7,0,0,1,.28,1.71v0a14,14,0,0,0-7.31,1.64,5.87,5.87,0,0,0-2,2,5.76,5.76,0,0,0-.68,2.81,5.08,5.08,0,0,0,1.36,3.51,5.41,5.41,0,0,0,4,1.58,6.6,6.6,0,0,0,5-2.12l.2,1.74h3.41l-.07-.37a23.24,23.24,0,0,1-.27-3.93m-3.71-.75a3.86,3.86,0,0,1-1.27,1.77,3.91,3.91,0,0,1-2.45.8,2.6,2.6,0,0,1-1.8-.63,2.49,2.49,0,0,1-.74-2,2.7,2.7,0,0,1,.52-1.69,4.09,4.09,0,0,1,2.34-1.38,13.61,13.61,0,0,1,3.39-.37h.17v2.57a2.77,2.77,0,0,1-.16.87"/><path class="cls-1" d="M342.29,100.22a5.11,5.11,0,0,0-4.46,2.85l-.08-2.48h-3.29l0,.34c.1,1.53.13,3.21.13,5.17v11.76h3.62v-9.18a9.24,9.24,0,0,1,.13-1.36,4.9,4.9,0,0,1,1.3-2.62,3.37,3.37,0,0,1,2.45-1,4.51,4.51,0,0,1,1,.09l.38.09v-3.49l-.24-.06a3,3,0,0,0-.94-.11"/><path class="cls-1" d="M357.26,101.05a7.17,7.17,0,0,0-3.51-.83,7.54,7.54,0,0,0-6,2.71,10.21,10.21,0,0,0-2.15,6.57,8.9,8.9,0,0,0,2.25,6.3,8.38,8.38,0,0,0,6.24,2.41,13.79,13.79,0,0,0,5.67-1.06L360,117l-.66-2.78-.34.15a10.56,10.56,0,0,1-4.48.83,5.53,5.53,0,0,1-3.76-1.27,5.38,5.38,0,0,1-1.63-3.88H360.8l0-.28a12.09,12.09,0,0,0,.11-1.44,9.82,9.82,0,0,0-1.46-5.24,6.18,6.18,0,0,0-2.22-2.08m-5.59,2.4a3.78,3.78,0,0,1,1.83-.44,4,4,0,0,1,1.92.44,3.47,3.47,0,0,1,1.54,1.8,5.91,5.91,0,0,1,.42,2h-8.16a6.34,6.34,0,0,1,1.15-2.74,4,4,0,0,1,1.3-1.11"/><path class="cls-1" d="M388.38,94.15a11.35,11.35,0,0,0-4.62-.94,11,11,0,0,0-8.28,3.59,13.78,13.78,0,0,0-3.26,9.37,13.41,13.41,0,0,0,3.11,9,10.63,10.63,0,0,0,8.09,3.51,11.06,11.06,0,0,0,8.17-3.36,11.56,11.56,0,0,0,2.48-4.09,16.34,16.34,0,0,0,.89-5.54,13.39,13.39,0,0,0-3-9,10,10,0,0,0-3.55-2.61m-2,19.88a6,6,0,0,1-2.8.68,5.88,5.88,0,0,1-2.77-.68,6.84,6.84,0,0,1-2.82-3.12,11.31,11.31,0,0,1-1-4.81,11.14,11.14,0,0,1,1.72-6.29,6,6,0,0,1,2.05-1.89,5.85,5.85,0,0,1,2.88-.7,5.78,5.78,0,0,1,2.87.72,6.87,6.87,0,0,1,2.78,3.23,11.51,11.51,0,0,1,1,4.69,10.91,10.91,0,0,1-1.79,6.33,6.11,6.11,0,0,1-2.06,1.84"/><path class="cls-1" d="M413.17,104.07c0,2.19,0,4.09.11,5.94-.75-1.38-1.59-2.81-2.55-4.33l-7.66-12.09H398.6v24.74H403V107.65c0-2.39,0-4.38-.09-6.25.88,1.61,1.85,3.22,2.84,4.81l7.59,12.12h4.24V93.59h-4.39Z"/><polygon class="cls-1" points="427.08 107.47 436.09 107.47 436.09 106.68 436.09 103.43 427.08 103.43 427.08 97.67 436.61 97.67 436.61 93.59 422.53 93.59 422.53 118.33 437.12 118.33 437.12 114.26 427.08 114.26 427.08 107.47"/><path class="cls-1" d="M463.18,106.46a6.68,6.68,0,0,0,1.5-2.41,8.83,8.83,0,0,0,.5-3.07,8,8,0,0,0-.6-3.1,6.28,6.28,0,0,0-1.69-2.33h0A7.5,7.5,0,0,0,459.94,94a14.25,14.25,0,0,0-4.07-.53,35.1,35.1,0,0,0-5.87.46l-.65.11v24.34h4.55v-9.14c.53,0,1.07.06,1.63.06a12.93,12.93,0,0,0,4.3-.68,8.31,8.31,0,0,0,3.34-2.1h0m-4.52-1.81a6.66,6.66,0,0,1-3.06.63,11.86,11.86,0,0,1-1.7-.1V97.47l.41,0c.44,0,1-.06,1.63-.06a7.4,7.4,0,0,1,2,.25,3.57,3.57,0,0,1,1.95,1.2,3.62,3.62,0,0,1,.7,2.3,4.55,4.55,0,0,1-.34,1.82,3.44,3.44,0,0,1-1.63,1.72"/><path class="cls-1" d="M472.4,93.59,464,118.33h4.75l2.41-7.29h7.09l2.47,7.29h4.86l-8.45-24.74Zm4.7,13.55h-4.8l1.92-5.68h0c.17-.51.32-1,.46-1.53.15.51.31,1,.5,1.58Z"/><polygon class="cls-1" points="483.12 97.7 490.17 97.7 490.17 118.33 494.76 118.33 494.76 97.7 501.84 97.7 501.84 93.59 483.12 93.59 483.12 97.7"/><polygon class="cls-1" points="504.16 93.59 504.16 118.33 508.72 118.33 508.72 93.59 507.94 93.59 504.16 93.59"/><polygon class="cls-1" points="518.24 107.47 527.25 107.47 527.25 106.68 527.25 103.43 518.24 103.43 518.24 97.67 527.77 97.67 527.77 93.59 513.69 93.59 513.69 118.33 528.28 118.33 528.28 114.26 518.24 114.26 518.24 107.47"/><path class="cls-1" d="M546.49,104.07c0,2.19,0,4.09.11,5.94-.75-1.38-1.59-2.81-2.55-4.33h0l-7.66-12.09h-4.48v24.74h4.38V107.65c0-2.39,0-4.38-.08-6.25.87,1.61,1.84,3.22,2.84,4.81l7.58,12.12h4.24V93.59h-4.38Z"/><polygon class="cls-1" points="553.2 97.7 560.25 97.7 560.25 118.33 564.84 118.33 564.84 97.7 571.92 97.7 571.92 93.59 553.2 93.59 553.2 97.7"/><path class="cls-1" d="M595.52,113.56v-6.22a8.08,8.08,0,0,0-1.32-4.84,5.08,5.08,0,0,0-2.05-1.66,7.85,7.85,0,0,0-3.27-.62,10.65,10.65,0,0,0-5.64,1.52l-.2.14.89,2.6.34-.22a8,8,0,0,1,4.16-1.18,4.19,4.19,0,0,1,1.89.37,2.58,2.58,0,0,1,1.3,1.46,4.7,4.7,0,0,1,.28,1.71v0a14,14,0,0,0-7.3,1.64,5.45,5.45,0,0,0-2.7,4.86,5.08,5.08,0,0,0,1.36,3.51,5.41,5.41,0,0,0,4,1.58,6.6,6.6,0,0,0,5-2.12l.2,1.74h3.41l-.07-.37a23.17,23.17,0,0,1-.27-3.93m-3.7-.75a4,4,0,0,1-1.28,1.77,3.91,3.91,0,0,1-2.45.8,2.6,2.6,0,0,1-1.8-.63,2.49,2.49,0,0,1-.74-2,2.7,2.7,0,0,1,.52-1.69,4.09,4.09,0,0,1,2.34-1.38,13.66,13.66,0,0,1,3.39-.37H592v2.57a3.06,3.06,0,0,1-.15.87"/><path class="cls-1" d="M605.22,95.72l-.4.1-3.19.86v3.91h-2.57v2.93h2.57v8.77a10.53,10.53,0,0,0,.28,2.64,4.19,4.19,0,0,0,1,1.9h0a4.53,4.53,0,0,0,3.49,1.37,7.81,7.81,0,0,0,2.81-.44l.2-.08-.17-2.88-.37.1a6.84,6.84,0,0,1-1.68.19,2,2,0,0,1-.92-.18,1.58,1.58,0,0,1-.78-.92,5.29,5.29,0,0,1-.25-1.81v-8.67h4.33v-2.93h-4.33Z"/><path class="cls-1" d="M634.55,113.56v-6.22a8.08,8.08,0,0,0-1.32-4.84,5.11,5.11,0,0,0-2.06-1.66,7.8,7.8,0,0,0-3.26-.62,10.65,10.65,0,0,0-5.64,1.52l-.2.14.89,2.6.34-.22a8,8,0,0,1,4.16-1.18,4.19,4.19,0,0,1,1.89.37,2.58,2.58,0,0,1,1.3,1.46,4.7,4.7,0,0,1,.28,1.71v0a14,14,0,0,0-7.31,1.64,5.76,5.76,0,0,0-2,2,5.65,5.65,0,0,0-.69,2.81,5.08,5.08,0,0,0,1.36,3.51,5.41,5.41,0,0,0,4,1.58,6.6,6.6,0,0,0,4.95-2.12l.2,1.74h3.41l-.07-.37a23.24,23.24,0,0,1-.27-3.93m-3.71-.75a3.86,3.86,0,0,1-1.27,1.77,3.91,3.91,0,0,1-2.45.8,2.6,2.6,0,0,1-1.8-.63,2.49,2.49,0,0,1-.74-2,2.7,2.7,0,0,1,.52-1.69,4.09,4.09,0,0,1,2.34-1.38,13.61,13.61,0,0,1,3.39-.37H631v2.57a2.77,2.77,0,0,1-.16.87"/><polygon class="cls-1" points="644.75 97.23 651.8 97.23 651.8 117.86 655.46 117.86 655.46 97.23 662.54 97.23 662.54 94.06 644.75 94.06 644.75 97.23"/><polygon class="cls-1" points="665.28 117.86 665.6 117.86 668.94 117.86 668.94 100.59 665.28 100.59 665.28 117.86"/><path class="cls-1" d="M669.28,96.22a2.23,2.23,0,0,0-.59-1.55,2.11,2.11,0,0,0-1.58-.64,2.22,2.22,0,0,0-1.58.63,2.2,2.2,0,0,0-.62,1.57,2.15,2.15,0,0,0,.6,1.53,2.07,2.07,0,0,0,1.53.64,2.25,2.25,0,0,0,1.62-.61,2,2,0,0,0,.62-1.49Z"/><path class="cls-1" d="M693.24,100.22a5.91,5.91,0,0,0-3.86,1.23,6.73,6.73,0,0,0-1.66,1.8,5.38,5.38,0,0,0-1.67-2,5.14,5.14,0,0,0-3.12-1,6,6,0,0,0-3.47,1,6.38,6.38,0,0,0-1.59,1.56l-.11-2.17h-3.29l0,.34c.1,1.36.14,2.77.14,4.48v12.45h3.58V107.51a4,4,0,0,1,.22-1.37h0a4.45,4.45,0,0,1,1.25-1.95,3.32,3.32,0,0,1,2.2-.86,3,3,0,0,1,1.37.31,2.86,2.86,0,0,1,1.32,1.47,6,6,0,0,1,.47,2.48v10.28h3.58V107.27a4.91,4.91,0,0,1,.22-1.41,4.09,4.09,0,0,1,1.24-1.79,3.16,3.16,0,0,1,2-.75,3.28,3.28,0,0,1,1.46.31,3,3,0,0,1,1.37,1.59,7.81,7.81,0,0,1,.47,2.91v9.73H699V107.75c0-3-.83-4.85-2-6a5.31,5.31,0,0,0-3.78-1.53"/><polygon class="cls-1" points="689.38 101.45 689.38 101.45 689.38 101.45 689.38 101.45"/><path class="cls-1" d="M715.06,101.05a7.24,7.24,0,0,0-3.52-.83,7.52,7.52,0,0,0-6,2.71,10.22,10.22,0,0,0-2.16,6.57,8.91,8.91,0,0,0,2.26,6.3,8.36,8.36,0,0,0,6.24,2.41,13.74,13.74,0,0,0,5.66-1.06l.24-.11-.66-2.78-.34.15a10.61,10.61,0,0,1-4.49.83,5.49,5.49,0,0,1-3.75-1.27,5.3,5.3,0,0,1-1.63-3.88h11.64l0-.28a10.26,10.26,0,0,0,.11-1.44,9.81,9.81,0,0,0-1.45-5.24,6.26,6.26,0,0,0-2.22-2.08m-5.6,2.4a3.79,3.79,0,0,1,1.84-.44,3.94,3.94,0,0,1,1.91.44,3.53,3.53,0,0,1,1.55,1.8,6.15,6.15,0,0,1,.42,2H707a6.11,6.11,0,0,1,1.15-2.74,3.93,3.93,0,0,1,1.29-1.11"/><polygon class="cls-1" points="723.75 111.19 726.39 111.19 726.89 94.06 722.94 94.06 723.44 111.19 723.75 111.19"/><path class="cls-1" d="M724.91,113.35a2.27,2.27,0,0,0-1.67.7,2.46,2.46,0,0,0-.67,1.75,2.55,2.55,0,0,0,.65,1.73,2.39,2.39,0,0,0,3.4,0,2.69,2.69,0,0,0,0-3.48,2.29,2.29,0,0,0-1.71-.7"/><path class="cls-1" d="M30.21,43a21.18,21.18,0,0,0,4.86-7.44l.14-.34-4-5.37-.44,1a28.79,28.79,0,0,1-1.71,3.26,9,9,0,0,1-1.49,1.87,5.55,5.55,0,0,1-1.34.92,2.53,2.53,0,0,1-1.12.28A6.36,6.36,0,0,1,23,36.6a36.69,36.69,0,0,1-4.33-2.25,27.56,27.56,0,0,0-4.56-2.21,11.32,11.32,0,0,0-3.74-.75,6.09,6.09,0,0,0-2.63.6A10,10,0,0,0,5,34,18.56,18.56,0,0,0,2.46,37.2,26.26,26.26,0,0,0,.2,41.88L0,42.4l5.43,2.91.26-.66a15.55,15.55,0,0,1,1.42-2.94,5.19,5.19,0,0,1,1.58-1.64,3.42,3.42,0,0,1,1.87-.52,4.67,4.67,0,0,1,1.55.24,21,21,0,0,1,2.2,1.07c1,.53,2.22,1.23,3.69,2.1,1,.65,1.89,1.15,2.62,1.52a7.51,7.51,0,0,0,1.85.68,15.52,15.52,0,0,0,2.53.21,6.08,6.08,0,0,0,2.6-.62A10.86,10.86,0,0,0,30.21,43"/><path class="cls-1" d="M74,60.08h0a10.16,10.16,0,0,0,2-.47l.4-.14,0-.43c0-.48.12-2,.29-4.52l.8-8.07v0s0-.18,0-.39,0-.51.07-.88l.06-.68H73.74l-.09.53q-.6,3.9-1.24,6.9a7.7,7.7,0,0,1-.25.89l-.1.24,0,0a2.46,2.46,0,0,1-.37.14,8.17,8.17,0,0,1-.85.19h0a44.08,44.08,0,0,1-8.35.7c-1,0-2.77-.07-5.38-.21q0-1.62,0-6.2Q57,42.1,57,36.4h0c0-7.2,0-11,0-11.52q0-6.69.14-11.07c0-1.46.1-2.59.15-3.41,0-.4,0-.72.07-1s0-.21,0-.28,0-.07,0-.09v0h0a1.35,1.35,0,0,1,.13-.29.36.36,0,0,1,.13-.14,1.82,1.82,0,0,1,.4-.16,10.64,10.64,0,0,1,1.42-.26c.62-.08,1.38-.14,2.27-.19l.6,0V3.2l-.66,0c-3.46.16-7.13.24-11,.24q-5.2,0-9.23-.24l-.67,0V8l.6,0a28.13,28.13,0,0,1,3.23.29,7,7,0,0,1,.92.2,1.12,1.12,0,0,1,.37.17h0l0,0a.4.4,0,0,1,.13.13.63.63,0,0,1,.1.23s0,.15.05.29a28.11,28.11,0,0,1,.2,2.82c.06,1.35.11,3.13.14,5.31h0c.05,2,.07,7.15.07,15.54q0,8.58-.13,14.69c0,2-.09,3.65-.14,4.83,0,.59,0,1.07-.07,1.44s-.05.63-.07.76h0a.4.4,0,0,1-.07.18h0a1.24,1.24,0,0,1-.2.22,4.26,4.26,0,0,1-.49.38h0a19.29,19.29,0,0,1-2.25,1.51l-.33.17v3.08l.66,0c4.25-.23,7.42-.35,9.49-.35,1.37,0,3.82,0,7.33.16l5.34.14,1.48,0h.7c2.74,0,4.76-.06,6.11-.2Z"/><path class="cls-1" d="M91,60.13c3.55,0,6.84,0,9.85.15l.65,0V56l-.6,0c-1.09-.06-2-.14-2.63-.24-.33-.06-.61-.12-.82-.18a1.78,1.78,0,0,1-.43-.17.33.33,0,0,1-.1-.12,1.46,1.46,0,0,1-.12-.41h0c0-.17-.07-.48-.1-.92-.09-1.31-.14-3.71-.14-7.18V33.13c0-3.62.13-7.51.38-11.64l0-.36-1.37-.93-.34.17A30.53,30.53,0,0,1,90,22.52a53.79,53.79,0,0,1-7.2,1.34l-.54.07v4.2h.62a27.71,27.71,0,0,1,2.87.15,7.85,7.85,0,0,1,.8.15l.22.08,0,0h0a.5.5,0,0,1,.08.18,3.3,3.3,0,0,1,.12.48h0c0,.23.08.73.12,1.46.1,2.18.16,6.4.16,12.63q0,4.55-.08,7.35c-.06,1.87-.14,3.17-.24,3.85h0a2.22,2.22,0,0,1-.17.69.79.79,0,0,1-.21.3l-.08,0a3.92,3.92,0,0,1-.47.13,30.3,30.3,0,0,1-3.23.42l-.57.05v4.18l.66,0q3.5-.15,8.08-.15"/><path class="cls-1" d="M87.7,3.31A7.39,7.39,0,0,0,86.14,8a7.4,7.4,0,0,0,1.58,4.74,5.74,5.74,0,0,0,1.78,1.51,4.62,4.62,0,0,0,2.16.52,4.67,4.67,0,0,0,2.18-.52,5.63,5.63,0,0,0,1.78-1.51A7.47,7.47,0,0,0,97.18,8a7.39,7.39,0,0,0-1.56-4.7A5.38,5.38,0,0,0,93.84,1.8a4.83,4.83,0,0,0-4.36,0A5.38,5.38,0,0,0,87.7,3.31"/><path class="cls-1" d="M126.33,0a7,7,0,0,0-3,.64A7.71,7.71,0,0,0,121,2.36h0l-3.87,4.31c-1.21,1.31-2.2,2.44-3,3.39a21.28,21.28,0,0,0-1.75,2.37h0a8.82,8.82,0,0,0-1,2.41,11.63,11.63,0,0,0-.27,1.64q-.1,1-.18,2.4-.15,2.79-.15,4.68a.72.72,0,0,1,0,.29.49.49,0,0,1-.14.19h0l-.1.08-1.39.93-2.83,1.84-.29.19v3l5-.27h.26V41.15q0,5.46-.11,8.7c0,1.08,0,2-.08,2.69s-.06,1.23-.09,1.54h0a2.8,2.8,0,0,1-.16.8,1,1,0,0,1-.24.36,1.74,1.74,0,0,1-.35.16,10.27,10.27,0,0,1-1.43.31c-.64.1-1.42.19-2.35.27l-.58,0V60.3l.65,0c4.44-.13,7.34-.19,8.67-.19l11.52.21V56l-.57,0-3.16-.31-.83-.09-.23,0h-.06a1.4,1.4,0,0,1-.76-.33,1.49,1.49,0,0,1-.35-.65,3.89,3.89,0,0,1-.07-.5c-.08-.74-.14-2.09-.18-4-.06-2.57-.08-5.28-.08-8.12V29.79l1.62-.06,1.1,0h.15l1.42.07h0l3.79.1.59-4.1h0c.06-.46.15-.9.25-1.33l.08-.35-.88-.85-.29,0q-2,.19-4.71.27l-3.13,0v-4.9q0-3.18.09-5.16c0-.65.07-1.21.12-1.66a10,10,0,0,1,.15-1h0a2.55,2.55,0,0,1,.81-1.37,3.31,3.31,0,0,1,1.06-.54,5.07,5.07,0,0,1,1.48-.19,4.1,4.1,0,0,1,1.83.35,5.65,5.65,0,0,1,1.59,1.38l.34.39,2.06-1.15V9.31c0-.27,0-.54,0-.81a60.35,60.35,0,0,1,.45-7.08l.06-.48-.45-.18A9.69,9.69,0,0,0,126.33,0"/><path class="cls-1" d="M112.37,12.44h0Z"/><polygon class="cls-1" points="144.02 21.86 144.02 21.86 144.02 21.86 144.02 21.86"/><path class="cls-1" d="M139.22,58.08h0a12.84,12.84,0,0,0,4.32,2.64,16.15,16.15,0,0,0,5.8,1,15.78,15.78,0,0,0,4.93-.71h0a19.73,19.73,0,0,0,5.57-3l.15-.11,1.58-4.39-.19-.26-1.1-1.62-.51.32a18.77,18.77,0,0,1-3.89,2,10.13,10.13,0,0,1-3.16.47,7.76,7.76,0,0,1-3.6-.84,9.17,9.17,0,0,1-3-2.57,15.71,15.71,0,0,1-3-8.93h1.44c.36,0,.69,0,1,0h0a2.34,2.34,0,0,1,.39,0c.63,0,1.94,0,3.9-.06q3.95,0,6.38-.28a10.72,10.72,0,0,0,1.18-.17c.5-.1,1.12-.23,1.85-.41h0a20.57,20.57,0,0,0,2.51-.74l.37-.15,0-.4q.06-1.05.06-2.19a28,28,0,0,0-1.16-8.61,12.64,12.64,0,0,0-4.09-6,10,10,0,0,0-3.33-1.78,13.34,13.34,0,0,0-4.09-.59A11.42,11.42,0,0,0,144,21.85h0a15.56,15.56,0,0,0-1.65,1.1q-1,.72-2.34,1.83c-.9.74-1.63,1.36-2.2,1.86a15.22,15.22,0,0,0-1.22,1.22,12.37,12.37,0,0,0-1.9,4.38h0a36.33,36.33,0,0,0-1.14,9.5,35.61,35.61,0,0,0,.59,6.74A18.16,18.16,0,0,0,136.09,54a16.35,16.35,0,0,0,3.13,4.06m3.68-21.93a23.92,23.92,0,0,1,.38-4.58,8.83,8.83,0,0,1,1.07-3h0A5.52,5.52,0,0,1,146,26.78a3.63,3.63,0,0,1,1.94-.56,3.48,3.48,0,0,1,1.86.53,5.22,5.22,0,0,1,1.56,1.68,9,9,0,0,1,1,2.94,28,28,0,0,1,.33,4.66v.44a27.61,27.61,0,0,1-4.07.26c-1.47,0-2.71,0-3.75-.09-.76,0-1.4-.1-1.93-.17v-.32"/><path class="cls-1" d="M189.16,57.41A15,15,0,0,0,193,47a15.39,15.39,0,0,0-.58-4.34h0a9.57,9.57,0,0,0-1.73-3.4,8.74,8.74,0,0,0-3-2.28h0a14.32,14.32,0,0,0-1.88-.66c-.81-.23-1.8-.48-3-.76s-2.16-.51-3-.73a17.74,17.74,0,0,1-1.8-.58h0a3.36,3.36,0,0,1-1.69-1.31,3.29,3.29,0,0,1-.41-1.1,8.63,8.63,0,0,1-.16-1.75,4.44,4.44,0,0,1,1.31-3.19,4.11,4.11,0,0,1,1.56-1,6.46,6.46,0,0,1,2.19-.34,6.26,6.26,0,0,1,3.1.72,6,6,0,0,1,2.15,2.07,30.6,30.6,0,0,1,.35,3.27h0c0,.69.08,1.18.1,1.48l0,.57,3.65.06,0-.61c.13-3.56.23-5.83.29-6.76s.16-1.88.28-2.79l0-.12-.18-.76-.22-.14a14.28,14.28,0,0,0-4.11-1.75,19.5,19.5,0,0,0-4.91-.58,15.79,15.79,0,0,0-5.73,1,10.89,10.89,0,0,0-4.29,2.9,12.88,12.88,0,0,0-2.62,4.32,15.34,15.34,0,0,0-.87,5.25A13.58,13.58,0,0,0,169,39.27,8.29,8.29,0,0,0,172.08,43a20.8,20.8,0,0,0,5.52,2.19c1.17.32,2.15.6,2.94.85a17.26,17.26,0,0,1,1.72.62,6.68,6.68,0,0,1,1.18.85,3.22,3.22,0,0,1,.66.87,6.36,6.36,0,0,1-1,6.43A4.38,4.38,0,0,1,181.42,56a7.43,7.43,0,0,1-6.06-.56,9.63,9.63,0,0,1-2.88-2.94c0-.38-.09-1-.14-1.79s-.11-2.14-.16-3.63l0-.61h-3.77l0,.61-.19,6.7c-.05.83-.15,2.28-.32,4.32l0,.2.56.94.19.09a33.37,33.37,0,0,0,5.25,1.85,19.62,19.62,0,0,0,4.49.51,16.83,16.83,0,0,0,6.16-1.06,12.33,12.33,0,0,0,4.67-3.21"/><path class="cls-1" d="M211.91,60.89h0a9.87,9.87,0,0,0,2.38-1l.11-.06.08-.11,2.46-3.14,1.36-1.7-.79-2.53-.59.16a15.83,15.83,0,0,1-1.6.36,7.37,7.37,0,0,1-1.06.07l-.57,0h0a3.57,3.57,0,0,1-1.35-.22,2.24,2.24,0,0,1-.91-.62,3.16,3.16,0,0,1-.62-1.06,5.24,5.24,0,0,1-.3-1.5h0c0-.33-.05-1.12-.07-2.33s0-2.83,0-4.87V29.65h2.46l3.13.08h0a4,4,0,0,0,.83-.09l.45-.09.68-6.68-.83.15a37.17,37.17,0,0,1-6.3.39h-.4l.26-6.32h0l.22-4.58.34-4.43-1.39-1.33-.41.24-3,1.72-.78.45-.21.12-.06,0h0c-.59.28-1.93.85-4,1.7l-.42.17,0,.44c.17,2.82.25,5.17.25,7.07v5.07a14.39,14.39,0,0,1-1.1,1h0l-3.11,2.47V30l.67-.05c1-.08,2.15-.12,3.31-.12h.23V39l-.12,13.17h0a10.31,10.31,0,0,0,.56,3.47,8.68,8.68,0,0,0,1.72,2.87h0a7.38,7.38,0,0,0,2.75,1.94,9.39,9.39,0,0,0,3.55.64,10.16,10.16,0,0,0,2.14-.23"/><path class="cls-1" d="M252.7,27.26a3.63,3.63,0,0,1,.21-.4,1.62,1.62,0,0,1,.6-.58h0a2.28,2.28,0,0,1,1.18-.32H256V21.5l-.66,0c-2.16.1-4.5.16-7,.16-2.06,0-3.76-.06-5.1-.16l-.67-.05v4.44l.61,0a14.5,14.5,0,0,1,2.92.29,1.4,1.4,0,0,1,.33.13.58.58,0,0,1,.11.1.51.51,0,0,1,.05.28,3.41,3.41,0,0,1-.05.54A42.56,42.56,0,0,1,245.31,32q-1,3.38-2.81,8.74l-2.18,6.45-4.09-13.33-1.57-5.39h0a5.61,5.61,0,0,1-.29-1.57.68.68,0,0,1,.06-.31.63.63,0,0,1,.18-.23,1.89,1.89,0,0,1,.73-.3,6.49,6.49,0,0,1,1.39-.13h1.6V21.51l-.65,0c-2.78.1-6,.16-9.53.16-3,0-5.57-.06-7.64-.16l-.66,0V26h.87a8.11,8.11,0,0,1,1.66.15,2.13,2.13,0,0,1,.86.37h0a3.19,3.19,0,0,1,.69,1.05,18.12,18.12,0,0,1,.87,2.3h0l10.29,33-1.21,3.63a35.53,35.53,0,0,1-1.61,3.86,8.78,8.78,0,0,1-1.37,2.1h0a4.59,4.59,0,0,1-1.29.94,3.1,3.1,0,0,1-1.33.29,4.94,4.94,0,0,1-2.34-.57,10.27,10.27,0,0,1-1.67-1.69L224,71l-1.65.4-.53,4.45c-.11.75-.34,2.1-.7,4l-.09.47.43.21a12.46,12.46,0,0,0,2.48.93h0a10.83,10.83,0,0,0,2.42.25,8.68,8.68,0,0,0,3.79-.83,9.58,9.58,0,0,0,3.14-2.46c1.86-2.13,3.54-5.58,5.14-10.38h0l5.14-15.68h0q1-2.86,4.53-13h0q1.16-3.26,3-8.28c.48-1.27.87-2.27,1.17-3,.15-.36.27-.65.37-.87"/><polygon class="cls-1" points="224.01 81.5 223.97 81.49 223.97 81.49 224.01 81.5"/><path class="cls-1" d="M233.32,78.45h0Z"/><path class="cls-1" d="M269.24,60q4.32,0,8.29.31l.68.06V55.88l-.59,0-2.29-.17-.63-.06-.17,0h-.07a2.11,2.11,0,0,1-.48-.15.75.75,0,0,1-.21-.12h0a.52.52,0,0,1-.14-.22h0v0l0-.15a12.7,12.7,0,0,1-.13-1.53h0c-.05-1-.11-3.86-.2-8.62h0q-.06-2.86-.06-8.65V25.88q0-9.85.19-16.62h0l.27-8.39L272.4,0l-.32.12a60.92,60.92,0,0,1-6.29,2.15,52,52,0,0,1-6.25,1.13l-.55.07v4.1l.6,0c.8,0,1.43.07,1.91.11l.58,0,.31,0a2.2,2.2,0,0,1,.92.34l0,0h0a.4.4,0,0,1,.13.17,2.12,2.12,0,0,1,.06.26c.08.49.15,1.45.22,2.84h0c.14,3.45.22,7.26.22,11.42V36q0,4.91-.1,11.24,0,3.16-.12,5c0,.62-.06,1.14-.09,1.54a8,8,0,0,1-.1.85v0h0a1.4,1.4,0,0,1-.2.63h0a.93.93,0,0,1-.43.26l-.36.07c-.57.08-1.63.16-3.14.22l-.61,0v4.42l.67,0q5.42-.31,9.74-.31"/><path class="cls-1" d="M299.25,61.68a15.71,15.71,0,0,0,4.92-.71h0a19.92,19.92,0,0,0,5.58-3l.14-.11,1.58-4.39-.18-.26-1.11-1.62-.51.32a18.53,18.53,0,0,1-3.89,2,10.13,10.13,0,0,1-3.16.47,7.72,7.72,0,0,1-3.59-.84,9.17,9.17,0,0,1-3-2.57,15.71,15.71,0,0,1-3-8.93h1.45c.36,0,.68,0,1,0h0a2.44,2.44,0,0,1,.39,0c.64,0,1.94,0,3.91-.06,2.63,0,4.75-.12,6.38-.28a10.94,10.94,0,0,0,1.17-.17c.51-.1,1.12-.23,1.85-.41h0a20.83,20.83,0,0,0,2.52-.74l.37-.15,0-.4c.05-.7.07-1.43.07-2.19A28,28,0,0,0,311,28.91a12.69,12.69,0,0,0-4.08-6,10.13,10.13,0,0,0-3.34-1.78,13.3,13.3,0,0,0-4.09-.59,11.38,11.38,0,0,0-5.57,1.31h0a15.07,15.07,0,0,0-1.64,1.1q-1,.72-2.34,1.83c-.9.74-1.63,1.36-2.2,1.86a13.69,13.69,0,0,0-1.22,1.22,12.36,12.36,0,0,0-1.91,4.38h0a35.89,35.89,0,0,0-1.15,9.5,36.45,36.45,0,0,0,.59,6.74A18.17,18.17,0,0,0,286,54a16.56,16.56,0,0,0,3.12,4.06h0a13,13,0,0,0,4.33,2.64,16.11,16.11,0,0,0,5.8,1m-6.44-25.53a24,24,0,0,1,.37-4.58,9,9,0,0,1,1.07-3h0a5.39,5.39,0,0,1,1.64-1.78,3.63,3.63,0,0,1,1.94-.56,3.51,3.51,0,0,1,1.87.53,5.09,5.09,0,0,1,1.55,1.68,8.78,8.78,0,0,1,1,2.94,27.89,27.89,0,0,1,.34,4.66c0,.15,0,.3,0,.44a27.42,27.42,0,0,1-4.07.26c-1.46,0-2.71,0-3.74-.09-.76,0-1.41-.1-1.93-.17v-.32"/><polygon class="cls-1" points="289.14 58.1 289.13 58.08 289.12 58.08 289.14 58.1"/><polygon class="cls-1" points="357.47 10.14 349.3 10.14 349.3 26.18 335.11 26.18 335.11 34.83 349.3 34.83 349.3 50.74 357.47 50.74 357.47 34.83 371.65 34.83 371.65 26.18 357.47 26.18 357.47 10.14"/><path class="cls-1" d="M437.16,3.47c-2.15,0-4.53-.08-7.11-.24l-.67,0V7.83H430a26.72,26.72,0,0,1,3.28.23,6.14,6.14,0,0,1,.92.21,1,1,0,0,1,.35.18,1,1,0,0,1,.21.43,5.43,5.43,0,0,1,.18,1.09h0c.06.6.12,1.59.17,2.95q.21,6.14.21,22.23v7.36q-4.12-5.46-10-14.29-9.36-14-15.93-24.71l-.19-.31-3.3.13-4.62.12q-1.89,0-5.93-.24l-.67,0v4.6l.58,0c1.12.09,2,.18,2.69.26l.82.13a3.22,3.22,0,0,1,.43.09,2.2,2.2,0,0,1,.46.22.87.87,0,0,1,.24.22h0a2.66,2.66,0,0,1,.35,1h0a12.34,12.34,0,0,1,.12,1.31c0,.62.05,1.41.06,2.38l.13,11.6v12.8c0,3.53,0,6.4-.13,8.59h0c-.08,1.94-.16,3.51-.24,4.73s-.14,2.07-.2,2.55-.11.64-.16.85a1.56,1.56,0,0,1-.14.36.73.73,0,0,1-.31.28l-.08,0c-.22.05-.69.11-1.37.18s-1.56.13-2.66.2l-.59,0v4.63l.66,0q5.29-.24,8.37-.24l6.89.08h.64V55.58l-.68.06-.59,0a22.34,22.34,0,0,1-2.94-.31h0a3.51,3.51,0,0,1-.52-.13.61.61,0,0,1-.21-.12h0a1,1,0,0,1-.26-.49c0-.12-.07-.34-.11-.64-.11-.91-.19-2.54-.26-4.84h0q-.19-6.69-.19-12.87V18.52Q423.58,46,433.59,60l.15.21.25.05c1.85.31,3.66.66,5.44,1l.31.06.89-.77,0-.31c-.13-1.86-.24-5.48-.31-10.84s-.1-12.46-.1-21.3q0-3.37.14-10.5c.05-2.37.13-4.3.23-5.81a22.16,22.16,0,0,1,.38-3.17A.39.39,0,0,1,441,8.5a.28.28,0,0,1,.06-.08h0a1,1,0,0,1,.35-.16A8.16,8.16,0,0,1,442.9,8q1-.11,2.43-.15l.61,0V3.2l-.66,0q-5,.24-8.12.24"/><polygon class="cls-1" points="405.65 49.14 405.65 49.15 405.65 49.15 405.65 49.14"/><path class="cls-1" d="M469.66,24l-.53.08v4.16l.59,0c1.13.08,2,.15,2.65.22.32,0,.57.07.76.11l.21,0,.06,0h0a.66.66,0,0,1,.23.13.22.22,0,0,1,.08.1v0h0a1.39,1.39,0,0,1,.06.25,6.75,6.75,0,0,1,.11,1.06c0,.46,0,1,0,1.72h0l.07,5.66v6.82c0,1.08,0,2-.09,2.66a6.24,6.24,0,0,1-.25,1.42,8,8,0,0,1-2,2.86,4.6,4.6,0,0,1-1.55,1,5.12,5.12,0,0,1-1.88.33,4.31,4.31,0,0,1-1.59-.27,3.28,3.28,0,0,1-1.19-.81,4.34,4.34,0,0,1-.86-1.38,8.32,8.32,0,0,1-.5-2c-.07-.6-.13-1.54-.16-2.8s-.06-2.84-.06-4.74V36.2q0-6.68.45-14.56v-.28l-.95-.93-.38.16a51.73,51.73,0,0,1-7,2.52,30.35,30.35,0,0,1-5.42.9l-.58,0v4.22l.6,0c1,.05,1.83.11,2.41.18l.7.11.2.05.06,0h0a1,1,0,0,1,.5.52h0a1.44,1.44,0,0,1,.06.26,15,15,0,0,1,.13,2.37h0l.06,8.42q0,3.23,0,5.25h0c0,1.28-.06,2.29-.07,3s0,1.21,0,1.42a15.47,15.47,0,0,0,.64,4.61,10.64,10.64,0,0,0,2,3.65,8.34,8.34,0,0,0,3.15,2.39,10.2,10.2,0,0,0,4.1.79,11.27,11.27,0,0,0,4.7-1l.13-.06,3.7-4.37c.32-.36.68-.74,1.06-1.14,0,.69,0,1.2,0,1.49l-.21,3.29.55.78,6.36-.21,7.21.21V55.87l-.6,0c-1.09-.07-2-.15-2.58-.25a5.48,5.48,0,0,1-.74-.14,1.61,1.61,0,0,1-.27-.1.33.33,0,0,1-.1-.14,1.53,1.53,0,0,1-.13-.45,11.46,11.46,0,0,1-.12-1.14c-.11-1.52-.16-4.12-.16-7.76V37.68c0-.28,0-1.17.06-2.62s.11-3.48.19-6.09l.37-7.67-1.16-.84-.32.13c-2.85,1.13-4.86,1.86-6,2.16s-3.39.74-6.68,1.27m3.76,4.67Z"/><path class="cls-1" d="M511.17,52.55a15.33,15.33,0,0,1-1.61.36h0a7.27,7.27,0,0,1-1.06.07l-.56,0h0a3.6,3.6,0,0,1-1.35-.22,2.24,2.24,0,0,1-.91-.62h0a3.33,3.33,0,0,1-.62-1.06,5.62,5.62,0,0,1-.29-1.5h0c0-.33-.06-1.12-.07-2.33s0-2.83,0-4.87V29.65h2.47l3.13.08h0a4.14,4.14,0,0,0,.84-.09l.45-.09.67-6.68-.82.15a37.31,37.31,0,0,1-6.31.39h-.4l.26-6.32h0l.22-4.58.35-4.43-1.39-1.33L503.7,7l-3,1.72-.78.45-.21.12-.06,0h0c-.6.28-1.94.85-4,1.7l-.41.17,0,.44q.26,4.21.26,7.07v5.07a14.54,14.54,0,0,1-1.11,1h0l-3.12,2.47V30l.68-.05c1-.08,2.15-.12,3.3-.12h.24V39l-.13,13.16h0a10.31,10.31,0,0,0,.57,3.47,8.52,8.52,0,0,0,1.72,2.87h0a7.3,7.3,0,0,0,2.75,1.94,9.32,9.32,0,0,0,3.55.64,10.14,10.14,0,0,0,2.13-.23h0a9.56,9.56,0,0,0,2.38-1l.12-.06.08-.11,2.45-3.14,1.36-1.7-.79-2.53Z"/><polygon class="cls-1" points="533.75 21.44 533.75 21.44 533.75 21.44 533.75 21.44"/><path class="cls-1" d="M527.66,20.25l-.31.17a22.17,22.17,0,0,1-4,1.87c-.58.19-1.51.44-2.77.74s-2.87.66-4.8,1.07l-.5.11v4.18l.6,0c1,0,1.78.09,2.36.15.29,0,.52.07.7.11a1.66,1.66,0,0,1,.31.08h0a.44.44,0,0,1,.24.19,1.09,1.09,0,0,1,0,.22c.06.41.12,1.24.17,2.42.13,3.37.19,6.24.19,8.59v5.23c0,1.67,0,2.88,0,3.61h0l-.13,3.56h0a15.15,15.15,0,0,1-.1,1.71,3.7,3.7,0,0,1-.2.91.65.65,0,0,1-.35.36h0a4.23,4.23,0,0,1-1.16.28,16.16,16.16,0,0,1-2,.11h-.63v4.35l.65,0q5.33-.2,10.26-.19c2.95,0,5.63.06,8,.19l.66,0V56l-.55-.07-2.63-.32h0a9,9,0,0,1-1.3-.2,1.56,1.56,0,0,1-.57-.23h0a1.16,1.16,0,0,1-.43-.73c0-.07,0-.22,0-.42-.06-.61-.1-1.7-.11-3.22h0l-.07-5.42v-4c0-2,0-3.49,0-4.6,0-.56,0-1,0-1.36s0-.58,0-.68a5.18,5.18,0,0,1,1.46-2.64A4.13,4.13,0,0,1,532,31.2a3.78,3.78,0,0,1,3.72.41,5.51,5.51,0,0,1,1.36,1.65l.28.45,2.19-.85,0-.38c0-.14,0-.34,0-.62,0-.84.07-2.42.12-4.73l.21-6.06-.36-.18a5.35,5.35,0,0,0-2.43-.55,6.35,6.35,0,0,0-1.89.27,4.59,4.59,0,0,0-1.54.83,8.24,8.24,0,0,0-1.13,1.22c-.43.55-.93,1.23-1.48,2.07h0c-.52.8-1.19,1.77-2,2.88l0-6.54Z"/><path class="cls-1" d="M554.16,1.8a4.81,4.81,0,0,0-4.35,0A5.42,5.42,0,0,0,548,3.31,7.33,7.33,0,0,0,546.47,8,7.34,7.34,0,0,0,548,12.75a5.74,5.74,0,0,0,1.78,1.51,4.79,4.79,0,0,0,4.34,0,5.54,5.54,0,0,0,1.78-1.52A7.42,7.42,0,0,0,557.5,8a7.39,7.39,0,0,0-1.56-4.7,5.38,5.38,0,0,0-1.78-1.51"/><path class="cls-1" d="M561.85,60.31V56l-.6,0a25.32,25.32,0,0,1-2.64-.25,6.78,6.78,0,0,1-.82-.17,1.78,1.78,0,0,1-.43-.17s-.05,0-.09-.12a1.15,1.15,0,0,1-.13-.41h0a7,7,0,0,1-.1-.92c-.1-1.31-.15-3.71-.15-7.18V33.13c0-3.62.13-7.51.39-11.64l0-.36-1.37-.93-.33.17a31.43,31.43,0,0,1-5.26,2.15,53.9,53.9,0,0,1-7.19,1.34l-.55.07v4.2h.62a27.71,27.71,0,0,1,2.87.15,7.85,7.85,0,0,1,.8.15l.22.08,0,0h0a.51.51,0,0,1,.08.17,2.77,2.77,0,0,1,.12.48h0c0,.23.08.73.12,1.46.1,2.18.16,6.4.16,12.63q0,4.55-.08,7.35c-.05,1.87-.14,3.17-.23,3.85h0a2.3,2.3,0,0,1-.17.69.7.7,0,0,1-.21.3l-.08,0a3.05,3.05,0,0,1-.47.13,29.93,29.93,0,0,1-3.23.42l-.57.05v4.18l.66,0c2.33-.1,5-.16,8.08-.16,3.55,0,6.84.06,9.86.16Z"/><path class="cls-1" d="M582.48,59.93l.12-.06.08-.11,2.45-3.14,1.36-1.7-.79-2.53-.59.16a14.71,14.71,0,0,1-1.6.36h0a7.37,7.37,0,0,1-1.06.07l-.57,0h0a3.6,3.6,0,0,1-1.35-.22,2.24,2.24,0,0,1-.91-.62h0a3.33,3.33,0,0,1-.62-1.06,5.62,5.62,0,0,1-.29-1.5h0c0-.33-.06-1.12-.07-2.33s0-2.83,0-4.87V29.65h2.46l3.14.08h0a4.22,4.22,0,0,0,.84-.09l.45-.09.67-6.68-.82.15a37.31,37.31,0,0,1-6.31.39h-.4l.26-6.32h0l.22-4.58.34-4.43-1.38-1.33-.41.24-3,1.72-.77.45-.21.12-.06,0h0c-.6.28-1.94.85-4,1.7l-.41.17,0,.44c.17,2.82.26,5.17.26,7.07v5.07a14.54,14.54,0,0,1-1.11,1h0l-3.11,2.47V30l.68-.05c1-.08,2.15-.12,3.3-.12h.24V39l-.13,13.16h0a10.31,10.31,0,0,0,.57,3.47,8.65,8.65,0,0,0,1.71,2.87h0a7.41,7.41,0,0,0,2.76,1.94,9.3,9.3,0,0,0,3.54.64,10.16,10.16,0,0,0,2.14-.23h0a9.56,9.56,0,0,0,2.38-1"/><path class="cls-1" d="M608.7,60.31V56l-.6,0a25.32,25.32,0,0,1-2.64-.25,6.78,6.78,0,0,1-.82-.17,1.78,1.78,0,0,1-.43-.17s-.05,0-.09-.12a1.15,1.15,0,0,1-.13-.41h0a8.51,8.51,0,0,1-.11-.92c-.09-1.31-.14-3.71-.14-7.18V33.13c0-3.62.13-7.51.39-11.64l0-.36-1.37-.93-.33.17a31.78,31.78,0,0,1-5.26,2.15A53.9,53.9,0,0,1,590,23.86l-.55.07v4.2h.62a27.71,27.71,0,0,1,2.87.15,7.85,7.85,0,0,1,.8.15l.22.08,0,0h0a.51.51,0,0,1,.08.17,2.77,2.77,0,0,1,.12.48h0c0,.23.08.73.12,1.46.1,2.18.16,6.4.16,12.63q0,4.55-.08,7.35a37.92,37.92,0,0,1-.24,3.85h0a2.3,2.3,0,0,1-.17.69.7.7,0,0,1-.21.3l-.08,0a3.05,3.05,0,0,1-.47.13,29.93,29.93,0,0,1-3.23.42l-.57.05v4.18l.66,0c2.33-.1,5-.16,8.08-.16,3.55,0,6.84.06,9.85.16Z"/><path class="cls-1" d="M593.32,8a7.34,7.34,0,0,0,1.57,4.74,5.86,5.86,0,0,0,1.78,1.51,4.79,4.79,0,0,0,4.34,0,5.54,5.54,0,0,0,1.78-1.52A7.42,7.42,0,0,0,604.35,8a7.39,7.39,0,0,0-1.56-4.7A5.38,5.38,0,0,0,601,1.8a4.83,4.83,0,0,0-4.36,0,5.49,5.49,0,0,0-1.78,1.51h0A7.33,7.33,0,0,0,593.32,8"/><path class="cls-1" d="M645.79,39.63a32.06,32.06,0,0,0-1-8.37,17.05,17.05,0,0,0-3-6.18,12.73,12.73,0,0,0-5-3.8,18.42,18.42,0,0,0-15.7,1.09,14.36,14.36,0,0,0-5.81,7,30,30,0,0,0-1.9,11.47,35.64,35.64,0,0,0,1,8.92,18.33,18.33,0,0,0,3,6.56h0a13.07,13.07,0,0,0,5,4,15.75,15.75,0,0,0,6.66,1.34,16.18,16.18,0,0,0,8.3-2.16h0a15.37,15.37,0,0,0,4.14-3.8,19.09,19.09,0,0,0,3.11-6.58v0a35,35,0,0,0,1.14-9.51M635.19,50.2a11,11,0,0,1-1.44,4.2,4.5,4.5,0,0,1-1.59,1.5,4.08,4.08,0,0,1-2,.49,4.33,4.33,0,0,1-2.38-.65,5.41,5.41,0,0,1-1.8-2h0a18.52,18.52,0,0,1-1.8-5.83,56.09,56.09,0,0,1-.61-9,35.09,35.09,0,0,1,.77-8.51,7.86,7.86,0,0,1,2.05-3.92,4.53,4.53,0,0,1,4.75-.73,4.77,4.77,0,0,1,1.54,1.14,6.92,6.92,0,0,1,1.27,2.18,19.46,19.46,0,0,1,1,3.59A56.72,56.72,0,0,1,635.69,43a43.19,43.19,0,0,1-.5,7.18"/><path class="cls-1" d="M674.58,52c-.24,4-.38,6.34-.42,6.88l0,.25,1,1.18.35,0a44.78,44.78,0,0,1,5.42-.27c1.81,0,4.16.09,7,.27l.67,0V56L688,56c-.84-.11-1.43-.17-1.82-.2h0a5.2,5.2,0,0,1-1.07-.18,1.17,1.17,0,0,1-.42-.2h0a1.47,1.47,0,0,1-.21-.49,7.23,7.23,0,0,1-.2-1.19c0-.5-.08-1.46-.11-2.84s-.05-3.2-.06-5.45l0-4.1c0-.44,0-.82,0-1.11h0c0-.86.06-2.78.06-5.82a27.14,27.14,0,0,0-.49-6.08A12,12,0,0,0,682,24.46h0a9.06,9.06,0,0,0-3.1-2.88,7.42,7.42,0,0,0-2.33-.79,17,17,0,0,0-3.11-.25,9,9,0,0,0-2.14.2,9.25,9.25,0,0,0-1.9.74l-.1.05-4.81,4.82V21.08l-1.5-.83-.3.17a21.92,21.92,0,0,1-4,1.87c-.58.19-1.51.44-2.77.74s-2.87.66-4.8,1.07l-.5.11v4.18l.6,0q1.5.06,2.37.15c.28,0,.52.07.69.11a1.63,1.63,0,0,1,.32.08h0a.45.45,0,0,1,.23.19,1.09,1.09,0,0,1,0,.22A22.09,22.09,0,0,1,655,31.6h0c.13,3.37.19,6.24.19,8.59v5.23c0,1.67,0,2.88,0,3.61h0l-.13,3.56h0a14.8,14.8,0,0,1-.1,1.7,3.81,3.81,0,0,1-.19.92.67.67,0,0,1-.36.36h0a4.13,4.13,0,0,1-1.16.28,16.16,16.16,0,0,1-2,.11h-.63v4.36l.66,0c2.13-.1,5.15-.16,9-.16,3.36,0,6.2.06,8.51.16l.65,0V56l-.56-.06-1.81-.2-.54-.07-.26,0a5,5,0,0,1-.84-.26,1.63,1.63,0,0,1-.4-.21h0a.89.89,0,0,1-.21-.36h0a3.81,3.81,0,0,1-.14-.76c0-.39-.06-.89-.07-1.5h0q-.14-4.23-.13-7.12V38.71h0c0-.46,0-.9,0-1.32,0-1.45,0-2.59,0-3.42,0-.41,0-.75.06-1a1.92,1.92,0,0,1,.07-.46h0a5.3,5.3,0,0,1,1.67-2.4,4.41,4.41,0,0,1,1.45-.88,5.49,5.49,0,0,1,1.83-.29,5.13,5.13,0,0,1,1.79.29,3.75,3.75,0,0,1,1.35.86,6,6,0,0,1,1.6,3.2,25.77,25.77,0,0,1,.31,3.3c.07,1.52.1,3.44.1,5.76v3.14Z"/><path class="cls-1" d="M724.31,29.83l-.44,1a28.79,28.79,0,0,1-1.71,3.26,8.7,8.7,0,0,1-1.49,1.87,5.33,5.33,0,0,1-1.33.92,2.6,2.6,0,0,1-1.13.28,6.42,6.42,0,0,1-2.13-.53h0a36,36,0,0,1-4.32-2.25,27.94,27.94,0,0,0-4.56-2.21,11.33,11.33,0,0,0-3.75-.75,6.12,6.12,0,0,0-2.63.6,9.92,9.92,0,0,0-2.66,2,18.14,18.14,0,0,0-2.59,3.24,27.7,27.7,0,0,0-2.26,4.68l-.19.52,5.43,2.91.25-.66a16.15,16.15,0,0,1,1.43-2.94,5.09,5.09,0,0,1,1.58-1.64,3.4,3.4,0,0,1,1.87-.52,4.65,4.65,0,0,1,1.54.24,20.08,20.08,0,0,1,2.2,1.07q1.49.8,3.69,2.1c1,.65,1.9,1.15,2.63,1.52a7.23,7.23,0,0,0,1.85.68h0a15.33,15.33,0,0,0,2.53.21,6.08,6.08,0,0,0,2.6-.62A11.26,11.26,0,0,0,723.33,43a21.18,21.18,0,0,0,4.85-7.44l.15-.34Z"/></g></g></svg>