<?xml version="1.0" encoding="utf-8"?>
<!-- Generator: Adobe Illustrator 23.0.1, SVG Export Plug-In . SVG Version: 6.00 Build 0)  -->
<svg version="1.1" id="Layer_1" xmlns="http://www.w3.org/2000/svg" xmlns:xlink="http://www.w3.org/1999/xlink" x="0px" y="0px"
	 viewBox="0 0 288 288" style="enable-background:new 0 0 288 288;" xml:space="preserve">
<style type="text/css">
	.st0{fill:#6AAA37;}
	.st1{fill:#FFFFFF;}
</style>
<g>
	<g>
		<circle class="st0" cx="144" cy="144" r="136.8"/>
		<path class="st1" d="M144,11.48C70.81,11.48,11.48,70.81,11.48,144c0,73.19,59.33,132.52,132.52,132.52
			c73.19,0,132.52-59.33,132.52-132.52C276.52,70.81,217.19,11.48,144,11.48z M235.98,235.98c-23.54,23.54-56.06,38.1-91.98,38.1
			c-35.93,0-68.44-14.56-91.98-38.1c-23.54-23.54-38.1-56.06-38.1-91.98c0-35.93,14.56-68.44,38.1-91.98
			c23.54-23.54,56.06-38.1,91.98-38.1c35.93,0,68.44,14.56,91.98,38.1c23.54,23.54,38.1,56.06,38.1,91.98
			C274.08,179.93,259.53,212.44,235.98,235.98z"/>
		<path class="st1" d="M74.94,223.9v-0.62c0.55-0.04,0.88-0.08,0.98-0.12c0.06-0.02,0.11-0.05,0.14-0.1
			c0.04-0.06,0.07-0.16,0.09-0.28c0.03-0.28,0.06-0.89,0.09-1.83c0.01-0.46,0.02-1.24,0.02-2.35c0-0.99-0.01-1.88-0.02-2.64
			c-0.01-0.77-0.05-1.22-0.1-1.37c-0.02-0.07-0.05-0.12-0.09-0.16c-0.04-0.04-0.12-0.06-0.24-0.08c-0.32-0.05-0.62-0.09-0.87-0.1
			v-0.62c1.01,0.03,1.71,0.04,2.09,0.04c0.5,0,1.01-0.01,1.52-0.04l0.65,1.46l0.51,1.1l2.34,4.82c0.5-0.97,0.87-1.71,1.12-2.25
			l0.97-2.04c0.54-1.14,0.87-1.84,0.99-2.1c0.12-0.26,0.26-0.59,0.41-1c0.64,0.03,1.05,0.05,1.23,0.05l2.19-0.05v0.62h-0.1
			c-0.5,0-0.81,0.05-0.94,0.17c-0.13,0.12-0.2,0.35-0.2,0.69c0,0.41,0,0.72-0.01,0.93l-0.04,2.07v2.58c0,0.63,0,0.99,0.01,1.1
			c0.04,0.62,0.07,1,0.1,1.15c0.01,0.07,0.04,0.12,0.08,0.17c0.04,0.04,0.1,0.07,0.17,0.1c0.07,0.02,0.38,0.05,0.93,0.08v0.62
			l-2.34-0.04l-2.29,0.04v-0.62c0.61-0.02,0.95-0.06,1.04-0.11c0.09-0.05,0.15-0.17,0.18-0.35c0.04-0.18,0.06-0.79,0.06-1.82v-5.35
			l-1.71,3.45l-0.82,1.71c-0.22,0.45-0.52,1.1-0.91,1.96c-0.24,0.52-0.43,0.94-0.57,1.26h-0.5c-0.18-0.41-0.43-0.98-0.76-1.69
			c-0.57-1.22-1-2.14-1.29-2.74l-1.93-3.95v3.61c0,0.6,0.01,1.32,0.03,2.15c0.02,0.83,0.04,1.3,0.06,1.41
			c0.02,0.11,0.05,0.19,0.09,0.24c0.04,0.05,0.12,0.09,0.22,0.13c0.11,0.03,0.41,0.07,0.9,0.1v0.62c-0.55-0.03-1.11-0.04-1.68-0.04
			C75.97,223.86,75.38,223.87,74.94,223.9z"/>
		<path class="st1" d="M91.33,221.77c0.32,0,0.59,0.11,0.81,0.33c0.22,0.22,0.33,0.49,0.33,0.81c0,0.32-0.11,0.59-0.34,0.82
			c-0.23,0.23-0.49,0.34-0.81,0.34c-0.32,0-0.59-0.11-0.82-0.34c-0.23-0.23-0.34-0.5-0.34-0.82c0-0.32,0.11-0.59,0.33-0.81
			C90.74,221.88,91.01,221.77,91.33,221.77z"/>
		<path class="st1" d="M107.47,222.57l-0.34,0.74c-0.61,0.32-1.16,0.54-1.65,0.67c-0.49,0.12-1.1,0.18-1.83,0.18
			c-1.04,0-1.96-0.16-2.76-0.49c-0.63-0.26-1.16-0.61-1.59-1.05c-0.44-0.44-0.77-0.91-1.01-1.42c-0.36-0.77-0.54-1.6-0.54-2.51
			c0-1.54,0.53-2.8,1.58-3.78c1.06-0.98,2.55-1.47,4.47-1.47c0.66,0,1.26,0.05,1.78,0.15c0.53,0.1,1.14,0.27,1.83,0.52l0.04,0.1
			c-0.08,0.23-0.14,0.52-0.18,0.87c-0.07,0.55-0.12,1.07-0.14,1.54h-0.57c-0.01-0.54-0.03-0.97-0.07-1.29
			c-0.33-0.34-0.7-0.6-1.11-0.77c-0.41-0.17-0.93-0.25-1.57-0.25c-1.15,0-2.07,0.36-2.76,1.09c-0.69,0.73-1.04,1.74-1.04,3.05
			c0,0.79,0.12,1.48,0.35,2.07c0.23,0.59,0.54,1.07,0.93,1.46c0.39,0.38,0.78,0.67,1.17,0.84c0.53,0.24,1.18,0.35,1.94,0.35
			c0.5,0,0.97-0.06,1.42-0.17s0.93-0.31,1.46-0.58L107.47,222.57z"/>
		<path class="st1" d="M116.67,223.32v0.58c-0.74-0.02-1.22-0.03-1.44-0.03c-0.15,0-0.65,0.01-1.5,0.03l-0.07-0.07l0.1-1.54
			c0.01-0.27,0.02-0.59,0.02-0.96v-1.43c0-0.67-0.11-1.13-0.33-1.39c-0.22-0.26-0.54-0.39-0.96-0.39c-0.3,0-0.57,0.08-0.79,0.23
			c-0.23,0.15-0.4,0.36-0.51,0.62c-0.04,0.09-0.07,0.29-0.07,0.6v0.93c0,0.38,0.01,0.87,0.02,1.46c0.01,0.59,0.03,0.94,0.05,1.05
			c0.01,0.06,0.03,0.1,0.06,0.13c0.02,0.03,0.06,0.05,0.1,0.07c0.07,0.03,0.19,0.06,0.34,0.07l0.57,0.03v0.58
			c-1.34-0.03-2.08-0.05-2.23-0.05l-1.82,0.05v-0.58c0.44-0.02,0.69-0.04,0.77-0.06c0.08-0.02,0.13-0.05,0.17-0.08
			c0.04-0.04,0.06-0.09,0.08-0.16c0.03-0.15,0.06-0.62,0.07-1.4c0.01-0.78,0.02-1.47,0.02-2.08v-2.38c0-0.79-0.02-1.5-0.06-2.15
			c-0.01-0.33-0.04-0.52-0.07-0.58c-0.02-0.03-0.05-0.06-0.08-0.08c-0.05-0.03-0.14-0.06-0.27-0.08c-0.08-0.01-0.3-0.03-0.64-0.04
			v-0.54c0.69-0.08,1.19-0.16,1.5-0.23c0.31-0.07,0.76-0.2,1.34-0.38l0.16,0.09l-0.06,1.75c-0.02,0.89-0.03,1.71-0.03,2.47v0.71
			l1.29-1.07c0.34-0.13,0.7-0.2,1.07-0.2c0.39,0,0.73,0.06,1.03,0.19c0.3,0.13,0.54,0.29,0.71,0.5c0.17,0.21,0.29,0.43,0.36,0.67
			c0.07,0.24,0.11,0.56,0.11,0.95c0,0.13-0.01,0.51-0.03,1.15c-0.01,0.47-0.02,0.85-0.02,1.15c0,0.91,0.02,1.44,0.05,1.6
			c0.02,0.11,0.08,0.18,0.16,0.23C115.93,223.29,116.2,223.31,116.67,223.32z"/>
		<path class="st1" d="M121.73,223.34v0.57c-0.55-0.02-1.17-0.04-1.85-0.04c-0.76,0-1.55,0.01-2.37,0.04v-0.57
			c0.38,0,0.65-0.03,0.79-0.08c0.07-0.02,0.12-0.07,0.15-0.13c0.05-0.09,0.08-0.27,0.08-0.53l0.03-0.65c0-0.14,0.01-0.36,0.01-0.67
			v-0.96c0-0.44-0.01-0.97-0.04-1.59c-0.01-0.31-0.04-0.49-0.06-0.53c-0.03-0.04-0.07-0.07-0.13-0.09
			c-0.09-0.03-0.37-0.06-0.83-0.07v-0.57c0.89-0.15,1.48-0.26,1.76-0.34c0.28-0.07,0.6-0.19,0.95-0.35l0.2,0.09l-0.01,1.48
			c0.32-0.33,0.56-0.6,0.73-0.82c0.25-0.3,0.45-0.5,0.57-0.58c0.18-0.12,0.41-0.18,0.7-0.18c0.18,0,0.35,0.03,0.49,0.09l-0.04,1.04
			c-0.01,0.57-0.03,0.89-0.04,0.98l-0.31,0.1c-0.12-0.16-0.24-0.27-0.35-0.34c-0.18-0.1-0.38-0.15-0.6-0.15
			c-0.29,0-0.54,0.09-0.75,0.27c-0.21,0.18-0.33,0.36-0.37,0.55c-0.02,0.11-0.03,0.52-0.03,1.24v0.73l0.01,1
			c0,0.38,0.02,0.61,0.04,0.69c0.02,0.09,0.07,0.15,0.15,0.2c0.08,0.05,0.25,0.08,0.51,0.1L121.73,223.34z"/>
		<path class="st1" d="M123.42,223.9v-0.54c0.55-0.04,0.86-0.08,0.94-0.13c0.08-0.05,0.13-0.13,0.15-0.26
			c0.05-0.27,0.07-0.96,0.07-2.08c0-1.53-0.02-2.41-0.07-2.62c-0.02-0.1-0.05-0.16-0.1-0.19c-0.1-0.06-0.43-0.1-1-0.1v-0.56
			c0.74-0.08,1.3-0.16,1.68-0.25c0.38-0.09,0.79-0.22,1.23-0.4l0.18,0.1c-0.06,0.76-0.09,1.48-0.09,2.15v2.5
			c0,0.85,0.02,1.36,0.06,1.51c0.02,0.09,0.06,0.15,0.12,0.18c0.13,0.06,0.45,0.11,0.96,0.12v0.57c-0.7-0.02-1.45-0.03-2.27-0.03
			C124.58,223.87,123.95,223.88,123.42,223.9z M125.43,213.26c0.31,0,0.58,0.11,0.8,0.33c0.22,0.22,0.33,0.48,0.33,0.79
			c0,0.31-0.11,0.58-0.33,0.8c-0.22,0.22-0.48,0.33-0.8,0.33c-0.31,0-0.57-0.11-0.79-0.33c-0.22-0.22-0.33-0.49-0.33-0.8
			c0-0.31,0.11-0.57,0.33-0.79C124.85,213.37,125.12,213.26,125.43,213.26z"/>
		<path class="st1" d="M128.71,221.59h0.59c0.02,0.55,0.05,0.89,0.07,1.04c0.22,0.27,0.46,0.47,0.73,0.6
			c0.26,0.13,0.57,0.19,0.91,0.19c0.46,0,0.81-0.11,1.06-0.33c0.24-0.22,0.37-0.49,0.37-0.8c0-0.21-0.04-0.38-0.12-0.51
			c-0.08-0.13-0.24-0.26-0.49-0.37c-0.19-0.07-0.56-0.16-1.1-0.28c-0.54-0.12-0.95-0.25-1.23-0.39s-0.5-0.35-0.65-0.64
			s-0.24-0.61-0.24-0.99c0-0.68,0.25-1.24,0.76-1.69c0.51-0.45,1.24-0.67,2.2-0.67c0.4,0,0.76,0.03,1.1,0.1
			c0.33,0.07,0.63,0.17,0.9,0.31l0.02,0.07c-0.03,0.17-0.05,0.35-0.07,0.52c-0.01,0.18-0.04,0.59-0.07,1.25l-0.57-0.01
			c0-0.05-0.01-0.14-0.02-0.27c-0.01-0.22-0.04-0.43-0.09-0.64c-0.15-0.2-0.34-0.34-0.56-0.44c-0.22-0.1-0.48-0.15-0.78-0.15
			c-0.42,0-0.74,0.09-0.97,0.28c-0.23,0.19-0.34,0.41-0.34,0.67c0,0.26,0.05,0.46,0.15,0.59c0.1,0.13,0.25,0.22,0.46,0.29
			c0.2,0.06,0.57,0.15,1.11,0.25s0.91,0.18,1.09,0.25c0.27,0.1,0.49,0.23,0.65,0.39c0.16,0.16,0.29,0.35,0.37,0.58
			c0.09,0.23,0.13,0.49,0.13,0.77c0,0.73-0.28,1.35-0.85,1.84c-0.57,0.5-1.36,0.75-2.39,0.75c-0.34,0-0.68-0.03-1-0.09
			c-0.32-0.06-0.72-0.17-1.18-0.33l-0.08-0.11c0.04-0.38,0.06-0.64,0.07-0.8L128.71,221.59z"/>
		<path class="st1" d="M139.37,223.9v-0.37c0.13-0.05,0.31-0.15,0.54-0.29c0.1-0.06,0.17-0.11,0.2-0.15l0.04-0.08
			c0.02-0.12,0.05-0.56,0.07-1.31c0.02-0.75,0.03-1.65,0.03-2.71c0-1.55,0-2.5-0.01-2.87c-0.02-0.92-0.05-1.45-0.1-1.58
			c-0.02-0.06-0.06-0.1-0.11-0.13c-0.11-0.07-0.49-0.12-1.12-0.15v-0.65c0.62,0.03,1.33,0.04,2.13,0.04c0.89,0,1.74-0.01,2.54-0.04
			v0.65c-0.55,0.02-0.89,0.07-1.01,0.13c-0.05,0.03-0.09,0.08-0.12,0.14c-0.02,0.07-0.05,0.37-0.07,0.91
			c-0.02,0.54-0.03,1.22-0.03,2.04c0,0.09,0,0.8,0.01,2.12c0,0.7,0.01,1.4,0.01,2.08c0,0.69,0.01,1.11,0.01,1.25
			c0.68,0.03,1.14,0.04,1.38,0.04c0.74,0,1.39-0.04,1.95-0.13c0.2-0.03,0.32-0.06,0.36-0.1c0.04-0.03,0.08-0.12,0.13-0.27
			c0.1-0.37,0.19-0.8,0.29-1.28h0.61c-0.01,0.14-0.02,0.22-0.02,0.24l-0.18,1.48c-0.04,0.47-0.06,0.74-0.07,0.84
			c-0.14,0.04-0.28,0.07-0.43,0.08c-0.3,0.02-0.76,0.04-1.39,0.04c-0.09,0-0.66-0.01-1.73-0.04c-0.81-0.02-1.37-0.03-1.69-0.03
			C141.08,223.84,140.35,223.86,139.37,223.9z"/>
		<path class="st1" d="M148.07,223.9v-0.54c0.55-0.04,0.86-0.08,0.94-0.13c0.08-0.05,0.13-0.13,0.15-0.26
			c0.05-0.27,0.07-0.96,0.07-2.08c0-1.53-0.02-2.41-0.07-2.62c-0.02-0.1-0.05-0.16-0.1-0.19c-0.1-0.06-0.43-0.1-1-0.1v-0.56
			c0.74-0.08,1.3-0.16,1.68-0.25c0.38-0.09,0.79-0.22,1.23-0.4l0.18,0.1c-0.06,0.76-0.09,1.48-0.09,2.15v2.5
			c0,0.85,0.02,1.36,0.06,1.51c0.02,0.09,0.06,0.15,0.12,0.18c0.13,0.06,0.45,0.11,0.96,0.12v0.57c-0.7-0.02-1.45-0.03-2.27-0.03
			C149.23,223.87,148.61,223.88,148.07,223.9z M150.08,213.26c0.31,0,0.58,0.11,0.8,0.33c0.22,0.22,0.33,0.48,0.33,0.79
			c0,0.31-0.11,0.58-0.33,0.8c-0.22,0.22-0.48,0.33-0.8,0.33c-0.31,0-0.57-0.11-0.79-0.33c-0.22-0.22-0.33-0.49-0.33-0.8
			c0-0.31,0.11-0.57,0.33-0.79C149.5,213.37,149.77,213.26,150.08,213.26z"/>
		<path class="st1" d="M161.46,223.34v0.57c-0.67-0.03-1.21-0.05-1.63-0.05c-0.49,0-0.91,0.02-1.26,0.05l-0.13-0.13
			c0.01-0.1,0.04-0.53,0.1-1.27l0.04-1.21v-0.58c0-0.86-0.03-1.42-0.1-1.69s-0.2-0.49-0.41-0.65c-0.21-0.16-0.48-0.25-0.82-0.25
			s-0.63,0.08-0.85,0.25c-0.23,0.16-0.37,0.33-0.43,0.5c-0.03,0.1-0.05,0.49-0.04,1.18v1.23c0,0.36,0.01,0.8,0.03,1.32
			c0,0.23,0.02,0.38,0.06,0.46c0.02,0.05,0.06,0.09,0.1,0.12c0.06,0.04,0.17,0.08,0.35,0.11c0.06,0.01,0.26,0.03,0.62,0.06v0.57
			c-0.53-0.02-1.19-0.03-1.96-0.03c-0.9,0-1.59,0.01-2.09,0.03v-0.57c0.38,0,0.65-0.03,0.79-0.08c0.07-0.02,0.12-0.07,0.15-0.13
			c0.05-0.09,0.08-0.27,0.08-0.53l0.03-0.65c0-0.14,0.01-0.36,0.01-0.67v-0.96c0-0.44-0.01-0.97-0.04-1.59
			c-0.01-0.31-0.04-0.49-0.06-0.53c-0.03-0.04-0.07-0.07-0.13-0.09c-0.09-0.03-0.37-0.06-0.83-0.07v-0.57
			c0.89-0.15,1.48-0.26,1.76-0.34c0.28-0.07,0.6-0.19,0.95-0.35l0.2,0.09v1.18l1.34-1.07c0.16-0.06,0.3-0.11,0.41-0.13
			c0.11-0.02,0.26-0.03,0.46-0.03c0.52,0,0.92,0.06,1.18,0.18c0.26,0.12,0.48,0.28,0.67,0.5c0.18,0.21,0.31,0.44,0.38,0.67
			c0.07,0.23,0.11,0.6,0.11,1.09c0,0.56-0.01,0.91-0.01,1.07c0,0.06-0.01,0.13-0.01,0.21l0.01,0.76c0,0.83,0.02,1.34,0.04,1.54
			c0.02,0.2,0.07,0.32,0.13,0.38c0.07,0.06,0.21,0.09,0.44,0.11C161.13,223.31,161.27,223.32,161.46,223.34z"/>
		<path class="st1" d="M170.81,223.32v0.59c-0.21-0.01-0.63-0.02-1.29-0.02c-0.68,0-1.11,0.01-1.28,0.02
			c-0.25-0.43-0.77-1.09-1.55-1.98c-0.78-0.89-1.22-1.37-1.33-1.45c-0.03-0.03-0.09-0.05-0.16-0.05v0.72c0,0.36,0.01,0.84,0.04,1.45
			c0.01,0.27,0.03,0.44,0.06,0.5c0.01,0.04,0.04,0.07,0.08,0.1c0.05,0.04,0.15,0.07,0.28,0.09c0.06,0.01,0.29,0.02,0.69,0.04v0.59
			c-0.6-0.03-1.25-0.05-1.96-0.05c-0.76,0-1.47,0.02-2.12,0.05v-0.59c0.43-0.02,0.68-0.04,0.76-0.06c0.08-0.02,0.13-0.04,0.17-0.08
			c0.04-0.04,0.07-0.08,0.08-0.14c0.04-0.15,0.06-0.55,0.07-1.2c0.02-0.89,0.03-1.65,0.03-2.29v-2.38c0-0.79-0.02-1.5-0.06-2.15
			c-0.01-0.33-0.04-0.52-0.07-0.58c-0.02-0.03-0.05-0.06-0.08-0.08c-0.06-0.03-0.15-0.06-0.27-0.08c-0.08-0.01-0.3-0.03-0.64-0.04
			v-0.54c0.69-0.08,1.19-0.16,1.5-0.23c0.31-0.07,0.76-0.2,1.34-0.38l0.16,0.09l-0.05,1.59c-0.02,0.88-0.03,1.77-0.03,2.66v2.68
			c0.16-0.12,0.34-0.27,0.54-0.46c0.43-0.39,0.79-0.73,1.07-1c0.1-0.11,0.28-0.29,0.54-0.54c0.26-0.25,0.48-0.49,0.65-0.69V217
			c0.44,0.01,0.89,0.01,1.34,0.01c0.2,0,0.52,0,0.98-0.01v0.57l-0.77,0.05c-0.08,0.01-0.16,0.03-0.24,0.07
			c-0.15,0.07-0.37,0.23-0.68,0.48c-0.43,0.34-0.69,0.56-0.78,0.64c-0.09,0.08-0.16,0.15-0.21,0.19l-0.62,0.54
			c0.43,0.51,1.16,1.35,2.19,2.51c0.58,0.66,0.96,1.04,1.14,1.15C170.46,223.26,170.61,223.3,170.81,223.32z"/>
		<path class="st1" d="M170.96,226.22c0.35-0.67,0.62-1.31,0.81-1.92c0.19-0.61,0.33-1.28,0.42-1.98c0.74-0.15,1.14-0.24,1.2-0.25
			c0.22-0.06,0.48-0.15,0.79-0.28l0.26,0.25c-0.2,0.47-0.52,1.1-0.97,1.91s-0.87,1.47-1.24,2l-1.05,0.46L170.96,226.22z"/>
		<path class="st1" d="M179.02,223.9v-0.62c0.55-0.04,0.88-0.08,0.98-0.12c0.06-0.02,0.11-0.05,0.14-0.1
			c0.04-0.06,0.07-0.16,0.09-0.28c0.03-0.28,0.06-0.89,0.09-1.83c0.01-0.46,0.02-1.24,0.02-2.35c0-0.99-0.01-1.88-0.02-2.64
			c-0.01-0.77-0.05-1.22-0.1-1.37c-0.02-0.07-0.05-0.12-0.09-0.16c-0.04-0.04-0.12-0.06-0.24-0.08c-0.32-0.05-0.62-0.09-0.87-0.1
			v-0.62c1.01,0.03,1.71,0.04,2.09,0.04c0.5,0,1.01-0.01,1.52-0.04l0.65,1.46l0.51,1.1l2.34,4.82c0.5-0.97,0.87-1.71,1.12-2.25
			l0.97-2.04c0.54-1.14,0.87-1.84,0.99-2.1c0.12-0.26,0.26-0.59,0.41-1c0.64,0.03,1.05,0.05,1.23,0.05l2.19-0.05v0.62h-0.1
			c-0.5,0-0.81,0.05-0.94,0.17c-0.13,0.12-0.2,0.35-0.2,0.69c0,0.41,0,0.72-0.01,0.93l-0.04,2.07v2.58c0,0.63,0,0.99,0.01,1.1
			c0.04,0.62,0.07,1,0.1,1.15c0.01,0.07,0.04,0.12,0.08,0.17c0.04,0.04,0.1,0.07,0.17,0.1c0.07,0.02,0.38,0.05,0.93,0.08v0.62
			l-2.34-0.04l-2.29,0.04v-0.62c0.61-0.02,0.95-0.06,1.04-0.11c0.09-0.05,0.15-0.17,0.18-0.35c0.04-0.18,0.06-0.79,0.06-1.82v-5.35
			l-1.71,3.45l-0.82,1.71c-0.22,0.45-0.52,1.1-0.91,1.96c-0.24,0.52-0.43,0.94-0.57,1.26h-0.5c-0.18-0.41-0.43-0.98-0.76-1.69
			c-0.57-1.22-1-2.14-1.29-2.74l-1.93-3.95v3.61c0,0.6,0.01,1.32,0.03,2.15c0.02,0.83,0.04,1.3,0.06,1.41
			c0.02,0.11,0.05,0.19,0.09,0.24c0.04,0.05,0.12,0.09,0.22,0.13c0.11,0.03,0.41,0.07,0.9,0.1v0.62c-0.55-0.03-1.11-0.04-1.68-0.04
			C180.05,223.86,179.46,223.87,179.02,223.9z"/>
		<path class="st1" d="M195.42,221.77c0.32,0,0.59,0.11,0.81,0.33c0.22,0.22,0.33,0.49,0.33,0.81c0,0.32-0.11,0.59-0.34,0.82
			c-0.23,0.23-0.49,0.34-0.81,0.34c-0.32,0-0.59-0.11-0.82-0.34c-0.23-0.23-0.34-0.5-0.34-0.82c0-0.32,0.11-0.59,0.33-0.81
			C194.82,221.88,195.09,221.77,195.42,221.77z"/>
		<path class="st1" d="M198.27,223.9v-0.35c0.04-0.02,0.11-0.06,0.21-0.12c0.19-0.1,0.36-0.21,0.51-0.32
			c0.05-0.66,0.08-1.72,0.08-3.2v-1.21c0-0.65-0.01-1.59-0.04-2.84c-0.01-0.69-0.05-1.13-0.1-1.32c-0.01-0.04-0.03-0.08-0.06-0.1
			c-0.04-0.04-0.1-0.07-0.18-0.09c-0.08-0.02-0.39-0.06-0.93-0.13v-0.6l2.67,0.04c0.31,0,0.9-0.01,1.77-0.04
			c0.63-0.01,1.13-0.02,1.51-0.02c0.87,0,1.56,0.05,2.08,0.16c0.52,0.11,0.98,0.27,1.36,0.51c0.39,0.23,0.71,0.51,0.98,0.83
			c0.27,0.32,0.47,0.66,0.61,1.03c0.23,0.62,0.35,1.29,0.35,2.03c0,0.94-0.17,1.77-0.51,2.51c-0.34,0.73-0.81,1.35-1.41,1.84
			c-0.6,0.5-1.25,0.85-1.95,1.07c-0.7,0.22-1.55,0.33-2.54,0.33l-2.18-0.04L198.27,223.9z M201.21,223.01
			c0.46,0.07,0.89,0.1,1.31,0.1c0.65,0,1.23-0.07,1.73-0.21c0.37-0.1,0.7-0.25,0.98-0.45c0.28-0.2,0.55-0.49,0.8-0.87
			c0.26-0.38,0.46-0.84,0.6-1.37c0.14-0.53,0.21-1.1,0.21-1.71c0-0.56-0.07-1.1-0.21-1.62c-0.14-0.52-0.37-0.98-0.7-1.37
			c-0.32-0.39-0.73-0.68-1.23-0.85c-0.49-0.18-1.24-0.26-2.25-0.26c-0.38,0-0.79,0.03-1.25,0.1c-0.05,0.7-0.07,2.01-0.07,3.93v1.69
			C201.13,221.58,201.16,222.54,201.21,223.01z"/>
		<path class="st1" d="M211.72,221.77c0.32,0,0.59,0.11,0.81,0.33c0.22,0.22,0.33,0.49,0.33,0.81c0,0.32-0.11,0.59-0.34,0.82
			c-0.23,0.23-0.49,0.34-0.81,0.34c-0.32,0-0.59-0.11-0.82-0.34c-0.23-0.23-0.34-0.5-0.34-0.82c0-0.32,0.11-0.59,0.33-0.81
			C211.12,221.88,211.39,221.77,211.72,221.77z"/>
		<polygon class="st1" points="40.11,197.85 41.85,197.85 56.97,197.85 56.97,102.34 40.11,102.34 		"/>
		<polygon class="st1" points="135.43,107.19 135.43,107.18 135.44,107.18 		"/>
		<path class="st1" d="M164.05,104.82c-4.29-3.34-9-4.58-13-4.58c-3.69,0-6.9,0.61-9.77,1.8c-2.87,1.19-5.38,2.94-7.7,5.14
			c-2.51,2.36-4.89,5.42-6.93,9.16c-1.7-4.14-4.08-7.74-7.07-10.48c-3.83-3.52-8.7-5.62-14.16-5.61c-3.24,0-6.16,0.55-8.78,1.52
			c-3.93,1.47-7.13,3.89-9.73,6.78c-1.34,1.49-2.52,3.1-3.57,4.77l-0.45-10.98H67.66l0.11,1.84c0.45,7.56,0.61,15.32,0.61,24.81
			v68.87h16.56v-57.27c0-2.73,0.3-5.43,0.99-7.67l0.01-0.04l0.01-0.04c1-3.94,2.96-7.89,5.56-10.77c1.3-1.44,2.75-2.61,4.31-3.41
			c1.56-0.8,3.23-1.24,5.03-1.25c2.25,0,4.12,0.57,5.76,1.62c1.23,0.79,2.33,1.86,3.31,3.21c1.46,2.03,2.61,4.7,3.38,7.87
			c0.78,3.17,1.18,6.84,1.17,10.85v56.89h16.56v-58.6c0-2.86,0.44-5.79,1-7.91c1.07-3.84,3.01-7.39,5.48-9.92
			c1.24-1.26,2.6-2.27,4.05-2.96c1.45-0.69,2.98-1.06,4.62-1.06c2.42,0,4.4,0.58,6.12,1.67c1.29,0.82,2.43,1.94,3.43,3.39
			c1.51,2.18,2.69,5.11,3.49,8.73c0.79,3.62,1.2,7.92,1.2,12.8v53.84h16.56v-55.94c0-8.12-0.92-14.77-2.48-20.2
			C172.17,113.58,168.35,108.16,164.05,104.82z"/>
		<path class="st1" d="M244.85,177.45l-2.12,1.16c-1.87,1.03-3.97,2.11-6.49,2.94c-2.53,0.83-5.48,1.41-9.1,1.41
			c-3.39,0-6.53-0.76-9.37-2.2c-4.25-2.16-7.84-5.87-10.4-11.01c-2.55-5.14-4.06-11.71-4.05-19.48c0-9.33,2.23-17.7,6.36-23.61
			c2.06-2.96,4.59-5.31,7.56-6.93c2.97-1.62,6.4-2.52,10.36-2.52c6.97,0,11.6,1.98,14.51,4.05l2.11,1.51l3.92-16.67l-1.06-0.66
			c-2.01-1.25-4.79-2.49-8.13-3.43c-3.33-0.94-7.21-1.59-11.35-1.59c-6.26,0-12.01,1.34-17.09,3.83
			c-7.62,3.73-13.7,10.03-17.84,18.07c-4.14,8.05-6.37,17.85-6.37,28.71c0,14.36,3.68,26.49,10.37,35.11
			c3.34,4.3,7.44,7.72,12.17,10.04c4.73,2.33,10.07,3.56,15.87,3.56c5.12,0,9.69-0.79,13.45-1.88c3.76-1.09,6.7-2.47,8.64-3.73
			l0.97-0.63l-0.21-1.14L244.85,177.45z"/>
		<path class="st1" d="M58.26,73.81c-0.08-0.62-0.19-1.23-0.29-1.85c-0.02-0.11-0.04-0.21-0.15-0.25c-0.11-0.04-0.18,0.04-0.25,0.12
			l-0.18,0.19c-0.15,0.14-0.29,0.28-0.44,0.4c-0.5,0.41-1.04,0.75-1.62,1.01c-1.01,0.47-2.01,0.93-3.03,1.38
			c-1.41,0.61-2.81,1.21-4.14,2.03c-0.79,0.49-1.53,1.05-2.16,1.77c-0.66,0.76-1.14,1.64-1.47,2.62c-0.28,0.83-0.42,1.7-0.45,2.59
			c-0.03,0.88,0.03,1.76,0.21,2.62c0.13,0.6,0.3,1.18,0.46,1.77c0.07,0.26,0.15,0.52,0.23,0.78c0.03,0.09,0.07,0.18,0.17,0.17
			c0.11-0.02,0.08-0.13,0.07-0.2c-0.01-0.3-0.03-0.59-0.04-0.89c-0.02-0.83,0.03-1.65,0.14-2.47c0.14-0.96,0.39-1.88,0.8-2.75
			c0.51-1.09,1.25-1.96,2.16-2.66c0.79-0.6,1.67-1.02,2.59-1.33c1.08-0.37,2.2-0.58,3.33-0.7l-0.2,0.06
			c-0.95,0.28-1.86,0.67-2.71,1.22c-1.05,0.68-1.97,1.53-2.69,2.61c-0.26,0.39-0.48,0.81-0.7,1.24c-0.42,0.84-0.67,1.75-0.79,2.7
			c-0.08,0.6-0.1,1.21-0.04,1.82c0.06,0.67,0.2,1.31,0.43,1.93c0.03,0.09,0.09,0.17,0.15,0.23c0.22,0.24,0.51,0.25,0.79,0.23
			c0.56-0.03,1.12-0.06,1.67-0.13c1.39-0.17,2.73-0.56,3.97-1.29c1.04-0.61,1.93-1.41,2.63-2.46c0.63-0.95,1.07-2,1.38-3.12
			c0.36-1.33,0.51-2.69,0.54-4.06c0.02-0.78,0-1.56-0.05-2.33C58.5,75.8,58.38,74.8,58.26,73.81z"/>
		<path class="st1" d="M44.06,88.85l0.22,0.05l-0.01-0.23c-0.13-0.46-0.26-0.93-0.4-1.39c-0.04-0.13-0.09-0.27-0.16-0.39
			c-0.11-0.21-0.24-0.42-0.35-0.63c-0.58-1.12-0.92-2.31-0.95-3.6c-0.03-1.29,0.25-2.51,0.72-3.69c0.52-1.31,1.24-2.49,2.03-3.62
			l0.11-0.15l-0.07,0.2c-0.39,0.76-0.75,1.54-1.01,2.37c-0.32,0.99-0.53,2-0.5,3.06c0,0.06,0.01,0.12,0.02,0.2L43.77,81l0.04-0.1
			c0.31-0.93,0.82-1.71,1.43-2.43c0.97-1.13,2.12-1.99,3.38-2.66c0.64-0.34,1.3-0.65,1.95-0.96c0.24-0.12,0.27-0.21,0.12-0.45
			c-0.61-0.99-1.33-1.88-2.11-2.71c-0.5-0.52-1.02-1.02-1.54-1.5c-0.93-0.86-1.92-1.63-2.92-2.38l-0.18-0.12
			c-0.14-0.06-0.24,0-0.27,0.16l-0.01,0.16c-0.03,0.37-0.03,0.76-0.1,1.12c-0.13,0.61-0.28,1.22-0.48,1.8
			c-0.26,0.79-0.57,1.57-0.87,2.35c-0.42,1.1-0.86,2.19-1.27,3.3c-0.41,1.11-0.75,2.24-0.95,3.42c-0.16,0.95-0.19,1.91-0.02,2.87
			c0.27,1.56,0.94,2.89,1.91,4.04C42.52,87.69,43.25,88.32,44.06,88.85z"/>
	</g>
</g>
</svg>
