<svg id="Layer_1" data-name="Layer 1" xmlns="http://www.w3.org/2000/svg" viewBox="0 0 1008.02 588.97"><defs><style>.cls-1{fill:#0e7178;}.cls-2{fill:#6ba643;}.cls-3{fill:#fff;}</style></defs><title>logo_top</title><path class="cls-1" d="M230.15,501.72q0-5.34-3.27-16.78h-20q-3.19,11.44-3.19,16.78h-5.06q0-13.91,15.82-53.69h4.71q16,39.78,16.06,53.69Zm-4.79-21.84q-3.37-11-8.57-24.56-5.1,13.6-8.45,24.56Z" transform="translate(-54.43 -31.65)"/><path class="cls-1" d="M269.09,476.77a34.94,34.94,0,0,1-.44,16.46q-2.75,9.5-12.63,9.49a20.8,20.8,0,0,1-8.25-1.67v21.2H242.7V466.13h5.07c0,.77.32,1,.95.71a20.43,20.43,0,0,1,7.82-1.59,11.57,11.57,0,0,1,8.09,3.15A14.81,14.81,0,0,1,269.09,476.77Zm-5.3,15a30.28,30.28,0,0,0,.32-14.07,10,10,0,0,0-2.71-5.43,6.81,6.81,0,0,0-4.86-2,15.21,15.21,0,0,0-8.77,2.83v22.21a14.89,14.89,0,0,0,8.25,2.31C260.08,497.66,262.68,495.7,263.79,491.8Z" transform="translate(-54.43 -31.65)"/><path class="cls-1" d="M303.34,476.77a35.2,35.2,0,0,1-.44,16.46q-2.76,9.5-12.64,9.49a20.8,20.8,0,0,1-8.25-1.67v21.2H277V466.13H282c0,.77.32,1,1,.71a20.35,20.35,0,0,1,7.81-1.59,11.57,11.57,0,0,1,8.09,3.15A14.88,14.88,0,0,1,303.34,476.77Zm-5.31,15a30.15,30.15,0,0,0,.32-14.07,10,10,0,0,0-2.71-5.43,6.81,6.81,0,0,0-4.86-2,15.23,15.23,0,0,0-8.77,2.83v22.21a14.89,14.89,0,0,0,8.25,2.31Q296.37,497.66,298,491.8Z" transform="translate(-54.43 -31.65)"/><path class="cls-1" d="M319.4,502.52a8.08,8.08,0,0,1-5.9-2.27q-2.62-2.62-2.63-7.46V445.6h5.06v47.19a5.19,5.19,0,0,0,1.16,3.83,3,3,0,0,0,2.35.84l.08,5.06Z" transform="translate(-54.43 -31.65)"/><path class="cls-1" d="M351.85,466.13v44.56a14.92,14.92,0,0,1-1,6.22,10.26,10.26,0,0,1-5.62,4.86,9.6,9.6,0,0,1-3.55.52,43.27,43.27,0,0,1-10.76-1.71l1.28-4.9q8.8,2.34,11.08,1.39a5.5,5.5,0,0,0,3-2.35,10.42,10.42,0,0,0,.52-4v-9.6a19.88,19.88,0,0,1-7.9,1.59q-9.21,0-11.92-9.53-1.28-4.38-.47-27.1l5.06.2q-.8,21.88.28,25.51a9.17,9.17,0,0,0,2.51,4.54,6.94,6.94,0,0,0,4.54,1.32,13.66,13.66,0,0,0,7.9-2.27V466.13Z" transform="translate(-54.43 -31.65)"/><path class="cls-1" d="M366.52,459a3.31,3.31,0,0,1-2.43,1,3.4,3.4,0,0,1-3.47-3.47,3.3,3.3,0,0,1,1-2.43,3.41,3.41,0,0,1,2.48-1,3.27,3.27,0,0,1,2.43,1,3.23,3.23,0,0,1,1,2.43A3.36,3.36,0,0,1,366.52,459Zm-4.79,42.69h5.07V465.85h-5.07Z" transform="translate(-54.43 -31.65)"/><path class="cls-1" d="M399.24,467.6q3.27,3,3.27,9.69v24.43h-5.06V477.29q0-4.47-1.67-6c-.91-.85-2.4-1.22-4.47-1.12a20.1,20.1,0,0,0-9.45,3.15v28.42H376.8V465.85h5.06c0,1.06.47,1.41,1.48,1a31.72,31.72,0,0,1,7.69-1.79Q396.3,464.8,399.24,467.6Z" transform="translate(-54.43 -31.65)"/><path class="cls-1" d="M438.11,466v44.6a14.76,14.76,0,0,1-1,6.22,10.06,10.06,0,0,1-5.62,4.87,13.8,13.8,0,0,1-5.26,1,15.22,15.22,0,0,1-4.34-.6,10.18,10.18,0,0,1-6.38-4.58,14.84,14.84,0,0,1-1.64-6.5l5.07-.32a9.22,9.22,0,0,0,1.23,4.71,5.92,5.92,0,0,0,3.11,1.83,9.39,9.39,0,0,0,6.3-.24,5.33,5.33,0,0,0,3-2.31,10.77,10.77,0,0,0,.52-4.07v-9.68a20.87,20.87,0,0,1-8.25,1.67q-9.89,0-12.64-9.49a35.07,35.07,0,0,1-.44-16.46,14.82,14.82,0,0,1,4.47-8.37,11.46,11.46,0,0,1,8.09-3.19,19.6,19.6,0,0,1,7.77,1.63c.69.3,1,.06,1-.71ZM424.8,497.5a14.9,14.9,0,0,0,8.25-2.35V473a15.23,15.23,0,0,0-8.77-2.83,6.72,6.72,0,0,0-4.87,2,10,10,0,0,0-2.71,5.42,30.42,30.42,0,0,0,.32,14.07Q418.7,497.49,424.8,497.5Z" transform="translate(-54.43 -31.65)"/><path class="cls-1" d="M476.74,470.91v21.76c0,1.89.4,3.19,1.19,3.91s2.33,1,4.43.8l.56,5a15.19,15.19,0,0,1-1.88.12,9.49,9.49,0,0,1-6.5-2.15c-1.91-1.73-2.87-4.29-2.87-7.7V470.91h-6.29v-5.06h6.29V452.73h5.07v13.12h6.81v5.06Z" transform="translate(-54.43 -31.65)"/><path class="cls-1" d="M504,465.09a10.52,10.52,0,0,1,8.21,3.39q3.12,3.34,3.11,9v24.23H510.3V477.49q0-7.31-6.26-7.3a21,21,0,0,0-9.68,2.51v29h-5.07V445.6h5.07v21.52A25.41,25.41,0,0,1,504,465.09Z" transform="translate(-54.43 -31.65)"/><path class="cls-1" d="M528.76,499.69A13.18,13.18,0,0,1,524,492.2a30.21,30.21,0,0,1-.16-15.67,16.9,16.9,0,0,1,5.31-8.65,13.58,13.58,0,0,1,8.88-3,11.51,11.51,0,0,1,8,2.87,13.36,13.36,0,0,1,4,8,16.78,16.78,0,0,1,.2,4.95l-.24,1.83-21.84,4a35.2,35.2,0,0,0,.76,4.42,8.25,8.25,0,0,0,3,4.74,8.35,8.35,0,0,0,5.34,1.76,9.84,9.84,0,0,0,7.89-3.35l3.87,3.27a14.68,14.68,0,0,1-11.76,5.14A13.39,13.39,0,0,1,528.76,499.69Zm0-21.8a17.53,17.53,0,0,0-.6,3.5l17.1-3.18a13,13,0,0,0-.2-1.68q-1.08-6.61-7-6.62Q531,469.91,528.72,477.89Z" transform="translate(-54.43 -31.65)"/><path class="cls-1" d="M583,501.72h-5.06V448H591.3a15.93,15.93,0,0,1,9.17,2.63,10.3,10.3,0,0,1,4.82,8.17c0,.21.07.68.12,1.4q.48,5.65-.43,8.37-1.65,4.66-7.66,6.81-5.58,2-14.35,4.43Zm0-48.63v21.49q7.81-2.19,12.64-3.91,3.63-1.32,4.5-3.63c.45-1.11.53-3.23.24-6.33-.05-.67-.09-1.17-.12-1.52a5.77,5.77,0,0,0-3.51-4.86,11.69,11.69,0,0,0-5.42-1.24Z" transform="translate(-54.43 -31.65)"/><path class="cls-1" d="M622.87,465.53q6.11-1.39,10.85,4.14L629.85,473q-2.75-3.23-5.82-2.51a27.78,27.78,0,0,0-7.73,3.43v27.82h-5.07V465.85h5.07v1.31c0,.61.33.76,1,.44A30,30,0,0,1,622.87,465.53Z" transform="translate(-54.43 -31.65)"/><path class="cls-1" d="M642.33,459a3.31,3.31,0,0,1-2.44,1,3.4,3.4,0,0,1-3.46-3.47,3.3,3.3,0,0,1,1-2.43,3.39,3.39,0,0,1,2.47-1,3.27,3.27,0,0,1,2.44,1,3.23,3.23,0,0,1,1,2.43A3.36,3.36,0,0,1,642.33,459Zm-4.79,42.69h5.06V465.85h-5.06Z" transform="translate(-54.43 -31.65)"/><path class="cls-1" d="M675.05,467.6q3.27,3,3.27,9.69v24.43h-5.06V477.29q0-4.47-1.68-6c-.9-.85-2.39-1.22-4.46-1.12a20,20,0,0,0-9.45,3.15v28.42h-5.06V465.85h5.06c0,1.06.47,1.41,1.48,1a31.72,31.72,0,0,1,7.69-1.79Q672.11,464.8,675.05,467.6Z" transform="translate(-54.43 -31.65)"/><path class="cls-1" d="M692.07,499.73a14,14,0,0,1-5-7.45q-1.95-6.86-.2-16.07a13.47,13.47,0,0,1,4.47-8.29,13.18,13.18,0,0,1,8.85-2.91q7.8,0,11.8,6.14l-4.27,2.75a8.36,8.36,0,0,0-7.53-3.83q-7,0-8.38,7.06-1.5,8.06.16,13.75a9.25,9.25,0,0,0,3.15,4.82,8.52,8.52,0,0,0,5.35,1.76,8,8,0,0,0,7.13-3.71l4.23,2.79a12.74,12.74,0,0,1-11.36,6A13.36,13.36,0,0,1,692.07,499.73Z" transform="translate(-54.43 -31.65)"/><path class="cls-1" d="M724.32,459a3.27,3.27,0,0,1-2.43,1,3.42,3.42,0,0,1-3.47-3.47,3.27,3.27,0,0,1,1-2.43,3.37,3.37,0,0,1,2.47-1,3.55,3.55,0,0,1,3.47,3.47A3.37,3.37,0,0,1,724.32,459Zm-4.78,42.69h5.06V465.85h-5.06Z" transform="translate(-54.43 -31.65)"/><path class="cls-1" d="M761.16,476.77a35.2,35.2,0,0,1-.44,16.46q-2.76,9.5-12.64,9.49a20.8,20.8,0,0,1-8.25-1.67v21.2h-5.06V466.13h5.06c0,.77.32,1,1,.71a20.35,20.35,0,0,1,7.81-1.59,11.55,11.55,0,0,1,8.09,3.15A14.88,14.88,0,0,1,761.16,476.77Zm-5.31,15a30.15,30.15,0,0,0,.32-14.07,10,10,0,0,0-2.71-5.43,6.81,6.81,0,0,0-4.86-2,15.23,15.23,0,0,0-8.77,2.83v22.21a14.89,14.89,0,0,0,8.25,2.31Q754.19,497.66,755.85,491.8Z" transform="translate(-54.43 -31.65)"/><path class="cls-1" d="M777.22,502.52a8.08,8.08,0,0,1-5.9-2.27q-2.62-2.62-2.63-7.46V445.6h5.06v47.19a5.19,5.19,0,0,0,1.16,3.83,3,3,0,0,0,2.35.84l.08,5.06Z" transform="translate(-54.43 -31.65)"/><path class="cls-1" d="M790.38,499.69a13.13,13.13,0,0,1-4.75-7.49,30.21,30.21,0,0,1-.16-15.67,17,17,0,0,1,5.3-8.65,13.63,13.63,0,0,1,8.89-3,11.51,11.51,0,0,1,8,2.87,13.42,13.42,0,0,1,4,8,16.78,16.78,0,0,1,.2,4.95l-.24,1.83-21.84,4a35.2,35.2,0,0,0,.76,4.42,8.29,8.29,0,0,0,3,4.74,8.4,8.4,0,0,0,5.35,1.76,9.86,9.86,0,0,0,7.89-3.35l3.86,3.27a14.65,14.65,0,0,1-11.75,5.14A13.35,13.35,0,0,1,790.38,499.69Zm0-21.8a16.84,16.84,0,0,0-.6,3.5l17.1-3.18a13,13,0,0,0-.2-1.68q-1.08-6.61-7-6.62Q792.61,469.91,790.34,477.89Z" transform="translate(-54.43 -31.65)"/><path class="cls-1" d="M828.12,502.52a14.53,14.53,0,0,1-10.28-3.75l3.47-3.7a9.81,9.81,0,0,0,6.85,2.39h.08a7,7,0,0,0,5.34-2.11,5.2,5.2,0,0,0,1.44-4.07q-.32-4.54-7.06-7.26l-.27-.11a22.35,22.35,0,0,1-5.47-2.87,8.64,8.64,0,0,1-1.51-11.88,9,9,0,0,1,5.22-3.47q6.47-1.56,11.84,3.19l-3.31,3.78a7.84,7.84,0,0,0-7.33-2,4,4,0,0,0-2.19,1.36,3.52,3.52,0,0,0,.59,5.22,19.15,19.15,0,0,0,4.07,2l.28.12q9.69,3.92,10.2,11.6a10.1,10.1,0,0,1-2.83,7.89,11.82,11.82,0,0,1-9,3.71Z" transform="translate(-54.43 -31.65)"/><path class="cls-1" d="M872.09,499.69a13.88,13.88,0,0,1-5.06-7.45q-1.95-6.9-.2-16.15a13.6,13.6,0,0,1,4.51-8.33,13.18,13.18,0,0,1,8.85-2.91,14,14,0,0,1,9.08,3.07,13.49,13.49,0,0,1,4.79,8.17q1.76,9.26-.24,16.15a14.12,14.12,0,0,1-4.94,7.53,14,14,0,0,1-16.79-.08ZM871.81,477q-1.54,8.08.16,13.79a9.24,9.24,0,0,0,3.15,4.86,8.51,8.51,0,0,0,5.34,1.76q6.54,0,8.46-6.62,1.62-5.7.12-13.79a8.12,8.12,0,0,0-3-5.14,8.8,8.8,0,0,0-5.85-2Q873.17,469.91,871.81,477Z" transform="translate(-54.43 -31.65)"/><path class="cls-1" d="M913.83,450.7a5,5,0,0,0-2.87,3,16.68,16.68,0,0,0-.64,5.38v6.78H918V471h-7.65v30.77h-5.06V471H899.8v-5.1h5.46v-6.78a21.9,21.9,0,0,1,.84-6.74,9.79,9.79,0,0,1,5.78-6.29,14.37,14.37,0,0,1,9.64-.44l-1.43,4.9A9.17,9.17,0,0,0,913.83,450.7Z" transform="translate(-54.43 -31.65)"/><path class="cls-1" d="M54.43,546H59.5v53.66H54.43Z" transform="translate(-54.43 -31.65)"/><path class="cls-1" d="M92.9,565.57q3.27,3,3.27,9.68v24.44H91.11V575.25q0-4.46-1.68-6c-.9-.85-2.39-1.22-4.46-1.11a19.81,19.81,0,0,0-9.45,3.15v28.42H70.46V563.81h5.06c0,1.07.47,1.41,1.48,1a31.72,31.72,0,0,1,7.69-1.79C88.2,562.87,90.93,563.71,92.9,565.57Z" transform="translate(-54.43 -31.65)"/><path class="cls-1" d="M114.31,568.88v21.76c0,1.89.4,3.19,1.19,3.91s2.33,1,4.43.79l.56,5a15.19,15.19,0,0,1-1.88.12,9.4,9.4,0,0,1-6.49-2.16c-1.92-1.72-2.87-4.29-2.87-7.69V568.88H103v-5.07h6.3V550.7h5.06v13.11h6.81v5.07Z" transform="translate(-54.43 -31.65)"/><path class="cls-1" d="M132.56,597.66a13.16,13.16,0,0,1-4.74-7.5,30.17,30.17,0,0,1-.16-15.66,16.84,16.84,0,0,1,5.3-8.65,13.63,13.63,0,0,1,8.89-3,11.47,11.47,0,0,1,8,2.87,13.42,13.42,0,0,1,4,8,16.72,16.72,0,0,1,.2,4.94l-.24,1.84-21.84,4a36.91,36.91,0,0,0,.75,4.43,8.28,8.28,0,0,0,8.34,6.49,9.86,9.86,0,0,0,7.89-3.34l3.86,3.26a14.65,14.65,0,0,1-11.75,5.15A13.46,13.46,0,0,1,132.56,597.66Zm0-21.81a17.55,17.55,0,0,0-.59,3.51l17.1-3.19a14.84,14.84,0,0,0-.2-1.67q-1.08-6.63-7-6.62Q134.8,567.88,132.52,575.85Z" transform="translate(-54.43 -31.65)"/><path class="cls-1" d="M188.29,563.93v44.61a14.82,14.82,0,0,1-1,6.22,10.07,10.07,0,0,1-5.62,4.86,13.89,13.89,0,0,1-5.27,1A15.22,15.22,0,0,1,172,620a10.21,10.21,0,0,1-6.38-4.58,14.88,14.88,0,0,1-1.63-6.5l5.06-.32a9.15,9.15,0,0,0,1.23,4.7,5.9,5.9,0,0,0,3.11,1.84,9.52,9.52,0,0,0,6.3-.24,5.27,5.27,0,0,0,3-2.32,10.51,10.51,0,0,0,.52-4.06v-9.69a20.63,20.63,0,0,1-8.25,1.68q-9.89,0-12.64-9.49a35.2,35.2,0,0,1-.44-16.46,14.82,14.82,0,0,1,4.47-8.37,11.46,11.46,0,0,1,8.09-3.19,19.6,19.6,0,0,1,7.77,1.63c.69.29,1,.05,1-.72ZM175,595.46a14.82,14.82,0,0,0,8.25-2.35V571a15.16,15.16,0,0,0-8.77-2.83,6.67,6.67,0,0,0-4.86,2,9.86,9.86,0,0,0-2.71,5.42,30.14,30.14,0,0,0,.32,14.07Q168.88,595.46,175,595.46Z" transform="translate(-54.43 -31.65)"/><path class="cls-1" d="M208.82,563.49q6.1-1.4,10.84,4.15L215.8,571q-2.76-3.23-5.82-2.51a27.82,27.82,0,0,0-7.74,3.43v27.82h-5.06V563.81h5.06v1.32c0,.61.34.76,1,.44A30.11,30.11,0,0,1,208.82,563.49Z" transform="translate(-54.43 -31.65)"/><path class="cls-1" d="M239.91,563.25a9.76,9.76,0,0,1,6.78,5.51,20.76,20.76,0,0,1,1.24,8.09v22.88h-5.07c-.05-.8-.39-1.05-1-.76a19.34,19.34,0,0,1-7.26,1.52A11.57,11.57,0,0,1,225.8,597a12.94,12.94,0,0,1-3.27-9.25,11.69,11.69,0,0,1,3.63-9,13.39,13.39,0,0,1,9.57-3.43,18.32,18.32,0,0,1,7.13,1.2c0-2.84-.33-4.84-.91-6a5.11,5.11,0,0,0-3.39-2.47q-5.1-1.44-11,1.71l-2.39-4.46Q232.86,561.26,239.91,563.25Zm-5.34,32.17q5.63,0,8.29-3.34v-9.45c-1.25-1.46-3.62-2.19-7.13-2.19a8.61,8.61,0,0,0-5.94,1.95,6.91,6.91,0,0,0-2.19,5.38c0,2.92.83,5,2.51,6.3A7.11,7.11,0,0,0,234.57,595.42Z" transform="translate(-54.43 -31.65)"/><path class="cls-1" d="M266.38,568.88v21.76c0,1.89.4,3.19,1.2,3.91s2.32,1,4.42.79l.56,5a15,15,0,0,1-1.87.12,9.43,9.43,0,0,1-6.5-2.16c-1.91-1.72-2.87-4.29-2.87-7.69V568.88H255v-5.07h6.3V550.7h5.06v13.11h6.82v5.07Z" transform="translate(-54.43 -31.65)"/><path class="cls-1" d="M284,557a3.3,3.3,0,0,1-2.43,1,3.4,3.4,0,0,1-3.47-3.46,3.31,3.31,0,0,1,1-2.44,3.36,3.36,0,0,1,2.47-1,3.23,3.23,0,0,1,2.43,1,3.27,3.27,0,0,1,1,2.44A3.39,3.39,0,0,1,284,557Zm-4.78,42.69h5.06V563.81h-5.06Z" transform="translate(-54.43 -31.65)"/><path class="cls-1" d="M306,599.69q-12.36-26.75-12.36-35.8h5.06q0,7.18,9.57,29.38,9.45-22.2,9.45-29.38h5.06q0,9.06-12.16,35.8Z" transform="translate(-54.43 -31.65)"/><path class="cls-1" d="M334.91,597.66a13.12,13.12,0,0,1-4.75-7.5A30.17,30.17,0,0,1,330,574.5a16.85,16.85,0,0,1,5.31-8.65,13.58,13.58,0,0,1,8.88-3,11.47,11.47,0,0,1,8,2.87,13.36,13.36,0,0,1,4,8,16.72,16.72,0,0,1,.2,4.94l-.24,1.84-21.84,4a35,35,0,0,0,.76,4.43,8.25,8.25,0,0,0,3,4.74,8.34,8.34,0,0,0,5.34,1.75,9.83,9.83,0,0,0,7.89-3.34l3.87,3.26a14.69,14.69,0,0,1-11.76,5.15A13.41,13.41,0,0,1,334.91,597.66Zm0-21.81a16.82,16.82,0,0,0-.6,3.51l17.1-3.19a12.84,12.84,0,0,0-.2-1.67q-1.08-6.63-7-6.62Q337.14,567.88,334.87,575.85Z" transform="translate(-54.43 -31.65)"/><path class="cls-1" d="M400.8,563.25a9.8,9.8,0,0,1,6.78,5.51,20.78,20.78,0,0,1,1.23,8.09v22.88h-5.06c-.05-.8-.4-1.05-1-.76a19.29,19.29,0,0,1-7.25,1.52,11.56,11.56,0,0,1-8.77-3.47,12.94,12.94,0,0,1-3.27-9.25,11.69,11.69,0,0,1,3.63-9,13.35,13.35,0,0,1,9.56-3.43,18.41,18.41,0,0,1,7.14,1.2c0-2.84-.33-4.84-.92-6a5.06,5.06,0,0,0-3.39-2.47q-5.1-1.44-11,1.71L386,565.37Q393.75,561.26,400.8,563.25Zm-5.34,32.17c3.74,0,6.51-1.11,8.29-3.34v-9.45q-1.87-2.19-7.14-2.19a8.64,8.64,0,0,0-5.94,1.95,6.91,6.91,0,0,0-2.19,5.38q0,4.38,2.51,6.3A7.12,7.12,0,0,0,395.46,595.42Z" transform="translate(-54.43 -31.65)"/><path class="cls-1" d="M440.22,565.57q3.27,3,3.27,9.68v24.44h-5.06V575.25q0-4.46-1.67-6-1.36-1.28-4.47-1.11a19.85,19.85,0,0,0-9.45,3.15v28.42h-5.06V563.81h5.06c0,1.07.47,1.41,1.48,1a31.72,31.72,0,0,1,7.69-1.79Q437.28,562.78,440.22,565.57Z" transform="translate(-54.43 -31.65)"/><path class="cls-1" d="M479.33,543.64v56.13h-5.06q0-1.15-1.08-.72a20.35,20.35,0,0,1-7.69,1.6,11.54,11.54,0,0,1-8.1-3.19,14.8,14.8,0,0,1-4.46-8.33,35.08,35.08,0,0,1,.44-16.47q2.5-8.73,12.43-9.52a18.43,18.43,0,0,1,8.46,1.31V543.64ZM465.5,595.58a15,15,0,0,0,8.77-2.87V570.15a12.39,12.39,0,0,0-8.06-1.95q-6.42.51-8,5.86a30.43,30.43,0,0,0-.32,14.11,9.76,9.76,0,0,0,2.71,5.38A6.63,6.63,0,0,0,465.5,595.58Z" transform="translate(-54.43 -31.65)"/><path class="cls-1" d="M532.42,546v5.06H512.89V566.6h17.74v5.07H512.89v28h-5.06V546Z" transform="translate(-54.43 -31.65)"/><path class="cls-1" d="M564.71,563.85v35.88h-5.06c0-1.14-.36-1.54-1.16-1.2a22.6,22.6,0,0,1-8.88,2,10.39,10.39,0,0,1-8.06-3.19c-1.94-2.13-2.91-5.06-2.91-8.81V563.85h5.07v24.64q0,6.93,5.9,6.93a19.19,19.19,0,0,0,10-3.14V563.85Z" transform="translate(-54.43 -31.65)"/><path class="cls-1" d="M594.93,565.57q3.27,3,3.27,9.68v24.44h-5.06V575.25q0-4.46-1.68-6c-.9-.85-2.39-1.22-4.46-1.11a19.81,19.81,0,0,0-9.45,3.15v28.42h-5.06V563.81h5.06c0,1.07.46,1.41,1.47,1a31.78,31.78,0,0,1,7.7-1.79C590.23,562.87,593,563.71,594.93,565.57Z" transform="translate(-54.43 -31.65)"/><path class="cls-1" d="M612,597.7a14,14,0,0,1-5-7.46q-1.95-6.86-.2-16.06a13.44,13.44,0,0,1,4.46-8.29A13.22,13.22,0,0,1,620,563q7.82,0,11.8,6.14l-4.26,2.75A8.34,8.34,0,0,0,620,568q-7,0-8.37,7.05-1.51,8.05.16,13.76a9.29,9.29,0,0,0,3.15,4.82,8.5,8.5,0,0,0,5.34,1.75,8,8,0,0,0,7.14-3.7l4.22,2.79a12.74,12.74,0,0,1-11.36,6A13.36,13.36,0,0,1,612,597.7Z" transform="translate(-54.43 -31.65)"/><path class="cls-1" d="M648.46,568.88v21.76c0,1.89.4,3.19,1.2,3.91s2.33,1,4.42.79l.56,5a14.91,14.91,0,0,1-1.87.12,9.43,9.43,0,0,1-6.5-2.16c-1.91-1.72-2.87-4.29-2.87-7.69V568.88h-6.3v-5.07h6.3V550.7h5.06v13.11h6.82v5.07Z" transform="translate(-54.43 -31.65)"/><path class="cls-1" d="M666.08,557a3.3,3.3,0,0,1-2.43,1,3.4,3.4,0,0,1-3.47-3.46,3.47,3.47,0,0,1,3.47-3.47,3.54,3.54,0,0,1,3.47,3.47A3.35,3.35,0,0,1,666.08,557Zm-4.78,42.69h5.06V563.81H661.3Z" transform="translate(-54.43 -31.65)"/><path class="cls-1" d="M682,597.66a13.91,13.91,0,0,1-5.06-7.46q-2-6.9-.2-16.14a13.52,13.52,0,0,1,4.5-8.33,13.22,13.22,0,0,1,8.85-2.91,14.06,14.06,0,0,1,9.09,3.07,13.48,13.48,0,0,1,4.78,8.17q1.76,9.24-.24,16.14a14.06,14.06,0,0,1-4.94,7.54,14,14,0,0,1-16.78-.08ZM681.67,575q-1.56,8.1.16,13.8a9.2,9.2,0,0,0,3.15,4.86,8.46,8.46,0,0,0,5.34,1.75q6.54,0,8.45-6.61,1.63-5.7.12-13.8a8.14,8.14,0,0,0-3-5.14,8.87,8.87,0,0,0-5.86-2Q683,567.88,681.67,575Z" transform="translate(-54.43 -31.65)"/><path class="cls-1" d="M733.85,565.57q3.27,3,3.27,9.68v24.44h-5.06V575.25q0-4.46-1.68-6c-.9-.85-2.39-1.22-4.46-1.11a19.81,19.81,0,0,0-9.45,3.15v28.42h-5.06V563.81h5.06c0,1.07.46,1.41,1.47,1a31.78,31.78,0,0,1,7.7-1.79C729.15,562.87,731.88,563.71,733.85,565.57Z" transform="translate(-54.43 -31.65)"/><path class="cls-1" d="M762.63,563.25a9.8,9.8,0,0,1,6.78,5.51,20.78,20.78,0,0,1,1.23,8.09v22.88h-5.06c-.05-.8-.4-1.05-1-.76a19.25,19.25,0,0,1-7.25,1.52,11.57,11.57,0,0,1-8.77-3.47,12.94,12.94,0,0,1-3.27-9.25,11.69,11.69,0,0,1,3.63-9,13.39,13.39,0,0,1,9.57-3.43,18.36,18.36,0,0,1,7.13,1.2c0-2.84-.33-4.84-.92-6a5.06,5.06,0,0,0-3.38-2.47q-5.12-1.44-11,1.71l-2.39-4.46Q755.58,561.26,762.63,563.25Zm-5.34,32.17q5.63,0,8.29-3.34v-9.45q-1.87-2.19-7.13-2.19a8.61,8.61,0,0,0-5.94,1.95,6.89,6.89,0,0,0-2.2,5.38q0,4.38,2.52,6.3A7.07,7.07,0,0,0,757.29,595.42Z" transform="translate(-54.43 -31.65)"/><path class="cls-1" d="M788,600.49a8.05,8.05,0,0,1-5.9-2.28q-2.62-2.62-2.63-7.45v-47.2h5.07v47.2a5.2,5.2,0,0,0,1.15,3.83,3.06,3.06,0,0,0,2.35.83l.08,5.07Z" transform="translate(-54.43 -31.65)"/><path class="cls-1" d="M854.27,599.69q0-11.33-7-45.4-7.93,18.81-7.93,26.7h-5.07q0-7.89-8-26.7-6.81,34.08-6.82,45.4h-5.06q0-13.87,8.53-53.62h4.75A175,175,0,0,1,836.78,568a176.43,176.43,0,0,1,9-21.93h4.79q8.73,39.67,8.73,53.62Z" transform="translate(-54.43 -31.65)"/><path class="cls-1" d="M873.29,597.66a13.16,13.16,0,0,1-4.74-7.5,30.07,30.07,0,0,1-.16-15.66,16.84,16.84,0,0,1,5.3-8.65,13.59,13.59,0,0,1,8.89-3,11.44,11.44,0,0,1,8,2.87,13.37,13.37,0,0,1,4,8,17.43,17.43,0,0,1,.2,4.94l-.24,1.84-21.85,4a35,35,0,0,0,.76,4.43,8.25,8.25,0,0,0,3,4.74,8.38,8.38,0,0,0,5.34,1.75,9.83,9.83,0,0,0,7.89-3.34l3.87,3.26a14.66,14.66,0,0,1-11.76,5.15A13.45,13.45,0,0,1,873.29,597.66Zm0-21.81a18.25,18.25,0,0,0-.6,3.51l17.1-3.19a11.31,11.31,0,0,0-.2-1.67q-1.06-6.63-7-6.62Q875.52,567.88,873.25,575.85Z" transform="translate(-54.43 -31.65)"/><path class="cls-1" d="M929.26,543.64v56.13h-5.07c0-.77-.36-1-1.07-.72a20.36,20.36,0,0,1-7.7,1.6,11.52,11.52,0,0,1-8.09-3.19,14.8,14.8,0,0,1-4.46-8.33,35.09,35.09,0,0,1,.43-16.47q2.52-8.73,12.44-9.52a18.37,18.37,0,0,1,8.45,1.31V543.64Zm-13.84,51.94a15,15,0,0,0,8.77-2.87V570.15a12.34,12.34,0,0,0-8.05-1.95q-6.42.51-8,5.86a30.43,30.43,0,0,0-.32,14.11,9.7,9.7,0,0,0,2.71,5.38A6.63,6.63,0,0,0,915.42,595.58Z" transform="translate(-54.43 -31.65)"/><path class="cls-1" d="M942.73,557a3.32,3.32,0,0,1-2.43,1,3.4,3.4,0,0,1-3.47-3.46,3.31,3.31,0,0,1,1-2.44,3.36,3.36,0,0,1,2.47-1,3.54,3.54,0,0,1,3.47,3.47A3.39,3.39,0,0,1,942.73,557ZM938,599.69H943V563.81H938Z" transform="translate(-54.43 -31.65)"/><path class="cls-1" d="M958.12,597.7a14,14,0,0,1-5-7.46q-2-6.86-.2-16.06a13.49,13.49,0,0,1,4.47-8.29,13.18,13.18,0,0,1,8.85-2.91q7.81,0,11.8,6.14l-4.27,2.75a8.34,8.34,0,0,0-7.53-3.83q-7,0-8.37,7.05-1.51,8.05.16,13.76a9.17,9.17,0,0,0,3.15,4.82,8.46,8.46,0,0,0,5.34,1.75,8,8,0,0,0,7.13-3.7l4.23,2.79a12.75,12.75,0,0,1-11.36,6A13.32,13.32,0,0,1,958.12,597.7Z" transform="translate(-54.43 -31.65)"/><path class="cls-1" d="M990.36,557a3.3,3.3,0,0,1-2.43,1,3.4,3.4,0,0,1-3.47-3.46,3.47,3.47,0,0,1,3.47-3.47,3.54,3.54,0,0,1,3.47,3.47A3.35,3.35,0,0,1,990.36,557Zm-4.78,42.69h5.06V563.81h-5.06Z" transform="translate(-54.43 -31.65)"/><path class="cls-1" d="M1023.09,565.57q3.27,3,3.27,9.68v24.44h-5.06V575.25q0-4.46-1.68-6c-.9-.85-2.39-1.22-4.46-1.11a19.81,19.81,0,0,0-9.45,3.15v28.42h-5.06V563.81h5.06c0,1.07.47,1.41,1.48,1a31.72,31.72,0,0,1,7.69-1.79C1018.39,562.87,1021.12,563.71,1023.09,565.57Z" transform="translate(-54.43 -31.65)"/><path class="cls-1" d="M1040.87,597.66a13.16,13.16,0,0,1-4.74-7.5,30.07,30.07,0,0,1-.16-15.66,16.84,16.84,0,0,1,5.3-8.65,13.59,13.59,0,0,1,8.89-3,11.44,11.44,0,0,1,8,2.87,13.37,13.37,0,0,1,4,8,17.07,17.07,0,0,1,.2,4.94l-.24,1.84-21.85,4a35,35,0,0,0,.76,4.43,8.25,8.25,0,0,0,3,4.74,8.38,8.38,0,0,0,5.34,1.75,9.83,9.83,0,0,0,7.89-3.34l3.87,3.26a14.66,14.66,0,0,1-11.76,5.15A13.45,13.45,0,0,1,1040.87,597.66Zm0-21.81a18.25,18.25,0,0,0-.6,3.51l17.1-3.19a11.31,11.31,0,0,0-.2-1.67q-1.07-6.63-7-6.62Q1043.11,567.88,1040.83,575.85Z" transform="translate(-54.43 -31.65)"/><path class="cls-2" d="M686.78,84.37A180,180,0,1,0,739.5,211.65,179.46,179.46,0,0,0,686.78,84.37Z" transform="translate(-54.43 -31.65)"/><path class="cls-3" d="M682.8,88.35a174.38,174.38,0,1,0,51.07,123.3A173.84,173.84,0,0,0,682.8,88.35Zm-2.27,244.33a171.17,171.17,0,1,1,50.13-121A170.6,170.6,0,0,1,680.53,332.68Z" transform="translate(-54.43 -31.65)"/><polygon class="cls-3" points="368.37 250.86 370.65 250.86 390.56 250.86 390.56 125.18 368.37 125.18 368.37 250.86"/><polygon class="cls-3" points="493.79 131.56 493.8 131.56 493.8 131.55 493.79 131.56"/><path class="cls-3" d="M588.32,160.1a27.79,27.79,0,0,0-17.1-6,31.24,31.24,0,0,0-23,9.12,48.08,48.08,0,0,0-9.12,12.06,38.4,38.4,0,0,0-9.31-13.8,27.22,27.22,0,0,0-18.64-7.38A31.48,31.48,0,0,0,486.82,165a45.06,45.06,0,0,0-4.7,6.28l-.59-14.45h-20l.15,2.42c.59,9.95.79,20.16.79,32.64v90.62h21.8V207.16a34.79,34.79,0,0,1,1.3-10.09v0l0-.06a34,34,0,0,1,7.31-14.17,20.16,20.16,0,0,1,5.67-4.48,14.26,14.26,0,0,1,6.62-1.64,13.67,13.67,0,0,1,7.58,2.13,15.92,15.92,0,0,1,4.35,4.22,30,30,0,0,1,4.45,10.37,60.68,60.68,0,0,1,1.55,14.27v74.85h21.79v-77.1A42.32,42.32,0,0,1,546.2,195,30.71,30.71,0,0,1,553.41,182a18.77,18.77,0,0,1,5.33-3.89,14.06,14.06,0,0,1,6.07-1.39,14.56,14.56,0,0,1,8.05,2.19,15.85,15.85,0,0,1,4.52,4.47A32.51,32.51,0,0,1,582,194.82a80,80,0,0,1,1.57,16.84v70.85h21.79v-73.6a96.66,96.66,0,0,0-3.26-26.58C599,171.62,594,164.49,588.32,160.1Z" transform="translate(-54.43 -31.65)"/><path class="cls-3" d="M692.2,255.67l-2.78,1.53a49.61,49.61,0,0,1-8.55,3.86,37.7,37.7,0,0,1-12,1.86A27,27,0,0,1,656.57,260c-5.59-2.84-10.31-7.72-13.68-14.48s-5.33-15.42-5.33-25.63c0-12.28,2.94-23.29,8.37-31.07a29.13,29.13,0,0,1,9.94-9.11,28,28,0,0,1,13.63-3.32c9.17,0,15.26,2.6,19.09,5.32l2.77,2,5.16-21.93-1.39-.87a42.51,42.51,0,0,0-10.7-4.52,55.26,55.26,0,0,0-14.93-2.08,50.61,50.61,0,0,0-22.48,5c-10,4.91-18,13.2-23.47,23.78s-8.38,23.49-8.38,37.78c0,18.9,4.84,34.86,13.64,46.19a46.12,46.12,0,0,0,16,13.22A46.92,46.92,0,0,0,665.7,285a64,64,0,0,0,17.7-2.47,43.48,43.48,0,0,0,11.37-4.91l1.27-.83-.27-1.49Z" transform="translate(-54.43 -31.65)"/><path class="cls-3" d="M446.68,119.29c-.1-.82-.25-1.63-.39-2.44,0-.14-.05-.28-.19-.33s-.24.06-.33.15l-.24.25c-.19.18-.38.37-.58.53a10.3,10.3,0,0,1-2.13,1.34c-1.32.61-2.65,1.22-4,1.81a40.88,40.88,0,0,0-5.44,2.67,12.13,12.13,0,0,0-2.84,2.33,10,10,0,0,0-1.93,3.45,11.91,11.91,0,0,0-.59,3.41,13.64,13.64,0,0,0,.28,3.44c.17.79.4,1.56.6,2.33.1.35.2.69.31,1,0,.12.09.24.22.22s.1-.17.1-.26c0-.39,0-.78-.05-1.18a19.62,19.62,0,0,1,.18-3.25,12.42,12.42,0,0,1,1.06-3.61,9.22,9.22,0,0,1,2.84-3.5,11.8,11.8,0,0,1,3.4-1.75,20.7,20.7,0,0,1,4.38-.92l-.26.09a13.47,13.47,0,0,0-3.57,1.61,11.8,11.8,0,0,0-3.54,3.43,16.25,16.25,0,0,0-.92,1.63,10.91,10.91,0,0,0-1,3.56,10.59,10.59,0,0,0,0,2.39,10.21,10.21,0,0,0,.56,2.53.92.92,0,0,0,.2.31,1.2,1.2,0,0,0,1,.3c.74,0,1.47-.08,2.2-.17a13.42,13.42,0,0,0,5.23-1.7,10.38,10.38,0,0,0,3.46-3.24,13.8,13.8,0,0,0,1.81-4.11,22.3,22.3,0,0,0,.72-5.34c0-1,0-2-.08-3.07C447,121.91,446.84,120.6,446.68,119.29Z" transform="translate(-54.43 -31.65)"/><path class="cls-3" d="M428,139.08l.29.07v-.3c-.17-.62-.35-1.22-.53-1.83a2.28,2.28,0,0,0-.21-.51c-.14-.28-.31-.55-.46-.83a10.63,10.63,0,0,1-1.26-4.74,12.13,12.13,0,0,1,.95-4.85,23.84,23.84,0,0,1,2.67-4.76l.15-.19-.09.25a20.52,20.52,0,0,0-1.32,3.13,12.16,12.16,0,0,0-.66,4c0,.08,0,.15,0,.27l.08-.07.06-.13a9.5,9.5,0,0,1,1.89-3.19,15.16,15.16,0,0,1,4.45-3.5c.84-.45,1.71-.85,2.56-1.27.32-.15.36-.28.17-.58a22.16,22.16,0,0,0-2.78-3.57c-.66-.68-1.34-1.33-2-2a49.35,49.35,0,0,0-3.85-3.14l-.25-.15c-.18-.08-.31,0-.35.22v.21a11.81,11.81,0,0,1-.13,1.47,21.19,21.19,0,0,1-.63,2.37c-.35,1-.76,2.07-1.15,3.1-.55,1.45-1.13,2.89-1.67,4.34a24.68,24.68,0,0,0-1.25,4.51,11.36,11.36,0,0,0,0,3.77,11.18,11.18,0,0,0,2.51,5.32A12.93,12.93,0,0,0,428,139.08Z" transform="translate(-54.43 -31.65)"/><path class="cls-3" d="M467.63,327v-.57a6.94,6.94,0,0,0,.65-.43.75.75,0,0,0,.24-.23.31.31,0,0,0,.05-.12c0-.19.06-.85.08-2s0-2.52,0-4.13c0-2.36,0-3.81,0-4.36a18.52,18.52,0,0,0-.12-2.41.32.32,0,0,0-.13-.2,3.37,3.37,0,0,0-1.38-.23v-1c.76,0,1.63.07,2.61.07s2.12,0,3.09-.07v1a3.59,3.59,0,0,0-1.24.2.44.44,0,0,0-.14.22,11.83,11.83,0,0,0-.09,1.39c0,.82,0,1.86,0,3.11,0,.13,0,1.21,0,3.24,0,1.06,0,2.12,0,3.17s0,1.68,0,1.91c.82,0,1.39.07,1.69.07a11.79,11.79,0,0,0,2.37-.21.93.93,0,0,0,.44-.14,1,1,0,0,0,.15-.42c.12-.56.24-1.21.35-1.94H477c0,.21,0,.33,0,.37l-.22,2.26c0,.71-.08,1.13-.08,1.27a2.64,2.64,0,0,1-.52.13c-.37,0-.93.05-1.7.05l-2.11-.05-2.06-.05C469.71,326.88,468.82,326.92,467.63,327Z" transform="translate(-54.43 -31.65)"/><path class="cls-3" d="M467.63,327h.16v-.57h-.16l.07.14a5.13,5.13,0,0,0,.68-.45l-.1-.12.1.13a1.06,1.06,0,0,0,.28-.28l-.14-.08.14.09a.44.44,0,0,0,.07-.19l-.16,0,.16,0a5.64,5.64,0,0,0,0-.65c0-.34,0-.79,0-1.37,0-1.14,0-2.52,0-4.13,0-2.36,0-3.81,0-4.37s0-1.25-.05-1.66c0-.2,0-.36,0-.49s0-.22,0-.29a.52.52,0,0,0-.2-.3l-.09.14.1-.13a.5.5,0,0,0-.22-.1,5.5,5.5,0,0,0-1.25-.16v.16h.17v-1H467v.16c.76,0,1.63.07,2.61.07s2.12,0,3.1-.07v-.16h-.16v1h.16v-.16c-.34,0-.62.05-.83.08a1.36,1.36,0,0,0-.48.15h0a.51.51,0,0,0-.2.31.65.65,0,0,0,0,.17c0,.22-.05.63-.07,1.25,0,.82,0,1.86,0,3.12,0,.13,0,1.21,0,3.24,0,1.06,0,2.12,0,3.17s0,1.68,0,1.91v.15h.15c.83,0,1.39.07,1.7.07a12.17,12.17,0,0,0,2.4-.21l0-.16,0,.16.32-.07a.55.55,0,0,0,.21-.12.64.64,0,0,0,.11-.2,2.81,2.81,0,0,0,.08-.29h0c.12-.57.24-1.23.35-2l-.16,0v.16H477v-.16l-.16,0c0,.21,0,.33,0,.39H477l-.16,0-.22,2.26h0c-.05.71-.08,1.13-.08,1.28h.16l-.05-.15a2.33,2.33,0,0,1-.49.12l0,.16,0-.16c-.35,0-.92.05-1.68.05l-2.1-.05-2.07,0c-.59,0-1.48,0-2.68.1V327h0v.16c1.19-.06,2.08-.1,2.66-.1l2.06,0,2.11.05c.77,0,1.34,0,1.71-.05h0a3.65,3.65,0,0,0,.55-.13l.1,0v-.11c0-.14,0-.56.08-1.27h0l.22-2.27h0s0-.15,0-.36v-.17h-1.05l0,.13c-.12.73-.23,1.38-.35,1.94l.15,0-.15,0c0,.11,0,.19-.07.25a.13.13,0,0,0,0,.07v0h0l0,0,0,0h0l0,0,0,0h0a1.42,1.42,0,0,1-.35.1h0a12.22,12.22,0,0,1-2.34.2c-.3,0-.86,0-1.68-.07v.16h.16c0-.22,0-.85,0-1.9s0-2.11,0-3.18c0-2,0-3.1,0-3.23,0-1.25,0-2.29,0-3.11,0-.41,0-.73.05-1a1.87,1.87,0,0,1,0-.27.63.63,0,0,1,0-.11.32.32,0,0,1,.08-.13l-.09-.14.09.14a1.16,1.16,0,0,1,.36-.1c.2,0,.47-.06.8-.08h.15v-1.31h-.17c-1,0-2,.06-3.08.06s-1.84,0-2.6-.06h-.17v1.31H467a7.7,7.7,0,0,1,.91.09l.26.05.11,0h0a.19.19,0,0,1,.07.11,1.62,1.62,0,0,1,0,.24c0,.36.06,1.08.08,2.13,0,.55,0,2,0,4.36,0,1.61,0,3,0,4.13,0,.57,0,1,0,1.35s0,.55,0,.62h0l0,.05h0a.8.8,0,0,1-.2.17h0a5.93,5.93,0,0,1-.64.42l-.08.05v.83h.17Z" transform="translate(-54.43 -31.65)"/><path class="cls-3" d="M478.7,327v-.83a3.53,3.53,0,0,0,1.15-.19.6.6,0,0,0,.18-.4,31.51,31.51,0,0,0,.09-3.17c0-2.33,0-3.66-.08-4a.61.61,0,0,0-.12-.3,3,3,0,0,0-1.22-.15v-.85a15.51,15.51,0,0,0,2-.38,9,9,0,0,0,1.51-.62l.22.15c-.08,1.16-.11,2.25-.11,3.28v3.8a19.15,19.15,0,0,0,.07,2.31.37.37,0,0,0,.14.27,3.17,3.17,0,0,0,1.18.19V327c-.85,0-1.77,0-2.77,0S479.36,327,478.7,327Zm2.46-16.21a1.22,1.22,0,0,1,1,.5,2,2,0,0,1,0,2.43,1.18,1.18,0,0,1-1.94,0,1.87,1.87,0,0,1-.41-1.22,1.93,1.93,0,0,1,.4-1.21A1.22,1.22,0,0,1,481.16,310.77Z" transform="translate(-54.43 -31.65)"/><path class="cls-3" d="M478.7,327h.16v-.83h-.16v.16l.8-.09.26-.05a.89.89,0,0,0,.17-.08.72.72,0,0,0,.25-.51l-.16,0,.15,0a28.09,28.09,0,0,0,.1-3.19c0-1.17,0-2.08,0-2.75q0-.5,0-.81a3.18,3.18,0,0,0,0-.45h0a1.42,1.42,0,0,0-.05-.22A.48.48,0,0,0,480,318h0a.46.46,0,0,0-.2-.09,4.22,4.22,0,0,0-1.12-.1V318h.16v-.85h-.16l0,.16a14.59,14.59,0,0,0,2.07-.39,9.21,9.21,0,0,0,1.53-.63l-.07-.14-.09.13.22.15.09-.13h-.16c-.08,1.16-.11,2.26-.11,3.29v3.8c0,.65,0,1.17,0,1.56a5.35,5.35,0,0,0,0,.78l.16,0-.16,0a1,1,0,0,0,.07.21.5.5,0,0,0,.15.17h0a1.55,1.55,0,0,0,.47.14,7,7,0,0,0,.78.07v-.16h-.16V327h.16v-.16c-.85,0-1.77,0-2.77,0s-1.63,0-2.29,0V327h0v.16c.65,0,1.41,0,2.27,0s1.92,0,2.76,0h.17V326h-.15c-.31,0-.56,0-.75-.07a1.07,1.07,0,0,1-.35-.1l-.09.14.09-.14,0,0a.24.24,0,0,1,0-.12h0a5.64,5.64,0,0,1,0-.73c0-.38,0-.9,0-1.55v-3.8c0-1,0-2.11.11-3.27v-.1l-.37-.25-.08.05a8.84,8.84,0,0,1-1.48.6,14.77,14.77,0,0,1-2,.38l-.14,0v1.15h.16a7.64,7.64,0,0,1,.8,0l.23,0,.09,0,.1-.13-.1.13h0a.44.44,0,0,1,.06.18h0c0,.07,0,.21,0,.41,0,.62,0,1.8,0,3.55s0,2.76-.09,3.15h0a.43.43,0,0,1-.12.29h0a.25.25,0,0,1-.09,0,7.05,7.05,0,0,1-1,.13l-.14,0v1.14h.17Zm2.46-16.21v.16a1,1,0,0,1,.84.44,1.87,1.87,0,0,1,0,2.23,1,1,0,0,1-.84.45,1.07,1.07,0,0,1-.85-.45,1.87,1.87,0,0,1,0-2.23,1,1,0,0,1,.85-.44v-.32a1.36,1.36,0,0,0-1.1.56,2.19,2.19,0,0,0,0,2.63,1.35,1.35,0,0,0,2.2,0,2.05,2.05,0,0,0,.43-1.32,2.12,2.12,0,0,0-.43-1.31,1.39,1.39,0,0,0-1.1-.56Z" transform="translate(-54.43 -31.65)"/><path class="cls-3" d="M485.3,327v-.85a3.34,3.34,0,0,0,1.26-.24.67.67,0,0,0,.18-.45c0-.39.07-1.61.08-3.65v-3.36h-.25l-1.22.06v-.54c.79-.52,1.21-.79,1.23-.82a.34.34,0,0,0,.12-.27c0-.35,0-.79,0-1.3a7.67,7.67,0,0,1,.12-1.11,2.56,2.56,0,0,1,.26-.62,13.05,13.05,0,0,1,1.31-1.6l1.09-1.2a1.77,1.77,0,0,1,1.37-.61,2.61,2.61,0,0,1,.94.2,16.29,16.29,0,0,0-.12,2.24l-.36.2a1.82,1.82,0,0,0-.5-.43,1.34,1.34,0,0,0-.6-.12,1.29,1.29,0,0,0-.82.25.91.91,0,0,0-.29.48,13.49,13.49,0,0,0-.11,2.24V317h1.06c.52,0,1,0,1.34-.08l.12.11c0,.13-.06.26-.08.39l-.14,1-.91,0-.44,0-1,0V322q0,1.2,0,2.28a9.9,9.9,0,0,0,.07,1.31.59.59,0,0,0,.14.26.56.56,0,0,0,.31.15l1.22.12V327l-3.06-.05Z" transform="translate(-54.43 -31.65)"/><path class="cls-3" d="M485.3,327h.16v-.85h-.16l0,.16a6.82,6.82,0,0,0,.86-.11l.28-.07a.47.47,0,0,0,.2-.1h0a.79.79,0,0,0,.24-.56h-.16l.16,0c0-.21,0-.61.05-1.22s0-1.43,0-2.45h0v-3.52h-.41l-1.06.06v-.38h-.16l.08.13.91-.59.24-.16.07-.05,0,0,0,0-.12-.11.11.12a.52.52,0,0,0,.17-.39c0-.35,0-.78,0-1.3a6.79,6.79,0,0,1,.12-1.07,2.23,2.23,0,0,1,.24-.58h0a11.64,11.64,0,0,1,1.29-1.57l1.09-1.21-.12-.1.12.1a1.81,1.81,0,0,1,.55-.4,1.54,1.54,0,0,1,.7-.15,2.33,2.33,0,0,1,.88.19l.06-.15-.16,0a18.77,18.77,0,0,0-.13,2,1.93,1.93,0,0,0,0,.24h.16l-.08-.14-.36.2.08.14.12-.1a1.89,1.89,0,0,0-.55-.47,1.54,1.54,0,0,0-.67-.14,1.39,1.39,0,0,0-.92.29h0a1,1,0,0,0-.34.57,4,4,0,0,0-.09.81c0,.38,0,.86,0,1.46v1.72h1.23c.51,0,1,0,1.34-.08v-.16l-.11.12.11.11.12-.12-.16,0c0,.14-.06.27-.08.41l.16,0-.16,0-.12.86-.76,0v0l-.45,0-1,0h-.16V322c0,.8,0,1.56,0,2.29q0,.54,0,.87a2.13,2.13,0,0,0,.05.47h0a.67.67,0,0,0,.57.52h0l1.2.12v-.16h-.16v.7l-2.9-.05h0l-2.44.05V327h0v.16l2.43-.05v0l3.22.06V326l-.14,0-.89-.09-.23,0h-.09a.41.41,0,0,1-.22-.1.38.38,0,0,1-.1-.19l-.16,0,.16,0a3.34,3.34,0,0,1,0-.41q0-.33,0-.87,0-1.08,0-2.28v-3.57H489v.16l.94,0,.44,0h0l1.05,0,.16-1.14h0c0-.12,0-.25.07-.37l0-.09-.18-.18-.05-.05h-.08c-.37,0-.81.06-1.32.08v0h-.9v-1.4c0-.59,0-1.08,0-1.45a5.25,5.25,0,0,1,.08-.75.76.76,0,0,1,.23-.4l-.1-.12.1.13a1.09,1.09,0,0,1,.72-.21,1,1,0,0,1,.52.1,1.48,1.48,0,0,1,.46.39l.08.1.56-.32v-.32a17.93,17.93,0,0,1,.12-2l0-.12-.12-.05a2.68,2.68,0,0,0-1-.21,1.92,1.92,0,0,0-.84.18,2.2,2.2,0,0,0-.65.48h0l-1.09,1.21.12.1-.12-.1a12,12,0,0,0-1.32,1.61h0a2.55,2.55,0,0,0-.27.67,6.77,6.77,0,0,0-.13,1.14c0,.52,0,1,0,1.31a.18.18,0,0,1-.06.15h0l.07.08-.06-.08h0l.07.08-.06-.08-.1.06c-.17.12-.54.37-1.12.74l-.07.05v.8l1.38-.07h.09v3.21h0c0,1,0,1.83,0,2.44s0,1-.05,1.19h0a.5.5,0,0,1-.12.34h0l-.11.05a5,5,0,0,1-1.06.16h-.15v1.17h.17Z" transform="translate(-54.43 -31.65)"/><path class="cls-3" d="M500.59,325.26l-.4,1.1a5.5,5.5,0,0,1-1.51.83,4.49,4.49,0,0,1-1.33.19,4.4,4.4,0,0,1-1.56-.26,3.38,3.38,0,0,1-1.16-.71,4.59,4.59,0,0,1-.85-1.1,5,5,0,0,1-.52-1.5,9.66,9.66,0,0,1-.16-1.85,9.91,9.91,0,0,1,.31-2.62,3.24,3.24,0,0,1,.51-1.17,7.07,7.07,0,0,1,.93-.84,8.53,8.53,0,0,1,1.09-.8,2.92,2.92,0,0,1,1.48-.35,3.1,3.1,0,0,1,2,.62,3.48,3.48,0,0,1,1.09,1.61,7.72,7.72,0,0,1,.31,2.36c0,.21,0,.41,0,.6a4.8,4.8,0,0,1-.69.2,5.68,5.68,0,0,1-.82.16c-.45,0-1,.07-1.78.08l-1.22,0h-.85a4.76,4.76,0,0,0,.88,2.8,2.45,2.45,0,0,0,2,1,2.81,2.81,0,0,0,.94-.14,5.15,5.15,0,0,0,1.13-.57Zm-2.14-4.64a5,5,0,0,0-.38-2.49,1.29,1.29,0,0,0-1.11-.71,1.34,1.34,0,0,0-1.16.74,4.62,4.62,0,0,0-.43,2.46,10.39,10.39,0,0,0,1.77.1A6.91,6.91,0,0,0,498.45,320.62Z" transform="translate(-54.43 -31.65)"/><path class="cls-3" d="M500.59,325.26l-.15-.06-.4,1.1.15.06-.09-.13a5.32,5.32,0,0,1-1.47.8l.05.16-.05-.16a4.17,4.17,0,0,1-1.28.18,4.31,4.31,0,0,1-1.51-.24,3.3,3.3,0,0,1-1.1-.68,4.21,4.21,0,0,1-.82-1.05,4.74,4.74,0,0,1-.5-1.46,9.34,9.34,0,0,1-.16-1.82,9.6,9.6,0,0,1,.31-2.58h0a2.06,2.06,0,0,1,.78-1.41q.22-.21.6-.51a9.64,9.64,0,0,1,1.07-.8h0a2.81,2.81,0,0,1,1.4-.33,2.85,2.85,0,0,1,1.87.59,3.09,3.09,0,0,1,1,1.53,7.34,7.34,0,0,1,.31,2.31c0,.2,0,.4,0,.59h.16l-.06-.15a4.19,4.19,0,0,1-.66.2,4.39,4.39,0,0,1-.8.15h0c-.44.05-1,.07-1.76.08h-2.24v.17a4.94,4.94,0,0,0,.91,2.89,2.62,2.62,0,0,0,2.12,1.08,3.12,3.12,0,0,0,1-.15,5.3,5.3,0,0,0,1.17-.59l-.09-.13-.13.09.22.31.13-.09-.15-.06.15.06.13-.09-.3-.44-.13.08a5.4,5.4,0,0,1-1.1.56,2.77,2.77,0,0,1-.89.13,2.26,2.26,0,0,1-1.86-1,4.54,4.54,0,0,1-.85-2.7h-.16V322h2.07c.74,0,1.34,0,1.8-.08l0-.16v.16a5.4,5.4,0,0,0,.85-.16,4.52,4.52,0,0,0,.71-.21l.09,0v-.1c0-.19,0-.4,0-.61a7.77,7.77,0,0,0-.32-2.41,3.58,3.58,0,0,0-1.14-1.68,3.59,3.59,0,0,0-3.64-.3h0a9,9,0,0,0-1.11.83c-.26.2-.46.38-.62.52a2.67,2.67,0,0,0-.34.34,3.41,3.41,0,0,0-.53,1.22h0a11.23,11.23,0,0,0-.16,4.55,5.06,5.06,0,0,0,.54,1.55,4.67,4.67,0,0,0,.88,1.14,3.68,3.68,0,0,0,1.21.74,4.93,4.93,0,0,0,3,.07h0a5.47,5.47,0,0,0,1.56-.86l0,0,.44-1.22,0-.07Zm-2.14-4.64h.16a2.72,2.72,0,0,0,0-.28,4.83,4.83,0,0,0-.41-2.31h0a1.92,1.92,0,0,0-.55-.58,1.35,1.35,0,0,0-1.43,0,1.77,1.77,0,0,0-.57.61,4.61,4.61,0,0,0-.46,2.3c0,.08,0,.16,0,.25v.13l.13,0a10.89,10.89,0,0,0,1.8.1,7.25,7.25,0,0,0,1.34-.1l.13,0v-.13h-.16l0-.15a7.51,7.51,0,0,1-1.28.09,11.37,11.37,0,0,1-1.74-.09l0,.15h.16v-.24a4.07,4.07,0,0,1,.41-2.14,1.61,1.61,0,0,1,.46-.5,1,1,0,0,1,.56-.16,1,1,0,0,1,.53.15,1.38,1.38,0,0,1,.44.48l.14-.08-.14.08a4.56,4.56,0,0,1,.37,2.14,2.44,2.44,0,0,1,0,.27h.16l0-.15Z" transform="translate(-54.43 -31.65)"/><path class="cls-3" d="M502.87,323.46h.72c0,.83.06,1.36.09,1.57a2.89,2.89,0,0,0,.88.92,2.1,2.1,0,0,0,1.12.29,1.62,1.62,0,0,0,1.29-.5,1.77,1.77,0,0,0,.45-1.22,1.81,1.81,0,0,0-.15-.78,1.43,1.43,0,0,0-.6-.56,9.67,9.67,0,0,0-1.34-.43,5.89,5.89,0,0,1-1.5-.59,2.16,2.16,0,0,1-.8-1,3.7,3.7,0,0,1-.29-1.51,3.65,3.65,0,0,1,.94-2.57,3.44,3.44,0,0,1,2.68-1,5.05,5.05,0,0,1,1.33.16,3.68,3.68,0,0,1,1.11.47l0,.11c0,.26-.07.52-.09.79s0,.91-.08,1.91l-.69,0c0-.08,0-.22,0-.41a9.57,9.57,0,0,0-.11-1,2,2,0,0,0-.69-.68,2,2,0,0,0-.95-.22,1.56,1.56,0,0,0-1.18.43,1.38,1.38,0,0,0-.42,1,1.63,1.63,0,0,0,.19.9,1.16,1.16,0,0,0,.55.44,12.69,12.69,0,0,0,1.36.37,8.54,8.54,0,0,1,1.34.39,2.41,2.41,0,0,1,.79.59,2.76,2.76,0,0,1,.45.89,4.35,4.35,0,0,1,.16,1.17,4,4,0,0,1-1,2.81,3.74,3.74,0,0,1-2.91,1.15,5.43,5.43,0,0,1-1.22-.14,10.32,10.32,0,0,1-1.45-.51l-.09-.17c0-.58.07-1,.09-1.22Z" transform="translate(-54.43 -31.65)"/><path class="cls-3" d="M502.87,323.46v.16h.72v-.16h-.16c0,.84.06,1.36.09,1.6v0l0,0a3,3,0,0,0,.94,1,2.12,2.12,0,0,0,1.2.32,1.78,1.78,0,0,0,1.41-.55,2,2,0,0,0,.49-1.33,1.87,1.87,0,0,0-.17-.85,1.5,1.5,0,0,0-.66-.63h0a11.1,11.1,0,0,0-1.37-.43,5.77,5.77,0,0,1-1.46-.58,2,2,0,0,1-.73-.9,3.82,3.82,0,0,1,.62-3.9,3.27,3.27,0,0,1,2.56-1,5.33,5.33,0,0,1,1.3.15,3.55,3.55,0,0,1,1,.45l.09-.13-.16,0,0,.11.16,0-.16,0c0,.26-.07.53-.09.8s0,.91-.08,1.91h.16v-.16l-.69,0v.16h.16c0-.08,0-.22,0-.41h0c0-.34-.06-.67-.11-1v0l0,0a2,2,0,0,0-.74-.73,2.17,2.17,0,0,0-1-.24,1.76,1.76,0,0,0-1.3.47,1.6,1.6,0,0,0-.46,1.13,1.87,1.87,0,0,0,.21,1,1.4,1.4,0,0,0,.64.5,12.78,12.78,0,0,0,1.38.38,8.74,8.74,0,0,1,1.3.37l.07-.14-.07.14a2.22,2.22,0,0,1,.73.55,2.36,2.36,0,0,1,.42.84,4.22,4.22,0,0,1-.84,3.83,3.57,3.57,0,0,1-2.79,1.08,5.08,5.08,0,0,1-1.18-.13,8.8,8.8,0,0,1-1.42-.5l-.07.15.14-.09-.1-.16-.13.08h.16c0-.57.07-1,.09-1.22h0l0-1.88h-.16v0h-.16l-.06,1.88h0c0,.23-.05.64-.09,1.21v.06l.13.21,0,0,.05,0a9.13,9.13,0,0,0,1.47.52,5.3,5.3,0,0,0,1.26.15,3.91,3.91,0,0,0,3-1.2,4.46,4.46,0,0,0,.91-4.13,2.74,2.74,0,0,0-.48-.95,2.6,2.6,0,0,0-.84-.64h0a8.23,8.23,0,0,0-1.36-.39,13,13,0,0,1-1.34-.37,1,1,0,0,1-.48-.38,1.54,1.54,0,0,1-.16-.81,1.24,1.24,0,0,1,.37-.9,1.41,1.41,0,0,1,1.07-.38,1.76,1.76,0,0,1,.88.21,1.64,1.64,0,0,1,.62.61l.14-.08-.16,0c.05.31.09.63.11,1h0c0,.19,0,.33,0,.42v.14l1,0v-.16c0-1,.07-1.63.08-1.9s.05-.52.08-.78v0l0-.14v-.07l-.06,0a3.84,3.84,0,0,0-1.15-.49,5.42,5.42,0,0,0-1.37-.16,3.6,3.6,0,0,0-2.8,1.07,4.19,4.19,0,0,0-.68,4.25,2.24,2.24,0,0,0,.86,1,6.19,6.19,0,0,0,1.55.62,11.1,11.1,0,0,1,1.32.41l.06-.14-.08.14a1.22,1.22,0,0,1,.53.49,1.57,1.57,0,0,1,.14.71,1.6,1.6,0,0,1-.41,1.11,1.46,1.46,0,0,1-1.17.45,1.91,1.91,0,0,1-1-.27,2.76,2.76,0,0,1-.84-.86l-.13.08.16,0c0-.2-.06-.73-.09-1.56v-.15h-1v.15Z" transform="translate(-54.43 -31.65)"/><path class="cls-3" d="M510.94,318.46V318l.8-.64a4,4,0,0,0,.38-.34v-1.5c0-.53,0-1.2-.07-2l1.13-.48,1.14-.66.23.22-.09,1.17L514.4,315l-.08,2h.29a10.34,10.34,0,0,0,1.81-.11l-.16,1.51-.19,0-.88,0h-.87v3.74c0,1.15,0,1.83,0,2a1.39,1.39,0,0,0,.3.82,1,1,0,0,0,.77.3,2.38,2.38,0,0,0,.49,0,3.09,3.09,0,0,0,.47-.1l.14.46-.32.4-.69.89a2.23,2.23,0,0,1-1.18.31,2.07,2.07,0,0,1-1.64-.67,2.39,2.39,0,0,1-.6-1.66l0-3.7v-2.76h-.24C511.55,318.43,511.23,318.44,510.94,318.46Z" transform="translate(-54.43 -31.65)"/><path class="cls-3" d="M510.94,318.46h.16V318l.74-.59a4.4,4.4,0,0,0,.39-.35l0-.05v-1.57c0-.54,0-1.21-.07-2h-.16l.06.15c.58-.24,1-.4,1.14-.49h0l0,0,1.12-.64-.08-.14-.11.11.17.18-.08,1.09-.06,1.29h0l-.09,2.12h.46a10.68,10.68,0,0,0,1.83-.11l0-.16h-.16l-.16,1.51h.16l0-.15-.16,0v0l-.88,0h-1v3.9c0,1.16,0,1.83,0,2.06l.16,0h-.16a1.55,1.55,0,0,0,.34.92,1.16,1.16,0,0,0,.89.35v0h.17a2.86,2.86,0,0,0,.34,0,3,3,0,0,0,.49-.11l0-.15-.15,0,.12.37-.27.34h0l-.7.89.13.1-.08-.15a2.17,2.17,0,0,1-.58.24,2.24,2.24,0,0,1-.52.06,2,2,0,0,1-1.52-.61,2.26,2.26,0,0,1-.56-1.56h0l0-3.7v-2.92h-.4c-.34,0-.65,0-1,0l0,.16h0v.16q.44,0,.93,0H512v2.6h0l0,3.7h0a2.54,2.54,0,0,0,.64,1.77,2.26,2.26,0,0,0,1.76.72,2.32,2.32,0,0,0,.59-.07,2.48,2.48,0,0,0,.67-.26l0,0,0,0,.69-.88-.13-.1.13.1.37-.47-.21-.69-.15,0-.45.11h-.47a.82.82,0,0,1-.65-.24,1.29,1.29,0,0,1-.26-.73h0c0-.19,0-.88,0-2v-3.58h.71l.87,0h0l.23,0,.11,0,.19-1.84-.21,0a9.89,9.89,0,0,1-1.78.11h-.13l.08-1.79h0l.06-1.28.1-1.24-.38-.36-.1.06-.84.48-.21.13-.06,0h0l.07.14-.07-.15-1.12.48-.11.05v.11c0,.79.07,1.45.07,2V317h.16l-.11-.11a3.68,3.68,0,0,1-.37.32l-.87.69v.75H511Z" transform="translate(-54.43 -31.65)"/><path class="cls-3" d="M517.68,332.69c.1-.54.17-.92.2-1.14l.13-1.13.24-.05a3.08,3.08,0,0,0,.51.51,1.49,1.49,0,0,0,.75.19,1.17,1.17,0,0,0,.86-.4,5,5,0,0,0,.88-1.74l.36-1.07-2.91-9.31a2.35,2.35,0,0,0-.49-1,1.44,1.44,0,0,0-.89-.19v-.88c.59,0,1.31,0,2.16,0s1.89,0,2.68,0v.88H522a1.32,1.32,0,0,0-.77.16.35.35,0,0,0-.13.29,1.71,1.71,0,0,0,.09.49l.44,1.51,1.3,4.27.79-2.33a24.21,24.21,0,0,0,1.16-4,.3.3,0,0,0,0-.18.43.43,0,0,0-.23-.14,4.44,4.44,0,0,0-.86-.09v-.88c.38,0,.87,0,1.45,0s1.36,0,2,0v.88H527a.9.9,0,0,0-.46.11.65.65,0,0,0-.24.23,9.72,9.72,0,0,0-.51,1.23c-.35.94-.63,1.72-.85,2.33-.67,1.9-1.09,3.11-1.27,3.65l-1.45,4.4a8.46,8.46,0,0,1-1.41,2.86A2.31,2.31,0,0,1,519,333a2.62,2.62,0,0,1-.64-.07A3.09,3.09,0,0,1,517.68,332.69Z" transform="translate(-54.43 -31.65)"/><path class="cls-3" d="M517.68,332.69l.16,0c.1-.54.17-.92.2-1.15l.12-1,.12,0,0-.15-.13.09a3.13,3.13,0,0,0,.54.55h0a1.73,1.73,0,0,0,.83.21,1.41,1.41,0,0,0,1-.44,5.48,5.48,0,0,0,.91-1.8h0l.38-1.12-2.92-9.36a6.93,6.93,0,0,0-.26-.69,1.54,1.54,0,0,0-.28-.41,1.51,1.51,0,0,0-.93-.22h-.07v.16h.16v-.88h-.16v.16c.59,0,1.31,0,2.16,0s1.9,0,2.68,0v-.16H522v.72h0v0h-.07a1.33,1.33,0,0,0-.81.19h0a.48.48,0,0,0-.19.41,1.9,1.9,0,0,0,.09.54l.16-.05-.16.05.44,1.51,1.46,4.74,1-2.8c.38-1.15.67-2.06.87-2.72.09-.34.17-.61.22-.83a3,3,0,0,0,.07-.48.5.5,0,0,0-.07-.27h0a.56.56,0,0,0-.31-.19h0a4.16,4.16,0,0,0-.9-.1v.16h.16v-.88h-.16v.16c.39,0,.87,0,1.46,0s1.36,0,2,0v-.16H527v.88h.16v-.16H527v0h0a1,1,0,0,0-.5.14l.08.13-.07-.14a.8.8,0,0,0-.3.28s0,.09-.09.16-.23.56-.44,1.1c-.35.94-.63,1.72-.85,2.34-.67,1.89-1.09,3.11-1.28,3.65h0l-1.44,4.4a8.28,8.28,0,0,1-1.38,2.8h0a2.15,2.15,0,0,1-1.69.81,2.25,2.25,0,0,1-.6-.07,2.73,2.73,0,0,1-.63-.23l-.07.14.16,0-.16,0-.07.15a3.84,3.84,0,0,0,.7.26,3.45,3.45,0,0,0,.67.07,2.47,2.47,0,0,0,1.94-.92h0a8.77,8.77,0,0,0,1.44-2.91l1.44-4.4h0c.18-.53.6-1.75,1.27-3.65.22-.61.5-1.38.85-2.32l.33-.84a2.22,2.22,0,0,1,.11-.25c0-.06,0-.1,0-.11a.47.47,0,0,1,.18-.17h0a.69.69,0,0,1,.34-.09h.34v-1.21h-.17c-.61,0-1.26,0-2,0s-1.06,0-1.44,0l-.17,0v1.22h.16a3.9,3.9,0,0,1,.82.09l0-.16,0,.16a.24.24,0,0,1,.14.07l.13-.09-.14.08a.16.16,0,0,1,0,.1,2.09,2.09,0,0,1-.07.41c-.14.62-.5,1.8-1.08,3.52l-.63,1.86-1.16-3.79-.15,0,.15,0-.44-1.51h0a1.52,1.52,0,0,1-.08-.45.21.21,0,0,1,.07-.17l-.1-.12.1.13a1,1,0,0,1,.61-.13h.43v-1.21h-.17c-.78,0-1.67,0-2.67,0s-1.57,0-2.15,0h-.17v1.22h.23a1.22,1.22,0,0,1,.72.15,1,1,0,0,1,.2.3,5.5,5.5,0,0,1,.24.65l2.89,9.26-.34,1,.15.05-.15-.05a5.18,5.18,0,0,1-.84,1.68,1,1,0,0,1-.75.35,1.42,1.42,0,0,1-.67-.17l-.08.14.1-.13a3.17,3.17,0,0,1-.49-.48l-.06-.09-.44.11-.15,1.24.16,0-.16,0c0,.21-.09.59-.2,1.13l0,.12.11.06Z" transform="translate(-54.43 -31.65)"/><path class="cls-3" d="M533.35,326.09V327q-1.11-.09-2.34-.09c-.81,0-1.72,0-2.74.09v-.88a5.41,5.41,0,0,0,1-.09.37.37,0,0,0,.2-.13.52.52,0,0,0,.1-.26c0-.23.07-.93.09-2.12s0-2.24,0-3.16v-3.69c0-1.17,0-2.24-.06-3.22a4.3,4.3,0,0,0-.09-.93.29.29,0,0,0-.1-.12.73.73,0,0,0-.34-.13,7.37,7.37,0,0,0-.81-.06v-.83a13,13,0,0,0,1.78-.32,15.88,15.88,0,0,0,1.78-.61l.19.14-.07,2.26c0,1.27,0,2.83,0,4.67v2.87c0,1.08,0,1.89,0,2.43,0,1.33,0,2.14,0,2.42a2,2,0,0,0,.06.53.42.42,0,0,0,.09.14.67.67,0,0,0,.28.12Z" transform="translate(-54.43 -31.65)"/><path class="cls-3" d="M533.35,326.09h-.16V327h.16l0-.16c-.75-.06-1.54-.09-2.36-.09s-1.73,0-2.75.09V327h.16v-.88h-.16v.16l.69,0a2.16,2.16,0,0,0,.38-.06h0a.53.53,0,0,0,.28-.18.69.69,0,0,0,.12-.34l-.15,0,.15,0a6.06,6.06,0,0,0,.06-.72c0-.36,0-.83,0-1.43,0-1.18,0-2.24,0-3.16v-3.69c0-1.18,0-2.25-.06-3.22,0-.27,0-.48,0-.64s0-.14,0-.2a.58.58,0,0,0,0-.14h0a.58.58,0,0,0-.15-.19l-.1.13.1-.12a.81.81,0,0,0-.41-.17h0l-.29,0-.54,0v.16h.16v-.83h-.16l0,.16a15.22,15.22,0,0,0,1.8-.32,16.38,16.38,0,0,0,1.8-.62l-.06-.15-.09.13.12.09-.07,2.17h0c0,1.27-.05,2.82-.05,4.67v2.87c0,1.08,0,1.89,0,2.43,0,1.34.05,2.14.06,2.43a3.16,3.16,0,0,0,0,.35,2.14,2.14,0,0,0,0,.23l.15-.06-.15.05a.49.49,0,0,0,.14.21l.1-.12-.11.11a.77.77,0,0,0,.35.17l0-.16,0,.15.11,0,.83.07v-.16h0l0-.16-.65-.05-.17,0h-.07a.43.43,0,0,1-.21-.08h0l0-.07h0a1.12,1.12,0,0,1,0-.15c0-.08,0-.19,0-.33s0-1.08,0-2.42c0-.53,0-1.34,0-2.42V317.5c0-1.84,0-3.4,0-4.67h0l.08-2.34-.33-.24-.08,0a17.37,17.37,0,0,1-1.77.61,14.27,14.27,0,0,1-1.76.31l-.14,0v1.12h.16l.53,0,.25,0,0-.16,0,.16a.5.5,0,0,1,.27.1h0a.09.09,0,0,1,0,.06l.15-.07-.15.06,0,.08c0,.14,0,.41.06.8q.06,1.46.06,3.21v3.69c0,.92,0,2,0,3.16,0,.59,0,1.06,0,1.41s0,.59,0,.68h0a.67.67,0,0,1-.06.19.29.29,0,0,1-.13.08l0,.15,0-.15a1.77,1.77,0,0,1-.31,0l-.68,0h-.15v1.21h.17q1.51-.09,2.73-.09c.81,0,1.59,0,2.33.09l.18,0v-1.22h-.15Z" transform="translate(-54.43 -31.65)"/><path class="cls-3" d="M542.68,325.26l-.4,1.1a5.5,5.5,0,0,1-1.51.83,4.54,4.54,0,0,1-1.33.19,4.45,4.45,0,0,1-1.57-.26,3.43,3.43,0,0,1-1.15-.71,4.35,4.35,0,0,1-.85-1.1,5,5,0,0,1-.52-1.5,9.66,9.66,0,0,1-.16-1.85,9.91,9.91,0,0,1,.31-2.62,3.25,3.25,0,0,1,.5-1.17,7.43,7.43,0,0,1,.94-.84,7.86,7.86,0,0,1,1.09-.8,2.92,2.92,0,0,1,1.48-.35,3.05,3.05,0,0,1,2,.62,3.34,3.34,0,0,1,1.09,1.61,7.4,7.4,0,0,1,.32,2.36,5.82,5.82,0,0,1,0,.6,4.59,4.59,0,0,1-.68.2,5.68,5.68,0,0,1-.82.16c-.45,0-1,.07-1.78.08l-1.22,0h-.85a4.76,4.76,0,0,0,.88,2.8,2.45,2.45,0,0,0,2,1,2.85,2.85,0,0,0,.94-.14,5.37,5.37,0,0,0,1.13-.57Zm-2.14-4.64a5,5,0,0,0-.38-2.49,1.29,1.29,0,0,0-1.12-.71,1.34,1.34,0,0,0-1.15.74,4.62,4.62,0,0,0-.43,2.46,10.33,10.33,0,0,0,1.76.1A7,7,0,0,0,540.54,320.62Z" transform="translate(-54.43 -31.65)"/><path class="cls-3" d="M542.68,325.26l-.15-.06-.4,1.1.15.06-.1-.13a5.05,5.05,0,0,1-1.47.8l.06.16,0-.16a4.17,4.17,0,0,1-1.28.18,4.31,4.31,0,0,1-1.51-.24,3.3,3.3,0,0,1-1.1-.68,4.21,4.21,0,0,1-.82-1.05,4.74,4.74,0,0,1-.5-1.46,9.34,9.34,0,0,1-.16-1.82,9.6,9.6,0,0,1,.31-2.58h0a3.11,3.11,0,0,1,.47-1.11,4,4,0,0,1,.3-.3l.61-.51a9.64,9.64,0,0,1,1.07-.8h0a2.79,2.79,0,0,1,1.4-.33,2.87,2.87,0,0,1,1.87.59,3.16,3.16,0,0,1,1,1.53,7.34,7.34,0,0,1,.31,2.31,5.72,5.72,0,0,1,0,.59h.16l-.06-.15a3.59,3.59,0,0,1-.66.2,4.34,4.34,0,0,1-.79.15h0c-.44.05-1,.07-1.76.08h-2.24v.17a4.94,4.94,0,0,0,.91,2.89,2.62,2.62,0,0,0,2.12,1.08,3.16,3.16,0,0,0,1-.15,5.52,5.52,0,0,0,1.17-.59l-.09-.13-.13.09.21.31.14-.09-.15-.06.15.06.13-.09-.3-.44-.13.08a5.4,5.4,0,0,1-1.1.56,2.77,2.77,0,0,1-.89.13,2.29,2.29,0,0,1-1.87-1,4.61,4.61,0,0,1-.84-2.7h-.16V322h2.07c.74,0,1.34,0,1.79-.08v0a5.61,5.61,0,0,0,.85-.16,4,4,0,0,0,.7-.21l.1,0v-.1a6,6,0,0,0,0-.61,8.09,8.09,0,0,0-.32-2.41,3.6,3.6,0,0,0-1.15-1.68,3.19,3.19,0,0,0-2.07-.66,3.27,3.27,0,0,0-1.56.36h0a9.67,9.67,0,0,0-1.12.83c-.25.2-.45.38-.61.52a2.67,2.67,0,0,0-.34.34,3.25,3.25,0,0,0-.53,1.22h0a11.23,11.23,0,0,0-.16,4.55,5.06,5.06,0,0,0,.54,1.55,4.44,4.44,0,0,0,.88,1.14,3.68,3.68,0,0,0,1.21.74,4.93,4.93,0,0,0,3,.07h0a5.47,5.47,0,0,0,1.56-.86l0,0,.44-1.22-.05-.07Zm-2.14-4.64h.16v-.28a4.71,4.71,0,0,0-.41-2.31h0a1.78,1.78,0,0,0-.54-.58,1.33,1.33,0,0,0-.71-.2,1.32,1.32,0,0,0-.72.21,1.77,1.77,0,0,0-.57.61,4.5,4.5,0,0,0-.46,2.3,2.18,2.18,0,0,0,0,.25v.13l.13,0a10.83,10.83,0,0,0,1.79.1,7.37,7.37,0,0,0,1.35-.1l.13,0v-.13h-.16l0-.15a7.63,7.63,0,0,1-1.29.09,11.22,11.22,0,0,1-1.73-.09l0,.15h.16a1.93,1.93,0,0,1,0-.24,4.28,4.28,0,0,1,.41-2.14,1.63,1.63,0,0,1,.47-.5,1,1,0,0,1,.55-.16,1,1,0,0,1,.54.15,1.48,1.48,0,0,1,.44.48l.14-.08-.14.08a4.46,4.46,0,0,1,.36,2.14v.27h.16l0-.15Z" transform="translate(-54.43 -31.65)"/><polygon class="cls-3" points="500.88 286.62 504.86 286.62 504.86 288.1 500.88 288.1 500.88 292.56 499.53 292.56 499.53 288.1 495.55 288.1 495.55 286.62 499.53 286.62 499.53 282.11 500.88 282.11 500.88 286.62"/><polygon class="cls-3" points="500.88 286.62 500.88 287.05 504.43 287.05 504.43 287.67 500.45 287.67 500.45 292.13 499.96 292.13 499.96 287.67 495.98 287.67 495.98 287.05 499.96 287.05 499.96 282.54 500.45 282.54 500.45 287.05 500.88 287.05 500.88 286.62 501.31 286.62 501.31 281.68 499.1 281.68 499.1 286.19 495.12 286.19 495.12 288.53 499.1 288.53 499.1 292.99 501.31 292.99 501.31 288.53 505.29 288.53 505.29 286.19 500.88 286.19 500.88 286.62 501.31 286.62 500.88 286.62"/><path class="cls-3" d="M566.4,326a7.05,7.05,0,0,0,1.21-.12.4.4,0,0,0,.17-.15,1.17,1.17,0,0,0,.11-.41c0-.29.08-1,.12-2.06,0-.62,0-1.43,0-2.42v-3.59l0-3.26a7.47,7.47,0,0,0,0-1.07.88.88,0,0,0-.13-.36.6.6,0,0,0-.28-.19,8,8,0,0,0-1.15-.14v-.94c.76,0,1.32.07,1.68.07l1.3,0,.82,0q1.86,3,4.48,6.94,1.89,2.83,3.14,4.43v-2.58q0-6-.11-7.09a.9.9,0,0,0-.16-.54,2.74,2.74,0,0,0-1.4-.22v-.94c.73,0,1.4.07,2,.07s1.35,0,2.29-.07v.94a2.89,2.89,0,0,0-1.3.2.29.29,0,0,0-.1.17,15.83,15.83,0,0,0-.18,2.56c0,1.33,0,2.31,0,2.95q0,7.44.12,9l-.12.1L577.3,327q-2.89-4-8.22-12.13v5.57c0,1.16,0,2.36.06,3.62a12.09,12.09,0,0,0,.1,1.58.66.66,0,0,0,.12.22.61.61,0,0,0,.31.11,6.11,6.11,0,0,0,.85.09h.18v.91l-1.94,0c-.58,0-1.37,0-2.36.06Z" transform="translate(-54.43 -31.65)"/><path class="cls-3" d="M566.4,326v.16l.84-.06.25,0,.17,0h0a.55.55,0,0,0,.23-.2h0a.6.6,0,0,0,.08-.2,1.7,1.7,0,0,0,.06-.28h0c0-.3.08-1,.12-2.07h0c0-.62,0-1.43,0-2.42v-3.59h0l0-3.25a9.62,9.62,0,0,0-.06-1.1,1.1,1.1,0,0,0-.16-.43.72.72,0,0,0-.36-.24,2.09,2.09,0,0,0-.42-.07c-.19,0-.45-.05-.77-.08v.16h.16v-.94h-.16v.16c.76,0,1.32.07,1.69.07h0l1.31,0,.82,0v-.16l-.13.08q1.84,3,4.48,7,1.89,2.83,3.14,4.44l.29.37v-3.05c0-2,0-3.61,0-4.79s0-1.95-.08-2.32l-.16,0h.16a1.89,1.89,0,0,0-.06-.38.74.74,0,0,0-.15-.26.54.54,0,0,0-.22-.13,4.68,4.68,0,0,0-1.29-.14v.16h.16v-.94h-.16v.16c.73,0,1.41.07,2,.07s1.36,0,2.29-.07v-.16h-.16v.94h.16v-.16a6.42,6.42,0,0,0-.89.07,1,1,0,0,0-.5.17l.1.12-.1-.13a.54.54,0,0,0-.16.26,6.56,6.56,0,0,0-.11,1c0,.43,0,1-.07,1.64,0,1.34,0,2.32,0,3,0,5,0,8,.12,9.05l.16,0-.11-.12-.11.1.1.12,0-.15c-.51-.11-1-.2-1.54-.29l0,.15.13-.09q-2.89-4-8.21-12.13l-.3-.45v6.11c0,1.16,0,2.37.06,3.62,0,.44,0,.79,0,1a3.76,3.76,0,0,0,.07.57h0a.64.64,0,0,0,.16.29.69.69,0,0,0,.39.16,6.29,6.29,0,0,0,.88.09h.19V326h-.16v.91h.16v-.16l-1.94,0q-.87,0-2.37.06V327h.16v-1h-.16v0h-.16v1.12h.17c1,0,1.77-.06,2.35-.06l1.93,0h.17v-1.24h-.34a6.05,6.05,0,0,1-.83-.09c-.13,0-.2-.05-.21-.07a.27.27,0,0,1-.08-.14h0a3.66,3.66,0,0,1-.06-.51c0-.26,0-.6,0-1,0-1.25-.06-2.45-.06-3.61v-5.57h-.16l-.13.08q5.31,8.1,8.22,12.15l0,.05h.06l1.53.29.08,0,.17-.15.07-.06v-.08c-.08-1-.12-4.06-.12-9,0-.64,0-1.62,0-2.95,0-.66,0-1.21.07-1.63a6.55,6.55,0,0,1,.1-.89c0-.05,0-.07,0-.08h0a1,1,0,0,1,.35-.1,7.8,7.8,0,0,1,.85-.06h.16v-1.26h-.17q-1.4.06-2.28.06c-.61,0-1.27,0-2-.06H576v1.27h.16a9,9,0,0,1,.92.06l.26.06.11.06a.3.3,0,0,1,.06.12,1.82,1.82,0,0,1,0,.31h0c0,.34.06,1.11.08,2.29s0,2.77,0,4.78v2.58h.16l.13-.09c-.83-1.07-1.88-2.54-3.14-4.43q-2.62-3.93-4.47-6.94l-.05-.08-.92,0v0l-1.3,0v0c-.35,0-.91,0-1.67-.06h-.17v1.26h.15l.75.07a2.17,2.17,0,0,1,.36.07.36.36,0,0,1,.2.12.64.64,0,0,1,.1.3,6.76,6.76,0,0,1,.05,1l0,3.26h0v3.59c0,1,0,1.8,0,2.41h0c0,1.09-.09,1.78-.12,2.05l.16,0-.16,0a1.11,1.11,0,0,1-.05.24.19.19,0,0,1,0,.1h0a.19.19,0,0,1-.09.09l.06.15-.05-.15-.11,0c-.17,0-.53.06-1.06.09h-.15V326Z" transform="translate(-54.43 -31.65)"/><path class="cls-3" d="M581.93,318v-.85a8.51,8.51,0,0,0,1.55-.26,14.68,14.68,0,0,0,2-.71l.13.12c-.09,1.48-.13,2.85-.13,4.1v1.25c0,1.07,0,1.78.06,2.14a1.92,1.92,0,0,0,.43,1.07,1.23,1.23,0,0,0,.91.35,1.53,1.53,0,0,0,1.09-.42,2.49,2.49,0,0,0,.61-.86,4.47,4.47,0,0,0,.1-1.21v-3.51a2.69,2.69,0,0,0-.09-.93.26.26,0,0,0-.17-.15,6.47,6.47,0,0,0-1.1-.13v-.85q1.4-.22,1.89-.36a16.93,16.93,0,0,0,1.71-.61l.17.12-.1,2.06c-.05,1.46-.07,2.28-.07,2.45v2.3a23.23,23.23,0,0,0,.08,2.53.46.46,0,0,0,.13.28,3.52,3.52,0,0,0,1.11.17V327l-1.85-.05-1.7.05-.06-.09,0-.86c0-.14,0-.43,0-.86-.23.23-.43.44-.61.64l-1,1.2a3.11,3.11,0,0,1-1.25.28,2.36,2.36,0,0,1-1.9-.83,3.36,3.36,0,0,1-.69-2.21c0-.11,0-.52,0-1.24,0-.38,0-.88,0-1.48l0-2.36a2.58,2.58,0,0,0-.07-.81.45.45,0,0,0-.22-.23A3.46,3.46,0,0,0,581.93,318Z" transform="translate(-54.43 -31.65)"/><path class="cls-3" d="M581.93,318h.16v-.85h-.16v.16a8.68,8.68,0,0,0,1.58-.26,16,16,0,0,0,2-.72l-.06-.15-.11.11.12.13.12-.12h-.16c-.09,1.48-.13,2.85-.13,4.11v1.25q0,1.61.06,2.16h0a2.09,2.09,0,0,0,.48,1.16,1.33,1.33,0,0,0,1,.4,1.63,1.63,0,0,0,1.2-.46,2.67,2.67,0,0,0,.65-.93h0a2.27,2.27,0,0,0,.09-.49c0-.21,0-.46,0-.77v-3.51h0c0-.26,0-.47,0-.63l0-.21a.75.75,0,0,0,0-.16l-.15.07.15-.06a.44.44,0,0,0-.26-.24l-.16,0c-.18,0-.5-.06-1-.1V318h.16v-.85h-.16l0,.16c.93-.15,1.56-.27,1.91-.36s.91-.3,1.72-.62l-.06-.15-.1.13.1.07-.09,2h0c-.05,1.46-.07,2.27-.07,2.45v2.3c0,.68,0,1.24,0,1.66a7.1,7.1,0,0,0,.06.9h0a.63.63,0,0,0,.19.38h0a.53.53,0,0,0,.17.08,6.59,6.59,0,0,0,1,.12v-.16h-.16v.73l-1.69-.05-1.61.05,0,0-.13.09h.16l.06-.86h0v-1.26l-.27.28c-.23.23-.44.44-.62.64h0l-1,1.2.12.11-.07-.15a2.78,2.78,0,0,1-1.18.27,2.21,2.21,0,0,1-1.78-.78,3.16,3.16,0,0,1-.65-2.1c0-.11,0-.52,0-1.24h0c0-.38,0-.87,0-1.48h0l0-2.36h0c0-.22,0-.4,0-.54a1.3,1.3,0,0,0-.06-.33A.65.65,0,0,0,583,318l-.17-.05a7.73,7.73,0,0,0-.92-.09V318h0v.16l.68.06.2,0,.08,0a.29.29,0,0,1,.14.15,1,1,0,0,1,0,.23c0,.13,0,.3,0,.52h0l0,2.36h0c0,.6,0,1.1,0,1.48h0c0,.72,0,1.13,0,1.25a3.49,3.49,0,0,0,.73,2.31,2.51,2.51,0,0,0,2,.89,3.1,3.1,0,0,0,1.32-.3h0l1-1.23-.13-.1.12.1c.17-.19.38-.4.61-.63l-.12-.11h-.16c0,.43,0,.72,0,.85h0l0,.92.09.14.05.07,1.78-.06,2,.06v-1.21h-.15c-.31,0-.56,0-.73-.07l-.21,0-.09,0-.09.13.1-.13s-.05-.06-.07-.18h0a5.75,5.75,0,0,1-.06-.85c0-.42,0-1,0-1.65v-2.3c0-.16,0-1,.07-2.44h0l.1-2.15-.31-.22-.08,0c-.8.32-1.37.52-1.69.61s-.95.2-1.87.35l-.14,0v1.13h.15l.75.07.21,0h.08a.17.17,0,0,1,.1.08h0l0,.07a4.19,4.19,0,0,1,0,.78h0v1.59h0v1.92c0,.3,0,.55,0,.74a2.5,2.5,0,0,1-.07.41h0a2.37,2.37,0,0,1-.57.81,1.36,1.36,0,0,1-1,.37,1,1,0,0,1-.79-.3,1.78,1.78,0,0,1-.39-1h0c0-.34-.06-1-.06-2.12V320.4c0-1.25,0-2.61.13-4.09v-.07l-.18-.18-.07-.07-.1,0a15.07,15.07,0,0,1-2,.71,8.17,8.17,0,0,1-1.52.25h-.15v1.16h.15Z" transform="translate(-54.43 -31.65)"/><path class="cls-3" d="M593.55,318.46V318l.8-.64a3.07,3.07,0,0,0,.38-.34v-1.5c0-.53,0-1.2-.07-2l1.13-.48,1.14-.66.23.22-.09,1.17L597,315l-.08,2h.3a10.29,10.29,0,0,0,1.8-.11l-.15,1.51-.2,0-.88,0h-.87v3.74q0,1.72,0,2a1.27,1.27,0,0,0,.3.82,1,1,0,0,0,.76.3,2.35,2.35,0,0,0,.49,0,3.09,3.09,0,0,0,.47-.1l.15.46-.33.4-.69.89a2.68,2.68,0,0,1-.62.25,2.6,2.6,0,0,1-.56.06,2.08,2.08,0,0,1-1.64-.67,2.38,2.38,0,0,1-.59-1.66l0-3.7v-2.76h-.24C594.16,318.43,593.85,318.44,593.55,318.46Z" transform="translate(-54.43 -31.65)"/><path class="cls-3" d="M593.55,318.46h.16V318l.74-.59a4.4,4.4,0,0,0,.39-.35l0-.05v-1.57c0-.54,0-1.21-.07-2h-.16l.06.15c.58-.24,1-.4,1.14-.49h0l0,0,1.11-.64-.08-.14-.11.11.18.18-.09,1.09-.06,1.29h0l-.09,2.12h.47a10.75,10.75,0,0,0,1.83-.11l0-.16h-.16l-.15,1.51h.16l0-.15-.16,0v0l-.88,0h-1v3.9c0,1.16,0,1.83,0,2.06l.16,0h-.16a1.43,1.43,0,0,0,.34.92,1.12,1.12,0,0,0,.88.35v0h.17a3.27,3.27,0,0,0,.35,0,3.51,3.51,0,0,0,.49-.11l0-.15-.15,0,.12.37-.27.34h0c-.27.34-.5.63-.69.89l.12.1-.07-.15a2.21,2.21,0,0,1-.59.24,2.24,2.24,0,0,1-.52.06,2,2,0,0,1-1.52-.61,2.25,2.25,0,0,1-.55-1.56h0l0-3.7v-2.92h-.4c-.33,0-.65,0-1,0v.16h0v.16q.44,0,.93,0h.08v2.6h0l0,3.7h0a2.53,2.53,0,0,0,.63,1.77,2.26,2.26,0,0,0,1.76.72,2.32,2.32,0,0,0,.59-.07,2.36,2.36,0,0,0,.67-.26l0,0,0,0,.69-.88-.13-.1.13.1.38-.47-.22-.69-.15,0-.45.11H598a.79.79,0,0,1-.64-.24,1.16,1.16,0,0,1-.26-.73h0c0-.19,0-.88,0-2v-3.58h.71l.88,0h0l.23,0,.11,0,.19-1.84-.21,0a9.83,9.83,0,0,1-1.77.11h-.13l.07-1.79h0l.06-1.28.1-1.24-.38-.36-.1.06-.83.48-.22.13-.06,0h0l.07.14-.07-.15-1.12.48-.11.05v.11c0,.79.07,1.45.07,2V317h.16l-.11-.11a3.68,3.68,0,0,1-.37.32l-.86.69v.75h.17Z" transform="translate(-54.43 -31.65)"/><path class="cls-3" d="M605.42,326.12V327c-.68,0-1.43-.05-2.26-.05s-1.89,0-2.89.05v-.86a2.7,2.7,0,0,0,1-.12.37.37,0,0,0,.18-.19,2.32,2.32,0,0,0,.1-.81l0-1c0-.2,0-.54,0-1v-1.47c0-.67,0-1.47-.06-2.42a3.36,3.36,0,0,0-.07-.81.32.32,0,0,0-.16-.14,3.93,3.93,0,0,0-1-.11v-.87c1.09-.23,1.8-.4,2.14-.51a6.11,6.11,0,0,0,1.16-.54l.24.14,0,2.26c.39-.5.69-.92.9-1.24a4.39,4.39,0,0,1,.7-.89,1.27,1.27,0,0,1,.85-.27,1.33,1.33,0,0,1,.6.14l-.05,1.59c0,.86,0,1.36,0,1.49l-.37.14a1.67,1.67,0,0,0-.43-.51,1.23,1.23,0,0,0-.73-.24,1.21,1.21,0,0,0-.91.41,1.6,1.6,0,0,0-.45.83c0,.17,0,.8,0,1.9V323l0,1.52a6.71,6.71,0,0,0,0,1.06.51.51,0,0,0,.18.3,1.27,1.27,0,0,0,.62.16Z" transform="translate(-54.43 -31.65)"/><path class="cls-3" d="M605.42,326.12h-.16V327h.16v-.16c-.68,0-1.44-.05-2.27-.05s-1.9,0-2.9.05V327h.16v-.86h-.16v.16a2.66,2.66,0,0,0,1-.14l-.06-.14.06.14a.53.53,0,0,0,.27-.26h0a2.34,2.34,0,0,0,.11-.87h0l0-1h0c0-.21,0-.55,0-1v-1.47c0-.67,0-1.48-.05-2.43,0-.24,0-.43,0-.57a.79.79,0,0,0,0-.17.74.74,0,0,0,0-.14h0a.49.49,0,0,0-.24-.21l-.06.15.07-.15a1.46,1.46,0,0,0-.39-.08c-.17,0-.4,0-.69,0V318h.16v-.87h-.16l0,.16c1.09-.23,1.81-.4,2.16-.52a6.11,6.11,0,0,0,1.19-.55l-.08-.14-.08.14.16.09,0,2.64.29-.37c.39-.51.69-.92.91-1.26l-.14-.08.13.08a5.28,5.28,0,0,1,.67-.85h0a1.14,1.14,0,0,1,.75-.23,1.12,1.12,0,0,1,.53.12l.07-.14h-.16l0,1.59h0c0,.87,0,1.37,0,1.48l.16,0,0-.15-.38.14.06.15.13-.08a1.74,1.74,0,0,0-.47-.57,1.43,1.43,0,0,0-.82-.26,1.39,1.39,0,0,0-1,.46,1.77,1.77,0,0,0-.49.92h0a5.8,5.8,0,0,0,0,.62c0,.31,0,.75,0,1.3V323h0l0,1.52c0,.29,0,.52,0,.7a1.85,1.85,0,0,0,0,.39.69.69,0,0,0,.24.4.78.78,0,0,0,.29.13,3.23,3.23,0,0,0,.42.06V326l0,.16.74.09,0-.16h0l0-.16-.74-.09h0a1.49,1.49,0,0,1-.37-.06.72.72,0,0,1-.17-.06.36.36,0,0,1-.12-.22,1.55,1.55,0,0,1,0-.33c0-.18,0-.41,0-.69l0-1.53h0v-1.12c0-.55,0-1,0-1.3s0-.51,0-.57l-.16,0,.16,0a1.49,1.49,0,0,1,.41-.75,1,1,0,0,1,.79-.36,1,1,0,0,1,.63.21,1.47,1.47,0,0,1,.39.46l.07.12.59-.23v-.1c0-.14,0-.63.05-1.5h0l.06-1.69-.1-.05a1.5,1.5,0,0,0-.67-.15,1.43,1.43,0,0,0-1,.31h0a4.22,4.22,0,0,0-.73.92h0c-.2.32-.5.73-.88,1.23l.12.1H604l0-2.36-.4-.22-.08,0a6.5,6.5,0,0,1-1.13.53c-.33.1-1,.28-2.13.51l-.12,0v1.15h.15c.28,0,.5,0,.66,0l.29.05h0a.17.17,0,0,1,.08.06h0l0,0-.05,0h0l0,0-.05,0a.76.76,0,0,1,0,.22,3.6,3.6,0,0,1,0,.53c0,.94.06,1.75.06,2.41V323c0,.47,0,.8,0,1h0l0,1h0a2.49,2.49,0,0,1-.08.75l.14.06-.14-.07a.2.2,0,0,1-.11.11h0a2.39,2.39,0,0,1-.9.11h-.16v1.19h.16c1,0,2-.05,2.89-.05s1.58,0,2.25.05h.17V326l-.14,0Z" transform="translate(-54.43 -31.65)"/><path class="cls-3" d="M607.94,327v-.83a3.53,3.53,0,0,0,1.15-.19.6.6,0,0,0,.18-.4,31.51,31.51,0,0,0,.09-3.17c0-2.33,0-3.66-.08-4a.61.61,0,0,0-.12-.3,3,3,0,0,0-1.22-.15v-.85a15.51,15.51,0,0,0,2-.38,9,9,0,0,0,1.51-.62l.22.15c-.08,1.16-.11,2.25-.11,3.28v3.8a19.15,19.15,0,0,0,.07,2.31.37.37,0,0,0,.14.27,3.17,3.17,0,0,0,1.18.19V327c-.85,0-1.77,0-2.77,0S608.6,327,607.94,327Zm2.46-16.21a1.22,1.22,0,0,1,1,.5,2,2,0,0,1,0,2.43,1.18,1.18,0,0,1-1.94,0,1.87,1.87,0,0,1-.41-1.22,1.93,1.93,0,0,1,.4-1.21A1.22,1.22,0,0,1,610.4,310.77Z" transform="translate(-54.43 -31.65)"/><path class="cls-3" d="M607.94,327h.16v-.83h-.16v.16l.81-.09.25-.05a.89.89,0,0,0,.17-.08.72.72,0,0,0,.25-.51l-.16,0,.16,0c.06-.43.09-1.48.09-3.19,0-1.17,0-2.08,0-2.75q0-.5,0-.81a3.18,3.18,0,0,0,0-.45h0a1.42,1.42,0,0,0,0-.22.48.48,0,0,0-.12-.17h0a.46.46,0,0,0-.2-.09,4.22,4.22,0,0,0-1.12-.1V318h.16v-.85h-.16l0,.16a14.59,14.59,0,0,0,2.07-.39,9.21,9.21,0,0,0,1.53-.63l-.07-.14-.09.13.22.15.09-.13h-.16c-.08,1.16-.11,2.26-.11,3.29v3.8c0,.65,0,1.17,0,1.56a5.35,5.35,0,0,0,0,.78l.16,0-.16,0a1,1,0,0,0,.07.21.5.5,0,0,0,.15.17h0a1.55,1.55,0,0,0,.47.14,7,7,0,0,0,.78.07v-.16h-.16V327H613v-.16c-.86,0-1.78,0-2.78,0s-1.63,0-2.29,0V327h0v.16c.65,0,1.41,0,2.27,0s1.92,0,2.76,0h.17V326H613c-.31,0-.56,0-.75-.07a1.07,1.07,0,0,1-.35-.1l-.09.14.09-.14,0,0a.24.24,0,0,1,0-.12h0a5.64,5.64,0,0,1-.05-.73c0-.38,0-.9,0-1.55v-3.8c0-1,0-2.11.11-3.27v-.1l-.37-.25-.08.05a8.84,8.84,0,0,1-1.48.6,14.77,14.77,0,0,1-2,.38l-.14,0v1.15h.16a7.64,7.64,0,0,1,.8,0l.23,0,.09,0,.1-.13-.1.13h0a.44.44,0,0,1,.06.18h0c0,.07,0,.21,0,.41,0,.62.05,1.8.05,3.55s0,2.76-.09,3.15h0a.43.43,0,0,1-.12.29h0a.25.25,0,0,1-.09,0,7.05,7.05,0,0,1-1,.13l-.14,0v1.14H608Zm2.46-16.21v.16a1,1,0,0,1,.84.44,1.87,1.87,0,0,1,0,2.23,1,1,0,0,1-.84.45,1.07,1.07,0,0,1-.85-.45,1.91,1.91,0,0,1,0-2.23,1,1,0,0,1,.85-.44v-.32a1.38,1.38,0,0,0-1.1.56,2.19,2.19,0,0,0,0,2.63,1.35,1.35,0,0,0,2.2,0,2.23,2.23,0,0,0,0-2.63,1.39,1.39,0,0,0-1.1-.56Z" transform="translate(-54.43 -31.65)"/><path class="cls-3" d="M614.31,318.46V318l.81-.64a3.92,3.92,0,0,0,.37-.34v-1.5c0-.53,0-1.2-.07-2l1.13-.48,1.14-.66.23.22-.09,1.17-.06,1.28-.08,2h.3a10.29,10.29,0,0,0,1.8-.11l-.15,1.51-.2,0-.88,0h-.87v3.74q0,1.72,0,2a1.27,1.27,0,0,0,.3.82,1,1,0,0,0,.77.3,2.28,2.28,0,0,0,.48,0,3.18,3.18,0,0,0,.48-.1l.14.46-.32.4c-.27.34-.5.63-.69.89a2.92,2.92,0,0,1-.63.25,2.6,2.6,0,0,1-.56.06,2.08,2.08,0,0,1-1.64-.67,2.43,2.43,0,0,1-.59-1.66l0-3.7v-2.76h-.24C614.92,318.43,614.61,318.44,614.31,318.46Z" transform="translate(-54.43 -31.65)"/><path class="cls-3" d="M614.31,318.46h.16V318l.75-.59.39-.35,0-.05v-1.57c0-.54,0-1.21-.07-2h-.16l.06.15c.58-.24,1-.4,1.14-.49h0l0,0,1.11-.64-.08-.14-.11.11.18.18-.09,1.09-.06,1.29h0l-.09,2.12H618a10.75,10.75,0,0,0,1.83-.11l0-.16h-.16l-.15,1.51h.16l0-.15-.16,0v0l-.88,0h-1v3.9c0,1.16,0,1.83,0,2.06l.16,0h-.16a1.43,1.43,0,0,0,.34.92,1.13,1.13,0,0,0,.89.35v0H619a3.27,3.27,0,0,0,.35,0,3.51,3.51,0,0,0,.49-.11l0-.15-.16,0,.12.37-.27.34h0l-.69.89.13.1-.08-.15a2.08,2.08,0,0,1-1.11.3,2,2,0,0,1-1.52-.61,2.25,2.25,0,0,1-.55-1.56h0l0-3.7v-2.92h-.4c-.33,0-.65,0-1,0v.16h0v.16q.45,0,.93,0h.08v2.6h0l0,3.7h0a2.58,2.58,0,0,0,.63,1.77,2.26,2.26,0,0,0,1.76.72,2.46,2.46,0,0,0,.6-.07,2.43,2.43,0,0,0,.66-.26l0,0,0,0,.69-.88-.12-.1.12.1.38-.47-.22-.69-.15,0-.45.11h-.46a.8.8,0,0,1-.65-.24,1.16,1.16,0,0,1-.26-.73h0c0-.19,0-.88,0-2v-3.58h.71l.88,0h0l.23,0,.12,0,.18-1.84-.21,0a9.76,9.76,0,0,1-1.77.11h-.13l.07-1.79h0l.06-1.28.1-1.24-.38-.36-.1.06-.83.48-.22.13-.06,0h0l.07.14-.07-.15c-.16.08-.54.24-1.12.48l-.11.05v.11c0,.79.07,1.45.07,2V317h.16l-.11-.11c-.12.12-.24.22-.36.32l-.87.69v.75h.17Z" transform="translate(-54.43 -31.65)"/><path class="cls-3" d="M621.09,327v-.83a3.46,3.46,0,0,0,1.15-.19.52.52,0,0,0,.18-.4,31.51,31.51,0,0,0,.09-3.17c0-2.33,0-3.66-.08-4a.47.47,0,0,0-.12-.3,3,3,0,0,0-1.22-.15v-.85a15.4,15.4,0,0,0,2-.38,8.87,8.87,0,0,0,1.5-.62l.22.15c-.07,1.16-.11,2.25-.11,3.28v3.8a21.8,21.8,0,0,0,.07,2.31.41.41,0,0,0,.15.27,3.05,3.05,0,0,0,1.17.19V327c-.85,0-1.77,0-2.77,0S621.75,327,621.09,327Zm2.46-16.21a1.2,1.2,0,0,1,1,.5,2,2,0,0,1,0,2.43,1.19,1.19,0,0,1-1,.51,1.2,1.2,0,0,1-1-.51,2,2,0,0,1,0-2.43A1.2,1.2,0,0,1,623.55,310.77Z" transform="translate(-54.43 -31.65)"/><path class="cls-3" d="M621.09,327h.16v-.83h-.16l0,.16.8-.09.25-.05a1,1,0,0,0,.18-.08.75.75,0,0,0,.24-.51l-.16,0,.16,0c.06-.43.09-1.48.09-3.19,0-1.17,0-2.08,0-2.75q0-.5,0-.81t0-.45h0a1.41,1.41,0,0,0-.06-.22.62.62,0,0,0-.11-.17h0a.46.46,0,0,0-.2-.09,4.22,4.22,0,0,0-1.12-.1V318h.16v-.85h-.16l0,.16a14.31,14.31,0,0,0,2.07-.39,9.28,9.28,0,0,0,1.54-.63l-.08-.14-.09.13.22.15.09-.13h-.16c-.07,1.16-.11,2.26-.11,3.29v3.8c0,.65,0,1.17,0,1.56a4.93,4.93,0,0,0,.06.78l.15,0-.15,0a.48.48,0,0,0,.07.21.39.39,0,0,0,.14.17h0a1.53,1.53,0,0,0,.48.14,6.59,6.59,0,0,0,.78.07v-.16H626V327h.16v-.16c-.85,0-1.78,0-2.78,0s-1.62,0-2.28,0V327h0v.16c.65,0,1.41,0,2.27,0s1.92,0,2.77,0h.16V326h-.15c-.31,0-.56,0-.74-.07a1.16,1.16,0,0,1-.36-.1l-.08.14.08-.14,0,0a.4.4,0,0,1,0-.12h0a5.64,5.64,0,0,1-.05-.73c0-.38,0-.9,0-1.55v-3.8c0-1,0-2.11.11-3.27v-.1l-.37-.25-.09.05a8.84,8.84,0,0,1-1.48.6,14.46,14.46,0,0,1-2,.38l-.14,0v1.15h.16a8,8,0,0,1,.81,0l.23,0,.08,0,.1-.13-.1.13h0a.5.5,0,0,1,0,.18h0c0,.07,0,.21,0,.41,0,.62.05,1.8.05,3.55a30.72,30.72,0,0,1-.09,3.15h0c0,.17-.07.26-.12.29h0l-.09,0a7.57,7.57,0,0,1-1,.13l-.15,0v1.14h.17Zm2.46-16.21v.16a1.06,1.06,0,0,1,.85.44,1.91,1.91,0,0,1,0,2.23,1.07,1.07,0,0,1-.85.45,1.06,1.06,0,0,1-.84-.45,1.68,1.68,0,0,1-.37-1.12,1.74,1.74,0,0,1,.36-1.11,1.06,1.06,0,0,1,.85-.44v-.32a1.39,1.39,0,0,0-1.1.56,2.06,2.06,0,0,0-.43,1.31,2,2,0,0,0,.44,1.32,1.36,1.36,0,0,0,1.09.57,1.37,1.37,0,0,0,1.1-.57,2.23,2.23,0,0,0,0-2.63,1.39,1.39,0,0,0-1.1-.56Z" transform="translate(-54.43 -31.65)"/><path class="cls-3" d="M627.82,321.7a8.36,8.36,0,0,1,.52-3.15,3.92,3.92,0,0,1,1.56-1.89,4.6,4.6,0,0,1,2.42-.63,3.78,3.78,0,0,1,3.16,1.36,6.26,6.26,0,0,1,1.08,4,9.63,9.63,0,0,1-.32,2.62,5.05,5.05,0,0,1-.84,1.79,4,4,0,0,1-1.11,1,4.33,4.33,0,0,1-2.24.59,3.71,3.71,0,0,1-3.13-1.44A6.94,6.94,0,0,1,627.82,321.7Zm2.49-.54a9.26,9.26,0,0,0,.7,4.24,1.45,1.45,0,0,0,1.32.84,1.35,1.35,0,0,0,1.17-.63,6.53,6.53,0,0,0,.57-3.3,16.63,16.63,0,0,0-.22-2.94,3.55,3.55,0,0,0-.68-1.7,1.39,1.39,0,0,0-1.07-.48,1.36,1.36,0,0,0-.94.35,2.33,2.33,0,0,0-.63,1.19A9.91,9.91,0,0,0,630.31,321.16Z" transform="translate(-54.43 -31.65)"/><path class="cls-3" d="M627.82,321.7H628a8,8,0,0,1,.51-3.09,3.71,3.71,0,0,1,1.5-1.81,4.42,4.42,0,0,1,2.33-.61,3.66,3.66,0,0,1,3,1.3,6.1,6.1,0,0,1,1,3.87,9.69,9.69,0,0,1-.31,2.58,5.07,5.07,0,0,1-.81,1.73,4,4,0,0,1-1.07,1h0a4.14,4.14,0,0,1-2.16.56,3.51,3.51,0,0,1-3-1.37A6.78,6.78,0,0,1,628,321.7h-.32a7.07,7.07,0,0,0,1.13,4.33,3.89,3.89,0,0,0,3.26,1.51,4.57,4.57,0,0,0,2.32-.61h0a4.22,4.22,0,0,0,1.16-1.06,5.34,5.34,0,0,0,.87-1.84,10.07,10.07,0,0,0,.32-2.67,6.34,6.34,0,0,0-1.12-4.07,4,4,0,0,0-3.28-1.42,4.71,4.71,0,0,0-2.5.66,4,4,0,0,0-1.63,2,8.57,8.57,0,0,0-.53,3.22Zm2.49-.54h-.16a9.45,9.45,0,0,0,.72,4.32,1.81,1.81,0,0,0,.62.69,1.67,1.67,0,0,0,1.58.06,1.57,1.57,0,0,0,.56-.53,6.55,6.55,0,0,0,.6-3.39,15.88,15.88,0,0,0-.23-3,3.58,3.58,0,0,0-.71-1.79,1.6,1.6,0,0,0-2.24-.14,2.51,2.51,0,0,0-.67,1.26,9.94,9.94,0,0,0-.23,2.48h.32a9.49,9.49,0,0,1,.22-2.39,2.2,2.2,0,0,1,.57-1.11,1.25,1.25,0,0,1,.84-.31,1.2,1.2,0,0,1,.95.43,3.28,3.28,0,0,1,.64,1.62,16.27,16.27,0,0,1,.22,2.91,6.4,6.4,0,0,1-.54,3.21,1.36,1.36,0,0,1-.45.42,1.12,1.12,0,0,1-.59.14,1.22,1.22,0,0,1-.67-.18,1.43,1.43,0,0,1-.51-.57,9.19,9.19,0,0,1-.68-4.17Z" transform="translate(-54.43 -31.65)"/><path class="cls-3" d="M648.57,326.12V327c-.81-.05-1.48-.07-2-.07A13.78,13.78,0,0,0,645,327l-.16-.2c0-.15,0-.8.11-1.94l0-1.83v-.89a17,17,0,0,0-.12-2.57,1.87,1.87,0,0,0-.5-1,1.37,1.37,0,0,0-1-.38,1.51,1.51,0,0,0-1,.38,1.71,1.71,0,0,0-.52.75,12.33,12.33,0,0,0-.05,1.79V323c0,.54,0,1.21,0,2a2,2,0,0,0,.07.69.37.37,0,0,0,.11.18,1.23,1.23,0,0,0,.42.17c.08,0,.33.05.76.09V327c-.65,0-1.45,0-2.4,0s-1.94,0-2.54,0v-.86a2.6,2.6,0,0,0,1-.12.35.35,0,0,0,.19-.19,2.32,2.32,0,0,0,.1-.81l0-1c0-.2,0-.54,0-1v-1.47c0-.67,0-1.47-.06-2.42a4.08,4.08,0,0,0-.07-.81.36.36,0,0,0-.16-.14,3.93,3.93,0,0,0-1-.11v-.87c1.08-.23,1.8-.4,2.14-.51a6.11,6.11,0,0,0,1.16-.54l.24.14v1.8l1.63-1.64a3,3,0,0,1,.5-.19,2.09,2.09,0,0,1,.56-.05,3,3,0,0,1,1.44.27,2.41,2.41,0,0,1,.81.75,3.35,3.35,0,0,1,.47,1,7.49,7.49,0,0,1,.13,1.66c0,.86,0,1.4,0,1.63V323c0,1.26,0,2,0,2.34a1,1,0,0,0,.17.57.85.85,0,0,0,.53.17Z" transform="translate(-54.43 -31.65)"/><path class="cls-3" d="M648.57,326.12h-.16V327h.16v-.16c-.81-.05-1.48-.08-2-.08a13.92,13.92,0,0,0-1.56.08l0,.16.12-.1-.16-.2-.12.1H645c0-.16.05-.8.11-1.94h0l.05-1.84v-.89a15.92,15.92,0,0,0-.13-2.6,2,2,0,0,0-.54-1.08,1.54,1.54,0,0,0-1.12-.42,1.62,1.62,0,0,0-1.14.42,1.8,1.8,0,0,0-.57.83.84.84,0,0,0,0,.19c0,.24,0,.66,0,1.27v.38h0V323c0,.54,0,1.21,0,2h0q0,.27,0,.45a1.05,1.05,0,0,0,.06.3h0a.44.44,0,0,0,.17.25l.09-.13-.1.13a1.34,1.34,0,0,0,.49.2h0l.26,0,.51.06,0-.16H643V327h.16v-.16c-.66,0-1.46,0-2.41,0s-1.94,0-2.55,0V327h.16v-.86h-.16v.16a2.66,2.66,0,0,0,1-.14l-.07-.14.07.14a.57.57,0,0,0,.27-.26h0a2.58,2.58,0,0,0,.11-.87h0l0-1h0c0-.21,0-.55,0-1v-1.47q0-1-.06-2.43,0-.36,0-.57c0-.07,0-.12,0-.17a.74.74,0,0,0,0-.14h0a.49.49,0,0,0-.24-.21l-.06.15.07-.15a1.46,1.46,0,0,0-.39-.08l-.69,0V318h.16v-.87h-.16l0,.16c1.09-.23,1.8-.4,2.16-.52a6.39,6.39,0,0,0,1.19-.55l-.08-.14-.08.14.16.09v2.1l1.91-1.91-.12-.12.07.15a2.18,2.18,0,0,1,.47-.19,3,3,0,0,1,.52,0,2.85,2.85,0,0,1,1.36.25,2.2,2.2,0,0,1,.76.7,3,3,0,0,1,.44,1,7,7,0,0,1,.13,1.62c0,.85,0,1.4,0,1.62h0v.33h0V323c0,1.26,0,2,.05,2.35a3,3,0,0,0,.07.4.58.58,0,0,0,.14.27.53.53,0,0,0,.26.15l.38.07h0l.49,0,0-.16h0l0-.16-.51-.06h0a1.42,1.42,0,0,1-.3-.06c-.08,0-.12,0-.13-.06a.38.38,0,0,1-.06-.14c0-.08,0-.2-.06-.34s0-1.07,0-2.33v-1.15h0v-.31h0c0-.24,0-.78,0-1.64a7.24,7.24,0,0,0-.14-1.7,3.13,3.13,0,0,0-.49-1.07,2.52,2.52,0,0,0-.86-.8,3.19,3.19,0,0,0-1.52-.29,2.53,2.53,0,0,0-.6.05,2.88,2.88,0,0,0-.53.21h0L642,317.67v-1.51l-.4-.22-.08,0a6.86,6.86,0,0,1-1.13.53c-.33.1-1,.28-2.13.51l-.12,0v1.15h.15c.28,0,.5,0,.66,0l.29.05h0s.06,0,.07.06h0l0,0,0,0h0l0,0,0,0a.76.76,0,0,1,0,.22c0,.13,0,.3,0,.53,0,.94.06,1.75.06,2.41V323c0,.47,0,.8,0,1h0l0,1h0a2.49,2.49,0,0,1-.08.75l.14.06-.14-.07a.2.2,0,0,1-.11.11h0a2.42,2.42,0,0,1-.9.11h-.16v1.19h.16c.6,0,1.45,0,2.54,0s1.74,0,2.39,0h.17V326l-.14,0-.51,0-.23,0,0,.16,0-.15a1,1,0,0,1-.35-.14h0a.32.32,0,0,1-.06-.11h0a.65.65,0,0,1,0-.22c0-.11,0-.25,0-.42h0c0-.79,0-1.46,0-2V321.1h0v-.37c0-.4,0-.72,0-1s0-.21,0-.28a.56.56,0,0,1,0-.13,1.45,1.45,0,0,1,.47-.68,1.3,1.3,0,0,1,.93-.34,1.2,1.2,0,0,1,.9.33,1.78,1.78,0,0,1,.45.91,17.65,17.65,0,0,1,.12,2.54V323h0l0,1.84h0c-.06,1.13-.1,1.78-.11,1.93v.06l.26.32h.09a13.28,13.28,0,0,1,1.52-.07c.51,0,1.17,0,2,.07h.17V326l-.14,0Z" transform="translate(-54.43 -31.65)"/></svg>